<svg width="1440" height="548" viewBox="0 0 1440 548" fill="none" xmlns="http://www.w3.org/2000/svg">
<rect width="1440" height="470" fill="#05633B"/>
<mask id="path-2-inside-1_24_3815" fill="white">
<path fill-rule="evenodd" clip-rule="evenodd" d="M288.562 401.493L281.177 430.566C296.059 430.796 304.008 429.631 314.526 428.289C318.901 427.731 341.037 423.723 343.012 421.581L346.343 420.689C349.141 419.44 352.071 418.396 354.772 417.143C358.492 415.415 361.978 413.461 365.799 411.667C366.755 411.345 367.746 410.659 368.93 410.025C371.488 408.649 374.477 406.972 376.532 405.956C379.551 404.469 382.603 402.93 385.603 401.409C389.68 399.339 401.915 394.234 406.069 394.302C407.532 394.053 408.845 393.909 409.97 393.158C414.79 392.938 418.625 392.123 423.784 392.26C433.161 392.501 440.056 394.072 447.576 397.139C449.662 397.993 451.708 399.104 453.984 400.163C455.04 400.658 456.681 401.354 458.24 402.23C461.372 403.994 464.727 406.156 466.081 406.382C468.659 406.818 470.824 406.536 469.672 405.346C465.376 401.721 461.807 398.457 457.649 395.564C453.345 392.565 448.873 390.118 444.317 388.012C438.717 385.425 434.106 383.62 429.312 382.824C423.308 381.828 416.899 382.783 409.181 384.134C407.948 384.349 401.498 385.881 393.701 388.494C385.422 391.264 375.731 395.672 366.694 399.018C363.406 400.234 350.751 405.062 337.978 408.376C329.115 410.676 320.177 412.091 314.326 411.708C311.149 411.504 308.595 411.079 307.751 409.328C319.057 407.235 328.453 405.569 339.548 401.687C345.254 399.685 350.675 397.202 356.371 394.965C361.31 393.025 366.099 391.113 371.129 389.226C371.537 389.079 381.432 385.227 390.948 381.947C400.434 378.676 410.498 375.463 420.602 374.782C428.922 374.215 437.296 375.529 445.279 378.398C450.474 380.258 457.944 384.87 463.575 389.929C468.561 394.401 472.57 398.6 474.411 400.321L475.357 398.344C474.346 397.23 473.553 395.596 472.485 393.98C470.866 391.535 468.982 389.152 465.395 385.134C464.044 383.624 462.352 381.995 460.174 380.094C457.798 378.323 455.831 376.37 453.556 374.738C441.763 366.28 427.438 364.414 412.684 365.771C400.565 366.886 387.974 370.09 377.681 374.417C370.852 377.283 365.079 381.184 358.398 384.414C347.535 389.656 335.519 394.144 322.126 396.964C312.827 398.919 302.155 401.651 288.562 401.493ZM373.55 351.614C365.603 356.1 354.702 362.443 344.973 368.028C331.032 376.027 324.504 378.984 308.102 380.174C303.435 380.514 298.827 380.627 293.717 381.201L290.44 394.093C297.452 393.834 305.212 393.937 313.142 392.97C319.891 392.145 326.503 390.566 332.729 388.73C343.908 385.425 358.618 378.639 371.615 372.186C376.337 369.841 381.6 368.033 385.305 365.754C406.794 356.829 415 354.59 428.691 356.364C446.323 358.633 463.248 370.375 475.14 383.321C476.74 385.054 478.173 386.852 479.866 389.022C479.923 388.164 479.425 387.039 478.876 385.729C478.344 384.468 478.066 383.018 474.468 375.931L471.591 370.68C470.186 368.56 469.219 366.743 468.065 365.08C466.102 362.261 463.957 359.783 460.939 356.57C455.531 350.806 447.532 344.753 439.475 341.404C437.165 340.443 433.487 339.216 427.76 338.426C426.666 338.276 424.779 337.816 422.292 337.669C404.824 336.658 388.407 343.219 373.55 351.614ZM484.847 379.185L485.216 1.13155C483.993 2.40859 484.457 1.75333 483.748 3.2831C476.096 19.8352 461.486 37.4584 448.091 49.3329C431.492 64.041 410.391 77.2326 397.798 91.248C388.892 101.159 385.458 111.845 385.512 122.257C385.589 135.653 390.68 145.57 397.801 153.371C405.946 162.296 417.098 168.193 432.286 168.641C441.615 168.91 451.597 166.969 459.075 165.898C462.637 165.343 466.971 163.241 469.599 162.959C469.539 182.773 466.772 217.381 444.801 224.337C426.774 230.063 410.514 221.678 395.014 212.884C394.931 212.403 394.903 210.932 395.212 208.859C396.399 200.873 397.814 193.349 398.384 185.173C399.403 170.637 394.152 158.443 384.926 149.529C379.706 144.484 373.746 140.103 365.593 137.877C357.695 135.719 350.018 135.534 342.837 136.31C307.255 140.111 293.761 162.959 266.506 189.893C257.389 198.897 245.477 208.479 234.846 215.375C230.231 218.369 225.781 220.947 221.105 223.786C226.073 228.992 232.145 232.711 237.355 236.665C250.993 247.006 262.651 257.306 277.009 275.134C288.481 289.373 300.097 307.605 313.267 320.133C319.235 325.803 325.464 329.847 328.565 331.506C336.159 335.579 343.896 337.677 352.262 337.958C357.524 338.136 363.051 337.862 368.956 336.098C374.932 334.31 381.967 330.327 386.606 326.192C405.654 309.253 407.513 282.342 401.366 259.046C400.791 256.849 399.595 254.457 399.523 252.138C399.509 251.643 399.569 251.115 399.773 250.64C401.478 250.873 402.577 251.948 403.879 252.541C409.518 255.096 412.953 256.877 420.378 261.786C431.131 269.418 436.568 275.239 442.366 284.181C446.03 289.837 449.55 297.094 452.042 303.34C458.409 319.289 463.06 340.349 463.968 349.378L484.847 379.185ZM435.2 403.487C426.068 402.828 416.063 403.598 407.032 404.613C399.368 405.472 390.866 407.79 383.443 409.971C381.134 410.645 379.062 411.66 376.665 412.302C375.111 412.675 374.466 412.777 373.283 413.708C370.617 414.558 366.289 416.353 361.929 418.279C358.227 419.912 354.292 421.508 351.631 422.553C345.506 424.952 339.106 427.215 332.717 429.328C319.582 433.674 306.934 436.221 289.34 435.194C286.603 435.033 282.979 434.828 280.205 434.394L277.178 446.304C279.519 446.388 281.454 445.872 283.997 445.607C287.29 445.266 290.972 445.055 294.82 444.488C301.555 443.491 308.87 442.562 316.142 440.963C331.02 437.677 345.869 433.081 356.208 430.014C369.293 426.12 381.79 420.95 394.823 417.67C404.986 415.106 419.191 412.888 429.738 412.443C450.432 411.56 453.183 415.158 462.471 415.37L463.643 412.659C458.791 409.799 455.722 407.846 452.629 406.734C447.893 405.037 443.994 404.122 435.2 403.487ZM216.33 325.317C210.689 293.764 210.653 263.839 215.069 230.622C216.434 220.381 219.245 209.669 221.501 199.611C222.683 194.356 225.189 188.277 226.549 182.523L227.494 180.374C227.933 177.42 229.652 173.397 231.586 168.886C244.312 139.174 257.889 116.053 275.04 94.6325C291.321 74.2934 307.688 59.7619 328.838 44.8559C343.29 32.9908 372.453 20.4463 389.969 13.783C406.009 7.68525 421.964 5.51892 438.693 2.40588C447.688 0.729009 476.987 -0.618871 484.58 0.295787C501.411 23.9766 499.926 23.0566 501.458 24.9996C502.771 26.6564 506.069 30.6787 527.548 51.1716C537.013 60.1804 548.151 67.1995 558.637 75.1974C564.68 79.8108 570.812 84.3319 575.777 89.9322C580.766 95.5672 583.91 101.962 585.391 109.354C589.297 128.852 583.204 148.449 567.188 160.482C557.578 167.701 546.57 170.669 534.729 170.049C520.963 169.33 514.68 167.674 502.355 165.382L518.79 219.214C526.14 225.82 536.525 227.131 546.098 225.719C558.343 223.913 562.831 220.076 571.544 216.894C572.581 216.31 573.493 215.735 574.477 215.226C575.256 214.82 576.114 214.463 576.968 214.064C577.163 213.093 576.667 212.084 575.954 211.06C571.07 192.108 567.662 175.602 578.47 158.152C580.02 155.652 581.981 153.319 583.935 151.121C592.291 141.705 601.894 136.319 614.382 134.815C632.338 132.67 650.928 137.734 665.303 148.744C666.218 149.454 668.327 151.117 670.369 152.941C679.24 160.856 686.907 169.769 695.074 178.459C710.572 194.955 728.052 209.954 747.786 221.04C749.775 222.159 751.375 223.155 752.239 223.804C752.676 224.137 752.828 224.505 752.856 224.551C751.415 225.913 749.249 226.94 747.196 228.423C717.157 250.147 700.867 270.204 678.853 298.589C670.88 308.863 664.045 318.286 653.732 326.418C638.515 338.423 617.617 344.272 598.989 337.074C595.969 335.904 592.959 334.683 590.284 332.866C576.023 323.155 568.699 311.258 565.308 297.462C564.335 293.5 564.362 289.29 564.473 284.905C564.6 279.57 564.937 273.956 565.842 268.229C566.363 264.943 568.675 257.536 569.912 254.18C566.363 254.665 562.184 256.053 557.831 258.728C553.027 261.674 547.342 265.665 542.726 270.253C530.866 282.048 525.373 293.597 518.843 308.438C518.343 309.937 517.351 312.879 516.107 316.593C515.233 319.202 514.107 322.207 513.445 325.355C512.156 331.506 510.769 338.133 509.556 343.302C508.263 348.81 507.191 352.676 507.582 352.732C507.768 352.758 511.554 348.45 514.98 345.586C518.304 342.81 527.676 339.333 531.88 338.304C536.585 336.735 541.968 335.887 547.531 335.887C553.811 335.889 560.332 336.958 566.363 338.453C571.052 339.616 579.767 342.38 587.44 346.087C597.022 350.723 607.073 356.656 616.591 362.559C622.779 366.394 629.225 369.908 635.16 373.424C649.949 382.252 658.854 380.103 675.683 380.004L678.959 393.251L656.02 391.688C648.836 391.103 632.361 387.646 625.647 384.709C618.755 382.021 611.987 377.695 604.834 373.789C600.491 371.421 595.848 369.175 591.422 367.473C582.966 364.214 572.143 360.259 561.813 358.159C555.147 356.802 548.647 356.358 543.225 356.845C540.574 357.108 536.683 358.004 533.138 359.082C531.106 359.697 529.126 360.323 527.698 361.076C526.275 361.739 520.426 364.299 519.695 365.014C513.695 367.886 503.463 375.952 497.071 384.368C495.193 386.844 493.691 389.311 492.638 391.708C492.092 392.957 491.72 394.198 491.541 395.418C491.458 395.991 491.33 396.568 491.402 397.139C491.402 397.212 492.882 398.765 493.634 399.048C494.476 399.363 494.784 398.154 494.939 397.959C495.569 397.154 496.002 396.268 496.575 395.406C501.874 387.489 510.721 378.16 518.952 373.406C524.918 369.963 531.18 366.874 537.853 365.495C548.808 363.233 561.874 363.864 574.112 367.119C584.26 369.813 594.84 374.685 603.997 379.512C606.608 380.891 611.474 383.72 616.086 385.79C619.679 387.402 623.267 389.013 626.862 390.628C630.566 391.574 634.067 393.294 637.991 394.595C642.773 396.185 648.029 397.395 652.965 398.489C662.478 400.604 671.923 400.91 680.843 400.876L687.62 428.262L651.502 428.489C646.392 428.04 639.825 425.95 632.496 423.481C625.818 421.225 618.439 418.701 612.009 415.782C605.191 412.685 599.155 409.287 594.828 406.751C586.625 401.949 580.383 398.585 573.299 396.272C567.061 394.234 559.836 392.987 554.428 392.392C548.654 391.753 546.496 392.062 538.462 392.265C531.033 392.225 521.452 392.081 537.932 386.836C545.732 384.356 559.409 383.703 567.83 385.226C569.45 385.221 588.63 392.245 590.157 392.84C593.016 393.286 600.134 396.253 603.315 397.361C615.89 401.738 629.156 406.805 642.096 409.554C644.554 410.077 646.363 410.605 648.196 410.652C652.755 410.625 656.325 411.321 660.864 409.708C651.858 407.417 642.827 405.847 634.422 403.026C631.232 401.956 627.663 401.013 624.612 399.697C622.198 398.658 619.755 397.74 617.462 396.772C605.451 391.718 592.644 386.119 579.907 381.634C573.781 379.475 567.864 377.29 561.936 376.12C551.53 374.066 541.268 374.019 531.031 377.548C520.302 381.247 511.296 386.641 504.096 393.836C501.34 396.665 499.094 399.021 496.336 401.85C496.498 410.1 499.571 414.28 506.259 414.69C510.389 412.398 513.489 409.981 516.737 408.292C519.211 407.003 526.441 404.696 529.163 404.021C537.636 401.905 543.665 401.409 552.31 401.568C563.389 401.78 573.598 404.12 583.125 407.729C590.384 410.485 597.14 414.11 604.349 417.378C610.564 420.196 617.055 422.837 623.676 425.236C637.888 429.788 645.969 432.037 660.449 434.568C669.077 436.075 680.617 435.531 689.38 435.37L691.879 445.484C684.8 445.785 674.482 444.692 664.853 443.525C652.501 442.024 640.973 440.665 628.779 438.179C621.71 436.577 611.593 434.838 601.379 432.156C592.886 429.921 581.581 426.683 571.034 424.015C557.335 420.545 539.078 417.599 525.064 417.862C520.319 417.951 515.607 418.548 510.294 419.043C509.219 420.633 508.49 422.533 507.641 424.479C505.434 429.512 502.815 435.186 498.512 439.026C495.838 441.23 493.075 442.947 488.964 444.163C482.983 445.929 478.489 445.239 474.522 443.33C471.377 441.813 468.445 439.604 466.121 436.673C463.132 432.909 460.764 428.207 458.194 423.749C450.089 425.081 417.481 430.059 386.876 435.48C375.579 437.483 362.567 439.393 349.72 441.754C334.369 444.585 317.189 447.615 303.657 449.703C296.504 450.802 290.374 451.723 286.048 452.38L275.348 454.013L287.605 467.918C319.83 462.594 356.525 456.588 388.765 450.858C407.837 447.468 426.954 444.021 445.891 440.176C448.665 442.371 453.089 449.913 457.587 453.734C463.002 458.622 468.506 462.103 474.883 463.154C478.307 463.717 481.729 464.281 485.153 464.841L485.286 446.742C487.475 446.055 489.439 445.749 491.199 445.278C495.43 444.148 498.796 442.448 501.862 440.338C505.379 437.917 508.449 434.922 510.82 431.292C512.193 429.195 513.104 426.994 514.29 424.468L522.836 425.278C580.004 434.507 637.012 444.374 694.055 454.277L697.706 469.023C690.426 468.283 683.169 466.883 675.676 465.692C663.29 463.718 650.474 461.67 637.594 459.483C609.713 454.756 581.109 450.24 555.056 445.85C544.519 444.045 534.471 442.353 523.914 440.757C522.43 444.204 519.859 447.265 516.966 450.037C512.752 454.087 507.605 457.662 502.054 460.165C496.45 462.69 490.423 464.141 485.275 464.884L485.256 547.812C457.889 548.557 440.851 547.078 424.408 543.608C411.965 540.983 389.463 535.203 377.521 529.807C369.675 526.125 361.17 522.758 354.04 518.806C345.173 513.896 336.927 508.836 328.747 503.344C324.818 500.71 320.956 497.688 317.211 494.815C311.216 490.229 304.658 484.687 298.446 478.744C294.709 475.175 291.317 471.196 287.605 467.918L271.094 470.276L275.348 454.013C273.738 452.034 272.121 450.028 270.51 447.955C267.082 443.55 263.662 439.002 260.787 434.608C250.866 419.423 241.414 402.573 234.223 385.853C228.885 373.444 224.376 360.78 221.232 347.632C219.939 342.233 217.243 330.412 216.33 325.317Z"/>
</mask>
<path d="M288.562 401.493L288.58 399.993L287.399 399.98L287.108 401.124L288.562 401.493ZM281.177 430.566L279.723 430.197L279.255 432.036L281.154 432.066L281.177 430.566ZM314.526 428.289L314.336 426.801L314.336 426.801L314.526 428.289ZM343.012 421.581L342.624 420.132L342.204 420.245L341.91 420.564L343.012 421.581ZM346.343 420.689L346.731 422.138L346.846 422.107L346.955 422.059L346.343 420.689ZM354.772 417.143L355.403 418.504L355.404 418.503L354.772 417.143ZM365.799 411.667L365.319 410.246L365.238 410.273L365.161 410.309L365.799 411.667ZM368.93 410.025L369.638 411.347L369.641 411.346L368.93 410.025ZM376.532 405.956L375.869 404.61L375.868 404.611L376.532 405.956ZM385.603 401.409L386.281 402.747L386.282 402.747L385.603 401.409ZM406.069 394.302L406.044 395.802L406.183 395.804L406.32 395.781L406.069 394.302ZM409.97 393.158L409.901 391.66L409.484 391.679L409.137 391.911L409.97 393.158ZM423.784 392.26L423.745 393.759L423.746 393.759L423.784 392.26ZM447.576 397.139L448.144 395.751L448.143 395.75L447.576 397.139ZM453.984 400.163L454.62 398.804L454.617 398.803L453.984 400.163ZM458.24 402.23L458.977 400.923L458.975 400.922L458.24 402.23ZM466.081 406.382L466.331 404.903L466.328 404.903L466.081 406.382ZM469.672 405.346L470.75 404.303L470.698 404.248L470.64 404.199L469.672 405.346ZM457.649 395.564L456.792 396.795L456.793 396.795L457.649 395.564ZM444.317 388.012L444.947 386.65L444.946 386.65L444.317 388.012ZM429.312 382.824L429.558 381.345L429.558 381.345L429.312 382.824ZM409.181 384.134L409.439 385.611L409.439 385.611L409.181 384.134ZM393.701 388.494L394.177 389.917L394.178 389.917L393.701 388.494ZM366.694 399.018L367.215 400.425L367.215 400.425L366.694 399.018ZM337.978 408.376L337.601 406.924L337.601 406.924L337.978 408.376ZM314.326 411.708L314.424 410.212L314.423 410.211L314.326 411.708ZM307.751 409.328L307.478 407.853L305.547 408.211L306.4 409.979L307.751 409.328ZM339.548 401.687L340.043 403.103L340.044 403.103L339.548 401.687ZM356.371 394.965L356.92 396.361L356.92 396.361L356.371 394.965ZM371.129 389.226L370.62 387.815L370.611 387.818L370.602 387.821L371.129 389.226ZM390.948 381.947L391.436 383.365L391.437 383.365L390.948 381.947ZM420.602 374.782L420.703 376.279L420.704 376.279L420.602 374.782ZM445.279 378.398L444.771 379.81L444.773 379.81L445.279 378.398ZM463.575 389.929L462.572 391.045L462.573 391.046L463.575 389.929ZM474.411 400.321L473.387 401.416L474.882 402.813L475.765 400.968L474.411 400.321ZM475.357 398.344L476.71 398.991L477.145 398.082L476.468 397.336L475.357 398.344ZM472.485 393.98L473.736 393.153L473.735 393.152L472.485 393.98ZM465.395 385.134L466.513 384.135L466.513 384.134L465.395 385.134ZM460.174 380.094L461.161 378.964L461.117 378.926L461.07 378.891L460.174 380.094ZM453.556 374.738L454.43 373.519L454.43 373.519L453.556 374.738ZM412.684 365.771L412.547 364.277L412.547 364.277L412.684 365.771ZM377.681 374.417L378.261 375.801L378.262 375.8L377.681 374.417ZM358.398 384.414L359.05 385.765L359.051 385.765L358.398 384.414ZM322.126 396.964L322.435 398.432L322.435 398.432L322.126 396.964ZM373.55 351.614L374.288 352.92L374.288 352.92L373.55 351.614ZM344.973 368.028L345.719 369.329L345.72 369.329L344.973 368.028ZM308.102 380.174L307.993 378.678L307.993 378.678L308.102 380.174ZM293.717 381.201L293.55 379.71L292.519 379.826L292.263 380.831L293.717 381.201ZM290.44 394.093L288.986 393.724L288.492 395.666L290.495 395.592L290.44 394.093ZM313.142 392.97L313.323 394.459L313.324 394.459L313.142 392.97ZM332.729 388.73L333.153 390.168L333.154 390.168L332.729 388.73ZM371.615 372.186L370.948 370.842L370.948 370.842L371.615 372.186ZM385.305 365.754L384.729 364.368L384.62 364.414L384.518 364.476L385.305 365.754ZM428.691 356.364L428.498 357.851L428.499 357.851L428.691 356.364ZM475.14 383.321L474.036 384.335L474.038 384.338L475.14 383.321ZM479.866 389.022L478.683 389.945L481.1 393.043L481.363 389.123L479.866 389.022ZM478.876 385.729L480.26 385.15L480.258 385.146L478.876 385.729ZM474.468 375.931L475.805 375.252L475.794 375.231L475.783 375.211L474.468 375.931ZM471.591 370.68L472.907 369.959L472.876 369.904L472.841 369.851L471.591 370.68ZM468.065 365.08L469.297 364.225L469.296 364.222L468.065 365.08ZM460.939 356.57L459.845 357.596L459.846 357.596L460.939 356.57ZM439.475 341.404L438.899 342.789L438.9 342.789L439.475 341.404ZM427.76 338.426L427.965 336.94L427.963 336.94L427.76 338.426ZM422.292 337.669L422.381 336.172L422.379 336.172L422.292 337.669ZM484.847 379.185L483.619 380.045L486.342 383.934L486.347 379.186L484.847 379.185ZM485.216 1.13155L486.716 1.13301L486.72 -2.60602L484.133 0.0938133L485.216 1.13155ZM483.748 3.2831L482.387 2.65255L482.386 2.65369L483.748 3.2831ZM448.091 49.3329L449.086 50.4556L449.086 50.4554L448.091 49.3329ZM397.798 91.248L398.914 92.2506L398.914 92.2505L397.798 91.248ZM385.512 122.257L384.012 122.264L384.012 122.265L385.512 122.257ZM397.801 153.371L398.909 152.36L398.909 152.36L397.801 153.371ZM432.286 168.641L432.242 170.14L432.243 170.14L432.286 168.641ZM459.075 165.898L459.288 167.383L459.297 167.382L459.306 167.38L459.075 165.898ZM469.599 162.959L471.099 162.964L471.104 161.289L469.439 161.468L469.599 162.959ZM444.801 224.337L444.349 222.907L444.347 222.908L444.801 224.337ZM395.014 212.884L393.536 213.139L393.656 213.838L394.274 214.189L395.014 212.884ZM395.212 208.859L396.696 209.08L396.696 209.08L395.212 208.859ZM398.384 185.173L396.888 185.068L396.888 185.069L398.384 185.173ZM384.926 149.529L383.884 150.608L383.884 150.608L384.926 149.529ZM365.593 137.877L365.197 139.324L365.197 139.324L365.593 137.877ZM342.837 136.31L342.997 137.801L342.998 137.801L342.837 136.31ZM266.506 189.893L267.56 190.961L267.56 190.96L266.506 189.893ZM234.846 215.375L234.03 214.117L234.03 214.117L234.846 215.375ZM221.105 223.786L220.326 222.504L218.732 223.472L220.02 224.822L221.105 223.786ZM237.355 236.665L236.448 237.86L236.448 237.86L237.355 236.665ZM277.009 275.134L275.84 276.075L275.841 276.075L277.009 275.134ZM313.267 320.133L312.233 321.22L312.234 321.22L313.267 320.133ZM328.565 331.506L329.274 330.184L329.273 330.184L328.565 331.506ZM352.262 337.958L352.313 336.459L352.312 336.459L352.262 337.958ZM368.956 336.098L369.385 337.535L369.386 337.535L368.956 336.098ZM386.606 326.192L385.609 325.071L385.608 325.072L386.606 326.192ZM401.366 259.046L399.915 259.426L399.916 259.429L401.366 259.046ZM399.523 252.138L398.024 252.183L398.024 252.185L399.523 252.138ZM399.773 250.64L399.976 249.154L398.847 249L398.396 250.047L399.773 250.64ZM403.879 252.541L403.257 253.906L403.259 253.907L403.879 252.541ZM420.378 261.786L421.247 260.563L421.226 260.549L421.206 260.535L420.378 261.786ZM442.366 284.181L443.625 283.365L443.625 283.364L442.366 284.181ZM452.042 303.34L450.649 303.896L450.649 303.896L452.042 303.34ZM463.968 349.378L462.475 349.528L462.514 349.918L462.739 350.239L463.968 349.378ZM435.2 403.487L435.308 401.991L435.308 401.991L435.2 403.487ZM407.032 404.613L407.199 406.104L407.199 406.104L407.032 404.613ZM383.443 409.971L383.863 411.411L383.866 411.41L383.443 409.971ZM376.665 412.302L377.015 413.761L377.034 413.756L377.053 413.751L376.665 412.302ZM373.283 413.708L373.739 415.137L373.997 415.054L374.21 414.887L373.283 413.708ZM361.929 418.279L362.534 419.652L362.535 419.651L361.929 418.279ZM351.631 422.553L352.178 423.95L352.179 423.949L351.631 422.553ZM332.717 429.328L332.246 427.903L332.246 427.903L332.717 429.328ZM289.34 435.194L289.253 436.691L289.253 436.691L289.34 435.194ZM280.205 434.394L280.436 432.912L279.087 432.702L278.751 434.025L280.205 434.394ZM277.178 446.304L275.725 445.934L275.267 447.736L277.124 447.803L277.178 446.304ZM283.997 445.607L283.842 444.115L283.842 444.115L283.997 445.607ZM294.82 444.488L295.039 445.972L295.04 445.971L294.82 444.488ZM316.142 440.963L316.464 442.428L316.466 442.427L316.142 440.963ZM356.208 430.014L356.635 431.452L356.636 431.451L356.208 430.014ZM394.823 417.67L395.189 419.124L395.19 419.124L394.823 417.67ZM429.738 412.443L429.801 413.941L429.802 413.941L429.738 412.443ZM462.471 415.37L462.437 416.869L463.447 416.892L463.848 415.965L462.471 415.37ZM463.643 412.659L465.02 413.254L465.545 412.039L464.405 411.367L463.643 412.659ZM452.629 406.734L453.137 405.322L453.135 405.322L452.629 406.734ZM216.33 325.317L214.853 325.581L214.853 325.582L216.33 325.317ZM215.069 230.622L213.582 230.424L213.582 230.425L215.069 230.622ZM221.501 199.611L220.037 199.282L220.037 199.283L221.501 199.611ZM226.549 182.523L225.176 181.918L225.12 182.044L225.089 182.177L226.549 182.523ZM227.494 180.374L228.867 180.978L228.948 180.793L228.978 180.594L227.494 180.374ZM231.586 168.886L232.965 169.476L232.965 169.476L231.586 168.886ZM275.04 94.6325L276.211 95.57L276.211 95.5699L275.04 94.6325ZM328.838 44.8559L329.702 46.082L329.747 46.0502L329.79 46.0153L328.838 44.8559ZM389.969 13.783L389.436 12.3809L389.435 12.381L389.969 13.783ZM438.693 2.40588L438.967 3.88056L438.968 3.88048L438.693 2.40588ZM484.58 0.295787L485.802 -0.573221L485.418 -1.11408L484.759 -1.19345L484.58 0.295787ZM501.458 24.9996L500.28 25.9285L500.282 25.9313L501.458 24.9996ZM527.548 51.1716L526.513 52.2569L526.514 52.2581L527.548 51.1716ZM558.637 75.1974L559.548 74.0051L559.547 74.0047L558.637 75.1974ZM575.777 89.9322L576.9 88.9378L576.899 88.9371L575.777 89.9322ZM585.391 109.354L586.862 109.059L586.862 109.059L585.391 109.354ZM567.188 160.482L568.089 161.682L568.089 161.682L567.188 160.482ZM534.729 170.049L534.808 168.551L534.808 168.551L534.729 170.049ZM502.355 165.382L502.63 163.907L500.199 163.455L500.921 165.82L502.355 165.382ZM518.79 219.214L517.355 219.652L517.477 220.051L517.787 220.33L518.79 219.214ZM546.098 225.719L545.88 224.235L545.88 224.235L546.098 225.719ZM571.544 216.894L572.059 218.303L572.174 218.261L572.281 218.201L571.544 216.894ZM574.477 215.226L575.166 216.558L575.169 216.557L574.477 215.226ZM576.968 214.064L577.604 215.422L578.289 215.101L578.439 214.359L576.968 214.064ZM575.954 211.06L574.502 211.434L574.569 211.696L574.723 211.917L575.954 211.06ZM578.47 158.152L577.195 157.361L577.195 157.362L578.47 158.152ZM583.935 151.121L585.056 152.117L585.057 152.116L583.935 151.121ZM614.382 134.815L614.204 133.325L614.203 133.325L614.382 134.815ZM665.303 148.744L666.223 147.56L666.215 147.554L665.303 148.744ZM670.369 152.941L669.37 154.059L669.37 154.06L670.369 152.941ZM695.074 178.459L696.167 177.432L696.167 177.431L695.074 178.459ZM747.786 221.04L748.521 219.732L748.52 219.732L747.786 221.04ZM752.239 223.804L753.147 222.61L753.139 222.604L752.239 223.804ZM752.856 224.551L753.886 225.642L754.763 224.814L754.143 223.78L752.856 224.551ZM747.196 228.423L746.318 227.207L746.317 227.207L747.196 228.423ZM678.853 298.589L680.038 299.509L680.039 299.508L678.853 298.589ZM653.732 326.418L652.804 325.24L652.803 325.24L653.732 326.418ZM598.989 337.074L598.448 338.473L598.449 338.473L598.989 337.074ZM590.284 332.866L589.44 334.106L589.441 334.107L590.284 332.866ZM565.308 297.462L563.851 297.819L563.851 297.82L565.308 297.462ZM564.473 284.905L565.973 284.943L565.973 284.941L564.473 284.905ZM565.842 268.229L564.361 267.994L564.361 267.995L565.842 268.229ZM569.912 254.18L571.319 254.699L572.183 252.355L569.708 252.694L569.912 254.18ZM557.831 258.728L558.615 260.007L558.616 260.006L557.831 258.728ZM542.726 270.253L541.669 269.19L541.668 269.19L542.726 270.253ZM518.843 308.438L517.47 307.834L517.442 307.897L517.42 307.963L518.843 308.438ZM516.107 316.593L517.529 317.07L517.53 317.07L516.107 316.593ZM513.445 325.355L511.977 325.046L511.977 325.047L513.445 325.355ZM509.556 343.302L511.017 343.644L511.017 343.644L509.556 343.302ZM507.582 352.732L507.796 351.247L507.795 351.247L507.582 352.732ZM514.98 345.586L514.019 344.434L514.018 344.435L514.98 345.586ZM531.88 338.304L532.236 339.762L532.296 339.747L532.354 339.727L531.88 338.304ZM547.531 335.887L547.531 334.387H547.531V335.887ZM566.363 338.453L566.724 336.997L566.724 336.997L566.363 338.453ZM587.44 346.087L588.093 344.737L588.092 344.736L587.44 346.087ZM616.591 362.559L615.801 363.834L615.801 363.834L616.591 362.559ZM635.16 373.424L635.929 372.136L635.924 372.133L635.16 373.424ZM675.683 380.004L677.139 379.644L676.855 378.497L675.674 378.504L675.683 380.004ZM678.959 393.251L678.857 394.747L680.909 394.887L680.415 392.891L678.959 393.251ZM656.02 391.688L655.899 393.183L655.909 393.183L655.918 393.184L656.02 391.688ZM625.647 384.709L626.248 383.334L626.22 383.322L626.192 383.311L625.647 384.709ZM604.834 373.789L605.553 372.472L605.552 372.472L604.834 373.789ZM591.422 367.473L590.883 368.873L590.884 368.873L591.422 367.473ZM561.813 358.159L561.514 359.629L561.515 359.629L561.813 358.159ZM543.225 356.845L543.091 355.351L543.083 355.352L543.076 355.352L543.225 356.845ZM533.138 359.082L533.573 360.518L533.574 360.517L533.138 359.082ZM527.698 361.076L528.332 362.435L528.365 362.42L528.398 362.403L527.698 361.076ZM519.695 365.014L520.343 366.367L520.566 366.26L520.744 366.086L519.695 365.014ZM497.071 384.368L495.876 383.46L495.875 383.461L497.071 384.368ZM492.638 391.708L491.265 391.104L491.263 391.107L492.638 391.708ZM491.541 395.418L490.057 395.201L490.057 395.203L491.541 395.418ZM491.402 397.139H492.902V397.045L492.89 396.951L491.402 397.139ZM493.634 399.048L493.107 400.452L493.108 400.452L493.634 399.048ZM494.939 397.959L496.114 398.892L496.12 398.883L494.939 397.959ZM496.575 395.406L495.328 394.572L495.325 394.576L496.575 395.406ZM518.952 373.406L518.202 372.107L518.201 372.108L518.952 373.406ZM537.853 365.495L537.55 364.026L537.55 364.026L537.853 365.495ZM574.112 367.119L573.726 368.568L573.727 368.569L574.112 367.119ZM603.997 379.512L604.698 378.186L604.697 378.185L603.997 379.512ZM616.086 385.79L615.472 387.159L615.472 387.159L616.086 385.79ZM626.862 390.628L626.248 391.997L626.366 392.05L626.491 392.082L626.862 390.628ZM637.991 394.595L638.464 393.171L638.463 393.171L637.991 394.595ZM652.965 398.489L653.29 397.024L653.289 397.024L652.965 398.489ZM680.843 400.876L682.299 400.515L682.016 399.371L680.837 399.376L680.843 400.876ZM687.62 428.262L687.63 429.762L689.534 429.75L689.076 427.901L687.62 428.262ZM651.502 428.489L651.371 429.983L651.441 429.99L651.511 429.989L651.502 428.489ZM632.496 423.481L632.016 424.902L632.017 424.903L632.496 423.481ZM612.009 415.782L611.388 417.147L611.389 417.147L612.009 415.782ZM594.828 406.751L595.586 405.457L595.586 405.457L594.828 406.751ZM573.299 396.272L572.833 397.697L572.833 397.697L573.299 396.272ZM554.428 392.392L554.263 393.883L554.264 393.883L554.428 392.392ZM538.462 392.265L538.453 393.765L538.476 393.765L538.499 393.765L538.462 392.265ZM537.932 386.836L537.477 385.407L537.477 385.407L537.932 386.836ZM567.83 385.226L567.563 386.702L567.697 386.727L567.834 386.726L567.83 385.226ZM590.157 392.84L589.612 394.238L589.765 394.297L589.926 394.322L590.157 392.84ZM603.315 397.361L602.822 398.778L602.822 398.778L603.315 397.361ZM642.096 409.554L642.408 408.087L642.408 408.087L642.096 409.554ZM648.196 410.652L648.158 412.151L648.182 412.152L648.205 412.152L648.196 410.652ZM660.864 409.708L661.366 411.121L666.014 409.47L661.234 408.254L660.864 409.708ZM634.422 403.026L634.899 401.604L634.899 401.604L634.422 403.026ZM624.612 399.697L625.206 398.32L625.205 398.32L624.612 399.697ZM617.462 396.772L618.045 395.39L618.043 395.389L617.462 396.772ZM579.907 381.634L579.409 383.049L579.409 383.049L579.907 381.634ZM561.936 376.12L562.227 374.648L562.227 374.648L561.936 376.12ZM531.031 377.548L530.542 376.13L530.542 376.13L531.031 377.548ZM504.096 393.836L503.036 392.776L503.029 392.783L503.022 392.79L504.096 393.836ZM496.336 401.85L495.262 400.804L494.824 401.253L494.837 401.88L496.336 401.85ZM506.259 414.69L506.167 416.188L506.604 416.214L506.986 416.002L506.259 414.69ZM516.737 408.292L517.429 409.623L517.43 409.622L516.737 408.292ZM529.163 404.021L529.524 405.477L529.526 405.476L529.163 404.021ZM552.31 401.568L552.338 400.069L552.337 400.069L552.31 401.568ZM583.125 407.729L583.657 406.326L583.656 406.326L583.125 407.729ZM604.349 417.378L603.73 418.744L603.73 418.744L604.349 417.378ZM623.676 425.236L623.165 426.646L623.191 426.656L623.218 426.664L623.676 425.236ZM660.449 434.568L660.191 436.046L660.191 436.046L660.449 434.568ZM689.38 435.37L690.836 435.011L690.549 433.849L689.353 433.871L689.38 435.37ZM691.879 445.484L691.943 446.982L693.776 446.905L693.335 445.124L691.879 445.484ZM664.853 443.525L664.672 445.014L664.672 445.014L664.853 443.525ZM628.779 438.179L628.447 439.642L628.463 439.645L628.479 439.648L628.779 438.179ZM601.379 432.156L600.997 433.606L600.998 433.607L601.379 432.156ZM571.034 424.015L570.665 425.469L570.666 425.469L571.034 424.015ZM525.064 417.862L525.092 419.362L525.092 419.362L525.064 417.862ZM510.294 419.043L510.155 417.549L509.449 417.615L509.052 418.203L510.294 419.043ZM507.641 424.479L509.015 425.081L509.016 425.079L507.641 424.479ZM498.512 439.026L499.466 440.184L499.489 440.165L499.511 440.146L498.512 439.026ZM488.964 444.163L489.389 445.601L489.39 445.601L488.964 444.163ZM474.522 443.33L473.871 444.681L473.872 444.681L474.522 443.33ZM466.121 436.673L467.296 435.741L467.295 435.74L466.121 436.673ZM458.194 423.749L459.493 423L458.975 422.1L457.95 422.269L458.194 423.749ZM386.876 435.48L386.614 434.003L386.614 434.003L386.876 435.48ZM349.72 441.754L349.449 440.279L349.448 440.279L349.72 441.754ZM303.657 449.703L303.885 451.185L303.885 451.185L303.657 449.703ZM286.048 452.38L285.823 450.897L285.822 450.897L286.048 452.38ZM388.765 450.858L389.028 452.335L389.028 452.335L388.765 450.858ZM445.891 440.176L446.822 439L446.276 438.568L445.593 438.706L445.891 440.176ZM457.587 453.734L458.592 452.621L458.575 452.606L458.558 452.591L457.587 453.734ZM474.883 463.154L474.64 464.634L474.64 464.634L474.883 463.154ZM485.153 464.841L484.911 466.322L486.64 466.605L486.653 464.852L485.153 464.841ZM485.286 446.742L484.836 445.311L483.794 445.638L483.786 446.731L485.286 446.742ZM491.199 445.278L490.812 443.829L490.811 443.829L491.199 445.278ZM501.862 440.338L502.712 441.574L502.713 441.574L501.862 440.338ZM510.82 431.292L509.565 430.47L509.564 430.472L510.82 431.292ZM514.29 424.468L514.432 422.975L513.381 422.875L512.932 423.831L514.29 424.468ZM522.836 425.278L523.075 423.798L523.027 423.79L522.978 423.785L522.836 425.278ZM694.055 454.277L695.511 453.917L695.276 452.967L694.311 452.799L694.055 454.277ZM697.706 469.023L697.554 470.515L699.674 470.731L699.162 468.662L697.706 469.023ZM675.676 465.692L675.44 467.173L675.441 467.173L675.676 465.692ZM637.594 459.483L637.845 458.004L637.844 458.004L637.594 459.483ZM555.056 445.85L554.803 447.329L554.807 447.329L555.056 445.85ZM523.914 440.757L524.138 439.274L522.994 439.101L522.536 440.164L523.914 440.757ZM516.966 450.037L515.928 448.954L515.926 448.956L516.966 450.037ZM502.054 460.165L502.671 461.533L502.671 461.533L502.054 460.165ZM485.275 464.884L485.061 463.4L483.775 463.585L483.775 464.884L485.275 464.884ZM485.256 547.812L485.297 549.311L486.756 549.272L486.756 547.812L485.256 547.812ZM424.408 543.608L424.717 542.14L424.717 542.14L424.408 543.608ZM377.521 529.807L376.883 531.165L376.893 531.17L376.903 531.174L377.521 529.807ZM354.04 518.806L354.768 517.494L354.767 517.494L354.04 518.806ZM328.747 503.344L329.583 502.099L329.582 502.098L328.747 503.344ZM317.211 494.815L318.124 493.625L318.122 493.624L317.211 494.815ZM298.446 478.744L299.482 477.661L299.482 477.66L298.446 478.744ZM271.094 470.276L269.643 469.896L269.072 472.08L271.306 471.761L271.094 470.276ZM270.51 447.955L271.694 447.034L271.694 447.034L270.51 447.955ZM260.787 434.608L259.531 435.429L259.532 435.43L260.787 434.608ZM234.223 385.853L235.601 385.261L235.601 385.261L234.223 385.853ZM221.232 347.632L222.691 347.283L222.691 347.282L221.232 347.632ZM287.108 401.124L279.723 430.197L282.631 430.935L290.016 401.863L287.108 401.124ZM281.154 432.066C296.151 432.297 304.193 431.12 314.716 429.776L314.336 426.801C303.824 428.142 295.966 429.294 281.2 429.066L281.154 432.066ZM314.715 429.777C316.96 429.49 323.633 428.34 329.98 426.997C333.156 426.324 336.283 425.597 338.752 424.898C339.984 424.549 341.081 424.199 341.95 423.857C342.383 423.687 342.785 423.509 343.129 423.322C343.45 423.149 343.824 422.914 344.115 422.598L341.91 420.564C341.954 420.516 341.923 420.564 341.701 420.684C341.501 420.792 341.221 420.92 340.852 421.065C340.115 421.355 339.124 421.674 337.935 422.011C335.561 422.683 332.51 423.395 329.358 424.062C323.05 425.397 316.466 426.529 314.336 426.801L314.715 429.777ZM343.4 423.03L346.731 422.138L345.955 419.24L342.624 420.132L343.4 423.03ZM346.955 422.059C348.324 421.448 349.727 420.886 351.156 420.308C352.574 419.735 354.014 419.148 355.403 418.504L354.141 415.782C352.829 416.391 351.453 416.952 350.032 417.527C348.621 418.097 347.161 418.682 345.732 419.319L346.955 422.059ZM355.404 418.503C357.294 417.626 359.12 416.692 360.931 415.765C362.75 414.834 364.553 413.909 366.436 413.025L365.161 410.309C363.223 411.219 361.374 412.168 359.564 413.095C357.747 414.025 355.97 414.932 354.14 415.782L355.404 418.503ZM366.278 413.088C366.897 412.88 367.486 412.568 368.016 412.269C368.592 411.944 369.059 411.657 369.638 411.347L368.223 408.702C367.617 409.026 366.996 409.4 366.541 409.657C366.04 409.939 365.656 410.132 365.319 410.246L366.278 413.088ZM369.641 411.346C372.243 409.946 375.172 408.302 377.197 407.3L375.868 404.611C373.782 405.642 370.734 407.351 368.22 408.704L369.641 411.346ZM377.195 407.301C380.221 405.81 383.28 404.268 386.281 402.747L384.925 400.071C381.927 401.591 378.88 403.127 375.869 404.61L377.195 407.301ZM386.282 402.747C388.258 401.743 392.283 399.971 396.332 398.459C398.353 397.704 400.356 397.023 402.096 396.537C403.879 396.039 405.241 395.788 406.044 395.802L406.094 392.802C404.82 392.781 403.095 393.143 401.289 393.648C399.438 394.165 397.349 394.877 395.282 395.648C391.156 397.189 387.024 399.005 384.924 400.072L386.282 402.747ZM406.32 395.781C407.63 395.558 409.345 395.378 410.802 394.406L409.137 391.911C408.345 392.439 407.434 392.548 405.817 392.823L406.32 395.781ZM410.038 394.657C412.499 394.544 414.728 394.279 416.895 394.068C419.079 393.856 421.256 393.694 423.745 393.759L423.824 390.76C421.154 390.69 418.834 390.866 416.605 391.082C414.359 391.3 412.261 391.552 409.901 391.66L410.038 394.657ZM423.746 393.759C432.94 393.995 439.656 395.529 447.01 398.528L448.143 395.75C440.456 392.615 433.382 391.006 423.823 390.76L423.746 393.759ZM447.008 398.528C449.065 399.369 450.948 400.404 453.351 401.523L454.617 398.803C452.468 397.803 450.259 396.616 448.144 395.751L447.008 398.528ZM453.348 401.521C454.47 402.047 456.011 402.698 457.506 403.538L458.975 400.922C457.352 400.01 455.611 399.268 454.62 398.804L453.348 401.521ZM457.504 403.537C458.275 403.971 459.061 404.431 459.839 404.886C460.611 405.338 461.378 405.788 462.091 406.189C462.801 406.59 463.481 406.957 464.083 407.242C464.652 407.511 465.276 407.769 465.834 407.862L466.328 404.903C466.209 404.883 465.905 404.785 465.367 404.53C464.861 404.291 464.254 403.965 463.564 403.576C462.877 403.189 462.134 402.753 461.354 402.297C460.579 401.843 459.772 401.371 458.977 400.923L457.504 403.537ZM465.83 407.861C467.179 408.089 468.599 408.167 469.61 407.936C469.876 407.875 470.183 407.778 470.472 407.611C470.759 407.445 471.124 407.153 471.335 406.67C471.81 405.577 471.111 404.676 470.75 404.303L468.594 406.389C468.809 406.611 468.271 406.191 468.584 405.473C468.713 405.176 468.916 405.045 468.971 405.013C469.029 404.98 469.033 404.99 468.94 405.012C468.512 405.11 467.56 405.111 466.331 404.903L465.83 407.861ZM470.64 404.199C466.402 400.624 462.74 397.278 458.506 394.333L456.793 396.795C460.874 399.635 464.35 402.818 468.705 406.492L470.64 404.199ZM458.507 394.333C454.116 391.274 449.565 388.785 444.947 386.65L443.688 389.373C448.181 391.45 452.574 393.856 456.792 396.795L458.507 394.333ZM444.946 386.65C439.317 384.05 434.558 382.174 429.558 381.345L429.067 384.304C433.655 385.066 438.117 386.8 443.688 389.373L444.946 386.65ZM429.558 381.345C423.264 380.3 416.608 381.311 408.922 382.656L409.439 385.611C417.19 384.255 423.353 383.356 429.067 384.304L429.558 381.345ZM408.923 382.656C407.59 382.889 401.063 384.445 393.224 387.072L394.178 389.917C401.934 387.317 408.306 385.809 409.439 385.611L408.923 382.656ZM393.225 387.072C389.035 388.473 384.502 390.285 379.917 392.151C375.316 394.023 370.663 395.949 366.174 397.611L367.215 400.425C371.762 398.741 376.474 396.79 381.047 394.929C385.637 393.062 390.088 391.284 394.177 389.917L393.225 387.072ZM366.174 397.611C362.871 398.833 350.288 403.633 337.601 406.924L338.354 409.828C351.214 406.492 363.942 401.635 367.215 400.425L366.174 397.611ZM337.601 406.924C328.779 409.214 320.029 410.578 314.424 410.212L314.228 413.205C320.324 413.604 329.451 412.139 338.355 409.828L337.601 406.924ZM314.423 410.211C312.844 410.11 311.564 409.959 310.604 409.664C309.648 409.37 309.264 409.013 309.102 408.677L306.4 409.979C307.082 411.394 308.397 412.124 309.723 412.532C311.046 412.938 312.632 413.102 314.23 413.205L314.423 410.211ZM308.024 410.803C319.314 408.713 328.822 407.029 340.043 403.103L339.052 400.271C328.084 404.109 318.801 405.757 307.478 407.853L308.024 410.803ZM340.044 403.103C345.768 401.095 351.341 398.552 356.92 396.361L355.823 393.569C350.008 395.853 344.739 398.276 339.051 400.272L340.044 403.103ZM356.92 396.361C361.868 394.417 366.641 392.512 371.656 390.63L370.602 387.821C365.558 389.713 360.751 391.633 355.823 393.569L356.92 396.361ZM371.638 390.637C372.125 390.461 381.914 386.648 391.436 383.365L390.459 380.529C385.684 382.175 380.817 383.963 377.097 385.357C375.236 386.054 373.66 386.653 372.524 387.086C371.956 387.303 371.498 387.479 371.17 387.605C371.006 387.668 370.875 387.718 370.779 387.754C370.731 387.773 370.693 387.787 370.664 387.798C370.65 387.803 370.639 387.808 370.631 387.811C370.621 387.814 370.619 387.815 370.62 387.815L371.638 390.637ZM391.437 383.365C400.927 380.093 410.82 376.945 420.703 376.279L420.501 373.286C410.176 373.981 399.941 377.26 390.459 380.529L391.437 383.365ZM420.704 376.279C428.798 375.727 436.965 377.004 444.771 379.81L445.786 376.987C437.627 374.054 429.046 372.704 420.5 373.286L420.704 376.279ZM444.773 379.81C449.745 381.591 457.051 386.085 462.572 391.045L464.577 388.813C458.836 383.656 451.202 378.926 445.784 376.986L444.773 379.81ZM462.573 391.046C467.59 395.545 471.413 399.571 473.387 401.416L475.436 399.225C473.727 397.628 469.532 393.257 464.576 388.812L462.573 391.046ZM475.765 400.968L476.71 398.991L474.004 397.697L473.058 399.673L475.765 400.968ZM476.468 397.336C476.064 396.891 475.674 396.308 475.222 395.568C474.794 394.867 474.289 393.989 473.736 393.153L471.233 394.807C471.749 395.586 472.174 396.334 472.662 397.133C473.127 397.892 473.639 398.683 474.246 399.352L476.468 397.336ZM473.735 393.152C472.06 390.621 470.123 388.178 466.513 384.135L464.276 386.133C467.842 390.127 469.672 392.449 471.234 394.807L473.735 393.152ZM466.513 384.134C465.107 382.562 463.366 380.889 461.161 378.964L459.188 381.224C461.339 383.102 462.981 384.686 464.277 386.134L466.513 384.134ZM461.07 378.891C459.929 378.04 458.882 377.143 457.799 376.222C456.73 375.311 455.625 374.376 454.43 373.519L452.682 375.957C453.762 376.732 454.778 377.589 455.855 378.506C456.919 379.412 458.043 380.377 459.278 381.297L461.07 378.891ZM454.43 373.519C442.232 364.771 427.493 362.902 412.547 364.277L412.822 367.265C427.382 365.925 441.294 367.79 452.682 375.957L454.43 373.519ZM412.547 364.277C400.276 365.406 387.535 368.647 377.1 373.035L378.262 375.8C388.412 371.533 400.853 368.366 412.822 367.265L412.547 364.277ZM377.101 373.034C373.606 374.501 370.395 376.226 367.256 377.967C364.1 379.718 361.037 381.472 357.745 383.064L359.051 385.765C362.44 384.126 365.604 382.315 368.712 380.591C371.837 378.857 374.927 377.2 378.261 375.801L377.101 373.034ZM357.747 383.063C346.972 388.262 335.071 392.705 321.817 395.496L322.435 398.432C335.966 395.583 348.098 391.05 359.05 385.765L357.747 383.063ZM321.818 395.496C312.461 397.464 301.971 400.149 288.58 399.993L288.545 402.993C302.339 403.153 313.194 400.375 322.435 398.432L321.818 395.496ZM372.813 350.308C364.86 354.797 353.942 361.149 344.226 366.727L345.72 369.329C355.462 363.736 366.346 357.403 374.288 352.92L372.813 350.308ZM344.226 366.727C337.258 370.725 332.247 373.4 326.967 375.238C321.708 377.068 316.116 378.089 307.993 378.678L308.21 381.67C316.49 381.069 322.363 380.017 327.953 378.071C333.523 376.133 338.747 373.33 345.719 369.329L344.226 366.727ZM307.993 378.678C303.424 379.011 298.69 379.133 293.55 379.71L293.885 382.692C298.963 382.121 303.446 382.017 308.21 381.67L307.993 378.678ZM292.263 380.831L288.986 393.724L291.893 394.463L295.171 381.571L292.263 380.831ZM290.495 395.592C297.409 395.336 305.31 395.436 313.323 394.459L312.96 391.481C305.114 392.438 297.495 392.331 290.384 392.594L290.495 395.592ZM313.324 394.459C320.181 393.621 326.878 392.019 333.153 390.168L332.305 387.291C326.128 389.112 319.6 390.669 312.96 391.481L313.324 394.459ZM333.154 390.168C344.472 386.823 359.286 379.982 372.283 373.529L370.948 370.842C357.949 377.296 343.344 384.028 332.304 387.291L333.154 390.168ZM372.282 373.529C374.599 372.379 377.04 371.365 379.44 370.321C381.807 369.292 384.138 368.233 386.091 367.031L384.518 364.476C382.767 365.554 380.615 366.539 378.244 367.57C375.906 368.586 373.354 369.648 370.948 370.842L372.282 373.529ZM385.88 367.139C396.628 362.675 403.943 359.932 410.252 358.51C416.504 357.101 421.799 356.983 428.498 357.851L428.883 354.876C421.892 353.971 416.238 354.086 409.592 355.584C403.003 357.069 395.47 359.907 384.729 364.368L385.88 367.139ZM428.499 357.851C445.647 360.058 462.272 371.529 474.036 384.335L476.245 382.306C464.225 369.221 446.999 357.207 428.882 354.876L428.499 357.851ZM474.038 384.338C475.591 386.021 476.992 387.777 478.683 389.945L481.049 388.1C479.354 385.928 477.888 384.086 476.243 382.303L474.038 384.338ZM481.363 389.123C481.411 388.393 481.224 387.671 481.02 387.066C480.812 386.45 480.522 385.776 480.26 385.15L477.493 386.308C477.779 386.992 478.013 387.536 478.177 388.024C478.345 388.524 478.378 388.793 478.369 388.922L481.363 389.123ZM480.258 385.146C479.761 383.967 479.435 382.402 475.805 375.252L473.13 376.61C476.697 383.635 476.928 384.969 477.494 386.312L480.258 385.146ZM475.783 375.211L472.907 369.959L470.276 371.4L473.152 376.652L475.783 375.211ZM472.841 369.851C472.159 368.821 471.581 367.864 471.017 366.932C470.458 366.009 469.905 365.1 469.297 364.225L466.833 365.935C467.379 366.723 467.887 367.554 468.451 368.486C469.01 369.408 469.619 370.419 470.341 371.509L472.841 369.851ZM469.296 364.222C467.272 361.316 465.07 358.776 462.032 355.543L459.846 357.596C462.844 360.789 464.932 363.206 466.834 365.937L469.296 364.222ZM462.033 355.543C456.507 349.654 448.337 343.463 440.051 340.019L438.9 342.789C446.727 346.042 454.556 351.958 459.845 357.596L462.033 355.543ZM440.052 340.019C437.624 339.009 433.822 337.748 427.965 336.94L427.555 339.912C433.153 340.685 436.706 341.876 438.899 342.789L440.052 340.019ZM427.963 336.94C427.076 336.819 424.925 336.322 422.381 336.172L422.203 339.167C424.634 339.31 426.256 339.734 427.556 339.912L427.963 336.94ZM422.379 336.172C404.484 335.136 387.763 341.86 372.812 350.308L374.288 352.92C389.051 344.578 405.163 338.18 422.205 339.167L422.379 336.172ZM486.347 379.186L486.716 1.13301L483.716 1.13008L483.347 379.183L486.347 379.186ZM484.133 0.0938133C483.836 0.404125 483.654 0.583863 483.5 0.739855C483.365 0.87732 483.194 1.05302 483.043 1.27664C482.893 1.50021 482.798 1.72404 482.728 1.8845C482.65 2.06503 482.554 2.29092 482.387 2.65256L485.109 3.91365C485.296 3.5104 485.408 3.24453 485.48 3.07776C485.561 2.89093 485.559 2.91193 485.534 2.94846C485.51 2.98505 485.496 2.9895 485.64 2.84286C485.766 2.71474 485.985 2.49749 486.299 2.16928L484.133 0.0938133ZM482.386 2.65369C474.845 18.9678 460.383 36.4312 447.096 48.2105L449.086 50.4554C462.588 38.4856 477.348 20.7026 485.109 3.91251L482.386 2.65369ZM447.096 48.2102C438.847 55.52 429.485 62.4471 420.526 69.3628C411.605 76.2481 403.081 83.1243 396.682 90.2455L398.914 92.2505C405.108 85.3563 413.431 78.629 422.359 71.7376C431.248 64.8766 440.736 57.8538 449.086 50.4556L447.096 48.2102ZM396.682 90.2455C387.523 100.439 383.956 111.486 384.012 122.264L387.012 122.249C386.96 112.204 390.261 101.88 398.914 92.2506L396.682 90.2455ZM384.012 122.265C384.092 136.09 389.364 146.353 396.693 154.382L398.909 152.36C391.997 144.787 387.087 135.216 387.012 122.248L384.012 122.265ZM396.693 154.382C405.106 163.601 416.639 169.68 432.242 170.14L432.331 167.142C417.557 166.706 406.786 160.991 398.909 152.36L396.693 154.382ZM432.243 170.14C441.74 170.414 451.921 168.438 459.288 167.383L458.862 164.413C451.274 165.5 441.489 167.405 432.33 167.141L432.243 170.14ZM459.306 167.38C461.239 167.079 463.34 166.367 465.169 165.747C467.098 165.093 468.65 164.57 469.759 164.45L469.439 161.468C467.92 161.631 465.992 162.3 464.205 162.906C462.32 163.546 460.473 164.162 458.844 164.416L459.306 167.38ZM468.099 162.954C468.069 172.821 467.362 186.26 463.975 198.056C460.573 209.903 454.6 219.662 444.349 222.907L445.254 225.767C456.974 222.057 463.369 211.033 466.858 198.884C470.362 186.683 471.069 172.911 471.099 162.964L468.099 162.954ZM444.347 222.908C427.023 228.411 411.321 220.411 395.754 211.579L394.274 214.189C409.707 222.944 426.526 231.716 445.255 225.767L444.347 222.908ZM396.492 212.629C396.449 212.379 396.396 211.091 396.696 209.08L393.728 208.638C393.41 210.773 393.413 212.427 393.536 213.139L396.492 212.629ZM396.696 209.08C397.873 201.164 399.305 193.531 399.88 185.277L396.888 185.069C396.323 193.167 394.926 200.582 393.728 208.638L396.696 209.08ZM399.88 185.278C400.931 170.286 395.502 157.663 385.968 148.451L383.884 150.608C392.801 159.224 397.875 170.989 396.888 185.068L399.88 185.278ZM385.969 148.451C380.644 143.305 374.47 138.746 365.988 136.43L365.197 139.324C373.021 141.46 378.768 145.663 383.884 150.608L385.969 148.451ZM365.988 136.43C357.869 134.211 349.996 134.028 342.676 134.818L342.998 137.801C350.04 137.04 357.522 137.226 365.197 139.324L365.988 136.43ZM342.678 134.818C324.532 136.757 311.989 143.574 300.577 153.284C294.895 158.119 289.493 163.671 283.837 169.663C278.166 175.669 272.241 182.117 265.452 188.826L267.56 190.96C274.399 184.203 280.381 177.694 286.018 171.722C291.669 165.736 296.975 160.289 302.521 155.569C313.566 146.171 325.56 139.664 342.997 137.801L342.678 134.818ZM265.452 188.826C256.407 197.758 244.575 207.277 234.03 214.117L235.662 216.634C246.379 209.682 258.371 200.035 267.56 190.961L265.452 188.826ZM234.03 214.117C229.44 217.095 225.036 219.645 220.326 222.504L221.883 225.069C226.526 222.25 231.023 219.644 235.662 216.634L234.03 214.117ZM220.02 224.822C225.097 230.143 231.398 234.027 236.448 237.86L238.262 235.47C232.892 231.395 227.048 227.842 222.19 222.751L220.02 224.822ZM236.448 237.86C250.007 248.141 261.572 258.359 275.84 276.075L278.177 274.193C263.729 256.254 251.979 245.871 238.261 235.47L236.448 237.86ZM275.841 276.075C281.56 283.175 287.28 291.223 293.305 299.18C299.299 307.097 305.556 314.868 312.233 321.22L314.301 319.046C307.808 312.87 301.672 305.261 295.697 297.37C289.753 289.52 283.929 281.332 278.177 274.193L275.841 276.075ZM312.234 321.22C318.305 326.988 324.645 331.11 327.857 332.829L329.273 330.184C326.283 328.584 320.165 324.617 314.3 319.046L312.234 321.22ZM327.856 332.828C335.648 337.007 343.61 339.169 352.212 339.457L352.312 336.459C344.182 336.186 336.67 334.151 329.274 330.184L327.856 332.828ZM352.211 339.457C357.563 339.638 363.267 339.363 369.385 337.535L368.526 334.661C362.834 336.361 357.485 336.634 352.313 336.459L352.211 339.457ZM369.386 337.535C375.578 335.682 382.806 331.588 387.604 327.312L385.608 325.072C381.128 329.065 374.285 332.938 368.526 334.661L369.386 337.535ZM387.602 327.313C407.26 309.833 409.03 282.213 402.816 258.663L399.916 259.429C405.996 282.471 404.048 308.674 385.609 325.071L387.602 327.313ZM402.817 258.666C402.516 257.515 402.026 256.224 401.682 255.172C401.312 254.039 401.052 253.029 401.022 252.091L398.024 252.185C398.067 253.566 398.441 254.911 398.83 256.104C399.246 257.376 399.641 258.38 399.915 259.426L402.817 258.666ZM401.023 252.094C401.012 251.737 401.06 251.444 401.151 251.234L398.396 250.047C398.077 250.786 398.005 251.55 398.024 252.183L401.023 252.094ZM399.57 252.127C400.149 252.206 400.656 252.428 401.233 252.758C401.72 253.037 402.532 253.576 403.257 253.906L404.5 251.175C403.924 250.913 403.535 250.618 402.722 250.153C401.998 249.739 401.103 249.308 399.976 249.154L399.57 252.127ZM403.259 253.907C408.825 256.429 412.191 258.172 419.551 263.037L421.206 260.535C413.715 255.583 410.21 253.763 404.498 251.174L403.259 253.907ZM419.51 263.009C430.12 270.539 435.42 276.225 441.108 284.997L443.625 283.364C437.716 274.252 432.142 268.296 421.247 260.563L419.51 263.009ZM441.107 284.996C444.704 290.549 448.182 297.713 450.649 303.896L453.436 302.784C450.918 296.475 447.357 289.125 443.625 283.365L441.107 284.996ZM450.649 303.896C456.966 319.719 461.582 340.643 462.475 349.528L465.46 349.228C464.538 340.055 459.852 318.859 453.436 302.784L450.649 303.896ZM462.739 350.239L483.619 380.045L486.076 378.324L465.196 348.517L462.739 350.239ZM435.308 401.991C426.035 401.322 415.918 402.105 406.864 403.122L407.199 406.104C416.208 405.091 426.102 404.334 435.092 404.983L435.308 401.991ZM406.865 403.122C399.057 403.997 390.443 406.351 383.02 408.532L383.866 411.41C391.289 409.229 399.679 406.946 407.199 406.104L406.865 403.122ZM383.023 408.531C381.801 408.888 380.645 409.334 379.557 409.746C378.45 410.164 377.395 410.554 376.277 410.853L377.053 413.751C378.332 413.409 379.512 412.97 380.618 412.552C381.741 412.127 382.776 411.728 383.863 411.411L383.023 408.531ZM376.315 410.844C375.598 411.016 374.923 411.161 374.309 411.391C373.634 411.644 373.044 411.987 372.356 412.528L374.21 414.887C374.706 414.497 375.029 414.325 375.361 414.201C375.753 414.054 376.178 413.962 377.015 413.761L376.315 410.844ZM372.827 412.278C370.075 413.156 365.68 414.982 361.322 416.907L362.535 419.651C366.898 417.723 371.158 415.96 373.739 415.137L372.827 412.278ZM361.323 416.907C357.647 418.529 353.732 420.116 351.082 421.157L352.179 423.949C354.852 422.899 358.807 421.296 362.534 419.652L361.323 416.907ZM351.084 421.157C344.99 423.543 338.617 425.797 332.246 427.903L333.188 430.752C339.596 428.633 346.022 426.361 352.178 423.95L351.084 421.157ZM332.246 427.903C319.253 432.202 306.797 434.71 289.428 433.696L289.253 436.691C307.072 437.731 319.91 435.145 333.188 430.752L332.246 427.903ZM289.428 433.697C286.667 433.535 283.124 433.332 280.436 432.912L279.973 435.876C282.835 436.323 286.54 436.532 289.253 436.691L289.428 433.697ZM278.751 434.025L275.725 445.934L278.632 446.673L281.658 434.764L278.751 434.025ZM277.124 447.803C278.421 447.849 279.589 447.728 280.717 447.572C281.879 447.411 282.911 447.228 284.152 447.099L283.842 444.115C282.54 444.25 281.332 444.458 280.306 444.6C279.246 444.747 278.276 444.842 277.232 444.805L277.124 447.803ZM284.151 447.099C287.349 446.768 291.154 446.544 295.039 445.972L294.602 443.004C290.79 443.565 287.232 443.764 283.842 444.115L284.151 447.099ZM295.04 445.971C301.733 444.981 309.126 444.042 316.464 442.428L315.82 439.498C308.615 441.082 301.376 442.001 294.601 443.004L295.04 445.971ZM316.466 442.427C331.409 439.127 346.32 434.512 356.635 431.452L355.781 428.576C345.418 431.65 330.632 436.227 315.819 439.498L316.466 442.427ZM356.636 431.451C363.216 429.493 369.653 427.213 376.021 425.03C382.406 422.843 388.738 420.748 395.189 419.124L394.457 416.215C387.875 417.872 381.442 420.002 375.049 422.192C368.639 424.389 362.285 426.64 355.78 428.576L356.636 431.451ZM395.19 419.124C405.265 416.583 419.368 414.382 429.801 413.941L429.674 410.944C419.014 411.394 404.707 413.63 394.456 416.215L395.19 419.124ZM429.802 413.941C440.046 413.504 445.794 414.177 450.111 414.971C454.377 415.756 457.634 416.76 462.437 416.869L462.506 413.87C458.021 413.768 455.258 412.867 450.653 412.021C446.099 411.183 440.124 410.498 429.674 410.944L429.802 413.941ZM463.848 415.965L465.02 413.254L462.266 412.064L461.094 414.775L463.848 415.965ZM464.405 411.367C459.642 408.559 456.402 406.497 453.137 405.322L452.122 408.145C455.043 409.196 457.941 411.039 462.881 413.951L464.405 411.367ZM453.135 405.322C448.243 403.569 444.205 402.634 435.308 401.991L435.092 404.983C443.783 405.611 447.543 406.505 452.124 408.146L453.135 405.322ZM217.806 325.053C212.197 293.676 212.157 263.908 216.556 230.82L213.582 230.425C209.149 263.77 209.181 293.853 214.853 325.581L217.806 325.053ZM216.555 230.82C217.909 220.666 220.691 210.074 222.964 199.939L220.037 199.283C217.798 209.265 214.959 220.095 213.582 230.424L216.555 230.82ZM222.964 199.94C223.537 197.394 224.435 194.63 225.384 191.719C226.324 188.836 227.312 185.816 228.008 182.868L225.089 182.177C224.426 184.983 223.48 187.88 222.532 190.789C221.593 193.669 220.647 196.572 220.037 199.282L222.964 199.94ZM227.922 183.127L228.867 180.978L226.121 179.77L225.176 181.918L227.922 183.127ZM228.978 180.594C229.381 177.879 230.996 174.071 232.965 169.476L230.207 168.295C228.309 172.724 226.484 176.96 226.01 180.153L228.978 180.594ZM232.965 169.476C245.646 139.87 259.157 116.87 276.211 95.57L273.869 93.695C256.621 115.237 242.978 138.478 230.207 168.295L232.965 169.476ZM276.211 95.5699C292.388 75.3605 308.645 60.9224 329.702 46.082L327.974 43.6298C306.731 58.6013 290.254 73.2263 273.869 93.6951L276.211 95.5699ZM329.79 46.0153C336.873 40.2001 347.644 34.1601 358.907 28.7194C370.145 23.2908 381.773 18.5057 390.502 15.185L389.435 12.381C380.649 15.7236 368.937 20.5424 357.602 26.0181C346.291 31.4818 335.255 37.6466 327.886 43.6966L329.79 46.0153ZM390.502 15.1851C406.379 9.14924 422.145 7.01111 438.967 3.88056L438.419 0.931197C421.784 4.02674 405.638 6.22127 389.436 12.3809L390.502 15.1851ZM438.968 3.88048C443.35 3.06358 452.826 2.31 462.231 1.87743C471.655 1.444 480.75 1.34527 484.4 1.78502L484.759 -1.19345C480.817 -1.66835 471.466 -1.55047 462.093 -1.11941C452.702 -0.687487 443.031 0.0713061 438.418 0.931283L438.968 3.88048ZM483.357 1.16479C491.768 12.9991 495.59 18.6686 497.497 21.6144C498.447 23.082 498.921 23.8737 499.26 24.4302C499.611 25.0068 499.842 25.3729 500.28 25.9285L502.636 24.0706C502.308 23.6547 502.15 23.4072 501.822 22.8698C501.483 22.3123 500.99 21.4897 500.015 19.9844C498.074 16.9841 494.222 11.2733 485.802 -0.573221L483.357 1.16479ZM500.282 25.9313C501.67 27.6814 505.041 31.7712 526.513 52.2569L528.584 50.0863C507.097 29.5862 503.873 25.6313 502.634 24.0678L500.282 25.9313ZM526.514 52.2581C536.054 61.3383 547.389 68.5046 557.728 76.3901L559.547 74.0047C548.913 65.8944 537.972 59.0225 528.583 50.0851L526.514 52.2581ZM557.727 76.3897C563.812 81.0351 569.807 85.4602 574.654 90.9273L576.899 88.9371C571.816 83.2036 565.549 78.5865 559.548 74.0051L557.727 76.3897ZM574.654 90.9265C579.464 96.3597 582.49 102.512 583.92 109.649L586.862 109.059C585.329 101.412 582.068 94.7747 576.9 88.9378L574.654 90.9265ZM583.92 109.649C587.729 128.66 581.779 147.643 566.287 159.283L568.089 161.682C584.628 149.255 590.865 129.044 586.862 109.059L583.92 109.649ZM566.287 159.283C556.984 166.271 546.33 169.155 534.808 168.551L534.651 171.547C546.81 172.184 558.173 169.13 568.089 161.682L566.287 159.283ZM534.808 168.551C521.165 167.838 515.006 166.209 502.63 163.907L502.081 166.857C514.355 169.139 520.76 170.821 534.651 171.547L534.808 168.551ZM500.921 165.82L517.355 219.652L520.224 218.776L503.79 164.944L500.921 165.82ZM517.787 220.33C525.601 227.353 536.514 228.649 546.317 227.203L545.88 224.235C536.537 225.613 526.68 224.288 519.792 218.099L517.787 220.33ZM546.317 227.203C552.584 226.279 556.891 224.828 560.73 223.204C564.642 221.549 567.723 219.886 572.059 218.303L571.03 215.485C566.653 217.084 563.133 218.93 559.561 220.441C555.917 221.982 551.857 223.353 545.88 224.235L546.317 227.203ZM572.281 218.201C573.411 217.564 574.203 217.056 575.166 216.558L573.787 213.893C572.782 214.414 571.75 215.056 570.808 215.588L572.281 218.201ZM575.169 216.557C575.917 216.168 576.663 215.862 577.604 215.422L576.332 212.705C575.564 213.064 574.596 213.473 573.785 213.895L575.169 216.557ZM578.439 214.359C578.769 212.718 577.905 211.237 577.186 210.203L574.723 211.917C575.429 212.932 575.558 213.467 575.498 213.768L578.439 214.359ZM577.407 210.686C572.519 191.719 569.304 175.801 579.745 158.942L577.195 157.362C566.021 175.404 569.621 192.496 574.502 211.434L577.407 210.686ZM579.745 158.942C581.223 156.558 583.113 154.304 585.056 152.117L582.814 150.124C580.85 152.334 578.816 154.747 577.195 157.361L579.745 158.942ZM585.057 152.116C593.19 142.952 602.466 137.761 614.562 136.304L614.203 133.325C601.321 134.877 591.392 140.458 582.813 150.125L585.057 152.116ZM614.56 136.304C632.129 134.205 650.328 139.163 664.391 149.935L666.215 147.554C651.529 136.304 632.547 131.134 614.204 133.325L614.56 136.304ZM664.384 149.929C665.289 150.632 667.366 152.27 669.37 154.059L671.368 151.822C669.288 149.964 667.147 148.277 666.223 147.56L664.384 149.929ZM669.37 154.06C678.176 161.916 685.755 170.733 693.981 179.486L696.167 177.431C688.06 168.806 680.304 159.795 671.367 151.821L669.37 154.06ZM693.981 179.486C709.55 196.057 727.147 211.166 747.051 222.348L748.52 219.732C728.957 208.742 711.595 193.852 696.167 177.432L693.981 179.486ZM747.05 222.347C749.028 223.46 750.557 224.417 751.338 225.003L753.139 222.604C752.193 221.894 750.523 220.858 748.521 219.732L747.05 222.347ZM751.33 224.997C751.402 225.052 751.444 225.105 751.467 225.137C751.478 225.154 751.486 225.167 751.491 225.176C751.494 225.182 751.496 225.187 751.502 225.199C751.504 225.201 751.511 225.216 751.517 225.228C751.521 225.234 751.542 225.276 751.57 225.323L754.143 223.78C754.175 223.833 754.204 223.893 754.177 223.84C754.168 223.821 754.151 223.788 754.128 223.747C754.083 223.664 754.02 223.555 753.935 223.432C753.765 223.186 753.513 222.889 753.147 222.61L751.33 224.997ZM751.827 223.461C751.225 224.029 750.437 224.558 749.46 225.17C748.518 225.759 747.397 226.427 746.318 227.207L748.074 229.638C749.048 228.935 750.036 228.348 751.051 227.713C752.03 227.1 753.047 226.435 753.886 225.642L751.827 223.461ZM746.317 227.207C716.096 249.063 699.698 269.263 677.668 297.67L680.039 299.508C702.035 271.145 718.218 251.231 748.075 229.638L746.317 227.207ZM677.668 297.669C669.653 307.997 662.94 317.247 652.804 325.24L654.661 327.596C665.15 319.325 672.106 309.729 680.038 299.509L677.668 297.669ZM652.803 325.24C637.878 337.016 617.531 342.631 599.53 335.675L598.449 338.473C617.703 345.914 639.152 339.831 654.662 327.596L652.803 325.24ZM599.531 335.675C596.504 334.503 593.643 333.335 591.127 331.625L589.441 334.107C592.274 336.032 595.433 337.305 598.448 338.473L599.531 335.675ZM591.128 331.626C577.187 322.133 570.071 310.557 566.764 297.104L563.851 297.82C567.326 311.959 574.859 324.177 589.44 334.106L591.128 331.626ZM566.764 297.104C565.846 293.362 565.861 289.342 565.973 284.943L562.974 284.867C562.863 289.239 562.825 293.637 563.851 297.819L566.764 297.104ZM565.973 284.941C566.099 279.641 566.433 274.1 567.324 268.463L564.361 267.995C563.441 273.812 563.101 279.498 562.974 284.87L565.973 284.941ZM567.324 268.463C567.82 265.331 570.088 258.038 571.319 254.699L568.504 253.661C567.261 257.035 564.905 264.556 564.361 267.994L567.324 268.463ZM569.708 252.694C565.94 253.209 561.564 254.674 557.046 257.45L558.616 260.006C562.803 257.433 566.785 256.122 570.115 255.666L569.708 252.694ZM557.047 257.449C552.191 260.427 546.399 264.488 541.669 269.19L543.783 271.317C548.285 266.843 553.862 262.921 558.615 260.007L557.047 257.449ZM541.668 269.19C529.595 281.196 524.01 292.97 517.47 307.834L520.216 309.042C526.736 294.224 532.137 282.899 543.784 271.317L541.668 269.19ZM517.42 307.963C516.92 309.463 515.931 312.395 514.685 316.117L517.53 317.07C518.771 313.362 519.766 310.41 520.266 308.912L517.42 307.963ZM514.685 316.117C513.833 318.658 512.662 321.787 511.977 325.046L514.913 325.663C515.551 322.627 516.632 319.746 517.529 317.07L514.685 316.117ZM511.977 325.047C510.686 331.205 509.304 337.812 508.096 342.959L511.017 343.644C512.234 338.455 513.625 331.807 514.913 325.662L511.977 325.047ZM508.096 342.959C507.462 345.657 506.853 348.08 506.475 349.726C506.285 350.557 506.134 351.272 506.059 351.796C506.023 352.043 505.991 352.336 506.003 352.606C506.009 352.727 506.028 352.975 506.137 353.243C506.25 353.521 506.598 354.106 507.37 354.217L507.795 351.247C508.518 351.351 508.828 351.899 508.915 352.111C508.961 352.224 508.98 352.317 508.989 352.365C508.997 352.417 509 352.453 509 352.467C509.001 352.493 508.998 352.432 509.028 352.223C509.084 351.834 509.209 351.227 509.4 350.396C509.784 348.718 510.357 346.454 511.017 343.644L508.096 342.959ZM507.369 354.216C507.73 354.268 508.009 354.175 508.103 354.141C508.226 354.096 508.319 354.045 508.369 354.016C508.471 353.956 508.55 353.895 508.591 353.862C508.681 353.791 508.771 353.709 508.843 353.64C508.995 353.497 509.19 353.3 509.408 353.077C509.629 352.851 509.891 352.579 510.181 352.28C510.471 351.978 510.793 351.645 511.14 351.291C512.532 349.864 514.291 348.117 515.942 346.736L514.018 344.435C512.243 345.919 510.396 347.758 508.993 349.195C508.64 349.556 508.314 349.894 508.022 350.196C507.73 350.499 507.475 350.763 507.262 350.981C507.045 351.203 506.887 351.361 506.783 351.459C506.728 351.512 506.713 351.523 506.726 351.513C506.728 351.511 506.776 351.472 506.852 351.428C506.889 351.406 506.971 351.36 507.085 351.319C507.169 351.288 507.441 351.196 507.796 351.247L507.369 354.216ZM515.941 346.737C517.407 345.513 520.383 344.023 523.668 342.678C526.906 341.352 530.227 340.253 532.236 339.762L531.523 336.847C529.328 337.384 525.861 338.538 522.531 339.902C519.249 341.246 515.877 342.882 514.019 344.434L515.941 346.737ZM532.354 339.727C536.894 338.213 542.115 337.387 547.531 337.387V334.387C541.821 334.387 536.277 335.256 531.405 336.882L532.354 339.727ZM547.53 337.387C553.651 337.389 560.045 338.432 566.002 339.909L566.724 336.997C560.619 335.484 553.972 334.39 547.531 334.387L547.53 337.387ZM566.001 339.909C570.613 341.053 579.226 343.785 586.787 347.438L588.092 344.736C580.308 340.976 571.492 338.18 566.724 336.997L566.001 339.909ZM586.787 347.437C596.297 352.039 606.295 357.939 615.801 363.834L617.382 361.284C607.851 355.374 597.748 349.408 588.093 344.737L586.787 347.437ZM615.801 363.834C621.991 367.671 628.538 371.245 634.395 374.714L635.924 372.133C629.913 368.572 623.566 365.118 617.381 361.284L615.801 363.834ZM634.391 374.712C649.63 383.808 659.07 381.602 675.692 381.504L675.674 378.504C658.638 378.604 650.269 380.696 635.929 372.136L634.391 374.712ZM674.227 380.364L677.503 393.611L680.415 392.891L677.139 379.644L674.227 380.364ZM679.061 391.754L656.122 390.191L655.918 393.184L678.857 394.747L679.061 391.754ZM656.142 390.192C652.65 389.908 646.812 388.915 640.983 387.617C635.137 386.314 629.462 384.741 626.248 383.334L625.046 386.083C628.546 387.614 634.465 389.238 640.331 390.545C646.214 391.855 652.206 392.882 655.899 393.183L656.142 390.192ZM626.192 383.311C619.419 380.67 612.837 376.45 605.553 372.472L604.115 375.105C611.137 378.94 618.091 383.372 625.102 386.106L626.192 383.311ZM605.552 372.472C601.169 370.082 596.465 367.806 591.961 366.073L590.884 368.873C595.232 370.545 599.813 372.759 604.116 375.106L605.552 372.472ZM591.961 366.074C583.501 362.813 572.576 358.816 562.112 356.69L561.515 359.629C571.711 361.702 582.43 365.616 590.883 368.873L591.961 366.074ZM562.113 356.69C555.334 355.309 548.685 354.849 543.091 355.351L543.359 358.339C548.609 357.868 554.961 358.295 561.514 359.629L562.113 356.69ZM543.076 355.352C540.287 355.63 536.29 356.556 532.702 357.647L533.574 360.517C537.076 359.453 540.862 358.587 543.373 358.338L543.076 355.352ZM532.704 357.646C530.701 358.253 528.577 358.917 526.999 359.749L528.398 362.403C529.676 361.729 531.51 361.142 533.573 360.518L532.704 357.646ZM527.064 359.716C526.481 359.989 524.447 360.895 522.8 361.667C521.928 362.076 521.062 362.495 520.361 362.86C520.011 363.042 519.688 363.219 519.418 363.381C519.185 363.521 518.876 363.717 518.646 363.942L520.744 366.086C520.697 366.132 520.73 366.092 520.963 365.953C521.159 365.835 521.423 365.689 521.747 365.52C522.393 365.184 523.215 364.787 524.074 364.383C525.89 363.532 527.493 362.827 528.332 362.435L527.064 359.716ZM519.047 363.661C512.811 366.646 502.397 374.875 495.876 383.46L498.265 385.275C504.528 377.03 514.579 369.126 520.343 366.367L519.047 363.661ZM495.875 383.461C493.943 386.01 492.375 388.578 491.265 391.104L494.011 392.311C495.008 390.045 496.443 387.678 498.266 385.274L495.875 383.461ZM491.263 391.107C490.672 392.46 490.258 393.83 490.057 395.201L493.025 395.636C493.182 394.565 493.512 393.453 494.012 392.308L491.263 391.107ZM490.057 395.203C489.997 395.612 489.808 396.493 489.914 397.328L492.89 396.951C492.851 396.643 492.919 396.369 493.026 395.633L490.057 395.203ZM489.902 397.139C489.902 397.417 489.98 397.624 490.005 397.686C490.039 397.775 490.075 397.844 490.096 397.881C490.138 397.956 490.179 398.014 490.199 398.042C490.243 398.104 490.288 398.158 490.319 398.195C490.385 398.275 490.467 398.365 490.552 398.455C490.725 398.64 490.957 398.873 491.213 399.112C491.467 399.349 491.762 399.607 492.058 399.833C492.327 400.038 492.704 400.301 493.107 400.452L494.161 397.643C494.188 397.653 494.098 397.616 493.878 397.448C493.686 397.301 493.469 397.114 493.259 396.918C493.051 396.724 492.866 396.537 492.738 396.401C492.673 396.332 492.633 396.286 492.616 396.266C492.605 396.253 492.617 396.266 492.639 396.297C492.648 396.31 492.68 396.355 492.717 396.42C492.735 396.452 492.769 396.516 492.802 396.601C492.825 396.66 492.902 396.864 492.902 397.139H489.902ZM493.108 400.452C493.683 400.668 494.286 400.647 494.822 400.39C495.297 400.161 495.599 399.804 495.772 399.557C495.951 399.301 496.076 399.043 496.146 398.894C496.192 398.795 496.202 398.773 496.222 398.732C496.252 398.669 496.21 398.771 496.114 398.892L493.765 397.026C493.684 397.127 493.629 397.221 493.601 397.271C493.569 397.327 493.543 397.38 493.524 397.418C493.495 397.479 493.448 397.581 493.43 397.618C493.373 397.741 493.339 397.802 493.317 397.833C493.288 397.873 493.346 397.771 493.521 397.686C493.62 397.639 493.74 397.605 493.871 397.6C494.001 397.596 494.101 397.621 494.16 397.643L493.108 400.452ZM496.12 398.883C496.494 398.406 496.798 397.918 497.064 397.477C497.342 397.015 497.562 396.63 497.824 396.237L495.325 394.576C495.014 395.044 494.732 395.533 494.493 395.931C494.241 396.349 494.014 396.707 493.758 397.035L496.12 398.883ZM497.821 396.241C503.035 388.45 511.727 379.311 519.702 374.705L518.201 372.108C509.715 377.009 500.712 386.527 495.328 394.572L497.821 396.241ZM519.701 374.706C525.627 371.286 531.723 368.294 538.157 366.964L537.55 364.026C530.638 365.454 524.209 368.64 518.202 372.107L519.701 374.706ZM538.157 366.964C548.849 364.756 561.677 365.364 573.726 368.568L574.497 365.669C562.07 362.364 548.766 361.71 537.55 364.026L538.157 366.964ZM573.727 368.569C583.714 371.22 594.178 376.031 603.298 380.839L604.697 378.185C595.502 373.338 584.806 368.406 574.497 365.669L573.727 368.569ZM603.297 380.839C605.824 382.173 610.802 385.063 615.472 387.159L616.7 384.422C612.145 382.378 607.391 379.608 604.698 378.186L603.297 380.839ZM615.472 387.159C619.065 388.77 622.652 390.381 626.248 391.997L627.477 389.26C623.881 387.645 620.293 386.033 616.7 384.422L615.472 387.159ZM626.491 392.082C628.25 392.531 629.979 393.168 631.801 393.876C633.601 394.576 635.51 395.352 637.519 396.018L638.463 393.171C636.548 392.536 634.745 391.802 632.888 391.08C631.052 390.367 629.179 389.672 627.233 389.175L626.491 392.082ZM637.517 396.018C642.381 397.635 647.708 398.86 652.64 399.953L653.289 397.024C648.351 395.93 643.164 394.734 638.464 393.171L637.517 396.018ZM652.639 399.953C662.32 402.106 671.9 402.41 680.849 402.376L680.837 399.376C671.946 399.41 662.636 399.103 653.29 397.024L652.639 399.953ZM679.387 401.236L686.164 428.622L689.076 427.901L682.299 400.515L679.387 401.236ZM687.611 426.762L651.493 426.989L651.511 429.989L687.63 429.762L687.611 426.762ZM651.633 426.995C646.736 426.564 640.348 424.543 632.975 422.06L632.017 424.903C639.303 427.357 646.049 429.515 651.371 429.983L651.633 426.995ZM632.976 422.06C626.288 419.801 618.98 417.299 612.629 414.416L611.389 417.147C617.898 420.103 625.348 422.65 632.016 424.902L632.976 422.06ZM612.629 414.416C605.88 411.35 599.895 407.981 595.586 405.457L594.07 408.046C598.416 410.592 604.503 414.019 611.388 417.147L612.629 414.416ZM595.586 405.457C587.373 400.649 581.013 397.213 573.764 394.846L572.833 397.697C579.754 399.957 585.878 403.25 594.07 408.046L595.586 405.457ZM573.765 394.846C567.396 392.765 560.061 391.503 554.592 390.901L554.264 393.883C559.61 394.472 566.725 395.702 572.833 397.697L573.765 394.846ZM554.593 390.901C548.687 390.248 546.38 390.564 538.424 390.766L538.499 393.765C546.612 393.56 548.62 393.259 554.263 393.883L554.593 390.901ZM538.47 390.765C536.606 390.755 534.655 390.738 533.017 390.64C532.198 390.591 531.488 390.523 530.924 390.432C530.316 390.334 530.031 390.231 529.955 390.189C529.919 390.169 530.093 390.249 530.229 390.506C530.407 390.841 530.379 391.2 530.279 391.435C530.208 391.602 530.133 391.636 530.237 391.546C530.324 391.471 530.489 391.351 530.767 391.191C531.915 390.528 534.266 389.577 538.387 388.265L537.477 385.407C533.358 386.718 530.726 387.751 529.268 388.592C528.895 388.807 528.556 389.034 528.276 389.276C528.011 389.505 527.702 389.828 527.518 390.261C527.306 390.762 527.286 391.36 527.58 391.913C527.831 392.387 528.227 392.662 528.507 392.816C529.063 393.122 529.784 393.286 530.445 393.393C531.15 393.507 531.971 393.583 532.838 393.635C534.571 393.739 536.603 393.755 538.453 393.765L538.47 390.765ZM538.387 388.266C542.118 387.079 547.346 386.307 552.726 386.028C558.1 385.749 563.501 385.968 567.563 386.702L568.097 383.75C563.737 382.962 558.09 382.745 552.57 383.032C547.056 383.318 541.546 384.113 537.477 385.407L538.387 388.266ZM567.834 386.726C567.749 386.726 567.77 386.716 568.004 386.768C568.195 386.811 568.456 386.878 568.784 386.971C569.439 387.156 570.305 387.425 571.323 387.756C573.355 388.418 575.939 389.309 578.53 390.223C583.716 392.052 588.873 393.95 589.612 394.238L590.702 391.443C589.914 391.136 584.717 389.224 579.527 387.393C576.929 386.477 574.319 385.576 572.251 384.904C571.219 384.568 570.31 384.284 569.599 384.084C569.245 383.984 568.925 383.9 568.657 383.84C568.431 383.79 568.113 383.725 567.825 383.726L567.834 386.726ZM589.926 394.322C591.178 394.517 593.521 395.308 596.096 396.259C598.567 397.172 601.223 398.221 602.822 398.778L603.809 395.945C602.226 395.393 599.733 394.404 597.135 393.445C594.641 392.524 591.996 391.608 590.388 391.358L589.926 394.322ZM602.822 398.778C615.331 403.132 628.724 408.247 641.784 411.021L642.408 408.087C629.587 405.363 616.45 400.345 603.808 395.945L602.822 398.778ZM641.784 411.021C644.087 411.511 646.141 412.1 648.158 412.151L648.235 409.152C646.585 409.11 645.02 408.643 642.408 408.087L641.784 411.021ZM648.205 412.152C652.462 412.127 656.509 412.847 661.366 411.121L660.362 408.294C656.142 409.794 653.048 409.123 648.188 409.152L648.205 412.152ZM661.234 408.254C652.065 405.922 643.244 404.405 634.899 401.604L633.944 404.448C642.41 407.29 651.651 408.912 660.494 411.162L661.234 408.254ZM634.899 401.604C631.57 400.487 628.185 399.605 625.206 398.32L624.018 401.075C627.141 402.422 630.895 403.425 633.945 404.448L634.899 401.604ZM625.205 398.32C623.979 397.792 622.749 397.296 621.55 396.816C620.345 396.333 619.176 395.867 618.045 395.39L616.878 398.154C618.041 398.644 619.24 399.122 620.434 399.6C621.633 400.081 622.831 400.564 624.019 401.075L625.205 398.32ZM618.043 395.389C606.061 390.348 593.197 384.724 580.405 380.219L579.409 383.049C592.092 387.515 604.84 393.089 616.88 398.154L618.043 395.389ZM580.406 380.22C574.324 378.075 568.286 375.844 562.227 374.648L561.646 377.591C567.442 378.735 573.239 380.874 579.409 383.049L580.406 380.22ZM562.227 374.648C551.636 372.558 541.094 372.492 530.542 376.13L531.519 378.966C541.443 375.545 551.424 375.574 561.646 377.591L562.227 374.648ZM530.542 376.13C519.63 379.892 510.419 385.397 503.036 392.776L505.157 394.897C512.173 387.885 520.975 382.601 531.52 378.966L530.542 376.13ZM503.022 392.79C501.641 394.207 500.388 395.505 499.138 396.801C497.886 398.098 496.638 399.392 495.262 400.804L497.411 402.897C498.792 401.479 500.046 400.181 501.296 398.884C502.547 397.588 503.796 396.294 505.171 394.883L503.022 392.79ZM494.837 401.88C494.92 406.147 495.755 409.628 497.658 412.12C499.611 414.677 502.506 415.963 506.167 416.188L506.351 413.193C503.324 413.007 501.339 411.997 500.043 410.3C498.697 408.537 497.914 405.804 497.836 401.821L494.837 401.88ZM506.986 416.002C509.104 414.827 510.954 413.622 512.646 412.523C514.354 411.414 515.88 410.428 517.429 409.623L516.045 406.961C514.346 407.844 512.699 408.912 511.012 410.007C509.309 411.112 507.544 412.262 505.531 413.379L506.986 416.002ZM517.43 409.622C518.547 409.04 520.865 408.175 523.333 407.349C525.773 406.532 528.218 405.8 529.524 405.477L528.801 402.565C527.385 402.916 524.855 403.676 522.381 404.504C519.936 405.322 517.401 406.254 516.044 406.962L517.43 409.622ZM529.526 405.476C537.849 403.398 543.743 402.911 552.282 403.068L552.337 400.069C543.587 399.907 537.424 400.412 528.799 402.565L529.526 405.476ZM552.281 403.068C563.161 403.275 573.201 405.573 582.593 409.132L583.656 406.326C573.996 402.666 563.616 400.284 552.338 400.069L552.281 403.068ZM582.592 409.131C589.802 411.868 596.392 415.418 603.73 418.744L604.968 416.012C597.889 412.802 590.967 409.101 583.657 406.326L582.592 409.131ZM603.73 418.744C609.981 421.578 616.508 424.234 623.165 426.646L624.187 423.825C617.602 421.439 611.147 418.813 604.968 416.012L603.73 418.744ZM623.218 426.664C637.472 431.23 645.623 433.499 660.191 436.046L660.708 433.091C646.315 430.575 638.303 428.346 624.133 423.807L623.218 426.664ZM660.191 436.046C669.002 437.585 680.744 437.029 689.407 436.87L689.353 433.871C680.49 434.033 669.152 434.566 660.707 433.09L660.191 436.046ZM687.924 435.73L690.423 445.844L693.335 445.124L690.836 435.011L687.924 435.73ZM691.816 443.985C684.881 444.28 674.688 443.206 665.033 442.036L664.672 445.014C674.276 446.178 684.719 447.289 691.943 446.982L691.816 443.985ZM665.034 442.036C652.669 440.534 641.203 439.181 629.078 436.709L628.479 439.648C640.743 442.148 652.333 443.515 664.672 445.014L665.034 442.036ZM629.11 436.716C621.914 435.085 611.961 433.384 601.76 430.705L600.998 433.607C611.224 436.292 621.506 438.068 628.447 439.642L629.11 436.716ZM601.761 430.705C593.332 428.487 581.94 425.226 571.401 422.561L570.666 425.469C581.222 428.139 592.441 431.355 600.997 433.606L601.761 430.705ZM571.402 422.561C557.63 419.072 539.231 416.096 525.036 416.363L525.092 419.362C538.925 419.102 557.04 422.017 570.665 425.469L571.402 422.561ZM525.036 416.363C520.217 416.452 515.401 417.061 510.155 417.549L510.433 420.537C515.813 420.036 520.422 419.449 525.092 419.362L525.036 416.363ZM509.052 418.203C507.876 419.941 507.073 422.031 506.267 423.879L509.016 425.079C509.908 423.036 510.562 421.325 511.537 419.883L509.052 418.203ZM506.268 423.876C504.044 428.947 501.537 434.316 497.513 437.907L499.511 440.146C504.093 436.056 506.823 430.078 509.015 425.081L506.268 423.876ZM497.558 437.869C495.007 439.971 492.42 441.577 488.539 442.724L489.39 445.601C493.73 444.318 496.668 442.489 499.466 440.184L497.558 437.869ZM488.54 442.724C482.914 444.385 478.803 443.726 475.173 441.978L473.872 444.681C478.174 446.753 483.052 447.473 489.389 445.601L488.54 442.724ZM475.174 441.978C472.212 440.55 469.466 438.477 467.296 435.741L464.945 437.605C467.424 440.731 470.543 443.076 473.871 444.681L475.174 441.978ZM467.295 435.74C464.399 432.092 462.126 427.567 459.493 423L456.894 424.498C459.401 428.847 461.865 433.725 464.946 437.606L467.295 435.74ZM457.95 422.269C449.873 423.596 417.229 428.58 386.614 434.003L387.137 436.957C417.732 431.538 450.304 426.565 458.437 425.229L457.95 422.269ZM386.614 434.003C375.437 435.985 362.242 437.927 349.449 440.279L349.991 443.23C362.891 440.858 375.721 438.982 387.138 436.957L386.614 434.003ZM349.448 440.279C334.102 443.109 316.939 446.136 303.428 448.22L303.885 451.185C317.44 449.094 334.636 446.061 349.992 443.229L349.448 440.279ZM303.429 448.22C296.278 449.319 290.152 450.24 285.823 450.897L286.273 453.863C290.597 453.207 296.73 452.285 303.885 451.185L303.429 448.22ZM285.822 450.897L275.122 452.53L275.574 455.495L286.274 453.863L285.822 450.897ZM274.223 455.004L286.479 468.91L288.73 466.927L276.473 453.021L274.223 455.004ZM287.849 469.398C320.07 464.074 356.776 458.067 389.028 452.335L388.503 449.381C356.274 455.109 319.59 461.113 287.36 466.438L287.849 469.398ZM389.028 452.335C408.1 448.945 427.232 445.495 446.19 441.646L445.593 438.706C426.675 442.547 407.574 445.992 388.503 449.381L389.028 452.335ZM444.961 441.353C445.515 441.791 446.224 442.562 447.093 443.63C447.949 444.682 448.881 445.922 449.901 447.256C451.899 449.872 454.224 452.845 456.615 454.877L458.558 452.591C456.452 450.802 454.316 448.093 452.284 445.435C451.289 444.131 450.314 442.835 449.42 441.736C448.539 440.654 447.654 439.659 446.822 439L444.961 441.353ZM456.582 454.848C462.097 459.825 467.858 463.516 474.64 464.634L475.127 461.674C469.154 460.689 463.908 457.419 458.592 452.621L456.582 454.848ZM474.64 464.634C478.062 465.197 481.486 465.761 484.911 466.322L485.396 463.361C481.972 462.801 478.551 462.237 475.127 461.674L474.64 464.634ZM486.653 464.852L486.786 446.753L483.786 446.731L483.653 464.83L486.653 464.852ZM485.735 448.173C486.77 447.848 487.76 447.611 488.732 447.392C489.685 447.178 490.668 446.973 491.586 446.727L490.811 443.829C489.97 444.054 489.091 444.237 488.074 444.465C487.077 444.689 485.991 444.949 484.836 445.311L485.735 448.173ZM491.586 446.727C496.002 445.548 499.522 443.769 502.712 441.574L501.011 439.103C498.069 441.128 494.858 442.748 490.812 443.829L491.586 446.727ZM502.713 441.574C506.37 439.055 509.585 435.926 512.076 432.112L509.564 430.472C507.313 433.919 504.388 436.778 501.011 439.103L502.713 441.574ZM512.075 432.114C513.524 429.901 514.501 427.549 515.648 425.106L512.932 423.831C511.707 426.44 510.862 428.489 509.565 430.47L512.075 432.114ZM514.148 425.961L522.695 426.772L522.978 423.785L514.432 422.975L514.148 425.961ZM522.597 426.759C579.755 435.986 636.755 445.852 693.798 455.755L694.311 452.799C637.269 442.896 580.253 433.027 523.075 423.798L522.597 426.759ZM692.599 454.638L696.249 469.383L699.162 468.662L695.511 453.917L692.599 454.638ZM697.857 467.531C690.633 466.797 683.47 465.412 675.912 464.21L675.441 467.173C682.867 468.354 690.218 469.77 697.554 470.515L697.857 467.531ZM675.912 464.211C663.525 462.237 650.716 460.189 637.845 458.004L637.343 460.962C650.231 463.15 663.054 465.2 675.44 467.173L675.912 464.211ZM637.844 458.004C610.013 453.286 581.287 448.749 555.306 444.371L554.807 447.329C580.931 451.731 609.413 456.227 637.343 460.962L637.844 458.004ZM555.31 444.372C544.771 442.566 534.711 440.873 524.138 439.274L523.69 442.24C534.232 443.834 544.268 445.524 554.803 447.329L555.31 444.372ZM522.536 440.164C521.167 443.344 518.76 446.241 515.928 448.954L518.003 451.12C520.959 448.289 523.692 445.064 525.292 441.35L522.536 440.164ZM515.926 448.956C511.829 452.894 506.824 456.369 501.438 458.798L502.671 461.533C508.387 458.955 513.675 455.281 518.005 451.118L515.926 448.956ZM501.438 458.798C495.995 461.25 490.111 462.67 485.061 463.4L485.489 466.369C490.736 465.611 496.906 464.13 502.671 461.533L501.438 458.798ZM483.775 464.884L483.756 547.811L486.756 547.812L486.775 464.885L483.775 464.884ZM485.215 546.312C457.928 547.055 441.014 545.579 424.717 542.14L424.098 545.075C440.689 548.576 457.85 550.058 485.297 549.311L485.215 546.312ZM424.717 542.14C412.284 539.517 389.921 533.764 378.138 528.441L376.903 531.174C389.006 536.642 411.645 542.448 424.098 545.075L424.717 542.14ZM378.158 528.45C370.184 524.707 361.846 521.417 354.768 517.494L353.313 520.118C360.495 524.098 369.166 527.543 376.883 531.165L378.158 528.45ZM354.767 517.494C345.938 512.605 337.728 507.567 329.583 502.099L327.911 504.589C336.125 510.104 344.408 515.187 353.314 520.118L354.767 517.494ZM329.582 502.098C325.703 499.497 321.889 496.512 318.124 493.625L316.298 496.005C320.024 498.863 323.933 501.922 327.912 504.59L329.582 502.098ZM318.122 493.624C312.169 489.069 305.653 483.563 299.482 477.661L297.409 479.828C303.664 485.811 310.263 491.388 316.299 496.006L318.122 493.624ZM299.482 477.66C297.643 475.903 295.89 474.047 294.097 472.183C292.317 470.331 290.504 468.477 288.598 466.794L286.612 469.043C288.418 470.637 290.157 472.412 291.935 474.262C293.7 476.098 295.512 478.016 297.409 479.829L299.482 477.66ZM287.393 466.433L270.882 468.791L271.306 471.761L287.817 469.403L287.393 466.433ZM272.545 470.655L276.799 454.392L273.897 453.633L269.643 469.896L272.545 470.655ZM276.511 453.066C274.904 451.09 273.295 449.094 271.694 447.034L269.325 448.876C270.947 450.961 272.572 452.977 274.184 454.959L276.511 453.066ZM271.694 447.034C268.273 442.637 264.882 438.128 262.042 433.787L259.532 435.43C262.441 439.876 265.892 444.463 269.326 448.876L271.694 447.034ZM262.043 433.788C252.158 418.658 242.751 401.884 235.601 385.261L232.845 386.446C240.078 403.261 249.574 420.188 259.531 435.429L262.043 433.788ZM235.601 385.261C230.288 372.909 225.81 360.328 222.691 347.283L219.773 347.98C222.941 361.232 227.482 373.979 232.845 386.446L235.601 385.261ZM222.691 347.282C221.397 341.881 218.711 330.1 217.806 325.053L214.853 325.582C215.775 330.725 218.481 342.585 219.773 347.981L222.691 347.282Z" fill="#1D724E" mask="url(#path-2-inside-1_24_3815)"/>
</svg>
