<svg width="22" height="22" viewBox="0 0 22 22" fill="none" xmlns="http://www.w3.org/2000/svg">
<g clip-path="url(#clip0_3_857)">
<path d="M11 7.5625C11 6.83315 11.2897 6.13368 11.8055 5.61796C12.3212 5.10223 13.0207 4.8125 13.75 4.8125H19.25C19.4323 4.8125 19.6072 4.88493 19.7361 5.01386C19.8651 5.1428 19.9375 5.31766 19.9375 5.5V16.5C19.9375 16.6823 19.8651 16.8572 19.7361 16.9861C19.6072 17.1151 19.4323 17.1875 19.25 17.1875H13.75C13.0207 17.1875 12.3212 17.4772 11.8055 17.993C11.2897 18.5087 11 19.2082 11 19.9375" stroke="white" stroke-width="1.5" stroke-linecap="round" stroke-linejoin="round"/>
<path d="M2.0625 16.5C2.0625 16.6823 2.13493 16.8572 2.26386 16.9861C2.3928 17.1151 2.56766 17.1875 2.75 17.1875H8.25C8.97935 17.1875 9.67882 17.4772 10.1945 17.993C10.7103 18.5087 11 19.2082 11 19.9375V7.5625C11 6.83315 10.7103 6.13368 10.1945 5.61796C9.67882 5.10223 8.97935 4.8125 8.25 4.8125H2.75C2.56766 4.8125 2.3928 4.88493 2.26386 5.01386C2.13493 5.1428 2.0625 5.31766 2.0625 5.5V16.5Z" stroke="white" stroke-width="1.5" stroke-linecap="round" stroke-linejoin="round"/>
<path d="M13.75 8.25H17.1875" stroke="white" stroke-width="1.5" stroke-linecap="round" stroke-linejoin="round"/>
<path d="M13.75 11H17.1875" stroke="white" stroke-width="1.5" stroke-linecap="round" stroke-linejoin="round"/>
<path d="M13.75 13.75H17.1875" stroke="white" stroke-width="1.5" stroke-linecap="round" stroke-linejoin="round"/>
</g>
<defs>
<clipPath id="clip0_3_857">
<rect width="22" height="22" fill="white"/>
</clipPath>
</defs>
</svg>
