<svg width="48" height="48" viewBox="0 0 48 48" fill="none" xmlns="http://www.w3.org/2000/svg">
<g clip-path="url(#clip0_1_347)">
<path d="M19.5 7.5H10.5C9.67157 7.5 9 8.17157 9 9V39C9 39.8284 9.67157 40.5 10.5 40.5H19.5C20.3284 40.5 21 39.8284 21 39V9C21 8.17157 20.3284 7.5 19.5 7.5Z" fill="white" stroke="white" stroke-width="2" stroke-linecap="round" stroke-linejoin="round"/>
<path d="M40.8129 38.5819L32.0361 40.4569C31.8426 40.4981 31.6429 40.5005 31.4485 40.4642C31.2541 40.4279 31.0688 40.3535 30.9032 40.2453C30.7376 40.1371 30.5951 39.9972 30.4839 39.8337C30.3726 39.6701 30.2947 39.4862 30.2548 39.2925L24.0336 9.71252C23.9499 9.32177 24.0242 8.91379 24.2402 8.57761C24.4562 8.24143 24.7965 8.00436 25.1867 7.91815L33.9636 6.04315C34.157 6.00199 34.3567 5.9995 34.5511 6.03582C34.7455 6.07214 34.9309 6.14655 35.0964 6.25477C35.262 6.36299 35.4045 6.50288 35.5158 6.66639C35.627 6.8299 35.7049 7.01381 35.7448 7.20752L41.9661 36.7875C42.0497 37.1783 41.9755 37.5863 41.7594 37.9224C41.5434 38.2586 41.2031 38.4957 40.8129 38.5819Z" fill="white" stroke="white" stroke-width="2" stroke-linecap="round" stroke-linejoin="round"/>
<path d="M8 14H22" stroke="#05633B" stroke-width="2" stroke-linecap="round" stroke-linejoin="round"/>
<path d="M8 35H22" stroke="#05633B" stroke-width="2" stroke-linecap="round" stroke-linejoin="round"/>
<path d="M24 14.5L37.5 11.5" stroke="#05633B" stroke-width="2" stroke-linecap="round" stroke-linejoin="round"/>
<path d="M25.5 20.5L39 17" stroke="#05633B" stroke-width="2" stroke-linecap="round" stroke-linejoin="round"/>
<path d="M28.5 35.5L42 31.5" stroke="#05633B" stroke-width="2" stroke-linecap="round" stroke-linejoin="round"/>
</g>
<defs>
<clipPath id="clip0_1_347">
<rect width="48" height="48" fill="white"/>
</clipPath>
</defs>
</svg>
