<svg width="22" height="22" viewBox="0 0 22 22" fill="none" xmlns="http://www.w3.org/2000/svg">
<g clip-path="url(#clip0_3_842)">
<path d="M11 19.25C15.5563 19.25 19.25 15.5563 19.25 11C19.25 6.44365 15.5563 2.75 11 2.75C6.44365 2.75 2.75 6.44365 2.75 11C2.75 15.5563 6.44365 19.25 11 19.25Z" stroke="#000905" stroke-width="1.5" stroke-linecap="round" stroke-linejoin="round"/>
<path d="M7.5625 11.0001C7.5625 14.2193 8.70805 17.0948 10.5084 19.0344C10.571 19.1024 10.647 19.1567 10.7316 19.1939C10.8162 19.231 10.9076 19.2502 11 19.2502C11.0924 19.2502 11.1838 19.231 11.2684 19.1939C11.353 19.1567 11.429 19.1024 11.4916 19.0344C13.292 17.0948 14.4375 14.2193 14.4375 11.0001C14.4375 7.78089 13.292 4.90542 11.4916 2.96581C11.429 2.89778 11.353 2.84348 11.2684 2.80633C11.1838 2.76918 11.0924 2.75 11 2.75C10.9076 2.75 10.8162 2.76918 10.7316 2.80633C10.647 2.84348 10.571 2.89778 10.5084 2.96581C8.70805 4.90542 7.5625 7.78089 7.5625 11.0001Z" stroke="#000905" stroke-width="1.5" stroke-linecap="round" stroke-linejoin="round"/>
<path d="M3.21924 8.25H18.7808" stroke="#000905" stroke-width="1.5" stroke-linecap="round" stroke-linejoin="round"/>
<path d="M3.21924 13.75H18.7808" stroke="#000905" stroke-width="1.5" stroke-linecap="round" stroke-linejoin="round"/>
</g>
<defs>
<clipPath id="clip0_3_842">
<rect width="22" height="22" fill="white"/>
</clipPath>
</defs>
</svg>
