<svg width="212" height="85" viewBox="0 0 212 85" fill="none" xmlns="http://www.w3.org/2000/svg">
<path d="M105.228 31.168C104.509 31.168 103.879 31.042 103.338 30.79C102.797 30.538 102.372 30.1787 102.064 29.712C101.765 29.2453 101.611 28.69 101.602 28.046H103.17C103.179 28.5687 103.361 29.012 103.716 29.376C104.071 29.74 104.57 29.922 105.214 29.922C105.783 29.922 106.227 29.7867 106.544 29.516C106.871 29.236 107.034 28.8813 107.034 28.452C107.034 28.1067 106.955 27.8267 106.796 27.612C106.647 27.3973 106.437 27.22 106.166 27.08C105.905 26.94 105.601 26.814 105.256 26.702C104.911 26.59 104.547 26.4687 104.164 26.338C103.408 26.086 102.839 25.7593 102.456 25.358C102.083 24.9567 101.896 24.4293 101.896 23.776C101.887 23.2253 102.013 22.7447 102.274 22.334C102.545 21.9233 102.918 21.606 103.394 21.382C103.879 21.1487 104.444 21.032 105.088 21.032C105.723 21.032 106.278 21.1487 106.754 21.382C107.239 21.6153 107.617 21.942 107.888 22.362C108.159 22.7727 108.299 23.2533 108.308 23.804H106.74C106.74 23.552 106.675 23.314 106.544 23.09C106.413 22.8567 106.222 22.6653 105.97 22.516C105.718 22.3667 105.41 22.292 105.046 22.292C104.579 22.2827 104.192 22.3993 103.884 22.642C103.585 22.8847 103.436 23.2207 103.436 23.65C103.436 24.0327 103.548 24.3267 103.772 24.532C103.996 24.7373 104.304 24.91 104.696 25.05C105.088 25.1807 105.536 25.3347 106.04 25.512C106.525 25.6707 106.959 25.862 107.342 26.086C107.725 26.31 108.028 26.604 108.252 26.968C108.485 27.332 108.602 27.794 108.602 28.354C108.602 28.8487 108.476 29.3107 108.224 29.74C107.972 30.16 107.594 30.5053 107.09 30.776C106.586 31.0373 105.965 31.168 105.228 31.168ZM105.074 20.5L103.1 19.366V18.274L105.074 19.45L107.062 18.274V19.366L105.074 20.5Z" fill="#05633B"/>
<path d="M111.008 22.74C110.728 22.74 110.495 22.656 110.308 22.488C110.131 22.3107 110.042 22.0913 110.042 21.83C110.042 21.5687 110.131 21.354 110.308 21.186C110.495 21.0087 110.728 20.92 111.008 20.92C111.288 20.92 111.517 21.0087 111.694 21.186C111.881 21.354 111.974 21.5687 111.974 21.83C111.974 22.0913 111.881 22.3107 111.694 22.488C111.517 22.656 111.288 22.74 111.008 22.74ZM110.266 31V24.056H111.75V31H110.266Z" fill="#05633B"/>
<path d="M116.061 31.168C115.473 31.168 114.988 31.07 114.605 30.874C114.223 30.678 113.938 30.4213 113.751 30.104C113.565 29.7773 113.471 29.4227 113.471 29.04C113.471 28.368 113.733 27.836 114.255 27.444C114.778 27.052 115.525 26.856 116.495 26.856H118.315V26.73C118.315 26.1887 118.166 25.7827 117.867 25.512C117.578 25.2413 117.2 25.106 116.733 25.106C116.323 25.106 115.963 25.2087 115.655 25.414C115.357 25.61 115.175 25.904 115.109 26.296H113.625C113.672 25.792 113.84 25.3627 114.129 25.008C114.428 24.644 114.801 24.3687 115.249 24.182C115.707 23.986 116.206 23.888 116.747 23.888C117.718 23.888 118.469 24.1447 119.001 24.658C119.533 25.162 119.799 25.8527 119.799 26.73V31H118.511L118.385 29.81C118.189 30.1927 117.905 30.5147 117.531 30.776C117.158 31.0373 116.668 31.168 116.061 31.168ZM116.355 29.964C116.757 29.964 117.093 29.8707 117.363 29.684C117.643 29.488 117.858 29.2313 118.007 28.914C118.166 28.5967 118.264 28.2467 118.301 27.864H116.649C116.061 27.864 115.641 27.9667 115.389 28.172C115.147 28.3773 115.025 28.634 115.025 28.942C115.025 29.2593 115.142 29.5113 115.375 29.698C115.618 29.8753 115.945 29.964 116.355 29.964Z" fill="#05633B"/>
<path d="M124.092 31.168C123.252 31.168 122.589 30.9067 122.104 30.384C121.628 29.8613 121.39 29.082 121.39 28.046V24.056H122.874V27.892C122.874 29.236 123.424 29.908 124.526 29.908C125.076 29.908 125.529 29.712 125.884 29.32C126.238 28.928 126.416 28.368 126.416 27.64V24.056H127.9V31H126.584L126.472 29.782C126.257 30.2113 125.94 30.552 125.52 30.804C125.109 31.0467 124.633 31.168 124.092 31.168Z" fill="#05633B"/>
<path d="M129.788 31V20.92H131.272V31H129.788Z" fill="#05633B"/>
<path d="M133.991 22.74C133.711 22.74 133.478 22.656 133.291 22.488C133.114 22.3107 133.025 22.0913 133.025 21.83C133.025 21.5687 133.114 21.354 133.291 21.186C133.478 21.0087 133.711 20.92 133.991 20.92C134.271 20.92 134.5 21.0087 134.677 21.186C134.864 21.354 134.957 21.5687 134.957 21.83C134.957 22.0913 134.864 22.3107 134.677 22.488C134.5 22.656 134.271 22.74 133.991 22.74ZM133.249 31V24.056H134.733V31H133.249Z" fill="#05633B"/>
<path d="M139.254 31.168C138.414 31.168 137.751 30.9067 137.266 30.384C136.79 29.8613 136.552 29.082 136.552 28.046V24.056H138.036V27.892C138.036 29.236 138.587 29.908 139.688 29.908C140.239 29.908 140.691 29.712 141.046 29.32C141.401 28.928 141.578 28.368 141.578 27.64V24.056H143.062V31H141.746L141.634 29.782C141.419 30.2113 141.102 30.552 140.682 30.804C140.271 31.0467 139.795 31.168 139.254 31.168ZM141.984 33.898C141.527 33.898 141.121 33.786 140.766 33.562C140.411 33.3473 140.234 32.9927 140.234 32.498C140.234 32.1433 140.365 31.8073 140.626 31.49C140.887 31.182 141.354 30.8787 142.026 30.58L142.712 30.272L143.062 31L142.292 31.378C141.965 31.546 141.732 31.7093 141.592 31.868C141.461 32.0267 141.396 32.19 141.396 32.358C141.396 32.554 141.466 32.708 141.606 32.82C141.746 32.932 141.933 32.988 142.166 32.988C142.465 32.988 142.787 32.918 143.132 32.778V33.702C142.964 33.758 142.782 33.8047 142.586 33.842C142.39 33.8793 142.189 33.898 141.984 33.898Z" fill="#05633B"/>
<path d="M150.829 31.168C150.241 31.168 149.756 31.07 149.373 30.874C148.99 30.678 148.706 30.4213 148.519 30.104C148.332 29.7773 148.239 29.4227 148.239 29.04C148.239 28.368 148.5 27.836 149.023 27.444C149.546 27.052 150.292 26.856 151.263 26.856H153.083V26.73C153.083 26.1887 152.934 25.7827 152.635 25.512C152.346 25.2413 151.968 25.106 151.501 25.106C151.09 25.106 150.731 25.2087 150.423 25.414C150.124 25.61 149.942 25.904 149.877 26.296H148.393C148.44 25.792 148.608 25.3627 148.897 25.008C149.196 24.644 149.569 24.3687 150.017 24.182C150.474 23.986 150.974 23.888 151.515 23.888C152.486 23.888 153.237 24.1447 153.769 24.658C154.301 25.162 154.567 25.8527 154.567 26.73V31H153.279L153.153 29.81C152.957 30.1927 152.672 30.5147 152.299 30.776C151.926 31.0373 151.436 31.168 150.829 31.168ZM151.123 29.964C151.524 29.964 151.86 29.8707 152.131 29.684C152.411 29.488 152.626 29.2313 152.775 28.914C152.934 28.5967 153.032 28.2467 153.069 27.864H151.417C150.829 27.864 150.409 27.9667 150.157 28.172C149.914 28.3773 149.793 28.634 149.793 28.942C149.793 29.2593 149.91 29.5113 150.143 29.698C150.386 29.8753 150.712 29.964 151.123 29.964Z" fill="#05633B"/>
<path d="M156.297 34.08V24.056H157.627L157.781 25.134C158.005 24.8073 158.313 24.518 158.705 24.266C159.097 24.014 159.601 23.888 160.217 23.888C160.889 23.888 161.482 24.0467 161.995 24.364C162.509 24.6813 162.91 25.1153 163.199 25.666C163.498 26.2167 163.647 26.842 163.647 27.542C163.647 28.242 163.498 28.8673 163.199 29.418C162.91 29.9593 162.509 30.3887 161.995 30.706C161.482 31.014 160.885 31.168 160.203 31.168C159.662 31.168 159.181 31.0607 158.761 30.846C158.351 30.6313 158.024 30.328 157.781 29.936V34.08H156.297ZM159.951 29.88C160.586 29.88 161.109 29.6653 161.519 29.236C161.93 28.7973 162.135 28.228 162.135 27.528C162.135 27.0707 162.042 26.6647 161.855 26.31C161.669 25.9553 161.412 25.68 161.085 25.484C160.759 25.2787 160.381 25.176 159.951 25.176C159.317 25.176 158.794 25.3953 158.383 25.834C157.982 26.2727 157.781 26.8373 157.781 27.528C157.781 28.228 157.982 28.7973 158.383 29.236C158.794 29.6653 159.317 29.88 159.951 29.88Z" fill="#05633B"/>
<path d="M168.024 31.168C167.147 31.168 166.424 30.9533 165.854 30.524C165.285 30.0947 164.958 29.5253 164.874 28.816H166.372C166.447 29.1333 166.624 29.4087 166.904 29.642C167.184 29.866 167.553 29.978 168.01 29.978C168.458 29.978 168.785 29.8847 168.99 29.698C169.196 29.5113 169.298 29.2967 169.298 29.054C169.298 28.6993 169.154 28.4613 168.864 28.34C168.584 28.2093 168.192 28.0927 167.688 27.99C167.296 27.906 166.904 27.794 166.512 27.654C166.13 27.514 165.808 27.318 165.546 27.066C165.294 26.8047 165.168 26.4547 165.168 26.016C165.168 25.4093 165.402 24.9053 165.868 24.504C166.335 24.0933 166.988 23.888 167.828 23.888C168.603 23.888 169.228 24.0747 169.704 24.448C170.19 24.8213 170.474 25.3487 170.558 26.03H169.13C169.084 25.7313 168.944 25.498 168.71 25.33C168.486 25.162 168.183 25.078 167.8 25.078C167.427 25.078 167.138 25.1573 166.932 25.316C166.727 25.4653 166.624 25.6613 166.624 25.904C166.624 26.1467 166.764 26.338 167.044 26.478C167.334 26.618 167.712 26.744 168.178 26.856C168.645 26.9587 169.074 27.08 169.466 27.22C169.868 27.3507 170.19 27.5467 170.432 27.808C170.675 28.0693 170.796 28.452 170.796 28.956C170.806 29.5907 170.558 30.118 170.054 30.538C169.56 30.958 168.883 31.168 168.024 31.168Z" fill="#05633B"/>
<path d="M172.417 31V20.92H173.901V26.926L176.561 24.056H178.339L175.385 27.206L178.773 31H176.897L173.901 27.444V31H172.417Z" fill="#05633B"/>
<path d="M179.922 31V24.056H181.252L181.378 25.372C181.621 24.9147 181.957 24.5553 182.386 24.294C182.825 24.0233 183.352 23.888 183.968 23.888V25.442H183.562C183.152 25.442 182.783 25.512 182.456 25.652C182.139 25.7827 181.882 26.0113 181.686 26.338C181.5 26.6553 181.406 27.0987 181.406 27.668V31H179.922Z" fill="#05633B"/>
<path d="M186.081 22.74C185.801 22.74 185.567 22.656 185.381 22.488C185.203 22.3107 185.115 22.0913 185.115 21.83C185.115 21.5687 185.203 21.354 185.381 21.186C185.567 21.0087 185.801 20.92 186.081 20.92C186.361 20.92 186.589 21.0087 186.767 21.186C186.953 21.354 187.047 21.5687 187.047 21.83C187.047 22.0913 186.953 22.3107 186.767 22.488C186.589 22.656 186.361 22.74 186.081 22.74ZM185.339 31V24.056H186.823V31H185.339Z" fill="#05633B"/>
<path d="M191.694 31C191.012 31 190.471 30.8367 190.07 30.51C189.668 30.174 189.468 29.5813 189.468 28.732V25.302H188.278V24.056H189.468L189.65 22.292H190.952V24.056H192.912V25.302H190.952V28.732C190.952 29.1147 191.031 29.3807 191.19 29.53C191.358 29.67 191.642 29.74 192.044 29.74H192.842V31H191.694Z" fill="#05633B"/>
<path d="M195.282 22.74C195.002 22.74 194.769 22.656 194.582 22.488C194.405 22.3107 194.316 22.0913 194.316 21.83C194.316 21.5687 194.405 21.354 194.582 21.186C194.769 21.0087 195.002 20.92 195.282 20.92C195.562 20.92 195.791 21.0087 195.968 21.186C196.155 21.354 196.248 21.5687 196.248 21.83C196.248 22.0913 196.155 22.3107 195.968 22.488C195.791 22.656 195.562 22.74 195.282 22.74ZM194.54 31V24.056H196.024V31H194.54Z" fill="#05633B"/>
<path d="M201.231 31.168C200.55 31.168 199.943 31.0187 199.411 30.72C198.888 30.412 198.478 29.9873 198.179 29.446C197.88 28.9047 197.731 28.2747 197.731 27.556C197.731 26.828 197.876 26.1887 198.165 25.638C198.464 25.0873 198.874 24.658 199.397 24.35C199.929 24.042 200.545 23.888 201.245 23.888C201.926 23.888 202.519 24.042 203.023 24.35C203.527 24.6487 203.919 25.05 204.199 25.554C204.479 26.058 204.619 26.6133 204.619 27.22C204.619 27.3133 204.614 27.416 204.605 27.528C204.605 27.6307 204.6 27.7473 204.591 27.878H199.187C199.234 28.55 199.453 29.0633 199.845 29.418C200.246 29.7633 200.708 29.936 201.231 29.936C201.651 29.936 202.001 29.8427 202.281 29.656C202.57 29.46 202.785 29.1987 202.925 28.872H204.409C204.222 29.5253 203.849 30.0713 203.289 30.51C202.738 30.9487 202.052 31.168 201.231 31.168ZM201.231 25.106C200.736 25.106 200.298 25.2553 199.915 25.554C199.532 25.8433 199.299 26.282 199.215 26.87H203.135C203.107 26.3287 202.916 25.8993 202.561 25.582C202.206 25.2647 201.763 25.106 201.231 25.106Z" fill="#05633B"/>
<path d="M208.931 31.168C208.053 31.168 207.33 30.9533 206.761 30.524C206.191 30.0947 205.865 29.5253 205.781 28.816H207.279C207.353 29.1333 207.531 29.4087 207.811 29.642C208.091 29.866 208.459 29.978 208.917 29.978C209.365 29.978 209.691 29.8847 209.897 29.698C210.102 29.5113 210.205 29.2967 210.205 29.054C210.205 28.6993 210.06 28.4613 209.771 28.34C209.491 28.2093 209.099 28.0927 208.595 27.99C208.203 27.906 207.811 27.794 207.419 27.654C207.036 27.514 206.714 27.318 206.453 27.066C206.201 26.8047 206.075 26.4547 206.075 26.016C206.075 25.4093 206.308 24.9053 206.775 24.504C207.241 24.0933 207.895 23.888 208.735 23.888C209.509 23.888 210.135 24.0747 210.611 24.448C211.096 24.8213 211.381 25.3487 211.465 26.03H210.037C209.99 25.7313 209.85 25.498 209.617 25.33C209.393 25.162 209.089 25.078 208.707 25.078C208.333 25.078 208.044 25.1573 207.839 25.316C207.633 25.4653 207.531 25.6613 207.531 25.904C207.531 26.1467 207.671 26.338 207.951 26.478C208.24 26.618 208.618 26.744 209.085 26.856C209.551 26.9587 209.981 27.08 210.373 27.22C210.774 27.3507 211.096 27.5467 211.339 27.808C211.581 28.0693 211.703 28.452 211.703 28.956C211.712 29.5907 211.465 30.118 210.961 30.538C210.466 30.958 209.789 31.168 208.931 31.168Z" fill="#05633B"/>
<path d="M101.994 47V37.2H105.424C106.189 37.2 106.824 37.3307 107.328 37.592C107.832 37.844 108.205 38.194 108.448 38.642C108.7 39.0807 108.826 39.58 108.826 40.14C108.826 40.672 108.705 41.162 108.462 41.61C108.229 42.0487 107.86 42.3987 107.356 42.66C106.852 42.9213 106.208 43.052 105.424 43.052H103.478V47H101.994ZM103.478 41.834H105.354C106.054 41.834 106.553 41.6847 106.852 41.386C107.16 41.078 107.314 40.6627 107.314 40.14C107.314 39.5987 107.16 39.1787 106.852 38.88C106.553 38.572 106.054 38.418 105.354 38.418H103.478V41.834Z" fill="#05633B"/>
<path d="M113.102 47.168C112.439 47.168 111.842 47.0187 111.31 46.72C110.787 46.412 110.372 45.9873 110.064 45.446C109.756 44.8953 109.602 44.256 109.602 43.528C109.602 42.8 109.756 42.1653 110.064 41.624C110.381 41.0733 110.806 40.6487 111.338 40.35C111.87 40.042 112.463 39.888 113.116 39.888C113.779 39.888 114.371 40.042 114.894 40.35C115.426 40.6487 115.846 41.0733 116.154 41.624C116.471 42.1653 116.63 42.8 116.63 43.528C116.63 44.256 116.471 44.8953 116.154 45.446C115.846 45.9873 115.426 46.412 114.894 46.72C114.362 47.0187 113.765 47.168 113.102 47.168ZM113.102 45.894C113.457 45.894 113.783 45.8053 114.082 45.628C114.39 45.4507 114.637 45.1893 114.824 44.844C115.011 44.4893 115.104 44.0507 115.104 43.528C115.104 43.0053 115.011 42.5713 114.824 42.226C114.647 41.8713 114.404 41.6053 114.096 41.428C113.797 41.2507 113.471 41.162 113.116 41.162C112.761 41.162 112.43 41.2507 112.122 41.428C111.823 41.6053 111.581 41.8713 111.394 42.226C111.207 42.5713 111.114 43.0053 111.114 43.528C111.114 44.0507 111.207 44.4893 111.394 44.844C111.581 45.1893 111.823 45.4507 112.122 45.628C112.421 45.8053 112.747 45.894 113.102 45.894Z" fill="#05633B"/>
<path d="M119.825 47L117.221 40.056H118.775L120.707 45.586L122.639 40.056H124.179L121.589 47H119.825Z" fill="#05633B"/>
<path d="M126.239 38.74C125.959 38.74 125.726 38.656 125.539 38.488C125.362 38.3107 125.273 38.0913 125.273 37.83C125.273 37.5687 125.362 37.354 125.539 37.186C125.726 37.0087 125.959 36.92 126.239 36.92C126.519 36.92 126.748 37.0087 126.925 37.186C127.112 37.354 127.205 37.5687 127.205 37.83C127.205 38.0913 127.112 38.3107 126.925 38.488C126.748 38.656 126.519 38.74 126.239 38.74ZM125.497 47V40.056H126.981V47H125.497Z" fill="#05633B"/>
<path d="M128.94 47V36.92H130.424V47H128.94Z" fill="#05633B"/>
<path d="M135.551 47.168C134.889 47.168 134.291 47.0187 133.759 46.72C133.237 46.412 132.821 45.9873 132.513 45.446C132.205 44.8953 132.051 44.256 132.051 43.528C132.051 42.8 132.205 42.1653 132.513 41.624C132.831 41.0733 133.255 40.6487 133.787 40.35C134.319 40.042 134.912 39.888 135.565 39.888C136.228 39.888 136.821 40.042 137.343 40.35C137.875 40.6487 138.295 41.0733 138.603 41.624C138.921 42.1653 139.079 42.8 139.079 43.528C139.079 44.256 138.921 44.8953 138.603 45.446C138.295 45.9873 137.875 46.412 137.343 46.72C136.811 47.0187 136.214 47.168 135.551 47.168ZM135.551 45.894C135.906 45.894 136.233 45.8053 136.531 45.628C136.839 45.4507 137.087 45.1893 137.273 44.844C137.46 44.4893 137.553 44.0507 137.553 43.528C137.553 43.0053 137.46 42.5713 137.273 42.226C137.096 41.8713 136.853 41.6053 136.545 41.428C136.247 41.2507 135.92 41.162 135.565 41.162C135.211 41.162 134.879 41.2507 134.571 41.428C134.273 41.6053 134.03 41.8713 133.843 42.226C133.657 42.5713 133.563 43.0053 133.563 43.528C133.563 44.0507 133.657 44.4893 133.843 44.844C134.03 45.1893 134.273 45.4507 134.571 45.628C134.87 45.8053 135.197 45.894 135.551 45.894Z" fill="#05633B"/>
<path d="M147.165 47L143.539 37.2H145.121L148.061 45.46L151.015 37.2H152.583L148.957 47H147.165Z" fill="#05633B"/>
<path d="M154.622 38.74C154.342 38.74 154.108 38.656 153.922 38.488C153.744 38.3107 153.656 38.0913 153.656 37.83C153.656 37.5687 153.744 37.354 153.922 37.186C154.108 37.0087 154.342 36.92 154.622 36.92C154.902 36.92 155.13 37.0087 155.308 37.186C155.494 37.354 155.588 37.5687 155.588 37.83C155.588 38.0913 155.494 38.3107 155.308 38.488C155.13 38.656 154.902 38.74 154.622 38.74ZM153.88 47V40.056H155.364V47H153.88Z" fill="#05633B"/>
<path d="M160.095 47.168C159.217 47.168 158.494 46.9533 157.925 46.524C157.355 46.0947 157.029 45.5253 156.945 44.816H158.443C158.517 45.1333 158.695 45.4087 158.975 45.642C159.255 45.866 159.623 45.978 160.081 45.978C160.529 45.978 160.855 45.8847 161.061 45.698C161.266 45.5113 161.369 45.2967 161.369 45.054C161.369 44.6993 161.224 44.4613 160.935 44.34C160.655 44.2093 160.263 44.0927 159.759 43.99C159.367 43.906 158.975 43.794 158.583 43.654C158.2 43.514 157.878 43.318 157.617 43.066C157.365 42.8047 157.239 42.4547 157.239 42.016C157.239 41.4093 157.472 40.9053 157.939 40.504C158.405 40.0933 159.059 39.888 159.899 39.888C160.673 39.888 161.299 40.0747 161.775 40.448C162.26 40.8213 162.545 41.3487 162.629 42.03H161.201C161.154 41.7313 161.014 41.498 160.781 41.33C160.557 41.162 160.253 41.078 159.871 41.078C159.497 41.078 159.208 41.1573 159.003 41.316C158.797 41.4653 158.695 41.6613 158.695 41.904C158.695 42.1467 158.835 42.338 159.115 42.478C159.404 42.618 159.782 42.744 160.249 42.856C160.715 42.9587 161.145 43.08 161.537 43.22C161.938 43.3507 162.26 43.5467 162.503 43.808C162.745 44.0693 162.867 44.452 162.867 44.956C162.876 45.5907 162.629 46.118 162.125 46.538C161.63 46.958 160.953 47.168 160.095 47.168ZM159.941 39.356L157.967 38.222V37.13L159.941 38.306L161.929 37.13V38.222L159.941 39.356Z" fill="#05633B"/>
<path d="M165.327 38.74C165.047 38.74 164.813 38.656 164.627 38.488C164.449 38.3107 164.361 38.0913 164.361 37.83C164.361 37.5687 164.449 37.354 164.627 37.186C164.813 37.0087 165.047 36.92 165.327 36.92C165.607 36.92 165.835 37.0087 166.013 37.186C166.199 37.354 166.293 37.5687 166.293 37.83C166.293 38.0913 166.199 38.3107 166.013 38.488C165.835 38.656 165.607 38.74 165.327 38.74ZM164.585 47V40.056H166.069V47H164.585Z" fill="#05633B"/>
<path d="M168.028 47V40.056H169.344L169.456 41.274C169.671 40.8447 169.983 40.5087 170.394 40.266C170.814 40.014 171.295 39.888 171.836 39.888C172.676 39.888 173.334 40.1493 173.81 40.672C174.295 41.1947 174.538 41.974 174.538 43.01V47H173.068V43.164C173.068 41.82 172.517 41.148 171.416 41.148C170.865 41.148 170.408 41.344 170.044 41.736C169.689 42.128 169.512 42.688 169.512 43.416V47H168.028Z" fill="#05633B"/>
<path d="M179.058 47.168C178.18 47.168 177.457 46.9533 176.888 46.524C176.318 46.0947 175.992 45.5253 175.908 44.816H177.406C177.48 45.1333 177.658 45.4087 177.938 45.642C178.218 45.866 178.586 45.978 179.044 45.978C179.492 45.978 179.818 45.8847 180.024 45.698C180.229 45.5113 180.332 45.2967 180.332 45.054C180.332 44.6993 180.187 44.4613 179.898 44.34C179.618 44.2093 179.226 44.0927 178.722 43.99C178.33 43.906 177.938 43.794 177.546 43.654C177.163 43.514 176.841 43.318 176.58 43.066C176.328 42.8047 176.202 42.4547 176.202 42.016C176.202 41.4093 176.435 40.9053 176.902 40.504C177.368 40.0933 178.022 39.888 178.862 39.888C179.636 39.888 180.262 40.0747 180.738 40.448C181.223 40.8213 181.508 41.3487 181.592 42.03H180.164C180.117 41.7313 179.977 41.498 179.744 41.33C179.52 41.162 179.216 41.078 178.834 41.078C178.46 41.078 178.171 41.1573 177.966 41.316C177.76 41.4653 177.658 41.6613 177.658 41.904C177.658 42.1467 177.798 42.338 178.078 42.478C178.367 42.618 178.745 42.744 179.212 42.856C179.678 42.9587 180.108 43.08 180.5 43.22C180.901 43.3507 181.223 43.5467 181.466 43.808C181.708 44.0693 181.83 44.452 181.83 44.956C181.839 45.5907 181.592 46.118 181.088 46.538C180.593 46.958 179.916 47.168 179.058 47.168Z" fill="#05633B"/>
<path d="M183.45 47V36.92H184.934V42.926L187.594 40.056H189.372L186.418 43.206L189.806 47H187.93L184.934 43.444V47H183.45Z" fill="#05633B"/>
<path d="M191.796 38.74C191.516 38.74 191.282 38.656 191.096 38.488C190.918 38.3107 190.83 38.0913 190.83 37.83C190.83 37.5687 190.918 37.354 191.096 37.186C191.282 37.0087 191.516 36.92 191.796 36.92C192.076 36.92 192.304 37.0087 192.482 37.186C192.668 37.354 192.762 37.5687 192.762 37.83C192.762 38.0913 192.668 38.3107 192.482 38.488C192.304 38.656 192.076 38.74 191.796 38.74ZM191.054 47V40.056H192.538V47H191.054Z" fill="#05633B"/>
<path d="M197.745 47.168C197.082 47.168 196.485 47.0187 195.953 46.72C195.43 46.412 195.015 45.9873 194.707 45.446C194.399 44.8953 194.245 44.256 194.245 43.528C194.245 42.8 194.399 42.1653 194.707 41.624C195.024 41.0733 195.449 40.6487 195.981 40.35C196.513 40.042 197.105 39.888 197.759 39.888C198.421 39.888 199.014 40.042 199.537 40.35C200.069 40.6487 200.489 41.0733 200.797 41.624C201.114 42.1653 201.273 42.8 201.273 43.528C201.273 44.256 201.114 44.8953 200.797 45.446C200.489 45.9873 200.069 46.412 199.537 46.72C199.005 47.0187 198.407 47.168 197.745 47.168ZM197.745 45.894C198.099 45.894 198.426 45.8053 198.725 45.628C199.033 45.4507 199.28 45.1893 199.467 44.844C199.653 44.4893 199.747 44.0507 199.747 43.528C199.747 43.0053 199.653 42.5713 199.467 42.226C199.289 41.8713 199.047 41.6053 198.739 41.428C198.44 41.2507 198.113 41.162 197.759 41.162C197.404 41.162 197.073 41.2507 196.765 41.428C196.466 41.6053 196.223 41.8713 196.037 42.226C195.85 42.5713 195.757 43.0053 195.757 43.528C195.757 44.0507 195.85 44.4893 196.037 44.844C196.223 45.1893 196.466 45.4507 196.765 45.628C197.063 45.8053 197.39 45.894 197.745 45.894Z" fill="#05633B"/>
<path d="M103.884 63L101.28 56.056H102.834L104.766 61.586L106.698 56.056H108.238L105.648 63H103.884Z" fill="#05633B"/>
<path d="M110.298 54.74C110.018 54.74 109.784 54.656 109.598 54.488C109.42 54.3107 109.332 54.0913 109.332 53.83C109.332 53.5687 109.42 53.354 109.598 53.186C109.784 53.0087 110.018 52.92 110.298 52.92C110.578 52.92 110.806 53.0087 110.984 53.186C111.17 53.354 111.264 53.5687 111.264 53.83C111.264 54.0913 111.17 54.3107 110.984 54.488C110.806 54.656 110.578 54.74 110.298 54.74ZM109.556 63V56.056H111.04V63H109.556Z" fill="#05633B"/>
<path d="M116.247 63.168C115.565 63.168 114.959 63.0187 114.427 62.72C113.904 62.412 113.493 61.9873 113.195 61.446C112.896 60.9047 112.747 60.2747 112.747 59.556C112.747 58.828 112.891 58.1887 113.181 57.638C113.479 57.0873 113.89 56.658 114.413 56.35C114.945 56.042 115.561 55.888 116.261 55.888C116.942 55.888 117.535 56.042 118.039 56.35C118.543 56.6487 118.935 57.05 119.215 57.554C119.495 58.058 119.635 58.6133 119.635 59.22C119.635 59.3133 119.63 59.416 119.621 59.528C119.621 59.6307 119.616 59.7473 119.607 59.878H114.203C114.249 60.55 114.469 61.0633 114.861 61.418C115.262 61.7633 115.724 61.936 116.247 61.936C116.667 61.936 117.017 61.8427 117.297 61.656C117.586 61.46 117.801 61.1987 117.941 60.872H119.425C119.238 61.5253 118.865 62.0713 118.305 62.51C117.754 62.9487 117.068 63.168 116.247 63.168ZM116.247 57.106C115.752 57.106 115.313 57.2553 114.931 57.554C114.548 57.8433 114.315 58.282 114.231 58.87H118.151C118.123 58.3287 117.931 57.8993 117.577 57.582C117.222 57.2647 116.779 57.106 116.247 57.106Z" fill="#05633B"/>
<path d="M123.946 63.168C123.069 63.168 122.346 62.9533 121.776 62.524C121.207 62.0947 120.88 61.5253 120.796 60.816H122.294C122.369 61.1333 122.546 61.4087 122.826 61.642C123.106 61.866 123.475 61.978 123.932 61.978C124.38 61.978 124.707 61.8847 124.912 61.698C125.118 61.5113 125.22 61.2967 125.22 61.054C125.22 60.6993 125.076 60.4613 124.786 60.34C124.506 60.2093 124.114 60.0927 123.61 59.99C123.218 59.906 122.826 59.794 122.434 59.654C122.052 59.514 121.73 59.318 121.468 59.066C121.216 58.8047 121.09 58.4547 121.09 58.016C121.09 57.4093 121.324 56.9053 121.79 56.504C122.257 56.0933 122.91 55.888 123.75 55.888C124.525 55.888 125.15 56.0747 125.626 56.448C126.112 56.8213 126.396 57.3487 126.48 58.03H125.052C125.006 57.7313 124.866 57.498 124.632 57.33C124.408 57.162 124.105 57.078 123.722 57.078C123.349 57.078 123.06 57.1573 122.854 57.316C122.649 57.4653 122.546 57.6613 122.546 57.904C122.546 58.1467 122.686 58.338 122.966 58.478C123.256 58.618 123.634 58.744 124.1 58.856C124.567 58.9587 124.996 59.08 125.388 59.22C125.79 59.3507 126.112 59.5467 126.354 59.808C126.597 60.0693 126.718 60.452 126.718 60.956C126.728 61.5907 126.48 62.118 125.976 62.538C125.482 62.958 124.805 63.168 123.946 63.168ZM123.792 55.356L121.818 54.222V53.13L123.792 54.306L125.78 53.13V54.222L123.792 55.356Z" fill="#05633B"/>
<path d="M131.586 63.168C130.924 63.168 130.326 63.0187 129.794 62.72C129.272 62.412 128.856 61.9873 128.548 61.446C128.24 60.8953 128.086 60.256 128.086 59.528C128.086 58.8 128.24 58.1653 128.548 57.624C128.866 57.0733 129.29 56.6487 129.822 56.35C130.354 56.042 130.947 55.888 131.6 55.888C132.263 55.888 132.856 56.042 133.378 56.35C133.91 56.6487 134.33 57.0733 134.638 57.624C134.956 58.1653 135.114 58.8 135.114 59.528C135.114 60.256 134.956 60.8953 134.638 61.446C134.33 61.9873 133.91 62.412 133.378 62.72C132.846 63.0187 132.249 63.168 131.586 63.168ZM131.586 61.894C131.941 61.894 132.268 61.8053 132.566 61.628C132.874 61.4507 133.122 61.1893 133.308 60.844C133.495 60.4893 133.588 60.0507 133.588 59.528C133.588 59.0053 133.495 58.5713 133.308 58.226C133.131 57.8713 132.888 57.6053 132.58 57.428C132.282 57.2507 131.955 57.162 131.6 57.162C131.246 57.162 130.914 57.2507 130.606 57.428C130.308 57.6053 130.065 57.8713 129.878 58.226C129.692 58.5713 129.598 59.0053 129.598 59.528C129.598 60.0507 129.692 60.4893 129.878 60.844C130.065 61.1893 130.308 61.4507 130.606 61.628C130.905 61.8053 131.232 61.894 131.586 61.894Z" fill="#05633B"/>
<path d="M137.601 54.74C137.321 54.74 137.088 54.656 136.901 54.488C136.724 54.3107 136.635 54.0913 136.635 53.83C136.635 53.5687 136.724 53.354 136.901 53.186C137.088 53.0087 137.321 52.92 137.601 52.92C137.881 52.92 138.11 53.0087 138.287 53.186C138.474 53.354 138.567 53.5687 138.567 53.83C138.567 54.0913 138.474 54.3107 138.287 54.488C138.11 54.656 137.881 54.74 137.601 54.74ZM135.389 66.08V64.82H135.935C136.262 64.82 136.495 64.75 136.635 64.61C136.775 64.4793 136.845 64.2553 136.845 63.938V56.056H138.329V63.952C138.329 64.708 138.138 65.2493 137.755 65.576C137.373 65.912 136.841 66.08 136.159 66.08H135.389Z" fill="#05633B"/>
<path d="M141.128 54.74C140.848 54.74 140.614 54.656 140.428 54.488C140.25 54.3107 140.162 54.0913 140.162 53.83C140.162 53.5687 140.25 53.354 140.428 53.186C140.614 53.0087 140.848 52.92 141.128 52.92C141.408 52.92 141.636 53.0087 141.814 53.186C142 53.354 142.094 53.5687 142.094 53.83C142.094 54.0913 142 54.3107 141.814 54.488C141.636 54.656 141.408 54.74 141.128 54.74ZM140.386 63V56.056H141.87V63H140.386Z" fill="#05633B"/>
<path d="M151.262 63.168C150.721 63.168 150.24 63.0607 149.82 62.846C149.409 62.6313 149.083 62.328 148.84 61.936L148.686 63H147.356V52.92H148.84V57.134C149.064 56.8073 149.372 56.518 149.764 56.266C150.156 56.014 150.66 55.888 151.276 55.888C151.948 55.888 152.541 56.0467 153.054 56.364C153.567 56.6813 153.969 57.1153 154.258 57.666C154.557 58.2167 154.706 58.842 154.706 59.542C154.706 60.242 154.557 60.8673 154.258 61.418C153.969 61.9593 153.567 62.3887 153.054 62.706C152.541 63.014 151.943 63.168 151.262 63.168ZM151.01 61.88C151.645 61.88 152.167 61.6653 152.578 61.236C152.989 60.7973 153.194 60.228 153.194 59.528C153.194 59.0707 153.101 58.6647 152.914 58.31C152.727 57.9553 152.471 57.68 152.144 57.484C151.817 57.2787 151.439 57.176 151.01 57.176C150.375 57.176 149.853 57.3953 149.442 57.834C149.041 58.2727 148.84 58.8373 148.84 59.528C148.84 60.228 149.041 60.7973 149.442 61.236C149.853 61.6653 150.375 61.88 151.01 61.88Z" fill="#05633B"/>
<path d="M157.151 54.74C156.871 54.74 156.638 54.656 156.451 54.488C156.274 54.3107 156.185 54.0913 156.185 53.83C156.185 53.5687 156.274 53.354 156.451 53.186C156.638 53.0087 156.871 52.92 157.151 52.92C157.431 52.92 157.66 53.0087 157.837 53.186C158.024 53.354 158.117 53.5687 158.117 53.83C158.117 54.0913 158.024 54.3107 157.837 54.488C157.66 54.656 157.431 54.74 157.151 54.74ZM156.409 63V56.056H157.893V63H156.409Z" fill="#05633B"/>
<path d="M163.758 63.168C163.217 63.168 162.736 63.0607 162.316 62.846C161.905 62.6313 161.579 62.328 161.336 61.936L161.182 63H159.852V52.92H161.336V57.134C161.56 56.8073 161.868 56.518 162.26 56.266C162.652 56.014 163.156 55.888 163.772 55.888C164.444 55.888 165.037 56.0467 165.55 56.364C166.063 56.6813 166.465 57.1153 166.754 57.666C167.053 58.2167 167.202 58.842 167.202 59.542C167.202 60.242 167.053 60.8673 166.754 61.418C166.465 61.9593 166.063 62.3887 165.55 62.706C165.037 63.014 164.439 63.168 163.758 63.168ZM163.506 61.88C164.141 61.88 164.663 61.6653 165.074 61.236C165.485 60.7973 165.69 60.228 165.69 59.528C165.69 59.0707 165.597 58.6647 165.41 58.31C165.223 57.9553 164.967 57.68 164.64 57.484C164.313 57.2787 163.935 57.176 163.506 57.176C162.871 57.176 162.349 57.3953 161.938 57.834C161.537 58.2727 161.336 58.8373 161.336 59.528C161.336 60.228 161.537 60.7973 161.938 61.236C162.349 61.6653 162.871 61.88 163.506 61.88Z" fill="#05633B"/>
<path d="M168.807 63V52.92H170.291V63H168.807Z" fill="#05633B"/>
<path d="M173.01 54.74C172.73 54.74 172.497 54.656 172.31 54.488C172.133 54.3107 172.044 54.0913 172.044 53.83C172.044 53.5687 172.133 53.354 172.31 53.186C172.497 53.0087 172.73 52.92 173.01 52.92C173.29 52.92 173.519 53.0087 173.696 53.186C173.883 53.354 173.976 53.5687 173.976 53.83C173.976 54.0913 173.883 54.3107 173.696 54.488C173.519 54.656 173.29 54.74 173.01 54.74ZM172.268 63V56.056H173.752V63H172.268Z" fill="#05633B"/>
<path d="M178.959 63.168C178.297 63.168 177.699 63.0187 177.167 62.72C176.645 62.412 176.229 61.9873 175.921 61.446C175.613 60.8953 175.459 60.256 175.459 59.528C175.459 58.8 175.613 58.1653 175.921 57.624C176.239 57.0733 176.663 56.6487 177.195 56.35C177.727 56.042 178.32 55.888 178.973 55.888C179.636 55.888 180.229 56.042 180.751 56.35C181.283 56.6487 181.703 57.0733 182.011 57.624C182.329 58.1653 182.487 58.8 182.487 59.528C182.487 60.256 182.329 60.8953 182.011 61.446C181.703 61.9873 181.283 62.412 180.751 62.72C180.219 63.0187 179.622 63.168 178.959 63.168ZM178.959 61.894C179.314 61.894 179.641 61.8053 179.939 61.628C180.247 61.4507 180.495 61.1893 180.681 60.844C180.868 60.4893 180.961 60.0507 180.961 59.528C180.961 59.0053 180.868 58.5713 180.681 58.226C180.504 57.8713 180.261 57.6053 179.953 57.428C179.655 57.2507 179.328 57.162 178.973 57.162C178.619 57.162 178.287 57.2507 177.979 57.428C177.681 57.6053 177.438 57.8713 177.251 58.226C177.065 58.5713 176.971 59.0053 176.971 59.528C176.971 60.0507 177.065 60.4893 177.251 60.844C177.438 61.1893 177.681 61.4507 177.979 61.628C178.278 61.8053 178.605 61.894 178.959 61.894Z" fill="#05633B"/>
<path d="M186.731 63C186.05 63 185.508 62.8367 185.107 62.51C184.706 62.174 184.505 61.5813 184.505 60.732V57.302H183.315V56.056H184.505L184.687 54.292H185.989V56.056H187.949V57.302H185.989V60.732C185.989 61.1147 186.068 61.3807 186.227 61.53C186.395 61.67 186.68 61.74 187.081 61.74H187.879V63H186.731Z" fill="#05633B"/>
<path d="M192.549 63.168C191.868 63.168 191.261 63.0187 190.729 62.72C190.207 62.412 189.796 61.9873 189.497 61.446C189.199 60.9047 189.049 60.2747 189.049 59.556C189.049 58.828 189.194 58.1887 189.483 57.638C189.782 57.0873 190.193 56.658 190.715 56.35C191.247 56.042 191.863 55.888 192.563 55.888C193.245 55.888 193.837 56.042 194.341 56.35C194.845 56.6487 195.237 57.05 195.517 57.554C195.797 58.058 195.937 58.6133 195.937 59.22C195.937 59.3133 195.933 59.416 195.923 59.528C195.923 59.6307 195.919 59.7473 195.909 59.878H190.505C190.552 60.55 190.771 61.0633 191.163 61.418C191.565 61.7633 192.027 61.936 192.549 61.936C192.969 61.936 193.319 61.8427 193.599 61.656C193.889 61.46 194.103 61.1987 194.243 60.872H195.727C195.541 61.5253 195.167 62.0713 194.607 62.51C194.057 62.9487 193.371 63.168 192.549 63.168ZM192.549 57.106C192.055 57.106 191.616 57.2553 191.233 57.554C190.851 57.8433 190.617 58.282 190.533 58.87H194.453C194.425 58.3287 194.234 57.8993 193.879 57.582C193.525 57.2647 193.081 57.106 192.549 57.106Z" fill="#05633B"/>
<path d="M197.477 63V52.92H198.961V58.926L201.621 56.056H203.399L200.445 59.206L203.833 63H201.957L198.961 59.444V63H197.477Z" fill="#05633B"/>
<path d="M207.185 63.168C206.597 63.168 206.111 63.07 205.729 62.874C205.346 62.678 205.061 62.4213 204.875 62.104C204.688 61.7773 204.595 61.4227 204.595 61.04C204.595 60.368 204.856 59.836 205.379 59.444C205.901 59.052 206.648 58.856 207.619 58.856H209.439V58.73C209.439 58.1887 209.289 57.7827 208.991 57.512C208.701 57.2413 208.323 57.106 207.857 57.106C207.446 57.106 207.087 57.2087 206.779 57.414C206.48 57.61 206.298 57.904 206.233 58.296H204.749C204.795 57.792 204.963 57.3627 205.253 57.008C205.551 56.644 205.925 56.3687 206.373 56.182C206.83 55.986 207.329 55.888 207.871 55.888C208.841 55.888 209.593 56.1447 210.125 56.658C210.657 57.162 210.923 57.8527 210.923 58.73V63H209.635L209.509 61.81C209.313 62.1927 209.028 62.5147 208.655 62.776C208.281 63.0373 207.791 63.168 207.185 63.168ZM207.479 61.964C207.88 61.964 208.216 61.8707 208.487 61.684C208.767 61.488 208.981 61.2313 209.131 60.914C209.289 60.5967 209.387 60.2467 209.425 59.864H207.773C207.185 59.864 206.765 59.9667 206.513 60.172C206.27 60.3773 206.149 60.634 206.149 60.942C206.149 61.2593 206.265 61.5113 206.499 61.698C206.741 61.8753 207.068 61.964 207.479 61.964Z" fill="#05633B"/>
<path fill-rule="evenodd" clip-rule="evenodd" d="M80.0727 26.3065C80.893 26.3065 81.5581 26.9744 81.5581 27.7982C81.5581 28.6221 80.893 29.29 80.0727 29.29C79.2524 29.29 78.5874 28.6221 78.5874 27.7982C78.5874 26.9744 79.2524 26.3065 80.0727 26.3065Z" fill="#05633B"/>
<path fill-rule="evenodd" clip-rule="evenodd" d="M74.5169 19.8384C74.0591 20.2156 73.7961 20.6373 73.7305 21.1049C73.6637 21.5731 73.8111 22.0884 74.171 22.651C74.4184 23.0375 74.6791 23.3264 74.9535 23.5156C75.227 23.7056 75.5205 23.7993 75.8338 23.7986C76.1471 23.7978 76.4311 23.7148 76.6856 23.5513C76.9661 23.3715 77.1642 23.161 77.28 22.9198C77.3958 22.679 77.4411 22.4189 77.4179 22.1385C77.3941 21.8599 77.2956 21.4684 77.1188 20.9664C76.9431 20.4638 76.8667 20.1253 76.8905 19.9505C76.908 19.8136 76.9696 19.7112 77.0752 19.6435C77.191 19.5692 77.3137 19.5577 77.4433 19.6075C77.6444 19.6846 77.8281 19.8531 77.9939 20.1122C78.1544 20.3629 78.2245 20.5842 78.2042 20.774C78.1842 20.9638 78.072 21.1513 77.8669 21.3371L78.4749 22.2186C78.8785 21.9392 79.1133 21.5809 79.1801 21.1403C79.2478 20.7006 79.1024 20.2019 78.7462 19.6455C78.5275 19.3034 78.29 19.0465 78.032 18.8714C77.774 18.6964 77.5061 18.6082 77.2262 18.6065C76.9469 18.6061 76.6926 18.6787 76.466 18.8241C76.1132 19.0505 75.901 19.3782 75.8303 19.8082C75.7794 20.1142 75.8479 20.5453 76.0351 21.1021C76.1806 21.5351 76.269 21.8145 76.2987 21.943C76.3432 22.131 76.3479 22.2799 76.3136 22.3882C76.2782 22.4972 76.2091 22.5854 76.1034 22.6531C75.9401 22.7581 75.7503 22.7761 75.5347 22.7084C75.3189 22.6407 75.1188 22.4622 74.9344 22.1742C74.76 21.9017 74.6897 21.6412 74.7245 21.3923C74.7592 21.1433 74.9059 20.9001 75.1648 20.6592L74.5169 19.8384ZM70.0332 17.0275L74.0239 13.5655L76.5826 16.5239L75.9082 17.109L74.0495 14.9599L73.1634 15.7287L74.8916 17.7272L74.2174 18.3122L72.489 16.3137L71.4077 17.2518L73.334 19.4791L72.6597 20.0642L70.0332 17.0275ZM68.4712 15.481L72.114 11.6534L72.8879 12.3923L69.2452 16.2198L68.4712 15.481ZM65.8785 13.3126L66.7192 13.9742L69.4299 10.5192L70.6534 11.482L71.2046 10.7794L67.9114 8.18762L67.3601 8.89019L68.5893 9.85764L65.8785 13.3126ZM63.1483 11.3242L65.9984 6.87317L66.8985 7.45119L64.0484 11.9024L63.1483 11.3242ZM60.7674 6.47669L61.3792 5.28052L62.1196 5.6603C62.5036 5.85731 62.7316 5.98109 62.8038 6.03196C62.9439 6.13567 63.0317 6.25823 63.0662 6.39887C63.1001 6.54073 63.0775 6.68964 62.9965 6.84851C62.924 6.98991 62.832 7.09194 62.719 7.15307C62.6075 7.21465 62.4836 7.23549 62.3514 7.21603C62.2181 7.19612 61.9247 7.07034 61.4696 6.83702L60.7674 6.47669ZM58.4275 8.70329L59.379 9.19153L60.3841 7.22614L60.5767 7.3248C60.7955 7.4371 60.9462 7.53652 61.03 7.62385C61.1128 7.7104 61.1742 7.825 61.2159 7.96533C61.2577 8.10719 61.3075 8.42293 61.3648 8.91301L61.5197 10.2895L62.6538 10.8714L62.5504 9.6594C62.5121 9.1779 62.4632 8.83059 62.4032 8.61872C62.3442 8.40731 62.2431 8.1893 62.0995 7.96502C62.5416 8.11577 62.924 8.1294 63.2483 8.00531C63.5727 7.88137 63.8247 7.64269 64.0056 7.2888C64.1478 7.01059 64.2049 6.72871 64.1792 6.44161C64.153 6.15574 64.048 5.91246 63.8625 5.71085C63.6782 5.50986 63.3348 5.27975 62.8326 5.02207L60.8342 3.99702L58.4275 8.70329ZM53.3267 6.7713L55.0193 1.76261L56.0321 2.10593L55.2823 4.32471L58.0727 2.79778L59.43 3.25783L56.8839 4.56875L57.8352 8.29961L56.529 7.85686L55.9478 5.03877L54.8514 5.60024L54.3395 7.11461L53.3267 6.7713ZM48.3953 3.97373L49.437 4.05508C49.4375 4.40897 49.5162 4.68181 49.6751 4.87668C49.8338 5.0714 50.0722 5.19656 50.3905 5.2534C50.7268 5.31361 50.9937 5.28772 51.1896 5.17512C51.3859 5.06267 51.5015 4.91085 51.5355 4.7195C51.5577 4.59587 51.5401 4.48511 51.4842 4.38507C51.4281 4.28625 51.3158 4.18867 51.1479 4.09369C51.0335 4.02812 50.7686 3.90326 50.3527 3.71636C49.8174 3.47538 49.4551 3.23301 49.2654 2.9879C48.9984 2.64381 48.9023 2.26526 48.976 1.85208C49.0234 1.58674 49.1429 1.35051 49.3328 1.14568C49.5242 0.941006 49.771 0.803892 50.0745 0.733114C50.378 0.662489 50.7276 0.662491 51.1266 0.733881C51.7764 0.850159 52.2407 1.08195 52.5169 1.43032C52.7942 1.7787 52.8973 2.19479 52.8281 2.68119L51.769 2.52937C51.7722 2.25224 51.7111 2.04251 51.5856 1.89881C51.4602 1.75511 51.2506 1.65629 50.9578 1.6039C50.6553 1.54982 50.4069 1.57035 50.2139 1.66594C50.0893 1.72738 50.0146 1.82527 49.9902 1.961C49.9683 2.08448 50.0015 2.19923 50.0899 2.30509C50.2016 2.44143 50.5014 2.61516 50.9892 2.82734C51.4772 3.03845 51.831 3.23194 52.0512 3.40383C52.2724 3.5771 52.4322 3.78713 52.5301 4.03593C52.6281 4.28473 52.6478 4.5732 52.5892 4.90166C52.5361 5.19978 52.4039 5.46497 52.1915 5.69584C51.9795 5.92656 51.7114 6.07868 51.3865 6.15069C51.0614 6.22376 50.6726 6.21932 50.2214 6.13843C49.5645 6.02093 49.087 5.77918 48.7891 5.41212C48.4912 5.04612 48.3609 4.56646 48.3953 3.97373ZM44.7363 0.973177L44.6224 2.47544L45.2018 2.51957C45.6199 2.55143 45.9001 2.54423 46.0452 2.4998C46.1904 2.45522 46.3072 2.3777 46.3959 2.2648C46.4846 2.15296 46.5353 2.01983 46.5472 1.8628C46.5618 1.67008 46.5173 1.50738 46.4153 1.37379C46.3122 1.24005 46.1772 1.15074 46.0067 1.1057C45.8823 1.07276 45.6296 1.0412 45.2472 1.01209L44.7363 0.973177ZM43.3377 5.27362L43.7379 0.000976562L45.4424 0.130735C46.0882 0.179913 46.5065 0.237671 46.6986 0.305384C46.994 0.408028 47.2334 0.599066 47.4166 0.879726C47.6 1.16023 47.6757 1.51045 47.644 1.93006C47.6193 2.25423 47.54 2.52094 47.4067 2.73297C47.2723 2.945 47.1108 3.10678 46.9212 3.21953C46.7317 3.33091 46.5414 3.40046 46.352 3.42666C46.0947 3.45776 45.7262 3.45561 45.246 3.419L44.5549 3.36645L44.4038 5.35466L43.3377 5.27362ZM40.599 3.31145L39.7193 1.41562L39.1566 3.42114L40.599 3.31145ZM42.7061 5.25447L41.5578 5.34195L41.0121 4.17626L38.9008 4.33681L38.5544 5.57052L37.427 5.65631L39.0708 0.22817L40.1971 0.14238L42.7061 5.25447ZM31.5805 7.07233C31.548 7.11844 31.521 7.16915 31.5003 7.22293C31.4797 7.2767 31.4648 7.33246 31.4548 7.38777C31.4466 7.44399 31.4433 7.4996 31.447 7.55292C31.4496 7.60669 31.4584 7.65571 31.4738 7.70106C31.499 7.77567 31.54 7.83189 31.5982 7.86942C31.6551 7.90726 31.7301 7.91048 31.8244 7.87846C31.8651 7.86467 31.9094 7.84185 31.9555 7.80937C32.0015 7.77689 32.0457 7.74625 32.0863 7.71684L32.2798 8.28934C32.1185 8.44545 31.9616 8.54932 31.8092 8.60095C31.6811 8.64446 31.5635 8.66483 31.4588 8.66253C31.3543 8.66039 31.2594 8.64047 31.1765 8.60233C31.0934 8.56418 31.0237 8.51117 30.9669 8.44346C30.9088 8.37467 30.8656 8.29716 30.8358 8.20845C30.7907 8.07563 30.784 7.92458 30.8157 7.75407C30.8463 7.58371 30.911 7.42147 31.0078 7.26643L31.5805 7.07233ZM27.2615 2.95419L28.1655 5.62874C28.355 6.18945 28.531 6.60278 28.6943 6.86704C28.8056 7.04629 28.9609 7.19903 29.1641 7.32771C29.367 7.4564 29.61 7.53377 29.893 7.56134C30.1761 7.58892 30.5554 7.52136 31.0316 7.35988C31.4262 7.22599 31.7277 7.06666 31.9391 6.8819C32.1493 6.69761 32.2991 6.496 32.3867 6.27539C32.4755 6.05417 32.5047 5.81043 32.4754 5.54356C32.4462 5.27669 32.3291 4.84206 32.1257 4.24045L31.2356 1.60681L30.223 1.95013L31.1599 4.72257C31.2938 5.11889 31.3746 5.40737 31.4034 5.5886C31.4322 5.76983 31.3946 5.94249 31.2898 6.10917C31.1854 6.27585 30.991 6.40684 30.7081 6.50274C30.4287 6.59741 30.1879 6.61013 29.9838 6.54027C29.7815 6.47118 29.6243 6.34004 29.5118 6.14946C29.4444 6.03058 29.3375 5.75635 29.1916 5.32494L28.2743 2.61072L27.2615 2.95419ZM26.9465 8.95085L24.7717 4.1326L25.7459 3.69154L27.9209 8.5098L26.9465 8.95085ZM23.013 11.1525L26.2344 9.29678L25.7897 8.5222L23.4949 9.844L21.3298 6.07317L20.4029 6.60707L23.013 11.1525ZM15.3293 10.2534L16.17 9.59153L17.938 11.8445C18.2189 12.2025 18.411 12.4254 18.5141 12.5149C18.6834 12.6572 18.8754 12.7284 19.0892 12.726C19.3046 12.7238 19.5277 12.6315 19.7595 12.4488C19.9943 12.2641 20.1342 12.0757 20.1773 11.8835C20.2203 11.6916 20.1984 11.5162 20.1109 11.355C20.0234 11.1937 19.8516 10.9487 19.5933 10.6197L17.7874 8.3183L18.628 7.65663L20.3435 9.84263C20.7354 10.3421 20.9903 10.7128 21.1067 10.9547C21.223 11.1964 21.2766 11.436 21.2667 11.6741C21.2575 11.9116 21.1832 12.1516 21.0464 12.3955C20.9086 12.6402 20.6771 12.8911 20.3498 13.149C19.9545 13.4601 19.6193 13.6504 19.3432 13.719C19.0672 13.7875 18.8124 13.7956 18.5782 13.742C18.3439 13.6884 18.1466 13.5963 17.9822 13.4646C17.7403 13.2698 17.4368 12.9388 17.0715 12.4734L15.3293 10.2534ZM15.1928 14.8493L14.1948 15.898L13.2721 14.0311L15.1928 14.8493ZM18.0567 14.8795L12.7758 12.765L11.9966 13.5839L14.4043 18.718L15.1842 17.8984L14.6169 16.7498L16.0778 15.2145L17.2623 15.7144L18.0567 14.8795ZM13.4183 20.0138L14.0789 19.1718L9.92764 15.9047L9.26705 16.7467L13.4183 20.0138ZM5.27393 19.9472L6.57504 19.885L7.07999 19.0965L6.5873 17.8955L6.14961 18.5794L6.37788 19.2216L5.71575 19.2572L5.27393 19.9472ZM9.04246 23.5426L9.51661 22.6102C9.84324 22.7453 10.1251 22.7772 10.3655 22.7049C10.606 22.6326 10.8128 22.4599 10.9872 22.1874C11.1716 21.8994 11.2499 21.6425 11.2213 21.4182C11.1928 21.1936 11.0972 21.0283 10.9335 20.9233C10.8281 20.8556 10.7192 20.8296 10.6057 20.8429C10.4929 20.8569 10.36 20.9235 10.208 21.0421C10.1037 21.123 9.88705 21.3201 9.55522 21.6333C9.12795 22.036 8.76563 22.2784 8.46659 22.3599C8.04698 22.4749 7.66122 22.4187 7.30841 22.1921C7.08183 22.0468 6.90978 21.8456 6.79366 21.5913C6.67845 21.3359 6.64659 21.0551 6.6976 20.7473C6.74862 20.4394 6.88267 20.116 7.10159 19.7742C7.45777 19.2176 7.8495 18.8771 8.27647 18.755C8.7042 18.632 9.12733 18.6961 9.5494 18.9466L9.0034 19.8681C8.74924 19.7589 8.53231 19.7351 8.35169 19.7961C8.17107 19.8571 7.99964 20.0132 7.83909 20.2638C7.67332 20.5229 7.59703 20.7605 7.61112 20.9757C7.62001 21.1145 7.6816 21.2213 7.79757 21.2958C7.90312 21.3635 8.02154 21.3768 8.15314 21.3355C8.32166 21.2843 8.59665 21.0735 8.9795 20.7037C9.36112 20.3332 9.67502 20.08 9.91799 19.9421C10.1627 19.8039 10.4176 19.7365 10.6844 19.7413C10.9516 19.746 11.2252 19.8385 11.5056 20.0186C11.7601 20.182 11.954 20.4058 12.0854 20.6906C12.217 20.9754 12.2546 21.2818 12.1964 21.6098C12.1392 21.9387 11.986 22.2965 11.7386 22.683C11.3784 23.2457 10.9725 23.5948 10.5199 23.7295C10.0681 23.8649 9.57575 23.8016 9.04246 23.5426Z" fill="#05633B"/>
<path fill-rule="evenodd" clip-rule="evenodd" d="M82.476 34.617L80.6884 35.6963L82.7398 36.0414L82.476 34.617ZM84.1788 32.3103L84.3886 33.4444L83.2901 34.1126L83.6761 36.198L84.9379 36.4106L85.1439 37.5241L79.5793 36.4693L79.3734 35.3571L84.1788 32.3103ZM85.4555 42.4349L80.1913 42.8366L80.1101 41.7689L82.442 41.5909L79.9463 39.6174L79.8376 38.1864L82.0389 40.0194L85.094 37.6816L85.1986 39.0587L82.8374 40.6979L83.7826 41.4886L85.3743 41.3672L85.4555 42.4349ZM85.1251 47.3978L85.4296 43.3918L84.54 43.324L84.3167 46.2622L82.8902 46.1533L83.0908 43.5171L82.2011 43.4491L82.0006 46.0853L80.8317 45.9961L81.0472 43.161L80.1576 43.0933L79.8609 46.9962L85.1251 47.3978ZM84.5823 50.8167L80.2685 50.0158L79.9834 51.5551L79.1064 51.3924L79.8696 47.2678L80.747 47.4307L80.4632 48.963L84.7772 49.7639L84.5823 50.8167ZM80.4156 55.8503C79.8411 55.6498 79.4561 55.3722 79.2591 55.0182C79.0633 54.6643 79.0373 54.2787 79.1819 53.8624C79.3268 53.4451 79.5834 53.1605 79.9526 53.0079C80.3212 52.8536 80.792 52.8768 81.3642 53.0764C81.9433 53.2784 82.3324 53.5588 82.533 53.918C82.7318 54.2781 82.7621 54.6586 82.622 55.062C82.4821 55.4643 82.2203 55.7457 81.838 55.9058C81.4547 56.0653 80.9807 56.0474 80.4156 55.8503ZM80.0879 56.9011C80.8841 57.1787 81.585 57.1769 82.1899 56.8965C82.7962 56.6165 83.228 56.1037 83.4863 55.3609C83.7412 54.6274 83.7176 53.9611 83.414 53.3638C83.1113 52.7669 82.5564 52.3271 81.7498 52.0458C80.9362 51.7619 80.2246 51.7615 79.6138 52.0438C79.0037 52.3275 78.5706 52.836 78.3143 53.573C78.1729 53.9799 78.1141 54.3622 78.1372 54.7194C78.1545 54.9875 78.2294 55.2547 78.3632 55.5216C78.4968 55.7884 78.6713 56.0239 78.8862 56.2254C79.1791 56.4982 79.5797 56.7239 80.0879 56.9011ZM81.78 59.5257L76.961 57.3656L77.3979 56.3882L82.2168 58.5483L81.78 59.5257ZM79.8267 63.6148L75.1532 61.2515L75.6352 60.2957L79.512 62.256L80.705 59.8894L81.5016 60.292L79.8267 63.6148ZM75.5331 65.9054L76.0376 65.206C76.322 64.812 76.5279 64.5706 76.6535 64.4823C76.7793 64.3942 76.9106 64.351 77.0449 64.354C77.1799 64.3561 77.3107 64.4037 77.4403 64.4975C77.5926 64.6078 77.6837 64.7359 77.7171 64.8829C77.7493 65.0294 77.7305 65.1753 77.6617 65.3213C77.618 65.4173 77.4838 65.6224 77.2592 65.9336L76.6806 66.7357L75.5331 65.9054ZM73.8357 64.677L74.194 64.1802C74.4871 63.7741 74.6697 63.5313 74.7416 63.4528C74.8623 63.3212 74.9905 63.2486 75.1256 63.2356C75.2608 63.2226 75.394 63.2627 75.5267 63.3586C75.664 63.4582 75.7444 63.5801 75.7678 63.7261C75.7913 63.8723 75.7579 64.0258 75.6683 64.1856C75.6194 64.2746 75.4732 64.4877 75.2306 64.824L74.8218 65.3906L73.8357 64.677ZM72.4983 65.0303L76.7777 68.1271L77.8307 66.6674C78.2247 66.1128 78.4658 65.7576 78.5545 65.603C78.6949 65.3537 78.7669 65.1112 78.7704 64.8753C78.7733 64.6375 78.7152 64.4071 78.5964 64.183C78.4775 63.9589 78.3207 63.777 78.1256 63.6358C77.8774 63.4562 77.6119 63.3704 77.3279 63.3773C77.0431 63.3854 76.7696 63.4914 76.505 63.6961C76.5547 63.4511 76.5358 63.2143 76.4462 62.9854C76.3575 62.7575 76.2121 62.5701 76.0128 62.4258C75.8285 62.2925 75.6297 62.2153 75.4179 62.1958C75.2061 62.1762 75.0084 62.2001 74.8237 62.2669C74.6401 62.3345 74.4741 62.4407 74.3243 62.5874C74.1761 62.7337 73.9802 62.9761 73.7346 63.3163L72.4983 65.0303ZM75.4449 69.8651L76.0928 69.0133L71.8933 65.8089L71.2453 66.6607L75.4449 69.8651ZM70.8091 71.4264L71.8311 72.4078L72.5148 71.6933C72.7802 71.416 72.9415 71.2315 72.9979 71.1425C73.0863 71.0074 73.1249 70.8655 73.1131 70.716C73.1003 70.5657 73.0279 70.4263 72.8922 70.2959C72.7766 70.1852 72.6538 70.1199 72.5203 70.0992C72.3877 70.0776 72.2519 70.1023 72.1151 70.1721C71.9783 70.2421 71.7412 70.4526 71.4052 70.8036L70.8091 71.4264ZM69.2973 69.9751L70.1756 70.8183L70.6587 70.3137C70.9451 70.0142 71.1195 69.8233 71.1803 69.7418C71.2911 69.596 71.3453 69.4484 71.3422 69.3006C71.3392 69.1528 71.2764 69.0208 71.154 68.9033C71.0358 68.79 70.9094 68.7318 70.7737 68.7259C70.6381 68.72 70.501 68.7744 70.3636 68.8877C70.2815 68.9557 70.067 69.171 69.7208 69.5325L69.2973 69.9751ZM67.9241 70.14L69.3851 68.6135C69.675 68.3105 69.9026 68.0975 70.0696 67.973C70.238 67.8484 70.4171 67.7663 70.6083 67.7248C70.8005 67.6842 70.9995 67.6879 71.2065 67.7366C71.4136 67.7853 71.6002 67.8893 71.7641 68.0468C71.9416 68.2172 72.06 68.4228 72.1162 68.661C72.1733 68.9 72.1592 69.1371 72.0764 69.3729C72.3668 69.2067 72.6521 69.1397 72.9353 69.1711C73.2175 69.2035 73.4688 69.3252 73.6896 69.5373C73.8634 69.7043 73.9938 69.9062 74.0805 70.1444C74.1674 70.3829 74.1933 70.6192 74.1573 70.854C74.1214 71.0873 74.0166 71.3178 73.8434 71.545C73.7341 71.6857 73.4463 72.0044 72.9796 72.4991L71.7355 73.7991L67.9241 70.14ZM66.8086 77.6087L67.6806 76.989L64.6251 72.6769L63.7531 73.2965L66.8086 77.6087ZM62.252 74.2552L63.1758 73.7159L64.8604 76.6105C65.0805 76.989 65.2173 77.2996 65.2693 77.5428C65.3347 77.8607 65.2978 78.1688 65.1571 78.4674C65.0171 78.7643 64.7551 79.0255 64.3708 79.2499C63.9207 79.5128 63.5015 79.5893 63.1127 79.4785C62.7228 79.3685 62.3855 79.0698 62.0999 78.5838L62.9134 77.9723C63.0755 78.2267 63.2198 78.389 63.3482 78.4579C63.5421 78.5639 63.7394 78.5584 63.9412 78.4407C64.144 78.3223 64.2543 78.1797 64.2695 78.0126C64.2853 77.8466 64.186 77.5784 63.9706 77.2083L62.252 74.2552ZM57.7089 79.503C57.9556 80.0492 58.269 80.4057 58.6486 80.574C59.0276 80.7413 59.4119 80.7376 59.7993 80.5619C60.1878 80.3861 60.4424 80.1016 60.5659 79.7094C60.6879 79.3163 60.6228 78.8406 60.3698 78.2811C60.1201 77.7281 59.8128 77.3702 59.4473 77.209C59.0823 77.046 58.6997 77.056 58.2977 77.2381C57.8969 77.4198 57.6355 77.7043 57.5144 78.0902C57.3938 78.4772 57.4581 78.948 57.7089 79.503ZM56.7226 79.9891C56.5008 79.498 56.3882 79.0519 56.3841 78.6512C56.3816 78.3563 56.4318 78.0674 56.5328 77.7866C56.6339 77.5056 56.7758 77.2671 56.9578 77.0698C57.2006 76.8072 57.5177 76.5864 57.9096 76.4089C58.6194 76.0871 59.2858 76.0513 59.9115 76.2987C60.5365 76.5478 61.0264 77.0647 61.3816 77.8509C61.7336 78.6304 61.7975 79.3362 61.574 79.9671C61.3509 80.599 60.8849 81.0751 60.1783 81.3955C59.4629 81.7195 58.7942 81.7592 58.1739 81.5119C57.5543 81.2659 57.0701 80.7585 56.7226 79.9891ZM52.0191 76.9326L52.8073 76.7116L53.3253 77.1263L53.5814 76.4947L54.3623 76.2756L53.9327 77.5004L53.0322 77.753L52.0191 76.9326ZM52.4456 82.1279C52.6716 82.6767 52.9973 83.0519 53.4246 83.2518C53.852 83.4526 54.387 83.4624 55.0296 83.2821C55.4711 83.1585 55.823 82.9932 56.0841 82.7859C56.3454 82.5796 56.5209 82.3259 56.6119 82.0256C56.7027 81.7253 56.7065 81.4289 56.625 81.1373C56.5353 80.8161 56.3923 80.5648 56.1961 80.3833C55.9998 80.2019 55.7648 80.0824 55.4903 80.0227C55.2173 79.9638 54.8147 79.9436 54.2838 79.9661C53.7524 79.9873 53.4069 79.9614 53.2472 79.8874C53.1215 79.8306 53.0419 79.7417 53.008 79.6208C52.9709 79.4882 52.9958 79.3673 53.0814 79.2577C53.2138 79.0875 53.4285 78.9608 53.7244 78.878C54.0107 78.7977 54.2423 78.7954 54.4177 78.87C54.593 78.9451 54.7392 79.1072 54.8567 79.3581L55.8762 79.0338C55.7274 78.5654 55.454 78.2358 55.0529 78.0427C54.6531 77.8494 54.1343 77.8427 53.4989 78.0208C53.1084 78.1304 52.7934 78.2826 52.5509 78.4786C52.3082 78.6744 52.1458 78.9054 52.0623 79.1729C51.9799 79.4401 51.9748 79.7048 52.0475 79.9643C52.1604 80.3686 52.4111 80.6676 52.8009 80.8611C53.0782 80.9995 53.5099 81.06 54.0962 81.0437C54.5521 81.031 54.8449 81.0281 54.9763 81.0373C55.1687 81.0499 55.3121 81.0888 55.4057 81.1534C55.4993 81.2192 55.5632 81.3111 55.5972 81.4319C55.6495 81.6193 55.6113 81.8064 55.4834 81.9931C55.3558 82.1797 55.1267 82.3193 54.7977 82.4117C54.4865 82.4988 54.2172 82.4899 53.9899 82.3838C53.7622 82.2776 53.573 82.0662 53.4189 81.7477L52.4456 82.1279ZM48.259 84.7207L47.2964 79.5214L51.139 78.8078L51.3018 79.6864L48.5105 80.2048L48.7243 81.3593L51.3198 80.8774L51.4823 81.756L48.8868 82.2381L49.1475 83.6467L52.0404 83.1095L52.2031 83.9882L48.259 84.7207ZM46.0963 84.7945L45.6954 79.5219L46.7615 79.4407L47.1624 84.7132L46.0963 84.7945ZM42.4799 84.999L40.4224 79.7748L41.5771 79.7376L43.0427 83.6066L44.2032 79.6532L45.3381 79.6165L43.6307 84.9621L42.4799 84.999ZM32.7954 80.9903C32.9336 80.3968 33.1683 79.9841 33.4992 79.7503C33.8295 79.5179 34.2097 79.4509 34.6382 79.5511C35.068 79.6513 35.3776 79.8765 35.5685 80.2283C35.7606 80.5789 35.7874 81.0502 35.6498 81.6412C35.5107 82.2395 35.2736 82.6566 34.938 82.8944C34.6018 83.1306 34.2271 83.2011 33.8117 83.1041C33.3975 83.0074 33.0903 82.7766 32.891 82.4129C32.692 82.048 32.6597 81.5741 32.7954 80.9903ZM31.7175 80.7753C31.5262 81.5977 31.6023 82.2954 31.9449 82.8682C32.2869 83.4422 32.8418 83.8182 33.6066 83.9967C34.3619 84.173 35.0209 84.0789 35.5816 83.7131C36.1422 83.3486 36.5201 82.7493 36.7141 81.9161C36.9094 81.0758 36.8345 80.3669 36.4896 79.7884C36.1433 79.211 35.5925 78.8334 34.8337 78.6564C34.4149 78.5585 34.0291 78.5406 33.6768 78.6011C33.4125 78.6469 33.1551 78.7501 32.9043 78.9114C32.6535 79.0728 32.4383 79.2714 32.2611 79.507C32.0211 79.8275 31.8396 80.2502 31.7175 80.7753ZM29.3014 82.6793L30.9746 77.664L31.9887 78.0035L30.3154 83.0186L29.3014 82.6793ZM24.3569 80.6903L25.3329 81.1277L25.985 79.6682L27.1293 79.213L27.4429 82.0734L28.7016 82.6373L28.1055 78.8332L30.7637 77.7685L29.4557 77.1824L26.534 78.4392L27.4892 76.3012L26.5133 75.8636L24.3569 80.6903ZM20.5845 76.6109L21.5364 77.0426C21.4166 77.3755 21.3977 77.659 21.4809 77.8963C21.5639 78.1334 21.7458 78.3326 22.0255 78.4945C22.3214 78.6656 22.581 78.7323 22.8036 78.6932C23.0262 78.6544 23.1868 78.551 23.2839 78.3828C23.3466 78.2741 23.3676 78.1639 23.3492 78.051C23.33 77.9389 23.2576 77.8088 23.1319 77.6622C23.0466 77.5615 22.8401 77.3538 22.5124 77.0362C22.0911 76.6275 21.8327 76.2759 21.7377 75.9805C21.6036 75.566 21.6419 75.1773 21.8517 74.8139C21.9863 74.5806 22.179 74.3994 22.4274 74.2714C22.6768 74.1444 22.9553 74.0995 23.2648 74.1365C23.5741 74.1734 23.9028 74.2924 24.254 74.4959C24.8252 74.8266 25.183 75.2029 25.3242 75.6245C25.4667 76.0469 25.4223 76.473 25.1917 76.9069L24.2477 76.403C24.3448 76.1435 24.3586 75.9255 24.2895 75.7477C24.2203 75.5696 24.0568 75.4053 23.7994 75.2562C23.5333 75.1024 23.2929 75.037 23.0789 75.061C22.9409 75.0763 22.8372 75.1427 22.7682 75.2622C22.7056 75.3709 22.6978 75.4901 22.745 75.6199C22.8038 75.786 23.0267 76.0516 23.4132 76.4174C23.8002 76.7822 24.0671 77.0846 24.2157 77.3215C24.3649 77.56 24.4438 77.8117 24.4513 78.079C24.4588 78.3464 24.3793 78.6246 24.2126 78.9134C24.0614 79.1755 23.8469 79.3798 23.5689 79.5245C23.291 79.6692 22.9872 79.7209 22.6572 79.6777C22.3266 79.6355 21.9627 79.4987 21.5658 79.2691C20.9881 78.9345 20.6213 78.5445 20.466 78.0977C20.3102 77.6521 20.3506 77.1566 20.5845 76.6109ZM15.6186 74.9821L16.4045 75.5819L18.5079 72.8173L18.1062 76.8807L18.9557 77.5291L22.1556 73.3231L21.3697 72.7234L19.2252 75.5421L19.6414 71.4045L18.8185 70.7762L15.6186 74.9821ZM13.9976 73.537L14.7694 74.278L18.4229 70.4608L17.6511 69.7197L13.9976 73.537ZM15.9881 65.7903L15.7346 67.07L16.3769 67.7508L17.6594 67.5618L17.1022 66.9712L16.4249 67.0383L16.5502 66.3861L15.9881 65.7903ZM11.5954 68.5862L12.3846 69.2721C12.1748 69.5569 12.076 69.8233 12.088 70.0742C12.1001 70.3255 12.2176 70.5682 12.4396 70.8035C12.6743 71.0521 12.9042 71.1901 13.1285 71.2165C13.3529 71.2428 13.5362 71.1898 13.6773 71.0561C13.7684 70.97 13.8199 70.8706 13.8344 70.7567C13.8481 70.644 13.8156 70.4986 13.7372 70.3221C13.684 70.2014 13.5454 69.9433 13.3218 69.5449C13.0346 69.0326 12.8872 68.6221 12.8803 68.3117C12.8699 67.8761 13.0176 67.5146 13.3221 67.2263C13.5178 67.0412 13.754 66.9225 14.0285 66.871C14.3037 66.8206 14.5834 66.8572 14.8696 66.9812C15.1555 67.1049 15.4366 67.3133 15.7151 67.6087C16.1683 68.0888 16.4039 68.5519 16.4191 68.9963C16.4353 69.4417 16.2711 69.8375 15.9265 70.1875L15.1653 69.4345C15.3324 69.2136 15.4078 69.0086 15.3923 68.8183C15.3769 68.628 15.2669 68.4238 15.0626 68.2074C14.8517 67.9837 14.6397 67.8522 14.4278 67.8139C14.2911 67.7893 14.1729 67.8234 14.0728 67.9181C13.9817 68.0044 13.9403 68.1164 13.9486 68.2541C13.9575 68.4303 14.0953 68.7485 14.3615 69.2097C14.6285 69.6701 14.7981 70.0361 14.873 70.3056C14.9479 70.5769 14.9517 70.8407 14.8828 71.0991C14.8137 71.3574 14.6582 71.6012 14.4161 71.8302C14.1965 72.0383 13.9326 72.1728 13.625 72.2319C13.3172 72.2912 13.0115 72.2538 12.7075 72.1179C12.4028 71.9831 12.0929 71.7479 11.7781 71.4141C11.3198 70.9283 11.0795 70.4497 11.058 69.9773C11.0357 69.5054 11.2158 69.0421 11.5954 68.5862ZM9.22913 68.2025L9.89601 69.0392L14.0227 65.741L13.3557 64.9039L9.22913 68.2025ZM7.12663 65.2782L10.5666 60.8432L11.1869 61.8194L8.6096 65.0538L12.5975 64.0396L13.2071 64.9989L7.74479 66.2512L7.12663 65.2782ZM5.11927 54.9045C4.56101 55.1205 4.18797 55.414 3.99877 55.784C3.81064 56.1537 3.79287 56.5381 3.94607 56.9353C4.09973 57.3336 4.3689 57.6043 4.75312 57.7499C5.13796 57.8939 5.61594 57.8554 6.18798 57.634C6.75313 57.4154 7.12709 57.1282 7.30848 56.7717C7.4914 56.416 7.50304 56.0326 7.34402 55.6205C7.18531 55.2094 6.91645 54.9321 6.5385 54.7894C6.15949 54.6471 5.68656 54.685 5.11927 54.9045ZM4.69 53.8909C5.19219 53.6967 5.64321 53.6092 6.04275 53.6274C6.33689 53.6417 6.622 53.708 6.89638 53.8249C7.17076 53.9418 7.40055 54.0968 7.587 54.29C7.83518 54.5477 8.03725 54.8771 8.19244 55.2789C8.47325 56.0069 8.47141 56.6752 8.18968 57.2872C7.90626 57.8981 7.36348 58.359 6.55979 58.67C5.76301 58.9782 5.05584 59.0026 4.43937 58.7435C3.82198 58.4851 3.37357 57.9921 3.09413 57.2677C2.81118 56.5341 2.80934 55.8631 3.09046 55.2567C3.37066 54.6509 3.90364 54.1952 4.69 53.8909ZM1.34981 50.5906L2.18612 54.2171L3.05538 54.0159L2.45974 51.4329L6.69139 50.4538L6.45072 49.4103L1.34981 50.5906ZM0.942299 48.4636L6.13344 47.5005L6.32816 48.5535L1.13686 49.5165L0.942299 48.4636ZM0.621352 44.836L0.708826 45.986L6.11567 47.4596L6.02942 46.3257L2.03492 45.3378L5.8298 43.7017L5.74217 42.5479L0.621352 44.836ZM3.3584 38.7304C2.76169 38.6847 2.29888 38.7889 1.96919 39.0415C1.64058 39.2941 1.4595 39.6335 1.42717 40.058C1.39485 40.4839 1.52139 40.8441 1.80573 41.1411C2.09129 41.4369 2.53925 41.6082 3.15082 41.6548C3.75488 41.7009 4.21585 41.6028 4.53267 41.3591C4.85056 41.1167 5.02566 40.7757 5.05921 40.3351C5.09261 39.8959 4.96882 39.5296 4.68908 39.2379C4.40812 38.9462 3.96491 38.7765 3.3584 38.7304ZM3.40635 37.6302C3.943 37.6713 4.3879 37.7867 4.74071 37.9753C5.00008 38.115 5.22896 38.2977 5.42643 38.5214C5.62391 38.7451 5.76469 38.9842 5.85003 39.2388C5.96355 39.5783 6.00445 39.963 5.97182 40.3924C5.91253 41.1705 5.62406 41.7732 5.10686 42.204C4.58859 42.6336 3.90057 42.8157 3.04158 42.7502C2.18995 42.685 1.54085 42.4022 1.09581 41.903C0.649385 41.4035 0.456358 40.7653 0.515186 39.9909C0.574934 39.2067 0.861413 38.6001 1.37585 38.1741C1.88892 37.7479 2.56575 37.5662 3.40635 37.6302ZM5.73176 34.5488L4.25262 34.2744L4.14676 34.8468C4.07047 35.2595 4.04749 35.5394 4.07613 35.6888C4.10478 35.838 4.16913 35.9625 4.27177 36.063C4.37319 36.1632 4.50004 36.228 4.65461 36.2567C4.84443 36.2919 5.01065 36.2652 5.1542 36.1779C5.29805 36.0895 5.401 35.9647 5.46412 35.7998C5.51008 35.6794 5.5686 35.4311 5.63831 35.0534L5.73176 34.5488ZM1.61254 32.6956L6.80384 33.6587L6.49239 35.3421C6.37442 35.9798 6.27224 36.3904 6.18446 36.5744C6.05087 36.8575 5.83562 37.0755 5.5375 37.228C5.23922 37.3804 4.88365 37.4182 4.47032 37.3416C4.15121 37.2823 3.8949 37.1748 3.6988 37.0194C3.50271 36.8629 3.35932 36.6849 3.26786 36.4839C3.17747 36.283 3.12875 36.0863 3.12308 35.895C3.11987 35.6351 3.16138 35.2685 3.24917 34.7942L3.37541 34.1117L1.41783 33.7485L1.61254 32.6956Z" fill="#05633B"/>
<path fill-rule="evenodd" clip-rule="evenodd" d="M5.84772 26.3065C6.6681 26.3065 7.33314 26.9744 7.33314 27.7982C7.33314 28.6221 6.6681 29.29 5.84772 29.29C5.02749 29.29 4.3623 28.6221 4.3623 27.7982C4.3623 26.9744 5.02749 26.3065 5.84772 26.3065Z" fill="#05633B"/>
<path fill-rule="evenodd" clip-rule="evenodd" d="M65.4376 57.1031L66.2838 60.4338C64.5788 60.4602 63.668 60.3267 62.4631 60.1729C61.9619 60.109 59.4258 59.6499 59.1995 59.4045L58.8179 59.3023C58.4974 59.1592 58.1618 59.0396 57.8523 58.896C57.4261 58.6981 57.0267 58.4743 56.589 58.2687C56.4795 58.2317 56.366 58.1531 56.2302 58.0805C55.9372 57.9229 55.5948 57.7308 55.3593 57.6143C55.0135 57.444 54.6638 57.2677 54.3201 57.0935C53.853 56.8563 52.4513 56.2714 51.9754 56.2792C51.8078 56.2507 51.6574 56.2342 51.5286 56.1482C50.9763 56.123 50.5369 56.0297 49.9459 56.0453C48.8716 56.0729 48.0817 56.2529 47.2201 56.6043C46.9811 56.702 46.7468 56.8294 46.486 56.9507C46.365 57.0074 46.177 57.0872 45.9984 57.1875C45.6396 57.3896 45.2552 57.6373 45.1002 57.6632C44.8048 57.7132 44.5568 57.6808 44.6887 57.5445C45.1809 57.1292 45.5898 56.7552 46.0661 56.4238C46.5592 56.0802 47.0715 55.7999 47.5935 55.5586C48.2351 55.2623 48.7633 55.0555 49.3125 54.9643C50.0004 54.8502 50.7347 54.9596 51.6189 55.1143C51.7602 55.139 52.4991 55.3145 53.3924 55.6139C54.3408 55.9312 55.4511 56.4362 56.4864 56.8195C56.8631 56.9588 58.313 57.512 59.7763 57.8916C60.7917 58.1551 61.8157 58.3172 62.4859 58.2734C62.8499 58.25 63.1426 58.2013 63.2392 58.0007C61.9439 57.761 60.8676 57.5701 59.5965 57.1253C58.9428 56.896 58.3217 56.6115 57.6691 56.3552C57.1033 56.1329 56.5545 55.9138 55.9784 55.6977C55.9316 55.6808 54.798 55.2396 53.7078 54.8638C52.621 54.4891 51.468 54.121 50.3105 54.043C49.3573 53.978 48.3979 54.1285 47.4833 54.4572C46.8882 54.6703 46.0324 55.1987 45.3873 55.7783C44.816 56.2906 44.3567 56.7716 44.1457 56.9688L44.0374 56.7423C44.1533 56.6147 44.2441 56.4275 44.3665 56.2423C44.5519 55.9622 44.7677 55.6893 45.1788 55.2289C45.3335 55.0559 45.5273 54.8693 45.7769 54.6515C46.0491 54.4486 46.2744 54.2248 46.535 54.0379C47.8861 53.0689 49.5273 52.8551 51.2176 53.0106C52.606 53.1383 54.0485 53.5054 55.2277 54.0012C56.0101 54.3295 56.6714 54.7763 57.4368 55.1465C58.6814 55.747 60.058 56.2611 61.5923 56.5842C62.6577 56.8082 63.8804 57.1212 65.4376 57.1031ZM55.7009 51.3887C56.6114 51.9026 57.8603 52.6293 58.9749 53.2692C60.572 54.1856 61.32 54.5243 63.1991 54.6607C63.7337 54.6996 64.2617 54.7126 64.847 54.7783L65.2225 56.2553C64.4192 56.2256 63.5301 56.2374 62.6217 56.1266C61.8485 56.0321 61.0909 55.8512 60.3776 55.6408C59.0969 55.2623 57.4117 54.4848 55.9226 53.7455C55.3817 53.4769 54.7787 53.2698 54.3543 53.0086C51.8924 51.9861 50.9522 51.7297 49.3838 51.9328C47.3637 52.1928 45.4247 53.538 44.0623 55.0211C43.879 55.2197 43.7148 55.4257 43.5208 55.6744C43.5143 55.576 43.5714 55.4472 43.6342 55.2971C43.6952 55.1526 43.7271 54.9865 44.1393 54.1746L44.4688 53.573C44.6299 53.3301 44.7406 53.1219 44.8728 52.9314C45.0977 52.6084 45.3435 52.3245 45.6892 51.9564C46.3088 51.2961 47.2252 50.6026 48.1482 50.219C48.4129 50.1088 48.8342 49.9683 49.4904 49.8778C49.6157 49.8606 49.8319 49.8079 50.1168 49.7911C52.1181 49.6753 53.9989 50.4269 55.7009 51.3887ZM42.9502 54.5473L42.9079 11.2355C43.0481 11.3818 42.9949 11.3068 43.0761 11.482C43.9527 13.3783 45.6266 15.3973 47.1612 16.7577C49.0628 18.4428 51.4803 19.9541 52.923 21.5598C53.9433 22.6953 54.3367 23.9195 54.3306 25.1123C54.3217 26.647 53.7384 27.7832 52.9227 28.6769C51.9895 29.6994 50.7118 30.375 48.9718 30.4263C47.9031 30.4571 46.7595 30.2348 45.9028 30.1121C45.4947 30.0485 44.9981 29.8077 44.6971 29.7754C44.704 32.0453 45.021 36.0102 47.538 36.8072C49.6033 37.4632 51.4662 36.5025 53.2419 35.495C53.2514 35.4399 53.2546 35.2714 53.2193 35.0339C53.0832 34.119 52.9211 33.257 52.8559 32.3203C52.7391 30.655 53.3407 29.258 54.3977 28.2368C54.9957 27.6588 55.6786 27.1569 56.6126 26.9018C57.5174 26.6545 58.3969 26.6334 59.2196 26.7223C63.2961 27.1578 64.842 29.7754 67.9645 32.8611C69.009 33.8926 70.3737 34.9904 71.5916 35.7804C72.1203 36.1235 72.6302 36.4188 73.1659 36.7441C72.5968 37.3405 71.9011 37.7665 71.3042 38.2195C69.7418 39.4042 68.4062 40.5843 66.7613 42.6268C65.447 44.258 64.1161 46.3467 62.6073 47.782C61.9236 48.4316 61.21 48.8949 60.8547 49.085C59.9847 49.5516 59.0983 49.792 58.1398 49.8242C57.537 49.8446 56.9038 49.8132 56.2273 49.6111C55.5427 49.4063 54.7367 48.9499 54.2052 48.4762C52.0229 46.5356 51.81 43.4525 52.5142 40.7836C52.5801 40.5319 52.7171 40.2578 52.7253 39.9922C52.727 39.9355 52.7201 39.875 52.6967 39.8206C52.5014 39.8473 52.3754 39.9704 52.2264 40.0383C51.5803 40.3311 51.1868 40.5351 50.3361 41.0975C49.1042 41.9718 48.4813 42.6387 47.817 43.6631C47.3972 44.3112 46.994 45.1426 46.7085 45.8582C45.9791 47.6854 45.4463 50.0981 45.3422 51.1325L42.9502 54.5473ZM48.638 57.3315C49.6842 57.256 50.8304 57.3443 51.8651 57.4605C52.7431 57.5589 53.7171 57.8245 54.5676 58.0744C54.8321 58.1516 55.0694 58.2679 55.3441 58.3414C55.5221 58.3842 55.596 58.3958 55.7316 58.5024C56.037 58.5999 56.5328 58.8055 57.0324 59.0262C57.4564 59.2133 57.9073 59.396 58.2122 59.5159C58.9138 59.7907 59.647 60.0499 60.379 60.292C61.8839 60.7899 63.3328 61.0817 65.3485 60.964C65.6621 60.9457 66.0772 60.9221 66.3951 60.8724L66.7418 62.2368C66.4737 62.2465 66.252 62.1873 65.9606 62.157C65.5833 62.1179 65.1616 62.0937 64.7207 62.0288C63.9492 61.9146 63.111 61.8082 62.2779 61.6249C60.5734 61.2485 58.8723 60.722 57.6878 60.3705C56.1887 59.9244 54.7569 59.3322 53.2638 58.9564C52.0995 58.6627 50.4721 58.4085 49.2638 58.3575C46.8929 58.2564 46.5778 58.6687 45.5137 58.6929L45.3795 58.3823C45.9353 58.0546 46.2869 57.831 46.6412 57.7035C47.1838 57.5091 47.6306 57.4043 48.638 57.3315ZM73.713 48.376C74.3592 44.7611 74.3633 41.3327 73.8574 37.5272C73.701 36.3539 73.379 35.1268 73.1206 33.9744C72.9851 33.3723 72.698 32.6759 72.5422 32.0167L72.4339 31.7705C72.3837 31.4321 72.1866 30.9712 71.9651 30.4543C70.5071 27.0504 68.9517 24.4016 66.9868 21.9475C65.1216 19.6174 63.2464 17.9525 60.8234 16.2448C59.1677 14.8855 55.8267 13.4483 53.8199 12.685C51.9823 11.9864 50.1544 11.7382 48.2378 11.3815C47.2073 11.1894 43.8507 11.035 42.9808 11.1398C41.0525 13.8528 41.2227 13.7474 41.0471 13.97C40.8967 14.1598 40.5189 14.6206 38.0581 16.9684C36.9737 18.0005 35.6978 18.8046 34.4964 19.7209C33.8041 20.2495 33.1016 20.7674 32.5328 21.409C31.9612 22.0546 31.6011 22.7872 31.4313 23.6341C30.9838 25.8679 31.6819 28.113 33.5168 29.4916C34.6177 30.3186 35.8788 30.6587 37.2354 30.5876C38.8126 30.5052 39.5323 30.3155 40.9444 30.053L39.0615 36.2203C38.2194 36.9771 37.0297 37.1272 35.9329 36.9654C34.5301 36.7586 34.0159 36.3189 33.0177 35.9545C32.899 35.8875 32.7945 35.8217 32.6817 35.7633C32.5924 35.7169 32.4942 35.676 32.3963 35.6302C32.3739 35.5189 32.4308 35.4034 32.5124 35.2861C33.0721 33.1148 33.4624 31.2239 32.2243 29.2246C32.0467 28.9383 31.822 28.6709 31.5981 28.4191C30.6408 27.3404 29.5407 26.7233 28.11 26.551C26.0528 26.3053 23.923 26.8854 22.2762 28.1469C22.1714 28.2282 21.9298 28.4186 21.6958 28.6276C20.6795 29.5344 19.8011 30.5556 18.8655 31.5511C17.0899 33.441 15.0873 35.1594 12.8265 36.4294C12.5986 36.5576 12.4154 36.6718 12.3164 36.7461C12.2663 36.7842 12.2488 36.8263 12.2456 36.8317C12.4108 36.9877 12.6589 37.1053 12.8941 37.2752C16.3356 39.7641 18.2018 42.0619 20.7238 45.3139C21.6373 46.4909 22.4203 47.5705 23.6018 48.5021C25.3452 49.8775 27.7394 50.5476 29.8734 49.7229C30.2195 49.5889 30.5644 49.449 30.8708 49.2408C32.5046 48.1283 33.3437 46.7653 33.7322 45.1847C33.8436 44.7308 33.8405 44.2485 33.8278 43.7462C33.8132 43.1349 33.7746 42.4918 33.6709 41.8356C33.6113 41.4592 33.3465 40.6107 33.2047 40.2261C33.6113 40.2817 34.0901 40.4408 34.5887 40.7472C35.1392 41.0846 35.7904 41.542 36.3193 42.0676C37.678 43.4188 38.3073 44.742 39.0554 46.4422C39.1127 46.6139 39.2264 46.9509 39.3689 47.3765C39.469 47.6754 39.598 48.0197 39.6739 48.3803C39.8216 49.085 39.9804 49.8443 40.1194 50.4364C40.2675 51.0674 40.3904 51.5103 40.3455 51.5167C40.3242 51.5198 39.8905 51.0262 39.498 50.698C39.1171 50.38 38.0435 49.9817 37.5619 49.8639C37.0228 49.684 36.4061 49.5869 35.7688 49.5869C35.0493 49.5872 34.3023 49.7096 33.6113 49.8809C33.0741 50.0141 32.0757 50.3308 31.1966 50.7555C30.0988 51.2866 28.9473 51.9664 27.8569 52.6426C27.148 53.082 26.4095 53.4846 25.7296 53.8873C24.0352 54.8987 23.015 54.6526 21.087 54.6412L20.7117 56.1588L23.3397 55.9797C24.1628 55.9128 26.0502 55.5167 26.8194 55.1802C27.609 54.8722 28.3843 54.3766 29.2038 53.9291C29.7014 53.6578 30.2333 53.4006 30.7404 53.2056C31.7092 52.8322 32.9491 52.3791 34.1325 52.1386C34.8962 51.9831 35.6409 51.9322 36.2621 51.988C36.5658 52.0181 37.0116 52.1208 37.4177 52.2443C37.6506 52.3147 37.8773 52.3864 38.0409 52.4727C38.2039 52.5487 38.874 52.8419 38.9578 52.9239C39.6452 53.2529 40.8175 54.177 41.5498 55.1411C41.7649 55.4248 41.9369 55.7075 42.0576 55.982C42.1202 56.1251 42.1627 56.2673 42.1833 56.4071C42.1928 56.4727 42.2075 56.5389 42.1992 56.6043C42.1992 56.6126 42.0296 56.7906 41.9435 56.8229C41.847 56.8591 41.8118 56.7206 41.794 56.6982C41.7218 56.606 41.6722 56.5044 41.6066 56.4058C40.9995 55.4987 39.9859 54.43 39.043 53.8853C38.3594 53.4908 37.642 53.137 36.8775 52.979C35.6225 52.7198 34.1256 52.7921 32.7235 53.165C31.5609 53.4737 30.3488 54.0318 29.2997 54.5848C29.0007 54.7428 28.4432 55.067 27.9148 55.3041C27.5031 55.4887 27.0921 55.6733 26.6802 55.8584C26.2558 55.9667 25.8547 56.1637 25.4052 56.3128C24.8574 56.4949 24.2552 56.6336 23.6897 56.7589C22.5999 57.0012 21.5178 57.0363 20.4958 57.0323L19.7194 60.1699L23.8573 60.1959C24.4427 60.1444 25.1951 59.905 26.0347 59.6222C26.7998 59.3637 27.6452 59.0745 28.3819 58.7401C29.1629 58.3852 29.8544 57.996 30.3502 57.7055C31.2899 57.1554 32.005 56.7699 32.8167 56.5049C33.5314 56.2714 34.3591 56.1286 34.9786 56.0605C35.6401 55.9872 35.8874 56.0226 36.8078 56.0459C37.6588 56.0413 38.7565 56.0248 36.8685 55.4239C35.9749 55.1397 34.408 55.065 33.4433 55.2395C33.2576 55.2388 31.0603 56.0436 30.8853 56.1118C30.5578 56.1628 29.7423 56.5027 29.3778 56.6297C27.9372 57.1312 26.4174 57.7116 24.9349 58.0266C24.6533 58.0865 24.4461 58.147 24.236 58.1524C23.7138 58.1493 23.3047 58.229 22.7848 58.0442C23.8166 57.7818 24.8511 57.6019 25.8141 57.2787C26.1795 57.1561 26.5884 57.0481 26.938 56.8974C27.2145 56.7783 27.4944 56.6731 27.7571 56.5622C29.1332 55.9832 30.6004 55.3418 32.0596 54.828C32.7614 54.5805 33.4393 54.3302 34.1184 54.1962C35.3106 53.9609 36.4863 53.9555 37.6592 54.3598C38.8883 54.7835 39.9201 55.4015 40.7449 56.2259C41.0606 56.5499 41.318 56.8199 41.6339 57.144C41.6154 58.0891 41.2633 58.568 40.4972 58.615C40.0239 58.3525 39.6688 58.0755 39.2967 57.882C39.0133 57.7343 38.1849 57.47 37.8732 57.3927C36.9024 57.1503 36.2117 57.0935 35.2213 57.1117C33.952 57.1359 32.7824 57.404 31.691 57.8175C30.8593 58.1332 30.0853 58.5486 29.2594 58.923C28.5473 59.2458 27.8037 59.5483 27.0452 59.8232C25.417 60.3447 24.4913 60.6023 22.8323 60.8923C21.8438 61.065 20.5217 61.0026 19.5178 60.9843L19.2315 62.1429C20.0425 62.1774 21.2246 62.0522 22.3278 61.9185C23.7429 61.7466 25.0636 61.5908 26.4606 61.306C27.2704 61.1224 28.4295 60.9233 29.5997 60.616C30.5726 60.36 31.8678 59.9889 33.0762 59.6833C34.6456 59.2857 36.7372 58.9482 38.3427 58.9784C38.8863 58.9885 39.4261 59.057 40.0348 59.1137C40.158 59.2959 40.2415 59.5136 40.3388 59.7365C40.5917 60.3131 40.8916 60.9631 41.3846 61.4031C41.691 61.6556 42.0075 61.8523 42.4785 61.9915C43.1637 62.1939 43.6786 62.1149 44.133 61.8961C44.4934 61.7224 44.8293 61.4693 45.0956 61.1335C45.438 60.7022 45.7093 60.1636 46.0037 59.6528C46.9323 59.8054 50.668 60.3758 54.1743 60.9968C55.4685 61.2263 56.9593 61.4451 58.4311 61.7156C60.1898 62.04 62.1579 62.3871 63.7083 62.6262C64.5278 62.7522 65.23 62.8577 65.7256 62.933L66.9515 63.12L65.5473 64.7131C61.8554 64.1031 57.6515 63.4151 53.9578 62.7586C51.7729 62.3703 49.5828 61.9753 47.4132 61.5349C47.0954 61.7863 46.5885 62.6503 46.0733 63.0881C45.4528 63.6481 44.8223 64.0469 44.0917 64.1673C43.6995 64.2318 43.3074 64.2964 42.9151 64.3606L42.8999 62.2871C42.6491 62.2083 42.4241 62.1732 42.2225 62.1193C41.7378 61.9899 41.3522 61.7951 41.0009 61.5534C40.598 61.276 40.2462 60.9329 39.9746 60.517C39.8173 60.2768 39.7129 60.0246 39.577 59.7352L38.598 59.8281C32.0485 60.8853 25.5174 62.0157 18.9822 63.1503L18.564 64.8397C19.398 64.7549 20.2294 64.5945 21.0878 64.458C22.5069 64.2319 23.9751 63.9972 25.4507 63.7467C28.6449 63.2052 31.9219 62.6878 34.9066 62.1849C36.1138 61.9781 37.265 61.7843 38.4745 61.6013C38.6445 61.9963 38.939 62.347 39.2705 62.6645C39.7532 63.1286 40.3429 63.5381 40.9788 63.8249C41.6209 64.1141 42.3113 64.2803 42.9012 64.3655L42.9033 73.8661C46.0387 73.9515 47.9906 73.782 49.8745 73.3845C51.3 73.0838 53.8779 72.4216 55.2461 71.8035C56.1449 71.3816 57.1192 70.9958 57.9361 70.5431C58.952 69.9806 59.8967 69.4009 60.8339 68.7717C61.2839 68.4699 61.7264 68.1236 62.1555 67.7946C62.8423 67.2691 63.5936 66.6342 64.3053 65.9534C64.7334 65.5445 65.122 65.0886 65.5473 64.7131L67.4389 64.9832L66.9515 63.12C67.136 62.8933 67.3212 62.6635 67.5058 62.426C67.8985 61.9214 68.2903 61.4003 68.6197 60.8969C69.7563 59.1572 70.8391 57.2268 71.663 55.3113C72.2746 53.8896 72.7912 52.4388 73.1513 50.9324C73.2995 50.314 73.6083 48.9597 73.713 48.376Z" fill="#05633B"/>
</svg>
