<svg width="86" height="87" viewBox="0 0 86 87" fill="none" xmlns="http://www.w3.org/2000/svg">
<path fill-rule="evenodd" clip-rule="evenodd" d="M80.0732 27.3065C80.8935 27.3065 81.5586 27.9744 81.5586 28.7982C81.5586 29.6221 80.8935 30.29 80.0732 30.29C79.2529 30.29 78.5879 29.6221 78.5879 28.7982C78.5879 27.9744 79.2529 27.3065 80.0732 27.3065Z" fill="#05633B"/>
<path d="M80.0732 27.3065C80.8935 27.3065 81.5586 27.9744 81.5586 28.7982C81.5586 29.6221 80.8935 30.29 80.0732 30.29C79.2529 30.29 78.5879 29.6221 78.5879 28.7982C78.5879 27.9744 79.2529 27.3065 80.0732 27.3065Z" stroke="#05633B" stroke-width="0.0868637" stroke-miterlimit="22.926"/>
<path fill-rule="evenodd" clip-rule="evenodd" d="M74.5164 20.8384C74.0586 21.2156 73.7956 21.6373 73.73 22.1049C73.6632 22.5731 73.8106 23.0884 74.1705 23.651C74.4179 24.0375 74.6786 24.3264 74.953 24.5156C75.2265 24.7056 75.52 24.7993 75.8333 24.7986C76.1466 24.7978 76.4306 24.7148 76.6851 24.5513C76.9656 24.3715 77.1637 24.161 77.2795 23.9198C77.3953 23.679 77.4407 23.4189 77.4174 23.1385C77.3936 22.8598 77.2951 22.4684 77.1183 21.9664C76.9426 21.4637 76.8662 21.1253 76.8901 20.9505C76.9075 20.8136 76.9691 20.7112 77.0747 20.6435C77.1905 20.5692 77.3132 20.5577 77.4428 20.6075C77.644 20.6846 77.8276 20.8531 77.9934 21.1122C78.154 21.3629 78.224 21.5842 78.2037 21.774C78.1837 21.9638 78.0715 22.1513 77.8664 22.3371L78.4744 23.2186C78.878 22.9392 79.1128 22.5809 79.1796 22.1403C79.2473 21.7006 79.1019 21.2019 78.7458 20.6455C78.527 20.3034 78.2895 20.0465 78.0315 19.8714C77.7736 19.6964 77.5056 19.6082 77.2257 19.6065C76.9464 19.6061 76.6921 19.6787 76.4655 19.8241C76.1127 20.0505 75.9006 20.3782 75.8298 20.8082C75.7789 21.1141 75.8474 21.5452 76.0346 22.1021C76.1801 22.5351 76.2685 22.8145 76.2983 22.943C76.3427 23.131 76.3474 23.2799 76.3131 23.3882C76.2777 23.4972 76.2086 23.5854 76.1029 23.6531C75.9396 23.7581 75.7498 23.7761 75.5343 23.7084C75.3184 23.6407 75.1183 23.4622 74.9339 23.1742C74.7595 22.9017 74.6892 22.6412 74.724 22.3923C74.7588 22.1433 74.9054 21.9001 75.1643 21.6592L74.5164 20.8384ZM70.0327 18.0275L74.0234 14.5655L76.5821 17.5239L75.9078 18.109L74.049 15.9599L73.1629 16.7287L74.8911 18.7272L74.2169 19.3122L72.4885 17.3137L71.4072 18.2518L73.3336 20.4791L72.6592 21.0642L70.0327 18.0275ZM68.4707 16.481L72.1135 12.6534L72.8874 13.3923L69.2447 17.2198L68.4707 16.481ZM65.878 14.3126L66.7187 14.9742L69.4294 11.5191L70.6529 12.482L71.2041 11.7794L67.9109 9.18761L67.3596 9.89018L68.5888 10.8576L65.878 14.3126ZM63.1478 12.3242L65.9979 7.87317L66.898 8.45119L64.0479 12.9024L63.1478 12.3242ZM60.767 7.47669L61.3787 6.28051L62.1191 6.66029C62.5032 6.8573 62.7311 6.98109 62.8033 7.03195C62.9435 7.13567 63.0312 7.25823 63.0657 7.39886C63.0996 7.54072 63.077 7.68963 62.996 7.8485C62.9235 7.9899 62.8315 8.09193 62.7186 8.15306C62.607 8.21465 62.4831 8.23548 62.3509 8.21603C62.2176 8.19611 61.9242 8.07033 61.4691 7.83701L60.767 7.47669ZM58.427 9.70328L59.3785 10.1915L60.3837 8.22614L60.5762 8.3248C60.795 8.43709 60.9457 8.53652 61.0295 8.62384C61.1123 8.7104 61.1737 8.82499 61.2154 8.96532C61.2572 9.10718 61.307 9.42293 61.3643 9.91301L61.5192 11.2895L62.6533 11.8714L62.5499 10.6594C62.5116 10.1779 62.4627 9.83059 62.4027 9.61871C62.3437 9.4073 62.2426 9.1893 62.099 8.96501C62.5412 9.11576 62.9235 9.1294 63.2479 9.00531C63.5722 8.88137 63.8242 8.64268 64.0051 8.28879C64.1473 8.01059 64.2044 7.7287 64.1787 7.44161C64.1525 7.15574 64.0476 6.91246 63.862 6.71085C63.6777 6.50985 63.3343 6.27975 62.8321 6.02206L60.8337 4.99701L58.427 9.70328ZM53.3262 7.77129L55.0188 2.76261L56.0316 3.10592L55.2818 5.3247L58.0722 3.79777L59.4295 4.25783L56.8834 5.56875L57.8347 9.2996L56.5286 8.85686L55.9473 6.03876L54.8509 6.60024L54.339 8.11461L53.3262 7.77129ZM48.3948 4.97372L49.4365 5.05507C49.437 5.40896 49.5157 5.68181 49.6746 5.87668C49.8333 6.07139 50.0717 6.19656 50.39 6.25339C50.7263 6.3136 50.9932 6.28771 51.1891 6.17511C51.3854 6.06266 51.501 5.91084 51.535 5.7195C51.5573 5.59586 51.5396 5.4851 51.4837 5.38506C51.4276 5.28625 51.3154 5.18866 51.1474 5.09368C51.033 5.02811 50.7681 4.90325 50.3522 4.71635C49.8169 4.47537 49.4546 4.23301 49.2649 3.98789C48.9979 3.64381 48.9019 3.26525 48.9755 2.85207C49.0229 2.58673 49.1424 2.3505 49.3323 2.14567C49.5237 1.941 49.7705 1.80389 50.074 1.73311C50.3775 1.66248 50.7271 1.66248 51.1262 1.73388C51.7759 1.85015 52.2402 2.08194 52.5164 2.43032C52.7937 2.77869 52.8968 3.19478 52.8276 3.68119L51.7685 3.52937C51.7717 3.25223 51.7106 3.0425 51.5851 2.8988C51.4597 2.7551 51.2501 2.65629 50.9573 2.60389C50.6548 2.54981 50.4064 2.57034 50.2134 2.66594C50.0888 2.72737 50.0141 2.82526 49.9897 2.961C49.9678 3.08448 50.0011 3.19922 50.0895 3.30508C50.2011 3.44143 50.5009 3.61516 50.9887 3.82734C51.4767 4.03845 51.8306 4.23194 52.0507 4.40382C52.2719 4.57709 52.4317 4.78713 52.5296 5.03592C52.6277 5.28472 52.6473 5.57319 52.5887 5.90165C52.5356 6.19977 52.4034 6.46496 52.191 6.69583C51.979 6.92655 51.7109 7.07868 51.386 7.15068C51.0609 7.22376 50.6721 7.21931 50.2209 7.13842C49.564 7.02092 49.0865 6.77917 48.7886 6.41211C48.4907 6.04612 48.3605 5.56645 48.3948 4.97372ZM44.7358 1.97317L44.6219 3.47544L45.2013 3.51956C45.6194 3.55143 45.8996 3.54423 46.0447 3.4998C46.1899 3.45522 46.3067 3.3777 46.3954 3.26479C46.4841 3.15296 46.5348 3.01983 46.5467 2.8628C46.5613 2.67007 46.5169 2.50738 46.4148 2.37379C46.3117 2.24004 46.1768 2.15073 46.0062 2.10569C45.8819 2.07275 45.6291 2.04119 45.2467 2.01208L44.7358 1.97317ZM43.3372 6.27362L43.7374 1.00097L45.4419 1.13073C46.0878 1.17991 46.506 1.23766 46.6981 1.30538C46.9935 1.40802 47.2329 1.59906 47.4161 1.87972C47.5995 2.16023 47.6752 2.51044 47.6435 2.93005C47.6188 3.25422 47.5395 3.52094 47.4062 3.73297C47.2718 3.94499 47.1104 4.10677 46.9207 4.21953C46.7312 4.3309 46.5409 4.40045 46.3516 4.42665C46.0942 4.45775 45.7257 4.45561 45.2455 4.41899L44.5544 4.36645L44.4033 6.35466L43.3372 6.27362ZM40.5985 4.31145L39.7188 2.41561L39.1561 4.42114L40.5985 4.31145ZM42.7056 6.25447L41.5574 6.34194L41.0117 5.17625L38.9003 5.33681L38.5539 6.57052L37.4265 6.65631L39.0703 1.22816L40.1966 1.14237L42.7056 6.25447ZM31.58 8.07232C31.5475 8.11844 31.5205 8.16915 31.4999 8.22292C31.4792 8.27669 31.4643 8.33246 31.4544 8.38776C31.4461 8.44398 31.4429 8.4996 31.4465 8.55291C31.4491 8.60668 31.4579 8.65571 31.4733 8.70105C31.4985 8.77566 31.5395 8.83188 31.5977 8.86942C31.6546 8.90726 31.7296 8.91048 31.8239 8.87846C31.8646 8.86467 31.9089 8.84184 31.955 8.80936C32.001 8.77689 32.0452 8.74625 32.0858 8.71683L32.2793 9.28934C32.118 9.44545 31.9611 9.54932 31.8087 9.60094C31.6806 9.64445 31.563 9.66483 31.4583 9.66253C31.3539 9.66038 31.2589 9.64047 31.176 9.60232C31.093 9.56417 31.0233 9.51117 30.9664 9.44345C30.9084 9.37467 30.8651 9.29715 30.8353 9.20845C30.7902 9.07562 30.7835 8.92457 30.8152 8.75406C30.8458 8.5837 30.9105 8.42146 31.0073 8.26643L31.58 8.07232ZM27.261 3.95419L28.165 6.62873C28.3545 7.18944 28.5305 7.60277 28.6939 7.86704C28.8051 8.04628 28.9604 8.19902 29.1636 8.32771C29.3666 8.45639 29.6095 8.53376 29.8925 8.56134C30.1756 8.58891 30.5549 8.52135 31.0311 8.35988C31.4257 8.22598 31.7272 8.06666 31.9386 7.8819C32.1488 7.6976 32.2986 7.49599 32.3863 7.27538C32.475 7.05417 32.5042 6.81043 32.475 6.54355C32.4457 6.27668 32.3287 5.84206 32.1252 5.24044L31.2351 2.6068L30.2225 2.95012L31.1594 5.72256C31.2933 6.11889 31.3741 6.40736 31.4029 6.58859C31.4317 6.76983 31.3941 6.94248 31.2894 7.10916C31.1849 7.27584 30.9905 7.40683 30.7077 7.50273C30.4282 7.59741 30.1874 7.61012 29.9833 7.54026C29.781 7.47117 29.6238 7.34003 29.5113 7.14946C29.4439 7.03057 29.337 6.75635 29.1911 6.32494L28.2738 3.61071L27.261 3.95419ZM26.946 9.95085L24.7712 5.13259L25.7454 4.69153L27.9204 9.50979L26.946 9.95085ZM23.0125 12.1525L26.2339 10.2968L25.7892 9.5222L23.4944 10.844L21.3293 7.07316L20.4024 7.60706L23.0125 12.1525ZM15.3288 11.2533L16.1696 10.5915L17.9375 12.8445C18.2184 13.2025 18.4105 13.4254 18.5136 13.5149C18.6829 13.6572 18.8749 13.7284 19.0888 13.726C19.3042 13.7238 19.5272 13.6315 19.759 13.4488C19.9939 13.2641 20.1337 13.0756 20.1768 12.8835C20.2198 12.6916 20.1979 12.5162 20.1104 12.355C20.023 12.1937 19.8511 11.9487 19.5928 11.6196L17.7869 9.31829L18.6275 8.65663L20.343 10.8426C20.7349 11.342 20.9898 11.7128 21.1062 11.9547C21.2225 12.1964 21.2761 12.436 21.2662 12.6741C21.257 12.9116 21.1827 13.1516 21.0459 13.3955C20.9081 13.6402 20.6767 13.8911 20.3493 14.149C19.954 14.4601 19.6188 14.6504 19.3428 14.719C19.0667 14.7875 18.8119 14.7956 18.5777 14.742C18.3434 14.6884 18.1461 14.5963 17.9817 14.4645C17.7398 14.2698 17.4364 13.9388 17.071 13.4734L15.3288 11.2533ZM15.1923 15.8493L14.1944 16.898L13.2716 15.0311L15.1923 15.8493ZM18.0562 15.8795L12.7753 13.765L11.9961 14.5839L14.4038 19.718L15.1837 18.8984L14.6164 17.7497L16.0773 16.2145L17.2619 16.7144L18.0562 15.8795ZM13.4178 21.0138L14.0784 20.1718L9.92716 16.9047L9.26657 17.7467L13.4178 21.0138ZM5.27344 20.9472L6.57455 20.885L7.0795 20.0964L6.58681 18.8955L6.14912 19.5794L6.37739 20.2216L5.71526 20.2572L5.27344 20.9472ZM9.04198 24.5426L9.51613 23.6102C9.84275 23.7453 10.1246 23.7772 10.365 23.7049C10.6055 23.6326 10.8123 23.4599 10.9867 23.1874C11.1711 22.8994 11.2494 22.6425 11.2208 22.4182C11.1923 22.1936 11.0967 22.0283 10.9331 21.9233C10.8277 21.8556 10.7187 21.8296 10.6052 21.8429C10.4925 21.8569 10.3595 21.9235 10.2075 22.0421C10.1032 22.123 9.88656 22.3201 9.55473 22.6333C9.12746 23.036 8.76514 23.2784 8.4661 23.3599C8.04649 23.4749 7.66073 23.4187 7.30792 23.1921C7.08134 23.0467 6.90929 22.8456 6.79317 22.5913C6.67796 22.3359 6.6461 22.0551 6.69711 21.7473C6.74813 21.4394 6.88218 21.116 7.1011 20.7742C7.45729 20.2176 7.84902 19.8771 8.27598 19.755C8.70371 19.6319 9.12685 19.6961 9.54891 19.9466L9.00291 20.8681C8.74875 20.7589 8.53182 20.7351 8.3512 20.7961C8.17058 20.8571 7.99915 21.0132 7.8386 21.2638C7.67284 21.5229 7.59654 21.7605 7.61064 21.9757C7.61952 22.1145 7.68111 22.2213 7.79708 22.2958C7.90263 22.3635 8.02105 22.3768 8.15265 22.3354C8.32117 22.2843 8.59617 22.0735 8.97901 21.7037C9.36063 21.3332 9.67453 21.08 9.91751 20.9421C10.1622 20.8039 10.4171 20.7365 10.684 20.7413C10.9511 20.746 11.2248 20.8385 11.5051 21.0185C11.7596 21.182 11.9535 21.4058 12.085 21.6906C12.2166 21.9754 12.2541 22.2818 12.1959 22.6098C12.1387 22.9387 11.9855 23.2965 11.7381 23.683C11.378 24.2457 10.972 24.5948 10.5194 24.7295C10.0676 24.8649 9.57526 24.8016 9.04198 24.5426Z" fill="#05633B"/>
<path d="M74.5164 20.8384C74.0586 21.2156 73.7956 21.6373 73.73 22.1049C73.6632 22.5731 73.8106 23.0884 74.1705 23.651C74.4179 24.0375 74.6786 24.3264 74.953 24.5156C75.2265 24.7056 75.52 24.7993 75.8333 24.7986C76.1466 24.7978 76.4306 24.7148 76.6851 24.5513C76.9656 24.3715 77.1637 24.161 77.2795 23.9198C77.3953 23.679 77.4407 23.4189 77.4174 23.1385C77.3936 22.8598 77.2951 22.4684 77.1183 21.9664C76.9426 21.4637 76.8662 21.1253 76.8901 20.9505C76.9075 20.8136 76.9691 20.7112 77.0747 20.6435C77.1905 20.5692 77.3132 20.5577 77.4428 20.6075C77.644 20.6846 77.8276 20.8531 77.9934 21.1122C78.154 21.3629 78.224 21.5842 78.2037 21.774C78.1837 21.9638 78.0715 22.1513 77.8664 22.3371L78.4744 23.2186C78.878 22.9392 79.1128 22.5809 79.1796 22.1403C79.2473 21.7006 79.1019 21.2019 78.7458 20.6455C78.527 20.3034 78.2895 20.0465 78.0315 19.8714C77.7736 19.6964 77.5056 19.6082 77.2257 19.6065C76.9464 19.6061 76.6921 19.6787 76.4655 19.8241C76.1127 20.0505 75.9006 20.3782 75.8298 20.8082C75.7789 21.1141 75.8474 21.5452 76.0346 22.1021C76.1801 22.5351 76.2685 22.8145 76.2983 22.943C76.3427 23.131 76.3474 23.2799 76.3131 23.3882C76.2777 23.4972 76.2086 23.5854 76.1029 23.6531C75.9396 23.7581 75.7498 23.7761 75.5343 23.7084C75.3184 23.6407 75.1183 23.4622 74.9339 23.1742C74.7595 22.9017 74.6892 22.6412 74.724 22.3923C74.7588 22.1433 74.9054 21.9001 75.1643 21.6592L74.5164 20.8384ZM70.0327 18.0275L74.0234 14.5655L76.5821 17.5239L75.9078 18.109L74.049 15.9599L73.1629 16.7287L74.8911 18.7272L74.2169 19.3122L72.4885 17.3137L71.4072 18.2518L73.3336 20.4791L72.6592 21.0642L70.0327 18.0275ZM68.4707 16.481L72.1135 12.6534L72.8874 13.3923L69.2447 17.2198L68.4707 16.481ZM65.878 14.3126L66.7187 14.9742L69.4294 11.5191L70.6529 12.482L71.2041 11.7794L67.9109 9.18761L67.3596 9.89018L68.5888 10.8576L65.878 14.3126ZM63.1478 12.3242L65.9979 7.87317L66.898 8.45119L64.0479 12.9024L63.1478 12.3242ZM60.767 7.47669L61.3787 6.28051L62.1191 6.66029C62.5032 6.8573 62.7311 6.98109 62.8033 7.03195C62.9435 7.13567 63.0312 7.25823 63.0657 7.39886C63.0996 7.54072 63.077 7.68963 62.996 7.8485C62.9235 7.9899 62.8315 8.09193 62.7186 8.15306C62.607 8.21465 62.4831 8.23548 62.3509 8.21603C62.2176 8.19611 61.9242 8.07033 61.4691 7.83701L60.767 7.47669ZM58.427 9.70328L59.3785 10.1915L60.3837 8.22614L60.5762 8.3248C60.795 8.43709 60.9457 8.53652 61.0295 8.62384C61.1123 8.7104 61.1737 8.82499 61.2154 8.96532C61.2572 9.10718 61.307 9.42293 61.3643 9.91301L61.5192 11.2895L62.6533 11.8714L62.5499 10.6594C62.5116 10.1779 62.4627 9.83059 62.4027 9.61871C62.3437 9.4073 62.2426 9.1893 62.099 8.96501C62.5412 9.11576 62.9235 9.1294 63.2479 9.00531C63.5722 8.88137 63.8242 8.64268 64.0051 8.28879C64.1473 8.01059 64.2044 7.7287 64.1787 7.44161C64.1525 7.15574 64.0476 6.91246 63.862 6.71085C63.6777 6.50985 63.3343 6.27975 62.8321 6.02206L60.8337 4.99701L58.427 9.70328ZM53.3262 7.77129L55.0188 2.76261L56.0316 3.10592L55.2818 5.3247L58.0722 3.79777L59.4295 4.25783L56.8834 5.56875L57.8347 9.2996L56.5286 8.85686L55.9473 6.03876L54.8509 6.60024L54.339 8.11461L53.3262 7.77129ZM48.3948 4.97372L49.4365 5.05507C49.437 5.40896 49.5157 5.68181 49.6746 5.87668C49.8333 6.07139 50.0717 6.19656 50.39 6.25339C50.7263 6.3136 50.9932 6.28771 51.1891 6.17511C51.3854 6.06266 51.501 5.91084 51.535 5.7195C51.5573 5.59586 51.5396 5.4851 51.4837 5.38506C51.4276 5.28625 51.3154 5.18866 51.1474 5.09368C51.033 5.02811 50.7681 4.90325 50.3522 4.71635C49.8169 4.47537 49.4546 4.23301 49.2649 3.98789C48.9979 3.64381 48.9019 3.26525 48.9755 2.85207C49.0229 2.58673 49.1424 2.3505 49.3323 2.14567C49.5237 1.941 49.7705 1.80389 50.074 1.73311C50.3775 1.66248 50.7271 1.66248 51.1262 1.73388C51.7759 1.85015 52.2402 2.08194 52.5164 2.43032C52.7937 2.77869 52.8968 3.19478 52.8276 3.68119L51.7685 3.52937C51.7717 3.25223 51.7106 3.0425 51.5851 2.8988C51.4597 2.7551 51.2501 2.65629 50.9573 2.60389C50.6548 2.54981 50.4064 2.57034 50.2134 2.66594C50.0888 2.72737 50.0141 2.82526 49.9897 2.961C49.9678 3.08448 50.0011 3.19922 50.0895 3.30508C50.2011 3.44143 50.5009 3.61516 50.9887 3.82734C51.4767 4.03845 51.8306 4.23194 52.0507 4.40382C52.2719 4.57709 52.4317 4.78713 52.5296 5.03592C52.6277 5.28472 52.6473 5.57319 52.5887 5.90165C52.5356 6.19977 52.4034 6.46496 52.191 6.69583C51.979 6.92655 51.7109 7.07868 51.386 7.15068C51.0609 7.22376 50.6721 7.21931 50.2209 7.13842C49.564 7.02092 49.0865 6.77917 48.7886 6.41211C48.4907 6.04612 48.3605 5.56645 48.3948 4.97372ZM44.7358 1.97317L44.6219 3.47544L45.2013 3.51956C45.6194 3.55143 45.8996 3.54423 46.0447 3.4998C46.1899 3.45522 46.3067 3.3777 46.3954 3.26479C46.4841 3.15296 46.5348 3.01983 46.5467 2.8628C46.5613 2.67007 46.5169 2.50738 46.4148 2.37379C46.3117 2.24004 46.1768 2.15073 46.0062 2.10569C45.8819 2.07275 45.6291 2.04119 45.2467 2.01208L44.7358 1.97317ZM43.3372 6.27362L43.7374 1.00097L45.4419 1.13073C46.0878 1.17991 46.506 1.23766 46.6981 1.30538C46.9935 1.40802 47.2329 1.59906 47.4161 1.87972C47.5995 2.16023 47.6752 2.51044 47.6435 2.93005C47.6188 3.25422 47.5395 3.52094 47.4062 3.73297C47.2718 3.94499 47.1104 4.10677 46.9207 4.21953C46.7312 4.3309 46.5409 4.40045 46.3516 4.42665C46.0942 4.45775 45.7257 4.45561 45.2455 4.41899L44.5544 4.36645L44.4033 6.35466L43.3372 6.27362ZM40.5985 4.31145L39.7188 2.41561L39.1561 4.42114L40.5985 4.31145ZM42.7056 6.25447L41.5574 6.34194L41.0117 5.17625L38.9003 5.33681L38.5539 6.57052L37.4265 6.65631L39.0703 1.22816L40.1966 1.14237L42.7056 6.25447ZM31.58 8.07232C31.5475 8.11844 31.5205 8.16915 31.4999 8.22292C31.4792 8.27669 31.4643 8.33246 31.4544 8.38776C31.4461 8.44398 31.4429 8.4996 31.4465 8.55291C31.4491 8.60668 31.4579 8.65571 31.4733 8.70105C31.4985 8.77566 31.5395 8.83188 31.5977 8.86942C31.6546 8.90726 31.7296 8.91048 31.8239 8.87846C31.8646 8.86467 31.9089 8.84184 31.955 8.80936C32.001 8.77689 32.0452 8.74625 32.0858 8.71683L32.2793 9.28934C32.118 9.44545 31.9611 9.54932 31.8087 9.60094C31.6806 9.64445 31.563 9.66483 31.4583 9.66253C31.3539 9.66038 31.2589 9.64047 31.176 9.60232C31.093 9.56417 31.0233 9.51117 30.9664 9.44345C30.9084 9.37467 30.8651 9.29715 30.8353 9.20845C30.7902 9.07562 30.7835 8.92457 30.8152 8.75406C30.8458 8.5837 30.9105 8.42146 31.0073 8.26643L31.58 8.07232ZM27.261 3.95419L28.165 6.62873C28.3545 7.18944 28.5305 7.60277 28.6939 7.86704C28.8051 8.04628 28.9604 8.19902 29.1636 8.32771C29.3666 8.45639 29.6095 8.53376 29.8925 8.56134C30.1756 8.58891 30.5549 8.52135 31.0311 8.35988C31.4257 8.22598 31.7272 8.06666 31.9386 7.8819C32.1488 7.6976 32.2986 7.49599 32.3863 7.27538C32.475 7.05417 32.5042 6.81043 32.475 6.54355C32.4457 6.27668 32.3287 5.84206 32.1252 5.24044L31.2351 2.6068L30.2225 2.95012L31.1594 5.72256C31.2933 6.11889 31.3741 6.40736 31.4029 6.58859C31.4317 6.76983 31.3941 6.94248 31.2894 7.10916C31.1849 7.27584 30.9905 7.40683 30.7077 7.50273C30.4282 7.59741 30.1874 7.61012 29.9833 7.54026C29.781 7.47117 29.6238 7.34003 29.5113 7.14946C29.4439 7.03057 29.337 6.75635 29.1911 6.32494L28.2738 3.61071L27.261 3.95419ZM26.946 9.95085L24.7712 5.13259L25.7454 4.69153L27.9204 9.50979L26.946 9.95085ZM23.0125 12.1525L26.2339 10.2968L25.7892 9.5222L23.4944 10.844L21.3293 7.07316L20.4024 7.60706L23.0125 12.1525ZM15.3288 11.2533L16.1696 10.5915L17.9375 12.8445C18.2184 13.2025 18.4105 13.4254 18.5136 13.5149C18.6829 13.6572 18.8749 13.7284 19.0888 13.726C19.3042 13.7238 19.5272 13.6315 19.759 13.4488C19.9939 13.2641 20.1337 13.0756 20.1768 12.8835C20.2198 12.6916 20.1979 12.5162 20.1104 12.355C20.023 12.1937 19.8511 11.9487 19.5928 11.6196L17.7869 9.31829L18.6275 8.65663L20.343 10.8426C20.7349 11.342 20.9898 11.7128 21.1062 11.9547C21.2225 12.1964 21.2761 12.436 21.2662 12.6741C21.257 12.9116 21.1827 13.1516 21.0459 13.3955C20.9081 13.6402 20.6767 13.8911 20.3493 14.149C19.954 14.4601 19.6188 14.6504 19.3428 14.719C19.0667 14.7875 18.8119 14.7956 18.5777 14.742C18.3434 14.6884 18.1461 14.5963 17.9817 14.4645C17.7398 14.2698 17.4364 13.9388 17.071 13.4734L15.3288 11.2533ZM15.1923 15.8493L14.1944 16.898L13.2716 15.0311L15.1923 15.8493ZM18.0562 15.8795L12.7753 13.765L11.9961 14.5839L14.4038 19.718L15.1837 18.8984L14.6164 17.7497L16.0773 16.2145L17.2619 16.7144L18.0562 15.8795ZM13.4178 21.0138L14.0784 20.1718L9.92716 16.9047L9.26657 17.7467L13.4178 21.0138ZM5.27344 20.9472L6.57455 20.885L7.0795 20.0964L6.58681 18.8955L6.14912 19.5794L6.37739 20.2216L5.71526 20.2572L5.27344 20.9472ZM9.04198 24.5426L9.51613 23.6102C9.84275 23.7453 10.1246 23.7772 10.365 23.7049C10.6055 23.6326 10.8123 23.4599 10.9867 23.1874C11.1711 22.8994 11.2494 22.6425 11.2208 22.4182C11.1923 22.1936 11.0967 22.0283 10.9331 21.9233C10.8277 21.8556 10.7187 21.8296 10.6052 21.8429C10.4925 21.8569 10.3595 21.9235 10.2075 22.0421C10.1032 22.123 9.88656 22.3201 9.55473 22.6333C9.12746 23.036 8.76514 23.2784 8.4661 23.3599C8.04649 23.4749 7.66073 23.4187 7.30792 23.1921C7.08134 23.0467 6.90929 22.8456 6.79317 22.5913C6.67796 22.3359 6.6461 22.0551 6.69711 21.7473C6.74813 21.4394 6.88218 21.116 7.1011 20.7742C7.45729 20.2176 7.84902 19.8771 8.27598 19.755C8.70371 19.6319 9.12685 19.6961 9.54891 19.9466L9.00291 20.8681C8.74875 20.7589 8.53182 20.7351 8.3512 20.7961C8.17058 20.8571 7.99915 21.0132 7.8386 21.2638C7.67284 21.5229 7.59654 21.7605 7.61064 21.9757C7.61952 22.1145 7.68111 22.2213 7.79708 22.2958C7.90263 22.3635 8.02105 22.3768 8.15265 22.3354C8.32117 22.2843 8.59617 22.0735 8.97901 21.7037C9.36063 21.3332 9.67453 21.08 9.91751 20.9421C10.1622 20.8039 10.4171 20.7365 10.684 20.7413C10.9511 20.746 11.2248 20.8385 11.5051 21.0185C11.7596 21.182 11.9535 21.4058 12.085 21.6906C12.2166 21.9754 12.2541 22.2818 12.1959 22.6098C12.1387 22.9387 11.9855 23.2965 11.7381 23.683C11.378 24.2457 10.972 24.5948 10.5194 24.7295C10.0676 24.8649 9.57526 24.8016 9.04198 24.5426Z" stroke="#05633B" stroke-width="0.0330909" stroke-miterlimit="22.926"/>
<path fill-rule="evenodd" clip-rule="evenodd" d="M82.476 35.617L80.6884 36.6963L82.7398 37.0414L82.476 35.617ZM84.1788 33.3103L84.3886 34.4444L83.2901 35.1126L83.6761 37.198L84.9379 37.4106L85.1439 38.5241L79.5793 37.4693L79.3734 36.3571L84.1788 33.3103ZM85.4555 43.4349L80.1913 43.8366L80.1101 42.7689L82.442 42.5909L79.9463 40.6174L79.8376 39.1864L82.0389 41.0194L85.094 38.6816L85.1986 40.0587L82.8374 41.6979L83.7826 42.4886L85.3743 42.3672L85.4555 43.4349ZM85.1251 48.3977L85.4296 44.3917L84.54 44.324L84.3167 47.2622L82.8902 47.1533L83.0908 44.5171L82.2011 44.449L82.0006 47.0853L80.8317 46.9961L81.0472 44.161L80.1576 44.0933L79.8609 47.9962L85.1251 48.3977ZM84.5823 51.8167L80.2685 51.0158L79.9834 52.5551L79.1064 52.3924L79.8696 48.2678L80.747 48.4307L80.4632 49.963L84.7772 50.7639L84.5823 51.8167ZM80.4156 56.8503C79.8411 56.6498 79.4561 56.3722 79.2591 56.0182C79.0633 55.6643 79.0373 55.2787 79.1819 54.8624C79.3268 54.4451 79.5834 54.1605 79.9526 54.0079C80.3212 53.8536 80.792 53.8767 81.3642 54.0764C81.9433 54.2784 82.3324 54.5588 82.533 54.918C82.7318 55.2781 82.7621 55.6586 82.622 56.062C82.4821 56.4643 82.2203 56.7457 81.838 56.9058C81.4547 57.0653 80.9807 57.0474 80.4156 56.8503ZM80.0879 57.9011C80.8841 58.1787 81.585 58.1769 82.1899 57.8965C82.7961 57.6165 83.228 57.1037 83.4863 56.3609C83.7412 55.6273 83.7176 54.9611 83.414 54.3638C83.1113 53.7669 82.5564 53.3271 81.7498 53.0458C80.9362 52.7619 80.2246 52.7615 79.6138 53.0438C79.0037 53.3275 78.5706 53.836 78.3143 54.573C78.1729 54.9799 78.1141 55.3622 78.1372 55.7194C78.1545 55.9875 78.2294 56.2547 78.3632 56.5216C78.4968 56.7884 78.6713 57.0239 78.8862 57.2254C79.1791 57.4982 79.5797 57.7239 80.0879 57.9011ZM81.78 60.5257L76.961 58.3656L77.3979 57.3882L82.2167 59.5483L81.78 60.5257ZM79.8267 64.6148L75.1532 62.2515L75.6352 61.2957L79.512 63.256L80.705 60.8894L81.5016 61.292L79.8267 64.6148ZM75.5331 66.9054L76.0376 66.206C76.322 65.812 76.5279 65.5706 76.6535 65.4823C76.7793 65.3942 76.9106 65.351 77.0449 65.3539C77.1799 65.3561 77.3107 65.4037 77.4403 65.4975C77.5926 65.6078 77.6837 65.7359 77.7171 65.8829C77.7493 66.0294 77.7305 66.1752 77.6617 66.3212C77.618 66.4173 77.4838 66.6224 77.2592 66.9336L76.6806 67.7357L75.5331 66.9054ZM73.8357 65.677L74.194 65.1802C74.4871 64.7741 74.6697 64.5313 74.7416 64.4528C74.8623 64.3212 74.9905 64.2486 75.1256 64.2356C75.2608 64.2226 75.394 64.2627 75.5267 64.3586C75.664 64.4582 75.7444 64.5801 75.7678 64.7261C75.7913 64.8723 75.7579 65.0258 75.6683 65.1856C75.6194 65.2746 75.4732 65.4877 75.2306 65.824L74.8218 66.3906L73.8357 65.677ZM72.4983 66.0303L76.7777 69.1271L77.8307 67.6674C78.2247 67.1128 78.4658 66.7576 78.5545 66.603C78.6949 66.3537 78.7669 66.1112 78.7704 65.8753C78.7733 65.6375 78.7152 65.4071 78.5964 65.183C78.4775 64.9588 78.3208 64.777 78.1256 64.6358C77.8774 64.4562 77.6119 64.3704 77.3279 64.3773C77.0431 64.3854 76.7696 64.4914 76.505 64.6961C76.5547 64.4511 76.5358 64.2143 76.4462 63.9854C76.3575 63.7575 76.2121 63.5701 76.0128 63.4258C75.8285 63.2925 75.6297 63.2153 75.4179 63.1958C75.2061 63.1762 75.0084 63.2001 74.8237 63.2669C74.6401 63.3345 74.4741 63.4406 74.3243 63.5874C74.1761 63.7337 73.9802 63.9761 73.7346 64.3163L72.4983 66.0303ZM75.4449 70.8651L76.0928 70.0133L71.8933 66.8089L71.2453 67.6607L75.4449 70.8651ZM70.8091 72.4264L71.8311 73.4078L72.5148 72.6932C72.7802 72.416 72.9415 72.2315 72.9979 72.1425C73.0863 72.0074 73.1249 71.8655 73.1131 71.716C73.1003 71.5657 73.0279 71.4263 72.8921 71.2959C72.7766 71.1852 72.6538 71.1199 72.5203 71.0992C72.3877 71.0776 72.2519 71.1023 72.1151 71.1721C71.9783 71.2421 71.7412 71.4526 71.4052 71.8036L70.8091 72.4264ZM69.2973 70.9751L70.1756 71.8183L70.6587 71.3137C70.9451 71.0142 71.1195 70.8233 71.1803 70.7418C71.2911 70.596 71.3453 70.4484 71.3422 70.3006C71.3392 70.1527 71.2764 70.0208 71.154 69.9033C71.0358 69.79 70.9094 69.7318 70.7737 69.7259C70.6381 69.72 70.501 69.7743 70.3636 69.8877C70.2815 69.9557 70.067 70.171 69.7208 70.5325L69.2973 70.9751ZM67.9241 71.14L69.3851 69.6135C69.675 69.3105 69.9026 69.0975 70.0696 68.973C70.238 68.8484 70.4171 68.7663 70.6083 68.7248C70.8005 68.6842 70.9995 68.6879 71.2065 68.7366C71.4136 68.7853 71.6002 68.8893 71.7641 69.0468C71.9416 69.2172 72.06 69.4228 72.1162 69.661C72.1733 69.9 72.1592 70.1371 72.0764 70.3729C72.3668 70.2067 72.6521 70.1397 72.9354 70.1711C73.2175 70.2035 73.4688 70.3252 73.6896 70.5373C73.8634 70.7043 73.9938 70.9062 74.0805 71.1444C74.1674 71.3829 74.1933 71.6192 74.1573 71.854C74.1214 72.0873 74.0166 72.3178 73.8434 72.5449C73.7341 72.6857 73.4463 73.0044 72.9796 73.4991L71.7355 74.7991L67.9241 71.14ZM66.8086 78.6087L67.6806 77.989L64.6251 73.6769L63.7531 74.2965L66.8086 78.6087ZM62.252 75.2552L63.1758 74.7159L64.8604 77.6105C65.0805 77.989 65.2173 78.2996 65.2693 78.5428C65.3347 78.8607 65.2978 79.1688 65.1571 79.4674C65.0171 79.7643 64.7551 80.0255 64.3708 80.2499C63.9207 80.5128 63.5015 80.5893 63.1127 80.4785C62.7228 80.3685 62.3855 80.0698 62.0999 79.5838L62.9134 78.9723C63.0755 79.2267 63.2198 79.389 63.3482 79.4579C63.5421 79.5639 63.7394 79.5584 63.9412 79.4407C64.144 79.3223 64.2543 79.1797 64.2695 79.0125C64.2853 78.8466 64.186 78.5784 63.9706 78.2082L62.252 75.2552ZM57.7089 80.503C57.9556 81.0492 58.269 81.4057 58.6486 81.574C59.0277 81.7413 59.4119 81.7376 59.7993 81.5619C60.1878 81.3861 60.4424 81.1016 60.5659 80.7094C60.6879 80.3163 60.6228 79.8406 60.3698 79.2811C60.1201 78.7281 59.8128 78.3702 59.4473 78.209C59.0823 78.046 58.6997 78.056 58.2977 78.2381C57.8969 78.4198 57.6355 78.7043 57.5144 79.0902C57.3938 79.4772 57.4581 79.948 57.7089 80.503ZM56.7226 80.9891C56.5008 80.498 56.3882 80.0518 56.3841 79.6512C56.3816 79.3563 56.4318 79.0674 56.5328 78.7866C56.6339 78.5056 56.7758 78.2671 56.9578 78.0698C57.2006 77.8072 57.5177 77.5864 57.9096 77.4089C58.6194 77.0871 59.2858 77.0513 59.9115 77.2987C60.5365 77.5478 61.0264 78.0647 61.3816 78.8509C61.7336 79.6304 61.7975 80.3362 61.574 80.9671C61.3509 81.599 60.8849 82.0751 60.1783 82.3955C59.4629 82.7195 58.7942 82.7592 58.1739 82.5119C57.5543 82.2659 57.0701 81.7585 56.7226 80.9891ZM52.0191 77.9326L52.8073 77.7116L53.3253 78.1263L53.5814 77.4946L54.3623 77.2756L53.9327 78.5004L53.0322 78.753L52.0191 77.9326ZM52.4456 83.1279C52.6716 83.6767 52.9973 84.0519 53.4246 84.2518C53.852 84.4526 54.387 84.4624 55.0296 84.2821C55.4711 84.1585 55.823 83.9932 56.0841 83.7859C56.3454 83.5796 56.5209 83.3259 56.6119 83.0256C56.7027 82.7253 56.7065 82.4289 56.625 82.1373C56.5353 81.8161 56.3923 81.5648 56.1961 81.3833C55.9998 81.2019 55.7648 81.0824 55.4903 81.0227C55.2173 80.9638 54.8147 80.9436 54.2838 80.9661C53.7524 80.9873 53.4069 80.9614 53.2472 80.8874C53.1215 80.8306 53.0419 80.7417 53.008 80.6208C52.9709 80.4882 52.9958 80.3673 53.0814 80.2577C53.2138 80.0875 53.4285 79.9608 53.7244 79.878C54.0107 79.7977 54.2423 79.7954 54.4177 79.87C54.593 79.9451 54.7392 80.1071 54.8567 80.3581L55.8762 80.0338C55.7274 79.5654 55.454 79.2358 55.0529 79.0427C54.6531 78.8494 54.1343 78.8426 53.4989 79.0208C53.1084 79.1304 52.7934 79.2826 52.5509 79.4786C52.3082 79.6744 52.1458 79.9054 52.0623 80.1729C51.9799 80.4401 51.9748 80.7048 52.0475 80.9643C52.1604 81.3686 52.4111 81.6676 52.8009 81.8611C53.0782 81.9995 53.5099 82.06 54.0962 82.0437C54.5521 82.031 54.8449 82.0281 54.9763 82.0373C55.1687 82.0499 55.3121 82.0888 55.4057 82.1534C55.4993 82.2191 55.5632 82.3111 55.5972 82.4319C55.6495 82.6193 55.6113 82.8064 55.4834 82.9931C55.3558 83.1797 55.1267 83.3193 54.7977 83.4116C54.4865 83.4988 54.2172 83.4899 53.9899 83.3838C53.7622 83.2776 53.573 83.0662 53.4189 82.7477L52.4456 83.1279ZM48.259 85.7207L47.2964 80.5214L51.139 79.8078L51.3018 80.6864L48.5105 81.2048L48.7243 82.3593L51.3198 81.8774L51.4823 82.756L48.8868 83.2381L49.1475 84.6467L52.0404 84.1095L52.2031 84.9882L48.259 85.7207ZM46.0963 85.7945L45.6954 80.5219L46.7615 80.4407L47.1624 85.7132L46.0963 85.7945ZM42.4799 85.999L40.4224 80.7748L41.5771 80.7376L43.0427 84.6066L44.2032 80.6531L45.3381 80.6165L43.6307 85.9621L42.4799 85.999ZM32.7954 81.9903C32.9336 81.3968 33.1683 80.9841 33.4992 80.7503C33.8295 80.5179 34.2097 80.4509 34.6382 80.5511C35.068 80.6513 35.3776 80.8765 35.5685 81.2283C35.7606 81.5789 35.7874 82.0502 35.6498 82.6412C35.5107 83.2395 35.2736 83.6566 34.938 83.8944C34.6018 84.1306 34.2271 84.2011 33.8117 84.1041C33.3975 84.0074 33.0903 83.7766 32.891 83.4129C32.692 83.048 32.6597 82.5741 32.7954 81.9903ZM31.7175 81.7753C31.5262 82.5977 31.6023 83.2954 31.9449 83.8682C32.2869 84.4422 32.8418 84.8182 33.6066 84.9966C34.3619 85.173 35.0209 85.0789 35.5816 84.7131C36.1422 84.3486 36.5201 83.7493 36.7141 82.9161C36.9094 82.0758 36.8345 81.3669 36.4896 80.7884C36.1433 80.211 35.5925 79.8334 34.8337 79.6564C34.4149 79.5585 34.0291 79.5406 33.6768 79.6011C33.4125 79.6469 33.1551 79.75 32.9043 79.9114C32.6535 80.0728 32.4383 80.2714 32.2611 80.507C32.0211 80.8275 31.8396 81.2502 31.7175 81.7753ZM29.3014 83.6793L30.9746 78.664L31.9887 79.0035L30.3154 84.0186L29.3014 83.6793ZM24.3569 81.6903L25.3329 82.1277L25.985 80.6682L27.1293 80.213L27.4429 83.0734L28.7016 83.6373L28.1055 79.8332L30.7637 78.7685L29.4557 78.1824L26.534 79.4392L27.4892 77.3012L26.5133 76.8636L24.3569 81.6903ZM20.5845 77.6109L21.5364 78.0426C21.4166 78.3755 21.3977 78.659 21.4809 78.8963C21.5639 79.1334 21.7458 79.3326 22.0255 79.4945C22.3214 79.6656 22.581 79.7323 22.8036 79.6932C23.0262 79.6544 23.1868 79.551 23.2839 79.3828C23.3466 79.2741 23.3676 79.1639 23.3492 79.051C23.33 78.9389 23.2576 78.8088 23.1319 78.6622C23.0466 78.5615 22.8401 78.3538 22.5124 78.0362C22.0911 77.6275 21.8327 77.2759 21.7377 76.9805C21.6036 76.566 21.6419 76.1773 21.8516 75.8139C21.9863 75.5806 22.179 75.3993 22.4274 75.2714C22.6768 75.1444 22.9553 75.0995 23.2648 75.1365C23.5741 75.1734 23.9028 75.2924 24.254 75.4959C24.8252 75.8266 25.183 76.2029 25.3242 76.6245C25.4667 77.0468 25.4223 77.473 25.1917 77.9069L24.2477 77.403C24.3448 77.1435 24.3586 76.9255 24.2895 76.7477C24.2203 76.5696 24.0568 76.4053 23.7994 76.2562C23.5333 76.1024 23.2929 76.037 23.0789 76.061C22.9409 76.0763 22.8372 76.1427 22.7682 76.2622C22.7056 76.3709 22.6978 76.4901 22.745 76.6199C22.8038 76.7859 23.0267 77.0516 23.4132 77.4174C23.8002 77.7822 24.0671 78.0846 24.2157 78.3215C24.3649 78.56 24.4438 78.8117 24.4513 79.079C24.4588 79.3464 24.3793 79.6246 24.2126 79.9134C24.0614 80.1755 23.8469 80.3798 23.5689 80.5245C23.291 80.6692 22.9872 80.7209 22.6572 80.6777C22.3266 80.6355 21.9627 80.4987 21.5658 80.2691C20.9881 79.9345 20.6213 79.5444 20.466 79.0977C20.3102 78.6521 20.3506 78.1566 20.5845 77.6109ZM15.6186 75.9821L16.4045 76.5819L18.5079 73.8173L18.1062 77.8807L18.9557 78.529L22.1556 74.3231L21.3697 73.7234L19.2252 76.5421L19.6414 72.4045L18.8185 71.7762L15.6186 75.9821ZM13.9976 74.537L14.7694 75.278L18.4229 71.4608L17.6511 70.7197L13.9976 74.537ZM15.9881 66.7903L15.7346 68.07L16.3769 68.7508L17.6594 68.5618L17.1022 67.9712L16.4249 68.0383L16.5502 67.3861L15.9881 66.7903ZM11.5954 69.5862L12.3846 70.2721C12.1748 70.5569 12.076 70.8233 12.088 71.0742C12.1001 71.3255 12.2176 71.5681 12.4396 71.8035C12.6743 72.0521 12.9042 72.1901 13.1285 72.2165C13.3529 72.2428 13.5362 72.1898 13.6773 72.0561C13.7684 71.97 13.8199 71.8706 13.8344 71.7567C13.8481 71.644 13.8156 71.4986 13.7372 71.3221C13.684 71.2014 13.5454 70.9433 13.3218 70.5449C13.0346 70.0326 12.8872 69.6221 12.8803 69.3117C12.8699 68.8761 13.0176 68.5146 13.3221 68.2263C13.5178 68.0412 13.754 67.9225 14.0285 67.871C14.3037 67.8206 14.5834 67.8572 14.8696 67.9812C15.1555 68.1049 15.4366 68.3133 15.7151 68.6087C16.1683 69.0888 16.4039 69.5519 16.4191 69.9963C16.4353 70.4417 16.2711 70.8375 15.9265 71.1875L15.1653 70.4345C15.3324 70.2136 15.4078 70.0086 15.3923 69.8183C15.3769 69.628 15.2669 69.4238 15.0626 69.2074C14.8517 68.9837 14.6397 68.8522 14.4278 68.8139C14.2911 68.7893 14.1729 68.8234 14.0728 68.9181C13.9817 69.0044 13.9403 69.1164 13.9486 69.2541C13.9575 69.4303 14.0953 69.7485 14.3614 70.2097C14.6285 70.6701 14.7981 71.0361 14.873 71.3056C14.9479 71.5769 14.9517 71.8407 14.8828 72.0991C14.8137 72.3574 14.6582 72.6012 14.4161 72.8302C14.1965 73.0382 13.9326 73.1728 13.625 73.2319C13.3172 73.2912 13.0115 73.2538 12.7075 73.1179C12.4028 72.9831 12.0929 72.7479 11.7781 72.4141C11.3198 71.9283 11.0795 71.4497 11.058 70.9773C11.0357 70.5054 11.2158 70.0421 11.5954 69.5862ZM9.22913 69.2025L9.89601 70.0392L14.0227 66.741L13.3557 65.9039L9.22913 69.2025ZM7.12663 66.2782L10.5666 61.8432L11.1869 62.8194L8.6096 66.0538L12.5975 65.0396L13.2071 65.9989L7.74479 67.2512L7.12663 66.2782ZM5.11927 55.9045C4.56101 56.1205 4.18797 56.414 3.99877 56.784C3.81064 57.1537 3.79287 57.538 3.94607 57.9353C4.09973 58.3336 4.3689 58.6043 4.75312 58.7498C5.13796 58.8939 5.61594 58.8554 6.18798 58.634C6.75313 58.4154 7.12709 58.1282 7.30848 57.7717C7.4914 57.4159 7.50304 57.0326 7.34402 56.6205C7.18531 56.2094 6.91645 55.9321 6.5385 55.7894C6.15949 55.6471 5.68656 55.685 5.11927 55.9045ZM4.69 54.8909C5.19219 54.6967 5.64321 54.6092 6.04275 54.6274C6.33689 54.6417 6.622 54.708 6.89638 54.8249C7.17076 54.9418 7.40055 55.0968 7.587 55.29C7.83518 55.5477 8.03725 55.8771 8.19244 56.2789C8.47325 57.0069 8.47141 57.6752 8.18968 58.2872C7.90626 58.8981 7.36348 59.359 6.55979 59.67C5.76301 59.9782 5.05584 60.0026 4.43937 59.7435C3.82198 59.4851 3.37357 58.9921 3.09413 58.2677C2.81118 57.5341 2.80934 56.8631 3.09046 56.2567C3.37066 55.6509 3.90364 55.1952 4.69 54.8909ZM1.34981 51.5906L2.18612 55.2171L3.05538 55.0159L2.45974 52.4328L6.69139 51.4538L6.45072 50.4103L1.34981 51.5906ZM0.942299 49.4635L6.13344 48.5005L6.32816 49.5535L1.13686 50.5165L0.942299 49.4635ZM0.621352 45.836L0.708826 46.986L6.11567 48.4596L6.02942 47.3257L2.03492 46.3378L5.8298 44.7017L5.74217 43.5479L0.621352 45.836ZM3.3584 39.7304C2.76169 39.6847 2.29888 39.7889 1.96919 40.0415C1.64058 40.2941 1.4595 40.6335 1.42717 41.058C1.39485 41.4839 1.52139 41.844 1.80573 42.1411C2.09129 42.4369 2.53925 42.6082 3.15082 42.6548C3.75488 42.7009 4.21585 42.6028 4.53267 42.3591C4.85056 42.1167 5.02566 41.7757 5.05921 41.3351C5.09261 40.8959 4.96883 40.5296 4.68908 40.2379C4.40812 39.9462 3.96491 39.7765 3.3584 39.7304ZM3.40635 38.6302C3.943 38.6713 4.3879 38.7867 4.74071 38.9752C5.00008 39.115 5.22896 39.2977 5.42643 39.5214C5.62391 39.7451 5.76469 39.9842 5.85003 40.2388C5.96355 40.5783 6.00445 40.963 5.97182 41.3924C5.91253 42.1705 5.62406 42.7732 5.10686 43.204C4.58859 43.6336 3.90057 43.8157 3.04158 43.7501C2.18995 43.685 1.54085 43.4022 1.09581 42.903C0.649385 42.4035 0.456358 41.7653 0.515186 40.9909C0.574934 40.2067 0.861413 39.6001 1.37585 39.1741C1.88892 38.7479 2.56575 38.5662 3.40635 38.6302ZM5.73176 35.5488L4.25262 35.2744L4.14676 35.8468C4.07047 36.2595 4.04749 36.5394 4.07613 36.6888C4.10478 36.838 4.16913 36.9625 4.27177 37.063C4.37319 37.1632 4.50004 37.228 4.65461 37.2567C4.84443 37.2919 5.01065 37.2652 5.1542 37.1779C5.29805 37.0895 5.401 36.9647 5.46412 36.7998C5.51008 36.6794 5.5686 36.4311 5.63831 36.0534L5.73176 35.5488ZM1.61254 33.6956L6.80384 34.6587L6.49239 36.3421C6.37442 36.9798 6.27224 37.3904 6.18446 37.5744C6.05087 37.8575 5.83562 38.0755 5.5375 38.2279C5.23922 38.3804 4.88365 38.4182 4.47032 38.3416C4.15121 38.2823 3.8949 38.1748 3.6988 38.0194C3.50271 37.8629 3.35932 37.6849 3.26786 37.4839C3.17747 37.283 3.12875 37.0863 3.12308 36.895C3.11987 36.6351 3.16138 36.2685 3.24917 35.7942L3.37541 35.1117L1.41783 34.7485L1.61254 33.6956Z" fill="#05633B"/>
<path d="M82.476 35.617L80.6884 36.6963L82.7398 37.0414L82.476 35.617ZM84.1788 33.3103L84.3886 34.4444L83.2901 35.1126L83.6761 37.198L84.9379 37.4106L85.1439 38.5241L79.5793 37.4693L79.3734 36.3571L84.1788 33.3103ZM85.4555 43.4349L80.1913 43.8366L80.1101 42.7689L82.442 42.5909L79.9463 40.6174L79.8376 39.1864L82.0389 41.0194L85.094 38.6816L85.1986 40.0587L82.8374 41.6979L83.7826 42.4886L85.3743 42.3672L85.4555 43.4349ZM85.1251 48.3977L85.4296 44.3917L84.54 44.324L84.3167 47.2622L82.8902 47.1533L83.0908 44.5171L82.2011 44.449L82.0006 47.0853L80.8317 46.9961L81.0472 44.161L80.1576 44.0933L79.8609 47.9962L85.1251 48.3977ZM84.5823 51.8167L80.2685 51.0158L79.9834 52.5551L79.1064 52.3924L79.8696 48.2678L80.747 48.4307L80.4632 49.963L84.7772 50.7639L84.5823 51.8167ZM80.4156 56.8503C79.8411 56.6498 79.4561 56.3722 79.2591 56.0182C79.0633 55.6643 79.0373 55.2787 79.1819 54.8624C79.3268 54.4451 79.5834 54.1605 79.9526 54.0079C80.3212 53.8536 80.792 53.8767 81.3642 54.0764C81.9433 54.2784 82.3324 54.5588 82.533 54.918C82.7318 55.2781 82.7621 55.6586 82.622 56.062C82.4821 56.4643 82.2203 56.7457 81.838 56.9058C81.4547 57.0653 80.9807 57.0474 80.4156 56.8503ZM80.0879 57.9011C80.8841 58.1787 81.585 58.1769 82.1899 57.8965C82.7961 57.6165 83.228 57.1037 83.4863 56.3609C83.7412 55.6273 83.7176 54.9611 83.414 54.3638C83.1113 53.7669 82.5564 53.3271 81.7498 53.0458C80.9362 52.7619 80.2246 52.7615 79.6138 53.0438C79.0037 53.3275 78.5706 53.836 78.3143 54.573C78.1729 54.9799 78.1141 55.3622 78.1372 55.7194C78.1545 55.9875 78.2294 56.2547 78.3632 56.5216C78.4968 56.7884 78.6713 57.0239 78.8862 57.2254C79.1791 57.4982 79.5797 57.7239 80.0879 57.9011ZM81.78 60.5257L76.961 58.3656L77.3979 57.3882L82.2167 59.5483L81.78 60.5257ZM79.8267 64.6148L75.1532 62.2515L75.6352 61.2957L79.512 63.256L80.705 60.8894L81.5016 61.292L79.8267 64.6148ZM75.5331 66.9054L76.0376 66.206C76.322 65.812 76.5279 65.5706 76.6535 65.4823C76.7793 65.3942 76.9106 65.351 77.0449 65.3539C77.1799 65.3561 77.3107 65.4037 77.4403 65.4975C77.5926 65.6078 77.6837 65.7359 77.7171 65.8829C77.7493 66.0294 77.7305 66.1752 77.6617 66.3212C77.618 66.4173 77.4838 66.6224 77.2592 66.9336L76.6806 67.7357L75.5331 66.9054ZM73.8357 65.677L74.194 65.1802C74.4871 64.7741 74.6697 64.5313 74.7416 64.4528C74.8623 64.3212 74.9905 64.2486 75.1256 64.2356C75.2608 64.2226 75.394 64.2627 75.5267 64.3586C75.664 64.4582 75.7444 64.5801 75.7678 64.7261C75.7913 64.8723 75.7579 65.0258 75.6683 65.1856C75.6194 65.2746 75.4732 65.4877 75.2306 65.824L74.8218 66.3906L73.8357 65.677ZM72.4983 66.0303L76.7777 69.1271L77.8307 67.6674C78.2247 67.1128 78.4658 66.7576 78.5545 66.603C78.6949 66.3537 78.7669 66.1112 78.7704 65.8753C78.7733 65.6375 78.7152 65.4071 78.5964 65.183C78.4775 64.9588 78.3208 64.777 78.1256 64.6358C77.8774 64.4562 77.6119 64.3704 77.3279 64.3773C77.0431 64.3854 76.7696 64.4914 76.505 64.6961C76.5547 64.4511 76.5358 64.2143 76.4462 63.9854C76.3575 63.7575 76.2121 63.5701 76.0128 63.4258C75.8285 63.2925 75.6297 63.2153 75.4179 63.1958C75.2061 63.1762 75.0084 63.2001 74.8237 63.2669C74.6401 63.3345 74.4741 63.4406 74.3243 63.5874C74.1761 63.7337 73.9802 63.9761 73.7346 64.3163L72.4983 66.0303ZM75.4449 70.8651L76.0928 70.0133L71.8933 66.8089L71.2453 67.6607L75.4449 70.8651ZM70.8091 72.4264L71.8311 73.4078L72.5148 72.6932C72.7802 72.416 72.9415 72.2315 72.9979 72.1425C73.0863 72.0074 73.1249 71.8655 73.1131 71.716C73.1003 71.5657 73.0279 71.4263 72.8921 71.2959C72.7766 71.1852 72.6538 71.1199 72.5203 71.0992C72.3877 71.0776 72.2519 71.1023 72.1151 71.1721C71.9783 71.2421 71.7412 71.4526 71.4052 71.8036L70.8091 72.4264ZM69.2973 70.9751L70.1756 71.8183L70.6587 71.3137C70.9451 71.0142 71.1195 70.8233 71.1803 70.7418C71.2911 70.596 71.3453 70.4484 71.3422 70.3006C71.3392 70.1527 71.2764 70.0208 71.154 69.9033C71.0358 69.79 70.9094 69.7318 70.7737 69.7259C70.6381 69.72 70.501 69.7743 70.3636 69.8877C70.2815 69.9557 70.067 70.171 69.7208 70.5325L69.2973 70.9751ZM67.9241 71.14L69.3851 69.6135C69.675 69.3105 69.9026 69.0975 70.0696 68.973C70.238 68.8484 70.4171 68.7663 70.6083 68.7248C70.8005 68.6842 70.9995 68.6879 71.2065 68.7366C71.4136 68.7853 71.6002 68.8893 71.7641 69.0468C71.9416 69.2172 72.06 69.4228 72.1162 69.661C72.1733 69.9 72.1592 70.1371 72.0764 70.3729C72.3668 70.2067 72.6521 70.1397 72.9354 70.1711C73.2175 70.2035 73.4688 70.3252 73.6896 70.5373C73.8634 70.7043 73.9938 70.9062 74.0805 71.1444C74.1674 71.3829 74.1933 71.6192 74.1573 71.854C74.1214 72.0873 74.0166 72.3178 73.8434 72.5449C73.7341 72.6857 73.4463 73.0044 72.9796 73.4991L71.7355 74.7991L67.9241 71.14ZM66.8086 78.6087L67.6806 77.989L64.6251 73.6769L63.7531 74.2965L66.8086 78.6087ZM62.252 75.2552L63.1758 74.7159L64.8604 77.6105C65.0805 77.989 65.2173 78.2996 65.2693 78.5428C65.3347 78.8607 65.2978 79.1688 65.1571 79.4674C65.0171 79.7643 64.7551 80.0255 64.3708 80.2499C63.9207 80.5128 63.5015 80.5893 63.1127 80.4785C62.7228 80.3685 62.3855 80.0698 62.0999 79.5838L62.9134 78.9723C63.0755 79.2267 63.2198 79.389 63.3482 79.4579C63.5421 79.5639 63.7394 79.5584 63.9412 79.4407C64.144 79.3223 64.2543 79.1797 64.2695 79.0125C64.2853 78.8466 64.186 78.5784 63.9706 78.2082L62.252 75.2552ZM57.7089 80.503C57.9556 81.0492 58.269 81.4057 58.6486 81.574C59.0277 81.7413 59.4119 81.7376 59.7993 81.5619C60.1878 81.3861 60.4424 81.1016 60.5659 80.7094C60.6879 80.3163 60.6228 79.8406 60.3698 79.2811C60.1201 78.7281 59.8128 78.3702 59.4473 78.209C59.0823 78.046 58.6997 78.056 58.2977 78.2381C57.8969 78.4198 57.6355 78.7043 57.5144 79.0902C57.3938 79.4772 57.4581 79.948 57.7089 80.503ZM56.7226 80.9891C56.5008 80.498 56.3882 80.0518 56.3841 79.6512C56.3816 79.3563 56.4318 79.0674 56.5328 78.7866C56.6339 78.5056 56.7758 78.2671 56.9578 78.0698C57.2006 77.8072 57.5177 77.5864 57.9096 77.4089C58.6194 77.0871 59.2858 77.0513 59.9115 77.2987C60.5365 77.5478 61.0264 78.0647 61.3816 78.8509C61.7336 79.6304 61.7975 80.3362 61.574 80.9671C61.3509 81.599 60.8849 82.0751 60.1783 82.3955C59.4629 82.7195 58.7942 82.7592 58.1739 82.5119C57.5543 82.2659 57.0701 81.7585 56.7226 80.9891ZM52.0191 77.9326L52.8073 77.7116L53.3253 78.1263L53.5814 77.4946L54.3623 77.2756L53.9327 78.5004L53.0322 78.753L52.0191 77.9326ZM52.4456 83.1279C52.6716 83.6767 52.9973 84.0519 53.4246 84.2518C53.852 84.4526 54.387 84.4624 55.0296 84.2821C55.4711 84.1585 55.823 83.9932 56.0841 83.7859C56.3454 83.5796 56.5209 83.3259 56.6119 83.0256C56.7027 82.7253 56.7065 82.4289 56.625 82.1373C56.5353 81.8161 56.3923 81.5648 56.1961 81.3833C55.9998 81.2019 55.7648 81.0824 55.4903 81.0227C55.2173 80.9638 54.8147 80.9436 54.2838 80.9661C53.7524 80.9873 53.4069 80.9614 53.2472 80.8874C53.1215 80.8306 53.0419 80.7417 53.008 80.6208C52.9709 80.4882 52.9958 80.3673 53.0814 80.2577C53.2138 80.0875 53.4285 79.9608 53.7244 79.878C54.0107 79.7977 54.2423 79.7954 54.4177 79.87C54.593 79.9451 54.7392 80.1071 54.8567 80.3581L55.8762 80.0338C55.7274 79.5654 55.454 79.2358 55.0529 79.0427C54.6531 78.8494 54.1343 78.8426 53.4989 79.0208C53.1084 79.1304 52.7934 79.2826 52.5509 79.4786C52.3082 79.6744 52.1458 79.9054 52.0623 80.1729C51.9799 80.4401 51.9748 80.7048 52.0475 80.9643C52.1604 81.3686 52.4111 81.6676 52.8009 81.8611C53.0782 81.9995 53.5099 82.06 54.0962 82.0437C54.5521 82.031 54.8449 82.0281 54.9763 82.0373C55.1687 82.0499 55.3121 82.0888 55.4057 82.1534C55.4993 82.2191 55.5632 82.3111 55.5972 82.4319C55.6495 82.6193 55.6113 82.8064 55.4834 82.9931C55.3558 83.1797 55.1267 83.3193 54.7977 83.4116C54.4865 83.4988 54.2172 83.4899 53.9899 83.3838C53.7622 83.2776 53.573 83.0662 53.4189 82.7477L52.4456 83.1279ZM48.259 85.7207L47.2964 80.5214L51.139 79.8078L51.3018 80.6864L48.5105 81.2048L48.7243 82.3593L51.3198 81.8774L51.4823 82.756L48.8868 83.2381L49.1475 84.6467L52.0404 84.1095L52.2031 84.9882L48.259 85.7207ZM46.0963 85.7945L45.6954 80.5219L46.7615 80.4407L47.1624 85.7132L46.0963 85.7945ZM42.4799 85.999L40.4224 80.7748L41.5771 80.7376L43.0427 84.6066L44.2032 80.6531L45.3381 80.6165L43.6307 85.9621L42.4799 85.999ZM32.7954 81.9903C32.9336 81.3968 33.1683 80.9841 33.4992 80.7503C33.8295 80.5179 34.2097 80.4509 34.6382 80.5511C35.068 80.6513 35.3776 80.8765 35.5685 81.2283C35.7606 81.5789 35.7874 82.0502 35.6498 82.6412C35.5107 83.2395 35.2736 83.6566 34.938 83.8944C34.6018 84.1306 34.2271 84.2011 33.8117 84.1041C33.3975 84.0074 33.0903 83.7766 32.891 83.4129C32.692 83.048 32.6597 82.5741 32.7954 81.9903ZM31.7175 81.7753C31.5262 82.5977 31.6023 83.2954 31.9449 83.8682C32.2869 84.4422 32.8418 84.8182 33.6066 84.9966C34.3619 85.173 35.0209 85.0789 35.5816 84.7131C36.1422 84.3486 36.5201 83.7493 36.7141 82.9161C36.9094 82.0758 36.8345 81.3669 36.4896 80.7884C36.1433 80.211 35.5925 79.8334 34.8337 79.6564C34.4149 79.5585 34.0291 79.5406 33.6768 79.6011C33.4125 79.6469 33.1551 79.75 32.9043 79.9114C32.6535 80.0728 32.4383 80.2714 32.2611 80.507C32.0211 80.8275 31.8396 81.2502 31.7175 81.7753ZM29.3014 83.6793L30.9746 78.664L31.9887 79.0035L30.3154 84.0186L29.3014 83.6793ZM24.3569 81.6903L25.3329 82.1277L25.985 80.6682L27.1293 80.213L27.4429 83.0734L28.7016 83.6373L28.1055 79.8332L30.7637 78.7685L29.4557 78.1824L26.534 79.4392L27.4892 77.3012L26.5133 76.8636L24.3569 81.6903ZM20.5845 77.6109L21.5364 78.0426C21.4166 78.3755 21.3977 78.659 21.4809 78.8963C21.5639 79.1334 21.7458 79.3326 22.0255 79.4945C22.3214 79.6656 22.581 79.7323 22.8036 79.6932C23.0262 79.6544 23.1868 79.551 23.2839 79.3828C23.3466 79.2741 23.3676 79.1639 23.3492 79.051C23.33 78.9389 23.2576 78.8088 23.1319 78.6622C23.0466 78.5615 22.8401 78.3538 22.5124 78.0362C22.0911 77.6275 21.8327 77.2759 21.7377 76.9805C21.6036 76.566 21.6419 76.1773 21.8516 75.8139C21.9863 75.5806 22.179 75.3993 22.4274 75.2714C22.6768 75.1444 22.9553 75.0995 23.2648 75.1365C23.5741 75.1734 23.9028 75.2924 24.254 75.4959C24.8252 75.8266 25.183 76.2029 25.3242 76.6245C25.4667 77.0468 25.4223 77.473 25.1917 77.9069L24.2477 77.403C24.3448 77.1435 24.3586 76.9255 24.2895 76.7477C24.2203 76.5696 24.0568 76.4053 23.7994 76.2562C23.5333 76.1024 23.2929 76.037 23.0789 76.061C22.9409 76.0763 22.8372 76.1427 22.7682 76.2622C22.7056 76.3709 22.6978 76.4901 22.745 76.6199C22.8038 76.7859 23.0267 77.0516 23.4132 77.4174C23.8002 77.7822 24.0671 78.0846 24.2157 78.3215C24.3649 78.56 24.4438 78.8117 24.4513 79.079C24.4588 79.3464 24.3793 79.6246 24.2126 79.9134C24.0614 80.1755 23.8469 80.3798 23.5689 80.5245C23.291 80.6692 22.9872 80.7209 22.6572 80.6777C22.3266 80.6355 21.9627 80.4987 21.5658 80.2691C20.9881 79.9345 20.6213 79.5444 20.466 79.0977C20.3102 78.6521 20.3506 78.1566 20.5845 77.6109ZM15.6186 75.9821L16.4045 76.5819L18.5079 73.8173L18.1062 77.8807L18.9557 78.529L22.1556 74.3231L21.3697 73.7234L19.2252 76.5421L19.6414 72.4045L18.8185 71.7762L15.6186 75.9821ZM13.9976 74.537L14.7694 75.278L18.4229 71.4608L17.6511 70.7197L13.9976 74.537ZM15.9881 66.7903L15.7346 68.07L16.3769 68.7508L17.6594 68.5618L17.1022 67.9712L16.4249 68.0383L16.5502 67.3861L15.9881 66.7903ZM11.5954 69.5862L12.3846 70.2721C12.1748 70.5569 12.076 70.8233 12.088 71.0742C12.1001 71.3255 12.2176 71.5681 12.4396 71.8035C12.6743 72.0521 12.9042 72.1901 13.1285 72.2165C13.3529 72.2428 13.5362 72.1898 13.6773 72.0561C13.7684 71.97 13.8199 71.8706 13.8344 71.7567C13.8481 71.644 13.8156 71.4986 13.7372 71.3221C13.684 71.2014 13.5454 70.9433 13.3218 70.5449C13.0346 70.0326 12.8872 69.6221 12.8803 69.3117C12.8699 68.8761 13.0176 68.5146 13.3221 68.2263C13.5178 68.0412 13.754 67.9225 14.0285 67.871C14.3037 67.8206 14.5834 67.8572 14.8696 67.9812C15.1555 68.1049 15.4366 68.3133 15.7151 68.6087C16.1683 69.0888 16.4039 69.5519 16.4191 69.9963C16.4353 70.4417 16.2711 70.8375 15.9265 71.1875L15.1653 70.4345C15.3324 70.2136 15.4078 70.0086 15.3923 69.8183C15.3769 69.628 15.2669 69.4238 15.0626 69.2074C14.8517 68.9837 14.6397 68.8522 14.4278 68.8139C14.2911 68.7893 14.1729 68.8234 14.0728 68.9181C13.9817 69.0044 13.9403 69.1164 13.9486 69.2541C13.9575 69.4303 14.0953 69.7485 14.3614 70.2097C14.6285 70.6701 14.7981 71.0361 14.873 71.3056C14.9479 71.5769 14.9517 71.8407 14.8828 72.0991C14.8137 72.3574 14.6582 72.6012 14.4161 72.8302C14.1965 73.0382 13.9326 73.1728 13.625 73.2319C13.3172 73.2912 13.0115 73.2538 12.7075 73.1179C12.4028 72.9831 12.0929 72.7479 11.7781 72.4141C11.3198 71.9283 11.0795 71.4497 11.058 70.9773C11.0357 70.5054 11.2158 70.0421 11.5954 69.5862ZM9.22913 69.2025L9.89601 70.0392L14.0227 66.741L13.3557 65.9039L9.22913 69.2025ZM7.12663 66.2782L10.5666 61.8432L11.1869 62.8194L8.6096 66.0538L12.5975 65.0396L13.2071 65.9989L7.74479 67.2512L7.12663 66.2782ZM5.11927 55.9045C4.56101 56.1205 4.18797 56.414 3.99877 56.784C3.81064 57.1537 3.79287 57.538 3.94607 57.9353C4.09973 58.3336 4.3689 58.6043 4.75312 58.7498C5.13796 58.8939 5.61594 58.8554 6.18798 58.634C6.75313 58.4154 7.12709 58.1282 7.30848 57.7717C7.4914 57.4159 7.50304 57.0326 7.34402 56.6205C7.18531 56.2094 6.91645 55.9321 6.5385 55.7894C6.15949 55.6471 5.68656 55.685 5.11927 55.9045ZM4.69 54.8909C5.19219 54.6967 5.64321 54.6092 6.04275 54.6274C6.33689 54.6417 6.622 54.708 6.89638 54.8249C7.17076 54.9418 7.40055 55.0968 7.587 55.29C7.83518 55.5477 8.03725 55.8771 8.19244 56.2789C8.47325 57.0069 8.47141 57.6752 8.18968 58.2872C7.90626 58.8981 7.36348 59.359 6.55979 59.67C5.76301 59.9782 5.05584 60.0026 4.43937 59.7435C3.82198 59.4851 3.37357 58.9921 3.09413 58.2677C2.81118 57.5341 2.80934 56.8631 3.09046 56.2567C3.37066 55.6509 3.90364 55.1952 4.69 54.8909ZM1.34981 51.5906L2.18612 55.2171L3.05538 55.0159L2.45974 52.4328L6.69139 51.4538L6.45072 50.4103L1.34981 51.5906ZM0.942299 49.4635L6.13344 48.5005L6.32816 49.5535L1.13686 50.5165L0.942299 49.4635ZM0.621352 45.836L0.708826 46.986L6.11567 48.4596L6.02942 47.3257L2.03492 46.3378L5.8298 44.7017L5.74217 43.5479L0.621352 45.836ZM3.3584 39.7304C2.76169 39.6847 2.29888 39.7889 1.96919 40.0415C1.64058 40.2941 1.4595 40.6335 1.42717 41.058C1.39485 41.4839 1.52139 41.844 1.80573 42.1411C2.09129 42.4369 2.53925 42.6082 3.15082 42.6548C3.75488 42.7009 4.21585 42.6028 4.53267 42.3591C4.85056 42.1167 5.02566 41.7757 5.05921 41.3351C5.09261 40.8959 4.96883 40.5296 4.68908 40.2379C4.40812 39.9462 3.96491 39.7765 3.3584 39.7304ZM3.40635 38.6302C3.943 38.6713 4.3879 38.7867 4.74071 38.9752C5.00008 39.115 5.22896 39.2977 5.42643 39.5214C5.62391 39.7451 5.76469 39.9842 5.85003 40.2388C5.96355 40.5783 6.00445 40.963 5.97182 41.3924C5.91253 42.1705 5.62406 42.7732 5.10686 43.204C4.58859 43.6336 3.90057 43.8157 3.04158 43.7501C2.18995 43.685 1.54085 43.4022 1.09581 42.903C0.649385 42.4035 0.456358 41.7653 0.515186 40.9909C0.574934 40.2067 0.861413 39.6001 1.37585 39.1741C1.88892 38.7479 2.56575 38.5662 3.40635 38.6302ZM5.73176 35.5488L4.25262 35.2744L4.14676 35.8468C4.07047 36.2595 4.04749 36.5394 4.07613 36.6888C4.10478 36.838 4.16913 36.9625 4.27177 37.063C4.37319 37.1632 4.50004 37.228 4.65461 37.2567C4.84443 37.2919 5.01065 37.2652 5.1542 37.1779C5.29805 37.0895 5.401 36.9647 5.46412 36.7998C5.51008 36.6794 5.5686 36.4311 5.63831 36.0534L5.73176 35.5488ZM1.61254 33.6956L6.80384 34.6587L6.49239 36.3421C6.37442 36.9798 6.27224 37.3904 6.18446 37.5744C6.05087 37.8575 5.83562 38.0755 5.5375 38.2279C5.23922 38.3804 4.88365 38.4182 4.47032 38.3416C4.15121 38.2823 3.8949 38.1748 3.6988 38.0194C3.50271 37.8629 3.35932 37.6849 3.26786 37.4839C3.17747 37.283 3.12875 37.0863 3.12308 36.895C3.11987 36.6351 3.16138 36.2685 3.24917 35.7942L3.37541 35.1117L1.41783 34.7485L1.61254 33.6956Z" stroke="#05633B" stroke-width="0.0330909" stroke-miterlimit="22.926"/>
<path fill-rule="evenodd" clip-rule="evenodd" d="M5.84772 27.3065C6.6681 27.3065 7.33314 27.9744 7.33314 28.7982C7.33314 29.6221 6.6681 30.29 5.84772 30.29C5.02749 30.29 4.3623 29.6221 4.3623 28.7982C4.3623 27.9744 5.02749 27.3065 5.84772 27.3065Z" fill="#05633B"/>
<path d="M5.84772 27.3065C6.6681 27.3065 7.33314 27.9744 7.33314 28.7982C7.33314 29.6221 6.6681 30.29 5.84772 30.29C5.02749 30.29 4.3623 29.6221 4.3623 28.7982C4.3623 27.9744 5.02749 27.3065 5.84772 27.3065Z" stroke="#05633B" stroke-width="0.0868637" stroke-miterlimit="22.926"/>
<path fill-rule="evenodd" clip-rule="evenodd" d="M65.4381 58.1031L66.2842 61.4338C64.5793 61.4602 63.6685 61.3267 62.4636 61.1729C61.9623 61.109 59.4263 60.6499 59.2 60.4045L58.8184 60.3023C58.4979 60.1592 58.1622 60.0395 57.8528 59.896C57.4266 59.6981 57.0272 59.4742 56.5895 59.2687C56.48 59.2317 56.3664 59.1531 56.2307 59.0805C55.9376 58.9229 55.5952 58.7308 55.3598 58.6143C55.014 58.444 54.6643 58.2677 54.3206 58.0935C53.8535 57.8563 52.4518 57.2714 51.9759 57.2792C51.8083 57.2507 51.6579 57.2342 51.529 57.1482C50.9768 57.1229 50.5374 57.0297 49.9463 57.0453C48.8721 57.0729 48.0822 57.2529 47.2206 57.6043C46.9816 57.702 46.7472 57.8293 46.4865 57.9507C46.3655 58.0074 46.1775 58.0872 45.9989 58.1875C45.6401 58.3896 45.2557 58.6373 45.1007 58.6632C44.8053 58.7132 44.5573 58.6808 44.6892 58.5445C45.1814 58.1292 45.5903 57.7552 46.0666 57.4238C46.5597 57.0802 47.072 56.7999 47.594 56.5586C48.2356 56.2623 48.7638 56.0555 49.313 55.9643C50.0009 55.8502 50.7352 55.9596 51.6194 56.1143C51.7607 56.139 52.4996 56.3145 53.3929 56.6139C54.3413 56.9311 55.4515 57.4362 56.4869 57.8195C56.8636 57.9588 58.3134 58.512 59.7768 58.8916C60.7922 59.1551 61.8162 59.3172 62.4864 59.2734C62.8504 59.25 63.143 59.2012 63.2397 59.0007C61.9444 58.761 60.868 58.5701 59.597 58.1253C58.9433 57.896 58.3222 57.6115 57.6696 57.3552C57.1038 57.1329 56.555 56.9138 55.9789 56.6977C55.9321 56.6808 54.7985 56.2396 53.7083 55.8638C52.6215 55.4891 51.4685 55.1209 50.311 55.043C49.3578 54.978 48.3984 55.1285 47.4838 55.4572C46.8886 55.6703 46.0329 56.1987 45.3878 56.7783C44.8165 57.2905 44.3572 57.7716 44.1462 57.9688L44.0379 57.7423C44.1537 57.6147 44.2446 57.4275 44.367 57.2423C44.5524 56.9622 44.7682 56.6892 45.1793 56.2289C45.334 56.0559 45.5278 55.8693 45.7773 55.6515C46.0496 55.4486 46.2749 55.2248 46.5355 55.0379C47.8866 54.0689 49.5278 53.8551 51.218 54.0106C52.6065 54.1383 54.049 54.5054 55.2282 55.0011C56.0106 55.3295 56.6719 55.7763 57.4373 56.1465C58.6819 56.747 60.0585 57.2611 61.5928 57.5842C62.6582 57.8082 63.8809 58.1212 65.4381 58.1031ZM55.7014 52.3886C56.6119 52.9026 57.8607 53.6293 58.9754 54.2692C60.5725 55.1856 61.3204 55.5243 63.1996 55.6607C63.7342 55.6996 64.2622 55.7126 64.8475 55.7783L65.223 57.2553C64.4197 57.2256 63.5306 57.2374 62.6222 57.1266C61.849 57.0321 61.0914 56.8512 60.3781 56.6408C59.0974 56.2623 57.4122 55.4848 55.9231 54.7455C55.3821 54.4769 54.7792 54.2698 54.3548 54.0086C51.8929 52.9861 50.9527 52.7297 49.3843 52.9328C47.3642 53.1928 45.4251 54.538 44.0627 56.0211C43.8795 56.2197 43.7153 56.4257 43.5213 56.6744C43.5147 56.576 43.5719 56.4472 43.6347 56.2971C43.6957 56.1526 43.7275 55.9865 44.1398 55.1746L44.4693 54.573C44.6303 54.3301 44.7411 54.1219 44.8733 53.9314C45.0982 53.6084 45.3439 53.3245 45.6897 52.9564C46.3092 52.2961 47.2257 51.6026 48.1487 51.219C48.4134 51.1088 48.8347 50.9683 49.4909 50.8778C49.6162 50.8606 49.8324 50.8079 50.1173 50.7911C52.1185 50.6753 53.9994 51.4269 55.7014 52.3886ZM42.9507 55.5473L42.9084 12.2355C43.0486 12.3818 42.9954 12.3068 43.0766 12.482C43.9532 14.3783 45.6271 16.3973 47.1616 17.7577C49.0633 19.4428 51.4808 20.9541 52.9235 22.5598C53.9438 23.6953 54.3372 24.9195 54.331 26.1123C54.3222 27.647 53.7389 28.7832 52.9231 29.6769C51.99 30.6994 50.7123 31.375 48.9723 31.4263C47.9036 31.4571 46.76 31.2348 45.9033 31.1121C45.4951 31.0485 44.9986 30.8077 44.6976 30.7754C44.7045 33.0453 45.0215 37.0102 47.5385 37.8072C49.6038 38.4632 51.4667 37.5025 53.2424 36.495C53.2519 36.4399 53.2551 36.2714 53.2197 36.0339C53.0837 35.119 52.9216 34.257 52.8564 33.3203C52.7396 31.655 53.3412 30.258 54.3981 29.2368C54.9962 28.6588 55.679 28.1569 56.6131 27.9018C57.5179 27.6545 58.3974 27.6334 59.2201 27.7223C63.2965 28.1578 64.8425 30.7754 67.965 33.8611C69.0095 34.8926 70.3742 35.9904 71.5921 36.7804C72.1208 37.1235 72.6307 37.4188 73.1664 37.7441C72.5973 38.3405 71.9016 38.7665 71.3047 39.2195C69.7422 40.4042 68.4067 41.5843 66.7618 43.6267C65.4475 45.258 64.1166 47.3467 62.6078 48.782C61.924 49.4316 61.2104 49.8949 60.8552 50.085C59.9852 50.5516 59.0987 50.792 58.1403 50.8242C57.5375 50.8446 56.9043 50.8131 56.2278 50.6111C55.5432 50.4063 54.7372 49.9499 54.2057 49.4762C52.0234 47.5356 51.8105 44.4525 52.5147 41.7836C52.5806 41.5319 52.7176 41.2578 52.7258 40.9922C52.7275 40.9355 52.7206 40.875 52.6972 40.8206C52.5019 40.8473 52.3759 40.9704 52.2269 41.0383C51.5808 41.3311 51.1873 41.5351 50.3365 42.0975C49.1047 42.9718 48.4818 43.6387 47.8175 44.6631C47.3977 45.3112 46.9945 46.1426 46.7089 46.8582C45.9796 48.6854 45.4467 51.0981 45.3427 52.1325L42.9507 55.5473ZM48.6385 58.3315C49.6847 58.256 50.8309 58.3443 51.8656 58.4605C52.7436 58.5589 53.7176 58.8245 54.568 59.0744C54.8326 59.1516 55.0699 59.2679 55.3446 59.3414C55.5226 59.3842 55.5965 59.3958 55.7321 59.5024C56.0375 59.5999 56.5333 59.8055 57.0329 60.0262C57.4569 60.2133 57.9078 60.396 58.2126 60.5158C58.9143 60.7907 59.6475 61.0499 60.3795 61.292C61.8844 61.7898 63.3333 62.0817 65.349 61.964C65.6626 61.9456 66.0777 61.9221 66.3956 61.8724L66.7423 63.2368C66.4742 63.2465 66.2525 63.1873 65.9611 63.157C65.5838 63.1179 65.1621 63.0937 64.7211 63.0288C63.9496 62.9146 63.1115 62.8082 62.2784 62.6249C60.5739 62.2485 58.8728 61.722 57.6882 61.3705C56.1892 60.9244 54.7574 60.3322 53.2643 59.9564C52.1 59.6627 50.4726 59.4085 49.2643 59.3575C46.8934 59.2564 46.5783 59.6687 45.5141 59.6929L45.3799 59.3823C45.9357 59.0546 46.2873 58.831 46.6417 58.7035C47.1843 58.5091 47.631 58.4043 48.6385 58.3315ZM73.7135 49.376C74.3597 45.7611 74.3638 42.3327 73.8579 38.5272C73.7015 37.3539 73.3795 36.1267 73.121 34.9744C72.9856 34.3723 72.6985 33.6759 72.5427 33.0167L72.4344 32.7705C72.3842 32.432 72.1871 31.9712 71.9656 31.4543C70.5076 28.0504 68.9522 25.4016 66.9873 22.9475C65.1221 20.6174 63.2469 18.9525 60.8239 17.2448C59.1681 15.8855 55.8272 14.4483 53.8204 13.685C51.9828 12.9864 50.1548 12.7382 48.2383 12.3815C47.2078 12.1894 43.8512 12.035 42.9813 12.1398C41.053 14.8528 41.2232 14.7474 41.0476 14.97C40.8972 15.1598 40.5194 15.6206 38.0586 17.9684C36.9742 19.0005 35.6982 19.8046 34.4969 20.7209C33.8045 21.2495 33.1021 21.7674 32.5333 22.409C31.9617 23.0546 31.6015 23.7872 31.4318 24.6341C30.9843 26.8679 31.6824 29.113 33.5173 30.4916C34.6182 31.3186 35.8793 31.6587 37.2359 31.5876C38.8131 31.5052 39.5328 31.3155 40.9448 31.0529L39.062 37.2203C38.2199 37.9771 37.0301 38.1272 35.9334 37.9654C34.5306 37.7586 34.0164 37.3189 33.0182 36.9545C32.8994 36.8875 32.795 36.8217 32.6822 36.7633C32.5929 36.7169 32.4947 36.676 32.3968 36.6302C32.3744 36.5189 32.4313 36.4034 32.5129 36.2861C33.0726 34.1148 33.4629 32.2238 32.2248 30.2246C32.0472 29.9383 31.8225 29.6709 31.5986 29.4191C30.6413 28.3404 29.5412 27.7233 28.1105 27.551C26.0533 27.3052 23.9235 27.8854 22.2766 29.1469C22.1719 29.2282 21.9303 29.4186 21.6963 29.6276C20.68 30.5344 19.8016 31.5556 18.866 32.5511C17.0904 34.4409 15.0878 36.1594 12.827 37.4294C12.5991 37.5576 12.4158 37.6718 12.3169 37.7461C12.2668 37.7842 12.2493 37.8263 12.2461 37.8317C12.4112 37.9876 12.6594 38.1053 12.8946 38.2752C16.336 40.7641 18.2023 43.0619 20.7243 46.3139C21.6378 47.4909 22.4208 48.5705 23.6023 49.5021C25.3457 50.8775 27.7399 51.5476 29.8739 50.7229C30.22 50.5889 30.5648 50.449 30.8712 50.2408C32.5051 49.1283 33.3442 47.7653 33.7327 46.1847C33.8441 45.7308 33.841 45.2485 33.8283 44.7462C33.8137 44.1349 33.7751 43.4918 33.6714 42.8356C33.6118 42.4592 33.3469 41.6106 33.2052 41.2261C33.6118 41.2817 34.0906 41.4408 34.5892 41.7471C35.1397 42.0846 35.7909 42.5419 36.3198 43.0676C37.6785 44.4188 38.3078 45.742 39.0559 47.4422C39.1132 47.6139 39.2269 47.9509 39.3693 48.3765C39.4695 48.6754 39.5985 49.0197 39.6744 49.3803C39.822 50.085 39.9809 50.8442 40.1199 51.4364C40.268 52.0674 40.3909 52.5103 40.346 52.5167C40.3247 52.5198 39.891 52.0262 39.4985 51.698C39.1176 51.38 38.044 50.9817 37.5624 50.8639C37.0233 50.684 36.4066 50.5869 35.7693 50.5869C35.0497 50.5872 34.3027 50.7096 33.6118 50.8809C33.0746 51.0141 32.0762 51.3308 31.1971 51.7555C30.0993 52.2866 28.9478 52.9664 27.8574 53.6426C27.1485 54.082 26.4099 54.4846 25.73 54.8873C24.0357 55.8987 23.0155 55.6525 21.0875 55.6412L20.7122 57.1588L23.3401 56.9797C24.1633 56.9128 26.0507 56.5167 26.8199 56.1802C27.6095 55.8722 28.3848 55.3766 29.2043 54.9291C29.7019 54.6578 30.2338 54.4006 30.7409 54.2056C31.7097 53.8322 32.9495 53.3791 34.133 53.1386C34.8967 52.9831 35.6414 52.9322 36.2626 52.988C36.5663 53.0181 37.0121 53.1208 37.4182 53.2443C37.6511 53.3147 37.8778 53.3864 38.0414 53.4727C38.2044 53.5487 38.8745 53.8419 38.9583 53.9239C39.6457 54.2529 40.818 55.177 41.5503 56.1411C41.7654 56.4248 41.9374 56.7075 42.0581 56.982C42.1206 57.1251 42.1632 57.2673 42.1838 57.4071C42.1933 57.4727 42.208 57.5389 42.1997 57.6043C42.1997 57.6126 42.0301 57.7906 41.944 57.8229C41.8475 57.8591 41.8123 57.7206 41.7945 57.6982C41.7223 57.606 41.6727 57.5044 41.6071 57.4058C41 56.4987 39.9864 55.43 39.0435 54.8853C38.3599 54.4908 37.6425 54.137 36.878 53.979C35.623 53.7198 34.1261 53.7921 32.724 54.165C31.5614 54.4737 30.3493 55.0318 29.3002 55.5848C29.0011 55.7428 28.4437 56.067 27.9153 56.3041C27.5036 56.4887 27.0926 56.6733 26.6806 56.8584C26.2563 56.9667 25.8552 57.1637 25.4057 57.3128C24.8579 57.4949 24.2557 57.6336 23.6902 57.7589C22.6003 58.0012 21.5183 58.0363 20.4963 58.0323L19.7199 61.1699L23.8578 61.1959C24.4432 61.1444 25.1955 60.905 26.0352 60.6222C26.8003 60.3637 27.6456 60.0745 28.3824 59.74C29.1634 59.3852 29.8549 58.996 30.3507 58.7055C31.2904 58.1554 32.0055 57.7699 32.8172 57.5049C33.5319 57.2714 34.3596 57.1286 34.9791 57.0604C35.6406 56.9872 35.8879 57.0226 36.8083 57.0459C37.6593 57.0413 38.757 57.0248 36.869 56.4239C35.9754 56.1397 34.4085 56.065 33.4438 56.2395C33.2581 56.2388 31.0608 57.0436 30.8858 57.1118C30.5583 57.1628 29.7428 57.5027 29.3783 57.6297C27.9376 58.1312 26.4179 58.7116 24.9354 59.0266C24.6538 59.0865 24.4465 59.147 24.2365 59.1524C23.7143 59.1493 23.3052 59.229 22.7853 59.0442C23.8171 58.7818 24.8516 58.6019 25.8146 58.2787C26.18 58.1561 26.5889 58.0481 26.9385 57.8974C27.215 57.7783 27.4949 57.6731 27.7576 57.5622C29.1337 56.9832 30.6009 56.3418 32.0601 55.828C32.7619 55.5805 33.4398 55.3302 34.1189 55.1962C35.3111 54.9609 36.4868 54.9555 37.6596 55.3598C38.8888 55.7835 39.9205 56.4015 40.7454 57.2259C41.0611 57.5499 41.3185 57.8199 41.6344 58.144C41.6158 59.0891 41.2638 59.568 40.4976 59.615C40.0244 59.3525 39.6693 59.0755 39.2972 58.882C39.0138 58.7343 38.1854 58.47 37.8737 58.3927C36.9028 58.1503 36.2122 58.0935 35.2218 58.1117C33.9525 58.1359 32.7829 58.404 31.6915 58.8175C30.8598 59.1332 30.0858 59.5485 29.2599 59.923C28.5478 60.2458 27.8042 60.5483 27.0457 60.8232C25.4175 61.3447 24.4917 61.6023 22.8327 61.8923C21.8443 62.065 20.5222 62.0026 19.5183 61.9843L19.232 63.1429C20.043 63.1774 21.2251 63.0522 22.3283 62.9185C23.7434 62.7466 25.0641 62.5908 26.4611 62.306C27.2709 62.1224 28.43 61.9233 29.6002 61.616C30.5731 61.36 31.8683 60.9889 33.0767 60.6833C34.6461 60.2857 36.7377 59.9482 38.3432 59.9784C38.8868 59.9885 39.4266 60.057 40.0353 60.1137C40.1585 60.2959 40.242 60.5135 40.3392 60.7365C40.5922 61.3131 40.8921 61.9631 41.3851 62.4031C41.6915 62.6556 42.008 62.8523 42.479 62.9915C43.1642 63.1939 43.6791 63.1149 44.1335 62.8961C44.4938 62.7224 44.8298 62.4693 45.0961 62.1335C45.4385 61.7022 45.7098 61.1636 46.0042 60.6528C46.9328 60.8054 50.6685 61.3758 54.1748 61.9968C55.469 62.2263 56.9598 62.4451 58.4316 62.7156C60.1903 63.0399 62.1584 63.3871 63.7088 63.6262C64.5283 63.7522 65.2305 63.8577 65.7261 63.9329L66.952 64.12L65.5478 65.7131C61.8559 65.1031 57.6519 64.4151 53.9583 63.7586C51.7734 63.3702 49.5833 62.9753 47.4137 62.5349C47.0959 62.7863 46.589 63.6503 46.0738 64.0881C45.4533 64.6481 44.8228 65.0469 44.0922 65.1673C43.7 65.2318 43.3079 65.2964 42.9156 65.3606L42.9004 63.2871C42.6496 63.2083 42.4246 63.1732 42.223 63.1193C41.7383 62.9899 41.3527 62.7951 41.0014 62.5534C40.5985 62.2759 40.2467 61.9329 39.9751 61.517C39.8178 61.2768 39.7134 61.0246 39.5775 60.7352L38.5984 60.8281C32.049 61.8853 25.5179 63.0157 18.9827 64.1503L18.5645 65.8397C19.3985 65.7549 20.2299 65.5945 21.0883 65.458C22.5074 65.2319 23.9756 64.9972 25.4512 64.7467C28.6454 64.2052 31.9223 63.6878 34.9071 63.1849C36.1143 62.9781 37.2655 62.7843 38.475 62.6013C38.645 62.9963 38.9395 63.347 39.271 63.6645C39.7537 64.1286 40.3434 64.5381 40.9793 64.8249C41.6214 65.1141 42.3118 65.2803 42.9016 65.3655L42.9038 74.8661C46.0392 74.9515 47.9911 74.782 49.875 74.3845C51.3005 74.0837 53.8783 73.4216 55.2466 72.8035C56.1454 72.3816 57.1197 71.9958 57.9366 71.5431C58.9524 70.9806 59.8972 70.4008 60.8343 69.7717C61.2844 69.4699 61.7269 69.1236 62.156 68.7946C62.8428 68.2691 63.5941 67.6342 64.3058 66.9534C64.7339 66.5445 65.1225 66.0886 65.5478 65.7131L67.4394 65.9832L66.952 64.12C67.1365 63.8933 67.3217 63.6635 67.5063 63.426C67.8989 62.9214 68.2908 62.4003 68.6202 61.8969C69.7568 60.1572 70.8396 58.2267 71.6635 56.3113C72.2751 54.8896 72.7917 53.4388 73.1518 51.9324C73.3 51.314 73.6088 49.9597 73.7135 49.376Z" fill="#05633B"/>
</svg>
