<svg width="542" height="548" viewBox="0 0 542 548" fill="none" xmlns="http://www.w3.org/2000/svg">
<mask id="path-1-inside-1_1_37" fill="white">
<path fill-rule="evenodd" clip-rule="evenodd" d="M77.5622 401.493L70.1767 430.566C85.0586 430.796 93.0084 429.631 103.526 428.289C107.901 427.731 130.037 423.723 132.012 421.581L135.343 420.689C138.141 419.44 141.071 418.396 143.772 417.143C147.492 415.415 150.978 413.461 154.799 411.667C155.755 411.345 156.746 410.659 157.93 410.025C160.488 408.649 163.477 406.972 165.532 405.956C168.551 404.469 171.603 402.93 174.603 401.409C178.68 399.339 190.915 394.234 195.069 394.302C196.532 394.053 197.845 393.909 198.97 393.158C203.79 392.938 207.625 392.123 212.784 392.26C222.161 392.501 229.056 394.072 236.576 397.139C238.662 397.993 240.708 399.104 242.984 400.163C244.041 400.658 245.681 401.354 247.24 402.23C250.372 403.994 253.727 406.156 255.081 406.382C257.659 406.818 259.824 406.536 258.672 405.346C254.376 401.721 250.807 398.457 246.649 395.564C242.345 392.565 237.873 390.118 233.317 388.012C227.717 385.425 223.106 383.62 218.312 382.824C212.308 381.828 205.899 382.783 198.181 384.134C196.948 384.349 190.498 385.881 182.701 388.494C174.422 391.264 164.731 395.672 155.694 399.018C152.406 400.234 139.751 405.062 126.978 408.376C118.115 410.676 109.177 412.091 103.326 411.708C100.149 411.504 97.595 411.079 96.7513 409.328C108.057 407.235 117.453 405.569 128.548 401.687C134.254 399.685 139.675 397.202 145.371 394.965C150.31 393.025 155.099 391.113 160.129 389.226C160.537 389.079 170.432 385.227 179.948 381.947C189.434 378.676 199.498 375.463 209.602 374.782C217.922 374.215 226.296 375.529 234.279 378.398C239.474 380.258 246.944 384.87 252.575 389.929C257.561 394.401 261.57 398.6 263.411 400.321L264.357 398.344C263.346 397.23 262.553 395.596 261.485 393.98C259.866 391.535 257.982 389.152 254.395 385.134C253.044 383.624 251.352 381.995 249.174 380.094C246.798 378.323 244.831 376.37 242.556 374.738C230.763 366.28 216.438 364.414 201.684 365.771C189.565 366.886 176.974 370.09 166.681 374.417C159.852 377.283 154.079 381.184 147.398 384.414C136.535 389.656 124.519 394.144 111.126 396.964C101.827 398.919 91.155 401.651 77.5622 401.493ZM162.55 351.614C154.603 356.1 143.702 362.443 133.973 368.028C120.032 376.027 113.504 378.984 97.1016 380.174C92.4347 380.514 87.8267 380.627 82.7172 381.201L79.4396 394.093C86.452 393.834 94.2119 393.937 102.142 392.97C108.891 392.145 115.503 390.566 121.729 388.73C132.908 385.425 147.618 378.639 160.615 372.186C165.337 369.841 170.6 368.033 174.305 365.754C195.794 356.829 204 354.59 217.691 356.364C235.323 358.633 252.248 370.375 264.14 383.321C265.74 385.054 267.173 386.852 268.866 389.022C268.923 388.164 268.425 387.039 267.876 385.729C267.344 384.468 267.066 383.018 263.468 375.931L260.591 370.68C259.186 368.56 258.219 366.743 257.065 365.08C255.102 362.261 252.957 359.783 249.939 356.57C244.531 350.806 236.532 344.753 228.475 341.404C226.165 340.443 222.487 339.216 216.76 338.426C215.666 338.276 213.779 337.816 211.292 337.669C193.824 336.658 177.407 343.219 162.55 351.614ZM273.847 379.185L274.216 1.13153C272.993 2.40857 273.457 1.7533 272.748 3.28308C265.096 19.8352 250.486 37.4584 237.091 49.3329C220.492 64.041 199.391 77.2326 186.798 91.248C177.892 101.159 174.458 111.845 174.512 122.257C174.589 135.653 179.68 145.57 186.801 153.371C194.946 162.296 206.098 168.193 221.286 168.641C230.615 168.91 240.597 166.969 248.075 165.898C251.637 165.343 255.971 163.241 258.599 162.959C258.539 182.773 255.772 217.381 233.801 224.337C215.774 230.063 199.514 221.678 184.014 212.884C183.931 212.403 183.903 210.932 184.212 208.859C185.399 200.873 186.814 193.349 187.384 185.173C188.403 170.637 183.152 158.443 173.926 149.529C168.706 144.484 162.746 140.103 154.593 137.877C146.695 135.719 139.018 135.534 131.837 136.31C96.2551 140.111 82.7613 162.959 55.5061 189.893C46.3889 198.897 34.477 208.479 23.8461 215.375C19.2313 218.369 14.7811 220.947 10.1048 223.786C15.0726 228.992 21.1449 232.711 26.3547 236.665C39.993 247.006 51.6509 257.306 66.0086 275.134C77.4806 289.373 89.097 307.605 102.267 320.133C108.235 325.803 114.464 329.847 117.565 331.506C125.159 335.579 132.896 337.677 141.262 337.958C146.524 338.136 152.051 337.862 157.956 336.098C163.932 334.31 170.967 330.327 175.606 326.192C194.654 309.253 196.513 282.342 190.366 259.046C189.791 256.849 188.595 254.457 188.523 252.138C188.509 251.643 188.569 251.115 188.773 250.64C190.478 250.873 191.577 251.948 192.879 252.541C198.518 255.096 201.953 256.877 209.378 261.786C220.131 269.418 225.568 275.239 231.366 284.181C235.03 289.837 238.55 297.094 241.042 303.34C247.409 319.289 252.06 340.349 252.968 349.378L273.847 379.185ZM224.2 403.487C215.068 402.828 205.063 403.598 196.032 404.613C188.368 405.472 179.866 407.79 172.443 409.971C170.134 410.645 168.062 411.66 165.665 412.302C164.111 412.675 163.466 412.777 162.283 413.708C159.617 414.558 155.289 416.353 150.929 418.279C147.227 419.912 143.292 421.508 140.631 422.553C134.506 424.952 128.106 427.215 121.717 429.328C108.582 433.674 95.9342 436.221 78.3404 435.194C75.6031 435.033 71.9793 434.828 69.2046 434.394L66.1784 446.304C68.5185 446.388 70.4535 445.872 72.9969 445.607C76.2905 445.266 79.9718 445.055 83.8203 444.488C90.5546 443.491 97.8705 442.562 105.142 440.963C120.02 437.677 134.869 433.081 145.208 430.014C158.293 426.12 170.79 420.95 183.823 417.67C193.986 415.106 208.191 412.888 218.738 412.443C239.432 411.56 242.183 415.158 251.471 415.37L252.643 412.659C247.791 409.799 244.722 407.846 241.629 406.734C236.893 405.037 232.994 404.122 224.2 403.487ZM5.32965 325.317C-0.310736 293.764 -0.346831 263.839 4.06866 230.622C5.43396 220.381 8.24478 209.669 10.5007 199.611C11.6828 194.356 14.1887 188.277 15.5486 182.523L16.4941 180.374C16.9327 177.42 18.6523 173.397 20.5859 168.886C33.3122 139.174 46.8891 116.053 64.0402 94.6325C80.3209 74.2934 96.6884 59.7619 117.838 44.8559C132.29 32.9908 161.453 20.4463 178.969 13.783C195.009 7.68524 210.964 5.51893 227.693 2.40588C236.688 0.729012 265.987 -0.618881 273.58 0.295776C290.411 23.9766 288.926 23.0566 290.458 24.9996C291.771 26.6564 295.069 30.6787 316.548 51.1716C326.013 60.1804 337.151 67.1995 347.637 75.1974C353.68 79.8108 359.812 84.3319 364.777 89.9322C369.766 95.5672 372.91 101.962 374.391 109.354C378.297 128.852 372.204 148.449 356.188 160.482C346.578 167.701 335.57 170.669 323.729 170.049C309.963 169.33 303.68 167.674 291.355 165.382L307.79 219.214C315.14 225.82 325.525 227.131 335.098 225.719C347.343 223.913 351.831 220.076 360.544 216.894C361.581 216.31 362.493 215.735 363.477 215.226C364.256 214.82 365.114 214.463 365.968 214.064C366.163 213.093 365.667 212.084 364.954 211.06C360.07 192.108 356.662 175.602 367.47 158.152C369.02 155.652 370.981 153.319 372.935 151.121C381.291 141.705 390.894 136.319 403.382 134.815C421.338 132.67 439.928 137.734 454.303 148.744C455.218 149.454 457.327 151.117 459.369 152.941C468.24 160.856 475.907 169.769 484.074 178.459C499.572 194.955 517.052 209.954 536.786 221.04C538.775 222.159 540.375 223.155 541.239 223.804C541.676 224.137 541.828 224.504 541.856 224.551C540.415 225.913 538.249 226.94 536.196 228.423C506.157 250.147 489.867 270.204 467.853 298.589C459.88 308.863 453.045 318.286 442.732 326.418C427.515 338.423 406.617 344.272 387.989 337.074C384.969 335.904 381.959 334.683 379.284 332.866C365.023 323.155 357.699 311.258 354.308 297.462C353.335 293.5 353.362 289.29 353.473 284.905C353.6 279.57 353.937 273.956 354.842 268.229C355.363 264.943 357.675 257.536 358.912 254.18C355.363 254.665 351.184 256.053 346.831 258.728C342.027 261.674 336.342 265.665 331.726 270.253C319.866 282.048 314.373 293.597 307.843 308.438C307.343 309.937 306.351 312.879 305.107 316.593C304.233 319.202 303.107 322.207 302.445 325.355C301.156 331.506 299.769 338.133 298.556 343.302C297.263 348.81 296.191 352.676 296.582 352.732C296.768 352.758 300.554 348.45 303.98 345.586C307.304 342.81 316.676 339.333 320.88 338.304C325.585 336.735 330.968 335.887 336.531 335.887C342.811 335.889 349.332 336.958 355.363 338.453C360.052 339.616 368.767 342.38 376.44 346.087C386.022 350.723 396.073 356.656 405.591 362.559C411.779 366.394 418.225 369.908 424.16 373.424C438.949 382.252 447.854 380.103 464.683 380.004L467.959 393.251L445.02 391.688C437.836 391.103 421.361 387.646 414.647 384.709C407.755 382.021 400.987 377.695 393.834 373.789C389.491 371.421 384.848 369.175 380.422 367.473C371.966 364.214 361.143 360.259 350.813 358.159C344.147 356.802 337.647 356.358 332.225 356.845C329.574 357.108 325.683 358.004 322.138 359.082C320.106 359.697 318.126 360.323 316.698 361.076C315.275 361.739 309.426 364.299 308.695 365.014C302.695 367.886 292.463 375.952 286.071 384.368C284.193 386.844 282.691 389.311 281.638 391.708C281.092 392.957 280.72 394.198 280.541 395.418C280.458 395.991 280.33 396.568 280.402 397.139C280.402 397.212 281.882 398.765 282.634 399.048C283.476 399.363 283.784 398.154 283.939 397.959C284.569 397.154 285.002 396.268 285.574 395.406C290.874 387.489 299.721 378.16 307.952 373.406C313.918 369.963 320.18 366.874 326.853 365.495C337.808 363.233 350.874 363.864 363.112 367.119C373.26 369.813 383.84 374.685 392.997 379.512C395.608 380.891 400.474 383.72 405.086 385.79C408.679 387.402 412.267 389.013 415.862 390.628C419.566 391.574 423.067 393.294 426.991 394.595C431.773 396.185 437.029 397.395 441.965 398.489C451.478 400.604 460.923 400.91 469.843 400.876L476.62 428.262L440.502 428.489C435.392 428.04 428.825 425.95 421.496 423.481C414.818 421.225 407.439 418.701 401.009 415.782C394.191 412.685 388.155 409.287 383.828 406.751C375.625 401.949 369.383 398.585 362.299 396.272C356.061 394.234 348.836 392.987 343.428 392.392C337.654 391.753 335.496 392.062 327.462 392.265C320.033 392.225 310.452 392.081 326.932 386.836C334.732 384.356 348.409 383.703 356.83 385.226C358.45 385.221 377.63 392.245 379.157 392.84C382.016 393.286 389.134 396.253 392.315 397.361C404.89 401.738 418.156 406.805 431.096 409.554C433.554 410.077 435.363 410.605 437.196 410.652C441.755 410.625 445.325 411.321 449.864 409.708C440.858 407.417 431.827 405.847 423.422 403.026C420.232 401.956 416.663 401.013 413.612 399.697C411.198 398.658 408.755 397.74 406.462 396.772C394.451 391.718 381.644 386.119 368.907 381.634C362.781 379.475 356.864 377.29 350.936 376.12C340.53 374.066 330.268 374.019 320.031 377.548C309.302 381.247 300.296 386.641 293.096 393.836C290.34 396.665 288.094 399.021 285.336 401.85C285.498 410.1 288.571 414.28 295.259 414.69C299.389 412.398 302.489 409.981 305.737 408.292C308.211 407.003 315.441 404.696 318.163 404.021C326.636 401.905 332.665 401.409 341.31 401.568C352.389 401.78 362.598 404.12 372.125 407.729C379.384 410.485 386.14 414.11 393.349 417.378C399.564 420.196 406.055 422.837 412.676 425.236C426.888 429.788 434.969 432.037 449.449 434.568C458.077 436.075 469.617 435.531 478.38 435.37L480.879 445.484C473.8 445.785 463.482 444.692 453.853 443.525C441.501 442.024 429.973 440.665 417.779 438.179C410.71 436.577 400.593 434.838 390.379 432.156C381.886 429.921 370.581 426.683 360.034 424.015C346.335 420.545 328.078 417.599 314.064 417.862C309.319 417.951 304.607 418.548 299.294 419.043C298.219 420.633 297.49 422.533 296.641 424.479C294.434 429.512 291.815 435.186 287.512 439.026C284.838 441.23 282.075 442.947 277.964 444.163C271.983 445.929 267.489 445.239 263.522 443.33C260.377 441.813 257.445 439.604 255.121 436.673C252.132 432.909 249.764 428.207 247.194 423.749C239.089 425.081 206.481 430.059 175.876 435.48C164.579 437.483 151.567 439.393 138.72 441.754C123.369 444.585 106.189 447.615 92.6567 449.703C85.5039 450.802 79.3741 451.723 75.0482 452.38L64.3478 454.013L76.6047 467.918C108.83 462.594 145.525 456.588 177.765 450.858C196.837 447.468 215.954 444.021 234.891 440.176C237.665 442.371 242.089 449.913 246.587 453.734C252.002 458.622 257.506 462.103 263.883 463.154C267.307 463.717 270.729 464.281 274.153 464.841L274.286 446.742C276.475 446.055 278.439 445.749 280.199 445.278C284.43 444.148 287.796 442.448 290.862 440.338C294.379 437.917 297.449 434.922 299.82 431.292C301.193 429.195 302.104 426.994 303.29 424.468L311.836 425.278C369.004 434.507 426.012 444.374 483.055 454.277L486.706 469.023C479.426 468.283 472.169 466.883 464.676 465.692C452.29 463.718 439.474 461.67 426.594 459.483C398.713 454.756 370.109 450.24 344.056 445.85C333.519 444.045 323.471 442.353 312.914 440.757C311.43 444.204 308.859 447.265 305.966 450.037C301.752 454.087 296.605 457.662 291.054 460.165C285.45 462.69 279.423 464.141 274.275 464.884L274.256 547.812C246.889 548.557 229.851 547.078 213.408 543.608C200.965 540.983 178.463 535.203 166.521 529.807C158.675 526.125 150.17 522.758 143.04 518.806C134.173 513.896 125.927 508.836 117.747 503.344C113.818 500.71 109.956 497.688 106.211 494.815C100.216 490.228 93.6582 484.687 87.4455 478.744C83.7093 475.175 80.3168 471.196 76.6047 467.918L60.0941 470.276L64.3478 454.013C62.7378 452.034 61.1211 450.028 59.5097 447.955C56.0824 443.55 52.6618 439.002 49.7868 434.608C39.866 419.423 30.4145 402.573 23.223 385.853C17.8848 373.444 13.3757 360.78 10.2319 347.632C8.93878 342.233 6.24297 330.412 5.32965 325.317Z"/>
</mask>
<path d="M77.5622 401.493L77.5796 399.993L76.399 399.98L76.1083 401.124L77.5622 401.493ZM70.1767 430.566L68.7229 430.197L68.2555 432.036L70.1535 432.066L70.1767 430.566ZM103.526 428.289L103.336 426.801L103.336 426.801L103.526 428.289ZM132.012 421.581L131.624 420.132L131.204 420.245L130.91 420.564L132.012 421.581ZM135.343 420.689L135.731 422.138L135.846 422.107L135.955 422.059L135.343 420.689ZM143.772 417.143L144.403 418.504L144.404 418.503L143.772 417.143ZM154.799 411.667L154.319 410.246L154.238 410.273L154.161 410.309L154.799 411.667ZM157.93 410.025L158.638 411.347L158.641 411.346L157.93 410.025ZM165.532 405.956L164.869 404.61L164.868 404.611L165.532 405.956ZM174.603 401.409L175.281 402.747L175.282 402.747L174.603 401.409ZM195.069 394.302L195.044 395.802L195.183 395.804L195.32 395.781L195.069 394.302ZM198.97 393.158L198.901 391.66L198.484 391.679L198.137 391.911L198.97 393.158ZM212.784 392.26L212.745 393.759L212.746 393.759L212.784 392.26ZM236.576 397.139L237.144 395.751L237.143 395.75L236.576 397.139ZM242.984 400.163L243.62 398.804L243.617 398.803L242.984 400.163ZM247.24 402.23L247.977 400.923L247.975 400.922L247.24 402.23ZM255.081 406.382L255.331 404.903L255.328 404.903L255.081 406.382ZM258.672 405.346L259.75 404.303L259.698 404.248L259.64 404.199L258.672 405.346ZM246.649 395.564L245.792 396.795L245.793 396.795L246.649 395.564ZM233.317 388.012L233.947 386.65L233.946 386.65L233.317 388.012ZM218.312 382.824L218.558 381.345L218.558 381.345L218.312 382.824ZM198.181 384.134L198.439 385.611L198.439 385.611L198.181 384.134ZM182.701 388.494L183.177 389.917L183.178 389.917L182.701 388.494ZM155.694 399.018L156.215 400.425L156.215 400.425L155.694 399.018ZM126.978 408.376L126.601 406.924L126.601 406.924L126.978 408.376ZM103.326 411.708L103.424 410.212L103.423 410.211L103.326 411.708ZM96.7513 409.328L96.4782 407.853L94.5474 408.211L95.4 409.979L96.7513 409.328ZM128.548 401.687L129.043 403.103L129.044 403.103L128.548 401.687ZM145.371 394.965L145.92 396.361L145.92 396.361L145.371 394.965ZM160.129 389.226L159.62 387.815L159.611 387.818L159.602 387.821L160.129 389.226ZM179.948 381.947L180.436 383.365L180.437 383.365L179.948 381.947ZM209.602 374.782L209.703 376.279L209.704 376.279L209.602 374.782ZM234.279 378.398L233.771 379.81L233.773 379.81L234.279 378.398ZM252.575 389.929L251.572 391.045L251.573 391.046L252.575 389.929ZM263.411 400.321L262.387 401.417L263.882 402.813L264.765 400.968L263.411 400.321ZM264.357 398.344L265.71 398.991L266.145 398.082L265.468 397.336L264.357 398.344ZM261.485 393.98L262.736 393.153L262.735 393.152L261.485 393.98ZM254.395 385.134L255.514 384.135L255.513 384.134L254.395 385.134ZM249.174 380.094L250.161 378.964L250.117 378.926L250.07 378.891L249.174 380.094ZM242.556 374.738L243.43 373.519L243.43 373.519L242.556 374.738ZM201.684 365.771L201.547 364.277L201.547 364.277L201.684 365.771ZM166.681 374.417L167.261 375.801L167.262 375.8L166.681 374.417ZM147.398 384.414L148.05 385.765L148.051 385.765L147.398 384.414ZM111.126 396.964L111.435 398.432L111.435 398.432L111.126 396.964ZM162.55 351.614L163.288 352.92L163.288 352.92L162.55 351.614ZM133.973 368.028L134.719 369.329L134.72 369.329L133.973 368.028ZM97.1016 380.174L96.993 378.678L96.9927 378.678L97.1016 380.174ZM82.7172 381.201L82.5498 379.71L81.519 379.826L81.2634 380.831L82.7172 381.201ZM79.4396 394.093L77.9859 393.724L77.492 395.666L79.4951 395.592L79.4396 394.093ZM102.142 392.97L102.323 394.459L102.324 394.459L102.142 392.97ZM121.729 388.73L122.153 390.168L122.154 390.168L121.729 388.73ZM160.615 372.186L159.948 370.842L159.948 370.842L160.615 372.186ZM174.305 365.754L173.729 364.368L173.619 364.414L173.518 364.476L174.305 365.754ZM217.691 356.364L217.498 357.851L217.499 357.851L217.691 356.364ZM264.14 383.321L263.036 384.335L263.038 384.338L264.14 383.321ZM268.866 389.022L267.683 389.945L270.1 393.043L270.363 389.123L268.866 389.022ZM267.876 385.729L269.26 385.15L269.258 385.146L267.876 385.729ZM263.468 375.931L264.805 375.252L264.794 375.231L264.783 375.211L263.468 375.931ZM260.591 370.68L261.907 369.959L261.876 369.904L261.841 369.851L260.591 370.68ZM257.065 365.08L258.297 364.225L258.296 364.222L257.065 365.08ZM249.939 356.57L248.845 357.596L248.846 357.596L249.939 356.57ZM228.475 341.404L227.899 342.789L227.9 342.789L228.475 341.404ZM216.76 338.426L216.965 336.94L216.963 336.94L216.76 338.426ZM211.292 337.669L211.381 336.172L211.379 336.172L211.292 337.669ZM273.847 379.185L272.619 380.045L275.342 383.934L275.347 379.186L273.847 379.185ZM274.216 1.13153L275.716 1.133L275.72 -2.60604L273.133 0.0937958L274.216 1.13153ZM272.748 3.28308L271.387 2.65253L271.386 2.65367L272.748 3.28308ZM237.091 49.3329L238.086 50.4556L238.086 50.4554L237.091 49.3329ZM186.798 91.248L187.914 92.2506L187.914 92.2505L186.798 91.248ZM174.512 122.257L173.012 122.264L173.012 122.265L174.512 122.257ZM186.801 153.371L187.909 152.36L187.909 152.36L186.801 153.371ZM221.286 168.641L221.242 170.14L221.243 170.14L221.286 168.641ZM248.075 165.898L248.288 167.383L248.297 167.382L248.306 167.38L248.075 165.898ZM258.599 162.959L260.099 162.964L260.104 161.289L258.439 161.468L258.599 162.959ZM233.801 224.337L233.349 222.907L233.347 222.908L233.801 224.337ZM184.014 212.884L182.536 213.139L182.656 213.838L183.274 214.189L184.014 212.884ZM184.212 208.859L185.696 209.08L185.696 209.08L184.212 208.859ZM187.384 185.173L185.888 185.068L185.888 185.069L187.384 185.173ZM173.926 149.529L172.884 150.608L172.884 150.608L173.926 149.529ZM154.593 137.877L154.197 139.324L154.197 139.324L154.593 137.877ZM131.837 136.31L131.997 137.801L131.998 137.801L131.837 136.31ZM55.5061 189.893L56.5601 190.961L56.5605 190.96L55.5061 189.893ZM23.8461 215.375L23.0298 214.117L23.0297 214.117L23.8461 215.375ZM10.1048 223.786L9.32638 222.504L7.73168 223.472L9.01962 224.822L10.1048 223.786ZM26.3547 236.665L25.4479 237.86L25.4485 237.86L26.3547 236.665ZM66.0086 275.134L64.8403 276.075L64.8405 276.075L66.0086 275.134ZM102.267 320.133L101.233 321.22L101.234 321.22L102.267 320.133ZM117.565 331.506L118.274 330.184L118.273 330.184L117.565 331.506ZM141.262 337.958L141.313 336.459L141.312 336.459L141.262 337.958ZM157.956 336.098L158.385 337.535L158.386 337.535L157.956 336.098ZM175.606 326.192L174.609 325.071L174.608 325.072L175.606 326.192ZM190.366 259.046L188.915 259.426L188.916 259.429L190.366 259.046ZM188.523 252.138L187.024 252.183L187.024 252.185L188.523 252.138ZM188.773 250.64L188.976 249.154L187.847 249L187.396 250.047L188.773 250.64ZM192.879 252.541L192.257 253.906L192.259 253.907L192.879 252.541ZM209.378 261.786L210.247 260.563L210.226 260.549L210.206 260.535L209.378 261.786ZM231.366 284.181L232.625 283.365L232.625 283.364L231.366 284.181ZM241.042 303.34L239.649 303.896L239.649 303.896L241.042 303.34ZM252.968 349.378L251.475 349.528L251.514 349.918L251.739 350.239L252.968 349.378ZM224.2 403.487L224.308 401.991L224.308 401.991L224.2 403.487ZM196.032 404.613L196.199 406.104L196.199 406.104L196.032 404.613ZM172.443 409.971L172.863 411.411L172.866 411.41L172.443 409.971ZM165.665 412.302L166.015 413.761L166.034 413.756L166.053 413.751L165.665 412.302ZM162.283 413.708L162.739 415.137L162.997 415.054L163.21 414.887L162.283 413.708ZM150.929 418.279L151.534 419.652L151.535 419.651L150.929 418.279ZM140.631 422.553L141.178 423.95L141.179 423.949L140.631 422.553ZM121.717 429.328L121.246 427.903L121.246 427.903L121.717 429.328ZM78.3404 435.194L78.2526 436.691L78.253 436.691L78.3404 435.194ZM69.2046 434.394L69.436 432.912L68.087 432.702L67.7508 434.025L69.2046 434.394ZM66.1784 446.304L64.7246 445.934L64.2668 447.736L66.1244 447.803L66.1784 446.304ZM72.9969 445.607L72.8424 444.115L72.8416 444.115L72.9969 445.607ZM83.8203 444.488L84.039 445.972L84.0399 445.971L83.8203 444.488ZM105.142 440.963L105.465 442.428L105.466 442.427L105.142 440.963ZM145.208 430.014L145.635 431.452L145.636 431.451L145.208 430.014ZM183.823 417.67L184.189 419.124L184.19 419.124L183.823 417.67ZM218.738 412.443L218.801 413.941L218.802 413.941L218.738 412.443ZM251.471 415.37L251.437 416.869L252.447 416.892L252.848 415.965L251.471 415.37ZM252.643 412.659L254.02 413.254L254.545 412.039L253.405 411.367L252.643 412.659ZM241.629 406.734L242.137 405.322L242.135 405.322L241.629 406.734ZM5.32965 325.317L3.85306 325.581L3.85319 325.582L5.32965 325.317ZM4.06866 230.622L2.58182 230.424L2.58174 230.425L4.06866 230.622ZM10.5007 199.611L9.03724 199.282L9.03703 199.283L10.5007 199.611ZM15.5486 182.523L14.1757 181.918L14.1204 182.044L14.0889 182.178L15.5486 182.523ZM16.4941 180.374L17.8671 180.978L17.9482 180.793L17.9778 180.594L16.4941 180.374ZM20.5859 168.886L21.9647 169.476L21.9648 169.476L20.5859 168.886ZM64.0402 94.6325L65.2111 95.57L65.2113 95.5699L64.0402 94.6325ZM117.838 44.8559L118.702 46.082L118.747 46.0502L118.79 46.0152L117.838 44.8559ZM178.969 13.783L178.436 12.3809L178.435 12.381L178.969 13.783ZM227.693 2.40588L227.967 3.88057L227.968 3.88048L227.693 2.40588ZM273.58 0.295776L274.802 -0.573231L274.418 -1.11409L273.759 -1.19346L273.58 0.295776ZM290.458 24.9996L289.28 25.9285L289.282 25.9313L290.458 24.9996ZM316.548 51.1716L315.513 52.2569L315.514 52.2581L316.548 51.1716ZM347.637 75.1974L348.548 74.0051L348.547 74.0047L347.637 75.1974ZM364.777 89.9322L365.9 88.9378L365.899 88.9371L364.777 89.9322ZM374.391 109.354L375.862 109.059L375.862 109.059L374.391 109.354ZM356.188 160.482L357.089 161.682L357.089 161.682L356.188 160.482ZM323.729 170.049L323.808 168.551L323.808 168.551L323.729 170.049ZM291.355 165.382L291.63 163.907L289.199 163.455L289.921 165.82L291.355 165.382ZM307.79 219.214L306.355 219.652L306.477 220.051L306.787 220.33L307.79 219.214ZM335.098 225.719L334.88 224.235L334.879 224.235L335.098 225.719ZM360.544 216.894L361.059 218.303L361.174 218.261L361.281 218.201L360.544 216.894ZM363.477 215.226L364.166 216.558L364.169 216.557L363.477 215.226ZM365.968 214.064L366.604 215.422L367.289 215.101L367.439 214.359L365.968 214.064ZM364.954 211.06L363.502 211.434L363.569 211.696L363.723 211.917L364.954 211.06ZM367.47 158.152L366.195 157.361L366.195 157.362L367.47 158.152ZM372.935 151.121L374.056 152.117L374.057 152.116L372.935 151.121ZM403.382 134.815L403.204 133.325L403.203 133.325L403.382 134.815ZM454.303 148.744L455.223 147.56L455.215 147.554L454.303 148.744ZM459.369 152.941L458.37 154.059L458.37 154.06L459.369 152.941ZM484.074 178.459L485.167 177.432L485.167 177.431L484.074 178.459ZM536.786 221.04L537.521 219.732L537.52 219.732L536.786 221.04ZM541.239 223.804L542.147 222.61L542.139 222.604L541.239 223.804ZM541.856 224.551L542.886 225.642L543.763 224.814L543.143 223.78L541.856 224.551ZM536.196 228.423L535.318 227.207L535.317 227.207L536.196 228.423ZM467.853 298.589L469.038 299.509L469.039 299.508L467.853 298.589ZM442.732 326.418L441.804 325.24L441.803 325.24L442.732 326.418ZM387.989 337.074L387.448 338.473L387.449 338.473L387.989 337.074ZM379.284 332.866L378.44 334.106L378.441 334.107L379.284 332.866ZM354.308 297.462L352.851 297.819L352.851 297.82L354.308 297.462ZM353.473 284.905L354.973 284.943L354.973 284.941L353.473 284.905ZM354.842 268.229L353.361 267.994L353.361 267.995L354.842 268.229ZM358.912 254.18L360.319 254.699L361.183 252.355L358.708 252.694L358.912 254.18ZM346.831 258.728L347.615 260.007L347.616 260.006L346.831 258.728ZM331.726 270.253L330.669 269.19L330.668 269.19L331.726 270.253ZM307.843 308.438L306.47 307.834L306.442 307.897L306.42 307.963L307.843 308.438ZM305.107 316.593L306.529 317.07L306.53 317.07L305.107 316.593ZM302.445 325.355L300.977 325.046L300.977 325.047L302.445 325.355ZM298.556 343.302L300.017 343.644L300.017 343.644L298.556 343.302ZM296.582 352.732L296.796 351.247L296.795 351.247L296.582 352.732ZM303.98 345.586L303.019 344.434L303.018 344.435L303.98 345.586ZM320.88 338.304L321.236 339.762L321.296 339.747L321.354 339.727L320.88 338.304ZM336.531 335.887L336.531 334.387H336.531V335.887ZM355.363 338.453L355.724 336.997L355.724 336.997L355.363 338.453ZM376.44 346.087L377.093 344.737L377.092 344.736L376.44 346.087ZM405.591 362.559L404.801 363.834L404.801 363.834L405.591 362.559ZM424.16 373.424L424.929 372.136L424.924 372.133L424.16 373.424ZM464.683 380.004L466.139 379.644L465.855 378.497L464.674 378.504L464.683 380.004ZM467.959 393.251L467.857 394.747L469.909 394.887L469.415 392.891L467.959 393.251ZM445.02 391.688L444.899 393.183L444.909 393.183L444.918 393.184L445.02 391.688ZM414.647 384.709L415.248 383.334L415.22 383.322L415.192 383.311L414.647 384.709ZM393.834 373.789L394.553 372.472L394.552 372.472L393.834 373.789ZM380.422 367.473L379.883 368.873L379.884 368.873L380.422 367.473ZM350.813 358.159L350.514 359.629L350.515 359.629L350.813 358.159ZM332.225 356.845L332.091 355.351L332.083 355.352L332.076 355.352L332.225 356.845ZM322.138 359.082L322.573 360.518L322.574 360.517L322.138 359.082ZM316.698 361.076L317.332 362.435L317.365 362.42L317.398 362.403L316.698 361.076ZM308.695 365.014L309.343 366.367L309.566 366.26L309.744 366.086L308.695 365.014ZM286.071 384.368L284.876 383.46L284.875 383.461L286.071 384.368ZM281.638 391.708L280.265 391.104L280.263 391.107L281.638 391.708ZM280.541 395.418L279.057 395.201L279.057 395.203L280.541 395.418ZM280.402 397.139H281.902V397.045L281.89 396.951L280.402 397.139ZM282.634 399.048L282.107 400.452L282.108 400.452L282.634 399.048ZM283.939 397.959L285.114 398.892L285.12 398.883L283.939 397.959ZM285.574 395.406L284.328 394.572L284.325 394.576L285.574 395.406ZM307.952 373.406L307.202 372.107L307.201 372.108L307.952 373.406ZM326.853 365.495L326.55 364.026L326.55 364.026L326.853 365.495ZM363.112 367.119L362.726 368.568L362.727 368.569L363.112 367.119ZM392.997 379.512L393.698 378.186L393.697 378.185L392.997 379.512ZM405.086 385.79L404.472 387.159L404.472 387.159L405.086 385.79ZM415.862 390.628L415.248 391.997L415.366 392.05L415.491 392.082L415.862 390.628ZM426.991 394.595L427.464 393.171L427.463 393.171L426.991 394.595ZM441.965 398.489L442.29 397.024L442.289 397.024L441.965 398.489ZM469.843 400.876L471.299 400.515L471.016 399.371L469.837 399.376L469.843 400.876ZM476.62 428.262L476.63 429.762L478.534 429.75L478.076 427.901L476.62 428.262ZM440.502 428.489L440.371 429.983L440.441 429.99L440.511 429.989L440.502 428.489ZM421.496 423.481L421.016 424.902L421.017 424.903L421.496 423.481ZM401.009 415.782L400.388 417.147L400.389 417.147L401.009 415.782ZM383.828 406.751L384.586 405.457L384.586 405.457L383.828 406.751ZM362.299 396.272L361.833 397.697L361.833 397.697L362.299 396.272ZM343.428 392.392L343.263 393.883L343.264 393.883L343.428 392.392ZM327.462 392.265L327.453 393.765L327.476 393.765L327.499 393.765L327.462 392.265ZM326.932 386.836L326.477 385.407L326.477 385.407L326.932 386.836ZM356.83 385.226L356.563 386.702L356.697 386.727L356.834 386.726L356.83 385.226ZM379.157 392.84L378.612 394.238L378.765 394.297L378.926 394.322L379.157 392.84ZM392.315 397.361L391.822 398.778L391.822 398.778L392.315 397.361ZM431.096 409.554L431.408 408.087L431.408 408.087L431.096 409.554ZM437.196 410.652L437.158 412.151L437.182 412.152L437.205 412.152L437.196 410.652ZM449.864 409.708L450.366 411.121L455.014 409.47L450.234 408.254L449.864 409.708ZM423.422 403.026L423.899 401.604L423.899 401.604L423.422 403.026ZM413.612 399.697L414.206 398.32L414.205 398.32L413.612 399.697ZM406.462 396.772L407.045 395.39L407.043 395.389L406.462 396.772ZM368.907 381.634L368.409 383.049L368.409 383.049L368.907 381.634ZM350.936 376.12L351.227 374.648L351.227 374.648L350.936 376.12ZM320.031 377.548L319.542 376.13L319.542 376.13L320.031 377.548ZM293.096 393.836L292.036 392.776L292.029 392.783L292.022 392.79L293.096 393.836ZM285.336 401.85L284.262 400.804L283.824 401.253L283.837 401.88L285.336 401.85ZM295.259 414.69L295.167 416.188L295.604 416.214L295.986 416.002L295.259 414.69ZM305.737 408.292L306.429 409.623L306.43 409.622L305.737 408.292ZM318.163 404.021L318.524 405.477L318.526 405.476L318.163 404.021ZM341.31 401.568L341.338 400.069L341.337 400.069L341.31 401.568ZM372.125 407.729L372.657 406.326L372.656 406.326L372.125 407.729ZM393.349 417.378L392.73 418.744L392.73 418.744L393.349 417.378ZM412.676 425.236L412.165 426.646L412.191 426.656L412.218 426.664L412.676 425.236ZM449.449 434.568L449.191 436.046L449.191 436.046L449.449 434.568ZM478.38 435.37L479.836 435.011L479.549 433.849L478.353 433.871L478.38 435.37ZM480.879 445.484L480.943 446.982L482.776 446.905L482.335 445.124L480.879 445.484ZM453.853 443.525L453.672 445.014L453.672 445.014L453.853 443.525ZM417.779 438.179L417.447 439.642L417.463 439.645L417.479 439.648L417.779 438.179ZM390.379 432.156L389.997 433.606L389.998 433.607L390.379 432.156ZM360.034 424.015L359.665 425.469L359.666 425.469L360.034 424.015ZM314.064 417.862L314.092 419.362L314.092 419.362L314.064 417.862ZM299.294 419.043L299.155 417.549L298.449 417.615L298.052 418.203L299.294 419.043ZM296.641 424.479L298.015 425.081L298.016 425.079L296.641 424.479ZM287.512 439.026L288.466 440.184L288.489 440.165L288.511 440.146L287.512 439.026ZM277.964 444.163L278.389 445.601L278.39 445.601L277.964 444.163ZM263.522 443.33L262.871 444.681L262.872 444.681L263.522 443.33ZM255.121 436.673L256.296 435.741L256.295 435.74L255.121 436.673ZM247.194 423.749L248.493 423L247.975 422.1L246.95 422.269L247.194 423.749ZM175.876 435.48L175.614 434.003L175.614 434.003L175.876 435.48ZM138.72 441.754L138.449 440.279L138.448 440.279L138.72 441.754ZM92.6567 449.703L92.8845 451.185L92.8853 451.185L92.6567 449.703ZM75.0482 452.38L74.8231 450.897L74.8219 450.897L75.0482 452.38ZM177.765 450.858L178.028 452.335L178.028 452.335L177.765 450.858ZM234.891 440.176L235.822 439L235.276 438.568L234.593 438.706L234.891 440.176ZM246.587 453.734L247.592 452.621L247.575 452.606L247.558 452.591L246.587 453.734ZM263.883 463.154L263.64 464.634L263.64 464.634L263.883 463.154ZM274.153 464.841L273.911 466.322L275.64 466.605L275.653 464.852L274.153 464.841ZM274.286 446.742L273.836 445.311L272.794 445.638L272.786 446.731L274.286 446.742ZM280.199 445.278L279.812 443.829L279.811 443.829L280.199 445.278ZM290.862 440.338L291.712 441.574L291.713 441.574L290.862 440.338ZM299.82 431.292L298.565 430.47L298.564 430.472L299.82 431.292ZM303.29 424.468L303.432 422.975L302.381 422.875L301.932 423.831L303.29 424.468ZM311.836 425.278L312.075 423.798L312.027 423.79L311.978 423.785L311.836 425.278ZM483.055 454.277L484.511 453.917L484.276 452.967L483.311 452.799L483.055 454.277ZM486.706 469.023L486.554 470.515L488.674 470.731L488.162 468.662L486.706 469.023ZM464.676 465.692L464.44 467.173L464.441 467.173L464.676 465.692ZM426.594 459.483L426.845 458.004L426.844 458.004L426.594 459.483ZM344.056 445.85L343.803 447.329L343.807 447.329L344.056 445.85ZM312.914 440.757L313.138 439.274L311.994 439.101L311.536 440.164L312.914 440.757ZM305.966 450.037L304.928 448.954L304.926 448.956L305.966 450.037ZM291.054 460.165L291.671 461.533L291.671 461.533L291.054 460.165ZM274.275 464.884L274.061 463.4L272.775 463.585L272.775 464.884L274.275 464.884ZM274.256 547.812L274.297 549.311L275.756 549.272L275.756 547.812L274.256 547.812ZM213.408 543.608L213.717 542.14L213.717 542.14L213.408 543.608ZM166.521 529.807L165.883 531.165L165.893 531.17L165.903 531.174L166.521 529.807ZM143.04 518.806L143.768 517.494L143.767 517.494L143.04 518.806ZM117.747 503.344L118.583 502.099L118.582 502.098L117.747 503.344ZM106.211 494.815L107.124 493.625L107.122 493.624L106.211 494.815ZM87.4455 478.744L88.4824 477.661L88.4816 477.66L87.4455 478.744ZM60.0941 470.276L58.6429 469.896L58.0718 472.08L60.3061 471.761L60.0941 470.276ZM59.5097 447.955L60.6939 447.034L60.6936 447.034L59.5097 447.955ZM49.7868 434.608L48.531 435.429L48.5316 435.43L49.7868 434.608ZM23.223 385.853L24.6009 385.261L24.6009 385.261L23.223 385.853ZM10.2319 347.632L11.6908 347.283L11.6906 347.282L10.2319 347.632ZM76.1083 401.124L68.7229 430.197L71.6305 430.935L79.016 401.863L76.1083 401.124ZM70.1535 432.066C85.151 432.297 93.1926 431.12 103.716 429.776L103.336 426.801C92.8241 428.142 84.9662 429.294 70.1999 429.066L70.1535 432.066ZM103.715 429.777C105.96 429.49 112.633 428.34 118.98 426.997C122.156 426.324 125.283 425.597 127.752 424.898C128.984 424.549 130.081 424.199 130.95 423.857C131.383 423.687 131.785 423.509 132.129 423.322C132.45 423.149 132.824 422.914 133.115 422.598L130.91 420.564C130.954 420.516 130.923 420.564 130.701 420.684C130.501 420.792 130.221 420.92 129.852 421.065C129.115 421.355 128.124 421.674 126.935 422.011C124.561 422.683 121.51 423.395 118.358 424.062C112.05 425.397 105.466 426.529 103.336 426.801L103.715 429.777ZM132.4 423.03L135.731 422.138L134.955 419.24L131.624 420.132L132.4 423.03ZM135.955 422.059C137.324 421.448 138.727 420.886 140.156 420.308C141.574 419.735 143.014 419.148 144.403 418.504L143.141 415.782C141.829 416.391 140.453 416.952 139.032 417.527C137.621 418.097 136.161 418.682 134.732 419.319L135.955 422.059ZM144.404 418.503C146.294 417.626 148.12 416.692 149.931 415.765C151.75 414.834 153.553 413.909 155.436 413.025L154.161 410.309C152.223 411.219 150.374 412.168 148.564 413.095C146.747 414.025 144.97 414.932 143.14 415.782L144.404 418.503ZM155.278 413.088C155.897 412.88 156.486 412.568 157.016 412.269C157.592 411.944 158.059 411.657 158.638 411.347L157.223 408.702C156.617 409.026 155.996 409.4 155.541 409.657C155.04 409.939 154.656 410.132 154.319 410.246L155.278 413.088ZM158.641 411.346C161.243 409.946 164.172 408.302 166.197 407.3L164.868 404.611C162.782 405.642 159.734 407.351 157.22 408.704L158.641 411.346ZM166.195 407.301C169.221 405.81 172.28 404.268 175.281 402.747L173.925 400.071C170.927 401.591 167.88 403.127 164.869 404.61L166.195 407.301ZM175.282 402.747C177.258 401.743 181.283 399.971 185.332 398.459C187.353 397.704 189.356 397.023 191.096 396.537C192.879 396.039 194.241 395.788 195.044 395.802L195.094 392.802C193.82 392.781 192.095 393.143 190.289 393.648C188.438 394.165 186.349 394.877 184.282 395.648C180.156 397.189 176.024 399.005 173.924 400.072L175.282 402.747ZM195.32 395.781C196.63 395.558 198.345 395.378 199.802 394.406L198.137 391.911C197.345 392.439 196.434 392.548 194.817 392.823L195.32 395.781ZM199.038 394.657C201.499 394.544 203.728 394.279 205.895 394.068C208.079 393.856 210.256 393.694 212.745 393.759L212.824 390.76C210.154 390.69 207.834 390.866 205.605 391.082C203.359 391.3 201.261 391.552 198.901 391.66L199.038 394.657ZM212.746 393.759C221.94 393.995 228.656 395.529 236.01 398.528L237.143 395.75C229.456 392.615 222.382 391.006 212.823 390.76L212.746 393.759ZM236.008 398.528C238.065 399.369 239.948 400.404 242.351 401.523L243.617 398.803C241.468 397.803 239.259 396.616 237.144 395.751L236.008 398.528ZM242.348 401.521C243.47 402.047 245.011 402.698 246.506 403.538L247.975 400.922C246.352 400.01 244.611 399.268 243.62 398.804L242.348 401.521ZM246.504 403.537C247.275 403.971 248.061 404.431 248.839 404.886C249.611 405.338 250.378 405.788 251.091 406.189C251.801 406.59 252.481 406.957 253.083 407.242C253.652 407.511 254.276 407.769 254.833 407.862L255.328 404.903C255.209 404.883 254.905 404.785 254.367 404.53C253.861 404.291 253.254 403.965 252.564 403.576C251.877 403.189 251.134 402.753 250.354 402.297C249.579 401.843 248.772 401.371 247.977 400.923L246.504 403.537ZM254.83 407.861C256.179 408.089 257.599 408.167 258.61 407.936C258.876 407.875 259.183 407.778 259.472 407.611C259.759 407.445 260.124 407.153 260.335 406.67C260.81 405.577 260.111 404.676 259.75 404.303L257.594 406.389C257.809 406.611 257.271 406.191 257.584 405.473C257.713 405.176 257.916 405.045 257.971 405.013C258.029 404.98 258.033 404.99 257.94 405.012C257.512 405.11 256.56 405.111 255.331 404.903L254.83 407.861ZM259.64 404.199C255.402 400.624 251.74 397.278 247.506 394.333L245.793 396.795C249.874 399.635 253.35 402.818 257.705 406.492L259.64 404.199ZM247.507 394.333C243.116 391.274 238.565 388.785 233.947 386.65L232.688 389.373C237.181 391.45 241.574 393.856 245.792 396.795L247.507 394.333ZM233.946 386.65C228.317 384.05 223.558 382.174 218.558 381.345L218.067 384.304C222.655 385.066 227.117 386.8 232.688 389.373L233.946 386.65ZM218.558 381.345C212.264 380.3 205.608 381.311 197.922 382.656L198.439 385.611C206.19 384.255 212.353 383.356 218.067 384.304L218.558 381.345ZM197.923 382.656C196.59 382.889 190.063 384.445 182.224 387.072L183.178 389.917C190.934 387.317 197.306 385.809 198.439 385.611L197.923 382.656ZM182.225 387.072C178.035 388.473 173.502 390.285 168.917 392.151C164.316 394.023 159.664 395.949 155.174 397.611L156.215 400.425C160.762 398.741 165.474 396.79 170.047 394.929C174.637 393.062 179.088 391.284 183.177 389.917L182.225 387.072ZM155.174 397.611C151.871 398.833 139.288 403.633 126.601 406.924L127.354 409.828C140.214 406.492 152.942 401.635 156.215 400.425L155.174 397.611ZM126.601 406.924C117.779 409.214 109.029 410.578 103.424 410.212L103.229 413.205C109.324 413.604 118.451 412.139 127.355 409.828L126.601 406.924ZM103.423 410.211C101.844 410.11 100.564 409.959 99.6044 409.664C98.6482 409.37 98.2644 409.013 98.1025 408.677L95.4 409.979C96.0819 411.394 97.397 412.124 98.7231 412.532C100.046 412.938 101.632 413.102 103.23 413.205L103.423 410.211ZM97.0243 410.803C108.314 408.713 117.822 407.029 129.043 403.103L128.052 400.271C117.084 404.109 107.801 405.757 96.4782 407.853L97.0243 410.803ZM129.044 403.103C134.768 401.095 140.341 398.552 145.92 396.361L144.823 393.569C139.008 395.853 133.739 398.276 128.051 400.272L129.044 403.103ZM145.92 396.361C150.868 394.417 155.641 392.512 160.656 390.63L159.602 387.821C154.558 389.713 149.751 391.633 144.823 393.569L145.92 396.361ZM160.638 390.637C161.125 390.461 170.914 386.648 180.436 383.365L179.459 380.529C174.683 382.175 169.817 383.963 166.097 385.357C164.236 386.054 162.66 386.653 161.524 387.086C160.956 387.303 160.498 387.479 160.17 387.605C160.006 387.668 159.875 387.718 159.779 387.754C159.731 387.773 159.693 387.787 159.664 387.798C159.65 387.803 159.639 387.808 159.631 387.811C159.621 387.814 159.619 387.815 159.62 387.815L160.638 390.637ZM180.437 383.365C189.927 380.093 199.82 376.945 209.703 376.279L209.501 373.286C199.176 373.981 188.941 377.26 179.459 380.529L180.437 383.365ZM209.704 376.279C217.798 375.727 225.965 377.004 233.771 379.81L234.786 376.987C226.627 374.054 218.046 372.704 209.5 373.286L209.704 376.279ZM233.773 379.81C238.745 381.591 246.051 386.085 251.572 391.045L253.577 388.813C247.836 383.656 240.202 378.926 234.784 376.986L233.773 379.81ZM251.573 391.046C256.59 395.545 260.413 399.571 262.387 401.417L264.436 399.225C262.727 397.628 258.532 393.257 253.576 388.812L251.573 391.046ZM264.765 400.968L265.71 398.991L263.004 397.697L262.058 399.673L264.765 400.968ZM265.468 397.336C265.064 396.891 264.674 396.308 264.222 395.568C263.794 394.867 263.289 393.989 262.736 393.153L260.233 394.807C260.749 395.586 261.174 396.334 261.662 397.132C262.127 397.892 262.639 398.683 263.246 399.352L265.468 397.336ZM262.735 393.152C261.06 390.621 259.123 388.178 255.514 384.135L253.276 386.133C256.842 390.127 258.672 392.449 260.234 394.807L262.735 393.152ZM255.513 384.134C254.107 382.562 252.366 380.889 250.161 378.964L248.188 381.224C250.339 383.102 251.981 384.686 253.277 386.134L255.513 384.134ZM250.07 378.891C248.929 378.04 247.882 377.143 246.799 376.222C245.73 375.311 244.625 374.376 243.43 373.519L241.682 375.957C242.762 376.732 243.778 377.589 244.855 378.506C245.919 379.412 247.043 380.377 248.278 381.297L250.07 378.891ZM243.43 373.519C231.232 364.771 216.493 362.902 201.547 364.277L201.822 367.265C216.382 365.925 230.294 367.79 241.682 375.957L243.43 373.519ZM201.547 364.277C189.276 365.406 176.535 368.647 166.1 373.035L167.262 375.8C177.412 371.533 189.853 368.366 201.822 367.265L201.547 364.277ZM166.101 373.034C162.606 374.501 159.395 376.226 156.256 377.967C153.1 379.718 150.037 381.472 146.745 383.064L148.051 385.765C151.44 384.126 154.604 382.315 157.712 380.591C160.837 378.857 163.927 377.2 167.261 375.801L166.101 373.034ZM146.747 383.063C135.972 388.262 124.071 392.705 110.817 395.496L111.435 398.432C124.966 395.583 137.098 391.05 148.05 385.765L146.747 383.063ZM110.818 395.496C101.461 397.464 90.971 400.149 77.5796 399.993L77.5448 402.993C91.339 403.153 102.194 400.375 111.435 398.432L110.818 395.496ZM161.813 350.308C153.86 354.797 142.942 361.149 133.226 366.727L134.72 369.329C144.462 363.736 155.346 357.403 163.288 352.92L161.813 350.308ZM133.226 366.727C126.258 370.725 121.247 373.4 115.967 375.238C110.708 377.068 105.116 378.089 96.993 378.678L97.2101 381.67C105.49 381.069 111.363 380.017 116.953 378.071C122.523 376.133 127.747 373.33 134.719 369.329L133.226 366.727ZM96.9927 378.678C92.4236 379.011 87.6901 379.133 82.5498 379.71L82.8845 382.692C87.9633 382.122 92.4458 382.017 97.2105 381.67L96.9927 378.678ZM81.2634 380.831L77.9859 393.724L80.8934 394.463L84.1709 381.571L81.2634 380.831ZM79.4951 395.592C86.4088 395.336 94.3099 395.436 102.323 394.459L101.96 391.481C94.1138 392.438 86.4951 392.331 79.3842 392.594L79.4951 395.592ZM102.324 394.459C109.181 393.621 115.878 392.019 122.153 390.168L121.305 387.291C115.128 389.112 108.6 390.669 101.96 391.481L102.324 394.459ZM122.154 390.168C133.472 386.823 148.286 379.982 161.283 373.529L159.948 370.842C146.949 377.296 132.344 384.028 121.304 387.291L122.154 390.168ZM161.282 373.529C163.599 372.379 166.04 371.365 168.44 370.321C170.807 369.292 173.138 368.233 175.091 367.031L173.518 364.476C171.767 365.554 169.615 366.539 167.244 367.57C164.906 368.586 162.354 369.648 159.948 370.842L161.282 373.529ZM174.88 367.139C185.628 362.675 192.943 359.932 199.252 358.51C205.504 357.101 210.799 356.983 217.498 357.851L217.883 354.876C210.892 353.971 205.238 354.086 198.592 355.584C192.003 357.069 184.47 359.907 173.729 364.368L174.88 367.139ZM217.499 357.851C234.647 360.058 251.272 371.529 263.036 384.335L265.245 382.306C253.225 369.221 235.999 357.207 217.882 354.876L217.499 357.851ZM263.038 384.338C264.591 386.021 265.992 387.777 267.683 389.945L270.049 388.1C268.354 385.928 266.888 384.086 265.243 382.303L263.038 384.338ZM270.363 389.123C270.411 388.393 270.224 387.671 270.02 387.066C269.812 386.45 269.522 385.776 269.26 385.15L266.493 386.308C266.779 386.992 267.013 387.536 267.177 388.024C267.345 388.524 267.378 388.793 267.369 388.922L270.363 389.123ZM269.258 385.146C268.761 383.967 268.435 382.402 264.805 375.252L262.13 376.61C265.697 383.635 265.928 384.969 266.494 386.312L269.258 385.146ZM264.783 375.211L261.907 369.959L259.276 371.4L262.152 376.652L264.783 375.211ZM261.841 369.851C261.159 368.821 260.581 367.864 260.017 366.932C259.458 366.009 258.905 365.1 258.297 364.225L255.833 365.935C256.379 366.723 256.887 367.554 257.451 368.486C258.01 369.408 258.619 370.419 259.341 371.509L261.841 369.851ZM258.296 364.222C256.272 361.316 254.07 358.776 251.032 355.543L248.846 357.596C251.844 360.789 253.932 363.206 255.834 365.937L258.296 364.222ZM251.033 355.543C245.507 349.654 237.337 343.463 229.051 340.019L227.9 342.789C235.727 346.042 243.556 351.958 248.845 357.596L251.033 355.543ZM229.052 340.019C226.624 339.009 222.822 337.748 216.965 336.94L216.555 339.912C222.153 340.685 225.706 341.876 227.899 342.789L229.052 340.019ZM216.963 336.94C216.076 336.819 213.925 336.322 211.381 336.172L211.203 339.167C213.634 339.31 215.256 339.734 216.556 339.912L216.963 336.94ZM211.379 336.172C193.485 335.136 176.763 341.86 161.812 350.308L163.288 352.92C178.051 344.578 194.163 338.18 211.205 339.167L211.379 336.172ZM275.347 379.186L275.716 1.133L272.716 1.13007L272.347 379.183L275.347 379.186ZM273.133 0.0937958C272.836 0.404113 272.654 0.583843 272.5 0.739843C272.365 0.877313 272.194 1.05301 272.043 1.27664C271.893 1.50021 271.798 1.72404 271.728 1.88449C271.65 2.06502 271.554 2.29091 271.387 2.65253L274.109 3.91363C274.296 3.51037 274.408 3.2445 274.481 3.07773C274.562 2.89088 274.559 2.91188 274.534 2.94842C274.51 2.98501 274.496 2.98947 274.64 2.84283C274.766 2.71472 274.985 2.49747 275.299 2.16927L273.133 0.0937958ZM271.386 2.65367C263.845 18.9678 249.383 36.4312 236.096 48.2105L238.086 50.4554C251.588 38.4856 266.348 20.7025 274.109 3.91249L271.386 2.65367ZM236.096 48.2102C227.847 55.5201 218.485 62.4471 209.526 69.3628C200.605 76.2481 192.081 83.1243 185.682 90.2455L187.914 92.2505C194.108 85.3563 202.431 78.629 211.359 71.7376C220.248 64.8766 229.736 57.8538 238.086 50.4556L236.096 48.2102ZM185.682 90.2455C176.523 100.439 172.956 111.486 173.012 122.264L176.012 122.249C175.96 112.204 179.261 101.88 187.914 92.2506L185.682 90.2455ZM173.012 122.265C173.092 136.09 178.364 146.353 185.693 154.382L187.909 152.36C180.997 144.787 176.087 135.216 176.012 122.248L173.012 122.265ZM185.693 154.382C194.106 163.601 205.639 169.68 221.242 170.14L221.331 167.142C206.557 166.706 195.786 160.991 187.909 152.36L185.693 154.382ZM221.243 170.14C230.74 170.414 240.921 168.438 248.288 167.383L247.862 164.413C240.274 165.5 230.489 167.405 221.33 167.141L221.243 170.14ZM248.306 167.38C250.239 167.079 252.34 166.367 254.169 165.747C256.098 165.093 257.65 164.57 258.759 164.45L258.439 161.468C256.92 161.631 254.992 162.3 253.205 162.906C251.32 163.546 249.473 164.162 247.844 164.416L248.306 167.38ZM257.099 162.954C257.069 172.821 256.362 186.26 252.975 198.056C249.573 209.903 243.6 219.662 233.349 222.907L234.254 225.767C245.974 222.057 252.369 211.033 255.858 198.884C259.362 186.683 260.069 172.911 260.099 162.964L257.099 162.954ZM233.347 222.908C216.023 228.411 200.321 220.411 184.754 211.579L183.274 214.189C198.707 222.944 215.526 231.716 234.256 225.767L233.347 222.908ZM185.492 212.629C185.449 212.379 185.396 211.091 185.696 209.08L182.728 208.638C182.41 210.773 182.413 212.427 182.536 213.139L185.492 212.629ZM185.696 209.08C186.873 201.164 188.305 193.531 188.88 185.277L185.888 185.069C185.323 193.167 183.926 200.582 182.728 208.638L185.696 209.08ZM188.88 185.278C189.931 170.286 184.502 157.663 174.968 148.451L172.884 150.608C181.801 159.224 186.875 170.989 185.888 185.068L188.88 185.278ZM174.969 148.451C169.644 143.305 163.47 138.746 154.988 136.43L154.197 139.324C162.021 141.46 167.768 145.663 172.884 150.608L174.969 148.451ZM154.988 136.43C146.869 134.211 138.996 134.028 131.676 134.818L131.998 137.801C139.04 137.04 146.522 137.226 154.197 139.324L154.988 136.43ZM131.678 134.818C113.532 136.757 100.989 143.574 89.577 153.284C83.8955 158.119 78.4935 163.671 72.8366 169.663C67.1663 175.669 61.2412 182.117 54.4517 188.826L56.5605 190.96C63.3986 184.203 69.381 177.694 75.0181 171.722C80.6689 165.736 85.9745 160.289 91.5211 155.569C102.566 146.171 114.56 139.664 131.997 137.801L131.678 134.818ZM54.4521 188.826C45.407 197.758 33.5746 207.277 23.0298 214.117L24.6624 216.634C35.3794 209.682 47.3709 200.035 56.5601 190.961L54.4521 188.826ZM23.0297 214.117C18.4397 217.095 14.036 219.645 9.32638 222.504L10.8832 225.069C15.5261 222.25 20.0229 219.644 24.6625 216.634L23.0297 214.117ZM9.01962 224.822C14.0969 230.143 20.3979 234.027 25.4479 237.86L27.2616 235.47C21.892 231.395 16.0482 227.842 11.19 222.751L9.01962 224.822ZM25.4485 237.86C39.0074 248.141 50.5723 258.359 64.8403 276.075L67.1768 274.193C52.7295 256.254 40.9786 245.871 27.261 235.47L25.4485 237.86ZM64.8405 276.075C70.5604 283.175 76.28 291.223 82.3052 299.18C88.2993 307.097 94.556 314.868 101.233 321.22L103.301 319.046C96.8083 312.87 90.6717 305.261 84.697 297.37C78.7534 289.52 72.9287 281.332 67.1766 274.193L64.8405 276.075ZM101.234 321.22C107.305 326.988 113.645 331.11 116.857 332.829L118.273 330.184C115.283 328.584 109.165 324.617 103.3 319.046L101.234 321.22ZM116.856 332.828C124.648 337.007 132.61 339.169 141.212 339.457L141.312 336.459C133.182 336.186 125.67 334.151 118.274 330.184L116.856 332.828ZM141.211 339.457C146.563 339.638 152.267 339.363 158.385 337.535L157.526 334.661C151.834 336.361 146.485 336.634 141.313 336.459L141.211 339.457ZM158.386 337.535C164.578 335.682 171.806 331.588 176.604 327.312L174.608 325.072C170.128 329.065 163.285 332.938 157.526 334.661L158.386 337.535ZM176.602 327.313C196.26 309.833 198.03 282.213 191.816 258.663L188.916 259.429C194.996 282.471 193.048 308.674 174.609 325.071L176.602 327.313ZM191.817 258.666C191.516 257.515 191.026 256.224 190.682 255.172C190.312 254.039 190.052 253.029 190.022 252.091L187.024 252.185C187.067 253.566 187.441 254.911 187.83 256.104C188.246 257.376 188.641 258.38 188.915 259.426L191.817 258.666ZM190.023 252.094C190.012 251.737 190.06 251.444 190.151 251.234L187.396 250.047C187.077 250.786 187.005 251.55 187.024 252.183L190.023 252.094ZM188.57 252.127C189.149 252.206 189.656 252.428 190.233 252.758C190.72 253.037 191.532 253.576 192.257 253.906L193.5 251.175C192.924 250.913 192.535 250.618 191.722 250.153C190.998 249.739 190.103 249.308 188.976 249.154L188.57 252.127ZM192.259 253.907C197.825 256.429 201.191 258.172 208.551 263.037L210.206 260.535C202.715 255.583 199.21 253.763 193.498 251.174L192.259 253.907ZM208.51 263.009C219.12 270.539 224.42 276.225 230.108 284.997L232.625 283.364C226.716 274.252 221.142 268.296 210.247 260.563L208.51 263.009ZM230.107 284.996C233.704 290.549 237.182 297.713 239.649 303.896L242.436 302.784C239.918 296.475 236.357 289.125 232.625 283.365L230.107 284.996ZM239.649 303.896C245.966 319.719 250.582 340.643 251.475 349.528L254.46 349.228C253.538 340.055 248.852 318.859 242.436 302.784L239.649 303.896ZM251.739 350.239L272.619 380.045L275.076 378.324L254.196 348.517L251.739 350.239ZM224.308 401.991C215.035 401.322 204.918 402.105 195.864 403.122L196.199 406.104C205.208 405.091 215.102 404.334 224.092 404.983L224.308 401.991ZM195.865 403.122C188.057 403.997 179.443 406.351 172.02 408.532L172.866 411.41C180.289 409.229 188.679 406.946 196.199 406.104L195.865 403.122ZM172.023 408.531C170.801 408.888 169.645 409.334 168.557 409.746C167.45 410.164 166.395 410.554 165.277 410.853L166.053 413.751C167.332 413.409 168.512 412.97 169.618 412.552C170.741 412.127 171.776 411.728 172.863 411.411L172.023 408.531ZM165.315 410.844C164.598 411.016 163.923 411.161 163.309 411.391C162.634 411.644 162.044 411.987 161.356 412.528L163.21 414.887C163.706 414.497 164.029 414.325 164.361 414.201C164.753 414.054 165.178 413.962 166.015 413.761L165.315 410.844ZM161.827 412.278C159.075 413.156 154.68 414.982 150.322 416.907L151.535 419.651C155.898 417.723 160.158 415.96 162.739 415.137L161.827 412.278ZM150.323 416.907C146.647 418.529 142.732 420.116 140.082 421.157L141.179 423.949C143.852 422.899 147.808 421.296 151.534 419.652L150.323 416.907ZM140.084 421.157C133.99 423.543 127.617 425.797 121.246 427.903L122.188 430.752C128.596 428.633 135.022 426.361 141.178 423.95L140.084 421.157ZM121.246 427.903C108.253 432.202 95.7967 434.71 78.4278 433.696L78.253 436.691C96.0717 437.731 108.91 435.145 122.188 430.752L121.246 427.903ZM78.4282 433.697C75.6666 433.535 72.1237 433.332 69.436 432.912L68.9731 435.876C71.8348 436.323 75.5397 436.532 78.2526 436.691L78.4282 433.697ZM67.7508 434.025L64.7246 445.934L67.6322 446.673L70.6584 434.764L67.7508 434.025ZM66.1244 447.803C67.4213 447.849 68.5887 447.728 69.7173 447.572C70.8793 447.411 71.9108 447.228 73.1522 447.099L72.8416 444.115C71.5396 444.25 70.3319 444.458 69.3056 444.6C68.2458 444.747 67.2756 444.842 66.2324 444.805L66.1244 447.803ZM73.1514 447.099C76.3492 446.768 80.1541 446.544 84.039 445.972L83.6017 443.004C79.7896 443.565 76.2317 443.764 72.8424 444.115L73.1514 447.099ZM84.0399 445.971C90.733 444.981 98.1262 444.042 105.465 442.428L104.82 439.498C97.6148 441.082 90.3761 442.001 83.6008 443.004L84.0399 445.971ZM105.466 442.427C120.409 439.127 135.32 434.512 145.635 431.452L144.781 428.576C134.418 431.65 119.632 436.227 104.819 439.498L105.466 442.427ZM145.636 431.451C152.216 429.493 158.653 427.213 165.021 425.03C171.406 422.843 177.738 420.748 184.189 419.124L183.457 416.215C176.875 417.872 170.442 420.002 164.049 422.192C157.639 424.389 151.285 426.64 144.78 428.576L145.636 431.451ZM184.19 419.124C194.265 416.583 208.368 414.382 218.801 413.941L218.674 410.944C208.014 411.394 193.707 413.63 183.456 416.215L184.19 419.124ZM218.802 413.941C229.046 413.504 234.794 414.177 239.111 414.971C243.377 415.756 246.634 416.76 251.437 416.869L251.506 413.87C247.021 413.768 244.258 412.867 239.653 412.021C235.099 411.183 229.124 410.498 218.674 410.944L218.802 413.941ZM252.848 415.965L254.02 413.254L251.266 412.064L250.094 414.775L252.848 415.965ZM253.405 411.367C248.642 408.559 245.402 406.497 242.137 405.322L241.122 408.145C244.043 409.196 246.941 411.039 251.881 413.951L253.405 411.367ZM242.135 405.322C237.243 403.569 233.205 402.634 224.308 401.991L224.092 404.983C232.783 405.611 236.543 406.505 241.124 408.146L242.135 405.322ZM6.80624 325.053C1.1972 293.676 1.15718 263.908 5.55558 230.82L2.58174 230.425C-1.85084 263.77 -1.81867 293.853 3.85306 325.581L6.80624 325.053ZM5.55551 230.82C6.90918 220.666 9.69139 210.074 11.9643 199.939L9.03703 199.283C6.79818 209.265 3.95875 220.095 2.58182 230.424L5.55551 230.82ZM11.9641 199.94C12.5368 197.394 13.4347 194.63 14.3841 191.719C15.3242 188.836 16.3115 185.816 17.0084 182.868L14.0889 182.178C13.4258 184.983 12.4802 187.88 11.5319 190.789C10.5927 193.669 9.64667 196.572 9.03724 199.282L11.9641 199.94ZM16.9216 183.127L17.8671 180.978L15.1211 179.77L14.1757 181.918L16.9216 183.127ZM17.9778 180.594C18.3809 177.879 19.9957 174.071 21.9647 169.476L19.2072 168.295C17.309 172.724 15.4845 176.96 15.0103 180.153L17.9778 180.594ZM21.9648 169.476C34.6461 139.87 48.1569 116.87 65.2111 95.57L62.8693 93.695C45.6212 115.237 31.9784 138.478 19.2071 168.295L21.9648 169.476ZM65.2113 95.5699C81.388 75.3605 97.6455 60.9224 118.702 46.082L116.974 43.6298C95.7313 58.6013 79.2537 73.2263 62.8692 93.6951L65.2113 95.5699ZM118.79 46.0152C125.873 40.2001 136.644 34.1601 147.907 28.7194C159.145 23.2908 170.773 18.5057 179.502 15.1849L178.435 12.381C169.649 15.7236 157.937 20.5423 146.602 26.0181C135.291 31.4818 124.255 37.6466 116.886 43.6965L118.79 46.0152ZM179.502 15.1851C195.379 9.14923 211.145 7.01111 227.967 3.88057L227.419 0.931201C210.784 4.02675 194.639 6.22126 178.436 12.3809L179.502 15.1851ZM227.968 3.88048C232.35 3.06359 241.826 2.31 251.231 1.87742C260.655 1.44399 269.75 1.34525 273.4 1.78501L273.759 -1.19346C269.817 -1.66836 260.466 -1.55048 251.093 -1.11941C241.702 -0.687487 232.031 0.0713096 227.418 0.931286L227.968 3.88048ZM272.357 1.16478C280.768 12.9991 284.59 18.6686 286.497 21.6144C287.447 23.082 287.921 23.8738 288.26 24.4302C288.611 25.0068 288.842 25.3729 289.28 25.9285L291.636 24.0707C291.308 23.6547 291.15 23.4072 290.822 22.8698C290.483 22.3123 289.99 21.4897 289.015 19.9844C287.074 16.9841 283.222 11.2733 274.802 -0.573231L272.357 1.16478ZM289.282 25.9313C290.67 27.6814 294.041 31.7712 315.513 52.2569L317.584 50.0863C296.097 29.5862 292.873 25.6313 291.634 24.0679L289.282 25.9313ZM315.514 52.2581C325.054 61.3383 336.389 68.5046 346.728 76.3901L348.547 74.0047C337.913 65.8944 326.972 59.0225 317.583 50.0851L315.514 52.2581ZM346.727 76.3897C352.812 81.0351 358.807 85.4602 363.654 90.9273L365.899 88.9371C360.816 83.2036 354.549 78.5865 348.548 74.0051L346.727 76.3897ZM363.654 90.9265C368.464 96.3597 371.49 102.512 372.92 109.649L375.862 109.059C374.329 101.412 371.068 94.7747 365.9 88.9378L363.654 90.9265ZM372.92 109.649C376.729 128.66 370.779 147.643 355.287 159.283L357.089 161.682C373.628 149.255 379.865 129.044 375.862 109.059L372.92 109.649ZM355.287 159.283C345.984 166.271 335.33 169.155 323.808 168.551L323.651 171.547C335.81 172.184 347.173 169.13 357.089 161.682L355.287 159.283ZM323.808 168.551C310.165 167.838 304.006 166.209 291.63 163.907L291.081 166.857C303.355 169.139 309.76 170.821 323.651 171.547L323.808 168.551ZM289.921 165.82L306.355 219.652L309.224 218.777L292.79 164.944L289.921 165.82ZM306.787 220.33C314.601 227.353 325.514 228.649 335.317 227.203L334.879 224.235C325.537 225.613 315.68 224.288 308.792 218.099L306.787 220.33ZM335.317 227.203C341.584 226.279 345.891 224.828 349.73 223.204C353.642 221.549 356.723 219.887 361.059 218.303L360.03 215.485C355.653 217.084 352.133 218.93 348.561 220.441C344.917 221.982 340.857 223.353 334.88 224.235L335.317 227.203ZM361.281 218.201C362.411 217.564 363.203 217.056 364.166 216.558L362.787 213.893C361.782 214.414 360.75 215.056 359.808 215.588L361.281 218.201ZM364.169 216.557C364.917 216.168 365.663 215.862 366.604 215.422L365.332 212.705C364.564 213.064 363.596 213.473 362.785 213.895L364.169 216.557ZM367.439 214.359C367.769 212.718 366.905 211.237 366.186 210.203L363.723 211.917C364.429 212.932 364.558 213.467 364.498 213.768L367.439 214.359ZM366.407 210.686C361.519 191.719 358.304 175.801 368.745 158.942L366.195 157.362C355.021 175.404 358.621 192.496 363.502 211.434L366.407 210.686ZM368.745 158.942C370.223 156.558 372.113 154.304 374.056 152.117L371.814 150.124C369.85 152.334 367.816 154.747 366.195 157.361L368.745 158.942ZM374.057 152.116C382.19 142.952 391.466 137.761 403.562 136.304L403.203 133.325C390.321 134.877 380.392 140.458 371.813 150.125L374.057 152.116ZM403.56 136.304C421.129 134.205 439.328 139.163 453.391 149.935L455.215 147.554C440.529 136.304 421.547 131.134 403.204 133.325L403.56 136.304ZM453.384 149.929C454.289 150.632 456.366 152.27 458.37 154.059L460.368 151.822C458.288 149.964 456.147 148.277 455.223 147.56L453.384 149.929ZM458.37 154.06C467.176 161.916 474.755 170.733 482.981 179.486L485.167 177.431C477.06 168.806 469.304 159.795 460.367 151.821L458.37 154.06ZM482.981 179.486C498.55 196.057 516.147 211.166 536.051 222.348L537.52 219.732C517.957 208.742 500.595 193.852 485.167 177.432L482.981 179.486ZM536.05 222.347C538.028 223.46 539.556 224.417 540.338 225.003L542.139 222.604C541.193 221.894 539.523 220.858 537.521 219.732L536.05 222.347ZM540.33 224.997C540.402 225.052 540.444 225.105 540.467 225.137C540.478 225.154 540.486 225.167 540.491 225.176C540.494 225.182 540.496 225.187 540.502 225.199C540.504 225.201 540.511 225.216 540.517 225.228C540.521 225.234 540.542 225.276 540.57 225.323L543.143 223.78C543.175 223.833 543.204 223.893 543.177 223.84C543.168 223.821 543.15 223.788 543.128 223.747C543.083 223.664 543.02 223.555 542.935 223.432C542.765 223.186 542.513 222.889 542.147 222.61L540.33 224.997ZM540.827 223.461C540.225 224.029 539.437 224.558 538.46 225.17C537.518 225.759 536.397 226.427 535.318 227.207L537.074 229.638C538.048 228.935 539.036 228.348 540.051 227.713C541.03 227.1 542.047 226.435 542.886 225.642L540.827 223.461ZM535.317 227.207C505.096 249.063 488.698 269.263 466.668 297.67L469.039 299.508C491.035 271.145 507.218 251.231 537.075 229.638L535.317 227.207ZM466.668 297.669C458.653 307.997 451.94 317.247 441.804 325.24L443.661 327.596C454.15 319.325 461.106 309.729 469.038 299.509L466.668 297.669ZM441.803 325.24C426.878 337.016 406.531 342.631 388.53 335.675L387.449 338.473C406.703 345.914 428.152 339.831 443.662 327.596L441.803 325.24ZM388.531 335.675C385.504 334.503 382.643 333.335 380.127 331.625L378.441 334.107C381.274 336.032 384.433 337.305 387.448 338.473L388.531 335.675ZM380.128 331.626C366.187 322.133 359.071 310.557 355.764 297.104L352.851 297.82C356.326 311.959 363.859 324.177 378.44 334.106L380.128 331.626ZM355.764 297.104C354.846 293.362 354.861 289.342 354.973 284.943L351.974 284.867C351.863 289.239 351.825 293.637 352.851 297.819L355.764 297.104ZM354.973 284.941C355.099 279.641 355.433 274.1 356.324 268.463L353.361 267.995C352.441 273.812 352.101 279.498 351.974 284.87L354.973 284.941ZM356.324 268.463C356.82 265.331 359.088 258.038 360.319 254.699L357.504 253.661C356.261 257.035 353.905 264.556 353.361 267.994L356.324 268.463ZM358.708 252.694C354.94 253.209 350.564 254.674 346.046 257.45L347.616 260.006C351.803 257.433 355.785 256.122 359.115 255.666L358.708 252.694ZM346.047 257.449C341.191 260.427 335.399 264.488 330.669 269.19L332.783 271.317C337.285 266.843 342.862 262.921 347.615 260.007L346.047 257.449ZM330.668 269.19C318.595 281.196 313.01 292.971 306.47 307.834L309.216 309.042C315.736 294.224 321.137 282.899 332.784 271.317L330.668 269.19ZM306.42 307.963C305.92 309.463 304.931 312.395 303.685 316.117L306.53 317.07C307.771 313.362 308.766 310.41 309.266 308.912L306.42 307.963ZM303.685 316.117C302.833 318.658 301.662 321.787 300.977 325.046L303.913 325.663C304.551 322.627 305.632 319.746 306.529 317.07L303.685 316.117ZM300.977 325.047C299.686 331.205 298.304 337.812 297.096 342.959L300.017 343.644C301.234 338.455 302.625 331.807 303.913 325.662L300.977 325.047ZM297.096 342.959C296.462 345.657 295.853 348.08 295.475 349.726C295.285 350.557 295.134 351.272 295.059 351.796C295.023 352.043 294.991 352.336 295.003 352.606C295.009 352.727 295.028 352.975 295.137 353.243C295.25 353.521 295.597 354.106 296.37 354.217L296.795 351.247C297.518 351.351 297.828 351.899 297.915 352.111C297.961 352.224 297.98 352.317 297.989 352.365C297.997 352.417 298 352.453 298 352.467C298.001 352.493 297.998 352.432 298.028 352.223C298.084 351.834 298.209 351.227 298.4 350.396C298.784 348.718 299.357 346.454 300.017 343.644L297.096 342.959ZM296.369 354.216C296.73 354.268 297.009 354.175 297.103 354.141C297.226 354.096 297.319 354.045 297.369 354.016C297.471 353.956 297.55 353.895 297.591 353.862C297.681 353.791 297.771 353.709 297.843 353.64C297.995 353.497 298.19 353.3 298.408 353.077C298.629 352.851 298.891 352.579 299.181 352.28C299.471 351.978 299.793 351.645 300.14 351.291C301.532 349.864 303.291 348.117 304.942 346.736L303.018 344.435C301.243 345.919 299.396 347.758 297.993 349.195C297.64 349.556 297.314 349.894 297.022 350.196C296.73 350.499 296.475 350.763 296.262 350.981C296.045 351.203 295.887 351.361 295.783 351.459C295.728 351.512 295.713 351.523 295.726 351.513C295.728 351.511 295.775 351.472 295.852 351.428C295.889 351.406 295.971 351.36 296.085 351.319C296.169 351.288 296.441 351.196 296.796 351.247L296.369 354.216ZM304.941 346.737C306.407 345.513 309.383 344.023 312.668 342.678C315.906 341.352 319.227 340.253 321.236 339.762L320.523 336.847C318.328 337.384 314.861 338.538 311.531 339.902C308.249 341.246 304.877 342.882 303.019 344.434L304.941 346.737ZM321.354 339.727C325.894 338.213 331.115 337.387 336.531 337.387V334.387C330.821 334.387 325.277 335.256 320.405 336.882L321.354 339.727ZM336.53 337.387C342.651 337.389 349.045 338.432 355.002 339.909L355.724 336.997C349.619 335.484 342.972 334.39 336.531 334.387L336.53 337.387ZM355.001 339.909C359.613 341.053 368.226 343.785 375.787 347.438L377.092 344.736C369.308 340.976 360.492 338.18 355.724 336.997L355.001 339.909ZM375.787 347.437C385.297 352.039 395.295 357.939 404.801 363.834L406.382 361.284C396.851 355.374 386.748 349.408 377.093 344.737L375.787 347.437ZM404.801 363.834C410.991 367.671 417.538 371.245 423.395 374.714L424.924 372.133C418.913 368.572 412.566 365.118 406.381 361.284L404.801 363.834ZM423.391 374.712C438.63 383.808 448.07 381.602 464.692 381.504L464.674 378.504C447.638 378.604 439.269 380.696 424.929 372.136L423.391 374.712ZM463.227 380.364L466.503 393.611L469.415 392.891L466.139 379.644L463.227 380.364ZM468.061 391.754L445.122 390.191L444.918 393.184L467.857 394.747L468.061 391.754ZM445.142 390.192C441.65 389.908 435.812 388.915 429.983 387.617C424.137 386.314 418.462 384.741 415.248 383.334L414.046 386.083C417.546 387.614 423.465 389.238 429.331 390.545C435.214 391.855 441.206 392.882 444.899 393.183L445.142 390.192ZM415.192 383.311C408.419 380.67 401.837 376.45 394.553 372.472L393.115 375.105C400.137 378.94 407.091 383.372 414.102 386.106L415.192 383.311ZM394.552 372.472C390.169 370.082 385.465 367.806 380.961 366.073L379.884 368.873C384.232 370.545 388.813 372.759 393.116 375.106L394.552 372.472ZM380.961 366.074C372.501 362.813 361.576 358.816 351.112 356.69L350.515 359.629C360.711 361.702 371.43 365.616 379.883 368.873L380.961 366.074ZM351.113 356.69C344.334 355.309 337.685 354.849 332.091 355.351L332.359 358.339C337.609 357.868 343.961 358.295 350.514 359.629L351.113 356.69ZM332.076 355.352C329.287 355.63 325.29 356.556 321.702 357.647L322.574 360.517C326.076 359.453 329.862 358.587 332.373 358.338L332.076 355.352ZM321.704 357.646C319.701 358.253 317.577 358.917 315.999 359.749L317.398 362.403C318.676 361.729 320.51 361.142 322.573 360.518L321.704 357.646ZM316.064 359.716C315.481 359.989 313.447 360.895 311.8 361.667C310.928 362.076 310.062 362.495 309.361 362.86C309.011 363.042 308.688 363.219 308.418 363.381C308.185 363.521 307.876 363.717 307.646 363.942L309.744 366.086C309.697 366.132 309.73 366.092 309.963 365.953C310.159 365.835 310.423 365.689 310.747 365.52C311.393 365.184 312.215 364.787 313.074 364.383C314.891 363.532 316.493 362.827 317.332 362.435L316.064 359.716ZM308.047 363.661C301.811 366.646 291.397 374.875 284.876 383.46L287.265 385.275C293.528 377.03 303.579 369.126 309.343 366.367L308.047 363.661ZM284.875 383.461C282.943 386.01 281.375 388.578 280.265 391.104L283.011 392.311C284.008 390.045 285.443 387.678 287.266 385.274L284.875 383.461ZM280.263 391.107C279.672 392.46 279.258 393.83 279.057 395.201L282.025 395.636C282.182 394.565 282.512 393.453 283.012 392.308L280.263 391.107ZM279.057 395.203C278.997 395.613 278.809 396.493 278.914 397.328L281.89 396.951C281.851 396.643 281.919 396.369 282.026 395.633L279.057 395.203ZM278.902 397.139C278.902 397.417 278.98 397.624 279.005 397.686C279.039 397.775 279.075 397.844 279.096 397.881C279.138 397.956 279.179 398.014 279.199 398.042C279.243 398.104 279.288 398.158 279.319 398.195C279.385 398.275 279.467 398.365 279.552 398.455C279.725 398.64 279.957 398.873 280.213 399.112C280.467 399.349 280.762 399.607 281.058 399.833C281.327 400.038 281.704 400.301 282.107 400.452L283.161 397.643C283.188 397.653 283.098 397.616 282.878 397.448C282.686 397.301 282.469 397.114 282.259 396.918C282.051 396.724 281.866 396.537 281.738 396.401C281.673 396.332 281.633 396.286 281.616 396.266C281.605 396.253 281.617 396.266 281.639 396.297C281.648 396.31 281.68 396.355 281.717 396.42C281.735 396.452 281.769 396.516 281.802 396.601C281.825 396.66 281.902 396.864 281.902 397.139H278.902ZM282.108 400.452C282.683 400.668 283.286 400.647 283.822 400.39C284.297 400.161 284.598 399.804 284.772 399.557C284.951 399.301 285.076 399.043 285.146 398.894C285.192 398.795 285.202 398.773 285.222 398.732C285.252 398.669 285.21 398.771 285.114 398.892L282.765 397.026C282.684 397.127 282.629 397.221 282.601 397.271C282.569 397.327 282.543 397.38 282.524 397.418C282.495 397.479 282.448 397.581 282.431 397.618C282.373 397.741 282.339 397.802 282.317 397.833C282.288 397.873 282.346 397.771 282.521 397.686C282.62 397.639 282.74 397.605 282.871 397.6C283.001 397.596 283.101 397.621 283.16 397.643L282.108 400.452ZM285.12 398.883C285.494 398.406 285.798 397.918 286.064 397.477C286.342 397.015 286.562 396.63 286.824 396.237L284.325 394.576C284.014 395.044 283.732 395.533 283.493 395.931C283.241 396.349 283.014 396.707 282.758 397.035L285.12 398.883ZM286.821 396.241C292.035 388.45 300.727 379.311 308.702 374.705L307.201 372.108C298.715 377.009 289.712 386.527 284.328 394.572L286.821 396.241ZM308.701 374.706C314.627 371.286 320.722 368.294 327.157 366.964L326.55 364.026C319.638 365.454 313.209 368.64 307.202 372.107L308.701 374.706ZM327.157 366.964C337.849 364.756 350.677 365.364 362.726 368.568L363.497 365.669C351.07 362.364 337.766 361.71 326.55 364.026L327.157 366.964ZM362.727 368.569C372.714 371.22 383.178 376.031 392.298 380.839L393.697 378.185C384.502 373.338 373.806 368.406 363.497 365.669L362.727 368.569ZM392.297 380.839C394.824 382.173 399.802 385.063 404.472 387.159L405.7 384.422C401.145 382.378 396.391 379.608 393.698 378.186L392.297 380.839ZM404.472 387.159C408.065 388.77 411.652 390.381 415.248 391.997L416.477 389.26C412.881 387.645 409.293 386.033 405.7 384.422L404.472 387.159ZM415.491 392.082C417.25 392.531 418.979 393.168 420.801 393.876C422.601 394.576 424.51 395.352 426.519 396.018L427.463 393.171C425.548 392.536 423.745 391.802 421.888 391.08C420.052 390.367 418.179 389.672 416.233 389.175L415.491 392.082ZM426.517 396.018C431.381 397.635 436.708 398.86 441.64 399.953L442.289 397.024C437.351 395.93 432.164 394.734 427.464 393.171L426.517 396.018ZM441.639 399.953C451.32 402.106 460.9 402.41 469.849 402.376L469.837 399.376C460.946 399.41 451.636 399.103 442.29 397.024L441.639 399.953ZM468.387 401.236L475.164 428.622L478.076 427.901L471.299 400.515L468.387 401.236ZM476.611 426.762L440.493 426.989L440.511 429.989L476.63 429.762L476.611 426.762ZM440.633 426.995C435.736 426.564 429.348 424.543 421.975 422.06L421.017 424.903C428.303 427.357 435.049 429.515 440.371 429.983L440.633 426.995ZM421.976 422.06C415.288 419.801 407.98 417.299 401.629 414.416L400.389 417.147C406.898 420.103 414.348 422.65 421.016 424.902L421.976 422.06ZM401.629 414.416C394.88 411.35 388.895 407.981 384.586 405.457L383.07 408.046C387.416 410.592 393.503 414.019 400.388 417.147L401.629 414.416ZM384.586 405.457C376.373 400.649 370.013 397.213 362.764 394.846L361.833 397.697C368.754 399.957 374.878 403.25 383.07 408.046L384.586 405.457ZM362.765 394.846C356.396 392.765 349.061 391.503 343.592 390.901L343.264 393.883C348.61 394.472 355.725 395.702 361.833 397.697L362.765 394.846ZM343.593 390.901C337.687 390.248 335.38 390.564 327.424 390.766L327.499 393.765C335.612 393.56 337.62 393.259 343.263 393.883L343.593 390.901ZM327.47 390.765C325.606 390.755 323.655 390.738 322.017 390.64C321.198 390.591 320.488 390.523 319.924 390.432C319.316 390.334 319.031 390.231 318.955 390.189C318.919 390.169 319.093 390.249 319.229 390.506C319.407 390.841 319.379 391.2 319.279 391.435C319.208 391.602 319.133 391.636 319.237 391.546C319.324 391.471 319.489 391.351 319.767 391.191C320.915 390.528 323.266 389.577 327.387 388.265L326.477 385.407C322.358 386.718 319.726 387.751 318.268 388.592C317.895 388.807 317.556 389.034 317.276 389.276C317.011 389.505 316.702 389.828 316.518 390.261C316.306 390.762 316.286 391.36 316.58 391.913C316.831 392.387 317.227 392.662 317.507 392.816C318.063 393.122 318.784 393.286 319.445 393.393C320.15 393.507 320.971 393.583 321.838 393.635C323.571 393.739 325.603 393.755 327.453 393.765L327.47 390.765ZM327.387 388.266C331.118 387.079 336.346 386.307 341.726 386.028C347.1 385.749 352.501 385.968 356.563 386.702L357.097 383.75C352.737 382.962 347.09 382.745 341.57 383.032C336.056 383.318 330.546 384.113 326.477 385.407L327.387 388.266ZM356.834 386.726C356.749 386.726 356.77 386.716 357.004 386.768C357.195 386.811 357.456 386.878 357.784 386.971C358.439 387.156 359.305 387.425 360.323 387.756C362.355 388.418 364.939 389.309 367.529 390.223C372.716 392.052 377.873 393.95 378.612 394.238L379.702 391.443C378.914 391.136 373.717 389.224 368.527 387.393C365.929 386.477 363.319 385.576 361.251 384.904C360.219 384.568 359.31 384.284 358.599 384.084C358.245 383.984 357.925 383.9 357.657 383.84C357.431 383.79 357.113 383.725 356.825 383.726L356.834 386.726ZM378.926 394.322C380.178 394.517 382.521 395.308 385.096 396.259C387.567 397.172 390.223 398.221 391.822 398.778L392.809 395.945C391.226 395.393 388.733 394.404 386.135 393.445C383.641 392.524 380.996 391.608 379.388 391.358L378.926 394.322ZM391.822 398.778C404.331 403.132 417.724 408.247 430.784 411.021L431.408 408.087C418.587 405.363 405.45 400.345 392.808 395.945L391.822 398.778ZM430.784 411.021C433.087 411.511 435.141 412.1 437.158 412.151L437.235 409.152C435.585 409.11 434.02 408.643 431.408 408.087L430.784 411.021ZM437.205 412.152C441.462 412.127 445.509 412.847 450.366 411.121L449.362 408.294C445.142 409.794 442.048 409.123 437.188 409.152L437.205 412.152ZM450.234 408.254C441.065 405.922 432.244 404.405 423.899 401.604L422.944 404.448C431.41 407.29 440.651 408.912 449.494 411.162L450.234 408.254ZM423.899 401.604C420.57 400.487 417.185 399.605 414.206 398.32L413.018 401.075C416.141 402.422 419.895 403.425 422.945 404.448L423.899 401.604ZM414.205 398.32C412.979 397.792 411.749 397.296 410.55 396.816C409.345 396.333 408.176 395.867 407.045 395.39L405.878 398.154C407.041 398.644 408.24 399.122 409.434 399.6C410.633 400.081 411.831 400.564 413.019 401.075L414.205 398.32ZM407.043 395.389C395.061 390.348 382.197 384.724 369.405 380.219L368.409 383.049C381.092 387.515 393.84 393.089 405.88 398.154L407.043 395.389ZM369.406 380.22C363.324 378.075 357.286 375.844 351.227 374.648L350.646 377.591C356.442 378.735 362.239 380.874 368.409 383.049L369.406 380.22ZM351.227 374.648C340.636 372.558 330.094 372.492 319.542 376.13L320.519 378.966C330.443 375.545 340.424 375.574 350.646 377.591L351.227 374.648ZM319.542 376.13C308.63 379.892 299.419 385.397 292.036 392.776L294.157 394.897C301.173 387.885 309.975 382.601 320.52 378.966L319.542 376.13ZM292.022 392.79C290.641 394.207 289.388 395.505 288.138 396.801C286.886 398.098 285.638 399.392 284.262 400.804L286.411 402.897C287.792 401.479 289.046 400.18 290.296 398.884C291.547 397.588 292.796 396.294 294.171 394.883L292.022 392.79ZM283.837 401.88C283.92 406.147 284.755 409.628 286.658 412.12C288.611 414.677 291.506 415.963 295.167 416.188L295.351 413.193C292.324 413.007 290.339 411.997 289.043 410.3C287.697 408.537 286.914 405.804 286.836 401.821L283.837 401.88ZM295.986 416.002C298.104 414.827 299.954 413.622 301.646 412.523C303.354 411.414 304.88 410.428 306.429 409.623L305.045 406.961C303.346 407.844 301.699 408.912 300.012 410.007C298.309 411.112 296.544 412.262 294.531 413.379L295.986 416.002ZM306.43 409.622C307.547 409.04 309.865 408.175 312.333 407.349C314.773 406.532 317.218 405.8 318.524 405.477L317.801 402.565C316.385 402.916 313.855 403.676 311.381 404.504C308.936 405.322 306.401 406.254 305.044 406.962L306.43 409.622ZM318.526 405.476C326.849 403.398 332.743 402.911 341.282 403.068L341.337 400.069C332.587 399.907 326.424 400.412 317.799 402.565L318.526 405.476ZM341.281 403.068C352.161 403.275 362.201 405.573 371.593 409.132L372.656 406.326C362.996 402.666 352.616 400.284 341.338 400.069L341.281 403.068ZM371.592 409.131C378.802 411.868 385.392 415.418 392.73 418.744L393.968 416.012C386.889 412.802 379.967 409.101 372.657 406.326L371.592 409.131ZM392.73 418.744C398.981 421.578 405.508 424.234 412.165 426.646L413.187 423.825C406.602 421.439 400.147 418.813 393.968 416.012L392.73 418.744ZM412.218 426.664C426.472 431.23 434.623 433.499 449.191 436.046L449.708 433.091C435.315 430.575 427.303 428.346 413.133 423.807L412.218 426.664ZM449.191 436.046C458.002 437.585 469.744 437.029 478.407 436.87L478.353 433.871C469.49 434.033 458.152 434.566 449.707 433.091L449.191 436.046ZM476.924 435.73L479.423 445.844L482.335 445.124L479.836 435.011L476.924 435.73ZM480.816 443.985C473.881 444.28 463.688 443.206 454.033 442.036L453.672 445.014C463.276 446.178 473.719 447.289 480.943 446.982L480.816 443.985ZM454.034 442.036C441.669 440.534 430.203 439.181 418.078 436.709L417.479 439.648C429.743 442.148 441.333 443.515 453.672 445.014L454.034 442.036ZM418.11 436.716C410.914 435.085 400.961 433.384 390.76 430.705L389.998 433.607C400.224 436.292 410.506 438.068 417.447 439.642L418.11 436.716ZM390.761 430.705C382.332 428.487 370.94 425.226 360.401 422.561L359.666 425.469C370.222 428.139 381.441 431.355 389.997 433.606L390.761 430.705ZM360.402 422.561C346.63 419.072 328.231 416.096 314.036 416.363L314.092 419.362C327.925 419.102 346.04 422.017 359.665 425.469L360.402 422.561ZM314.036 416.363C309.217 416.452 304.401 417.061 299.155 417.549L299.433 420.537C304.813 420.036 309.422 419.449 314.092 419.362L314.036 416.363ZM298.052 418.203C296.876 419.941 296.073 422.031 295.267 423.879L298.016 425.079C298.908 423.036 299.562 421.325 300.537 419.883L298.052 418.203ZM295.268 423.876C293.044 428.947 290.537 434.316 286.513 437.907L288.511 440.146C293.093 436.056 295.823 430.078 298.015 425.081L295.268 423.876ZM286.558 437.869C284.007 439.971 281.42 441.577 277.539 442.724L278.39 445.601C282.73 444.318 285.668 442.489 288.466 440.184L286.558 437.869ZM277.54 442.724C271.914 444.385 267.803 443.726 264.173 441.978L262.872 444.681C267.174 446.753 272.052 447.473 278.389 445.601L277.54 442.724ZM264.174 441.978C261.212 440.55 258.466 438.477 256.296 435.741L253.945 437.605C256.424 440.731 259.543 443.076 262.871 444.681L264.174 441.978ZM256.295 435.74C253.399 432.092 251.126 427.567 248.493 423L245.894 424.498C248.401 428.847 250.865 433.725 253.946 437.606L256.295 435.74ZM246.95 422.269C238.873 423.596 206.229 428.58 175.614 434.003L176.137 436.957C206.732 431.538 239.304 426.565 247.437 425.229L246.95 422.269ZM175.614 434.003C164.437 435.985 151.242 437.927 138.449 440.279L138.991 443.23C151.891 440.858 164.721 438.982 176.138 436.957L175.614 434.003ZM138.448 440.279C123.102 443.109 105.939 446.136 92.428 448.22L92.8853 451.185C106.44 449.094 123.636 446.061 138.992 443.229L138.448 440.279ZM92.4288 448.22C85.2779 449.319 79.1516 450.24 74.8231 450.897L75.2733 453.863C79.5966 453.207 85.7299 452.285 92.8845 451.185L92.4288 448.22ZM74.8219 450.897L64.1215 452.53L64.574 455.495L75.2744 453.863L74.8219 450.897ZM63.2225 455.004L75.4794 468.91L77.73 466.927L65.4731 453.021L63.2225 455.004ZM76.8492 469.398C109.07 464.074 145.776 458.067 178.028 452.335L177.503 449.381C145.274 455.109 108.59 461.113 76.3602 466.438L76.8492 469.398ZM178.028 452.335C197.1 448.945 216.232 445.495 235.19 441.646L234.593 438.706C215.675 442.547 196.574 445.992 177.503 449.381L178.028 452.335ZM233.961 441.353C234.515 441.791 235.224 442.562 236.093 443.63C236.949 444.682 237.881 445.922 238.901 447.256C240.899 449.872 243.224 452.845 245.615 454.877L247.558 452.591C245.452 450.802 243.316 448.093 241.284 445.435C240.289 444.131 239.314 442.835 238.42 441.736C237.539 440.654 236.654 439.659 235.822 439L233.961 441.353ZM245.582 454.848C251.097 459.825 256.858 463.516 263.64 464.634L264.127 461.674C258.154 460.689 252.908 457.419 247.592 452.621L245.582 454.848ZM263.64 464.634C267.062 465.197 270.486 465.761 273.911 466.322L274.396 463.361C270.972 462.801 267.551 462.237 264.127 461.674L263.64 464.634ZM275.653 464.852L275.786 446.753L272.786 446.731L272.653 464.83L275.653 464.852ZM274.735 448.173C275.77 447.848 276.76 447.611 277.732 447.392C278.685 447.178 279.668 446.973 280.586 446.727L279.811 443.829C278.97 444.054 278.091 444.237 277.074 444.465C276.077 444.689 274.991 444.949 273.836 445.311L274.735 448.173ZM280.586 446.727C285.002 445.548 288.522 443.769 291.712 441.574L290.011 439.103C287.069 441.128 283.858 442.748 279.812 443.829L280.586 446.727ZM291.713 441.574C295.37 439.055 298.585 435.926 301.076 432.112L298.564 430.472C296.313 433.919 293.388 436.778 290.011 439.103L291.713 441.574ZM301.075 432.114C302.524 429.901 303.501 427.549 304.648 425.106L301.932 423.831C300.707 426.44 299.862 428.489 298.565 430.47L301.075 432.114ZM303.148 425.961L311.695 426.772L311.978 423.785L303.432 422.975L303.148 425.961ZM311.597 426.759C368.755 435.986 425.755 445.852 482.798 455.755L483.311 452.799C426.269 442.896 369.253 433.027 312.075 423.798L311.597 426.759ZM481.599 454.638L485.249 469.383L488.162 468.662L484.511 453.917L481.599 454.638ZM486.857 467.531C479.633 466.797 472.47 465.412 464.912 464.21L464.441 467.173C471.867 468.354 479.218 469.77 486.554 470.515L486.857 467.531ZM464.912 464.211C452.525 462.237 439.716 460.189 426.845 458.004L426.343 460.962C439.231 463.15 452.054 465.2 464.44 467.173L464.912 464.211ZM426.844 458.004C399.013 453.286 370.287 448.749 344.306 444.371L343.807 447.329C369.931 451.731 398.413 456.227 426.343 460.962L426.844 458.004ZM344.31 444.372C333.771 442.566 323.711 440.873 313.138 439.274L312.69 442.24C323.232 443.834 333.268 445.524 343.803 447.329L344.31 444.372ZM311.536 440.164C310.167 443.344 307.76 446.241 304.928 448.954L307.003 451.12C309.959 448.289 312.692 445.064 314.292 441.35L311.536 440.164ZM304.926 448.956C300.829 452.894 295.824 456.369 290.438 458.798L291.671 461.533C297.387 458.955 302.675 455.281 307.005 451.118L304.926 448.956ZM290.438 458.798C284.995 461.25 279.111 462.67 274.061 463.4L274.489 466.369C279.736 465.611 285.906 464.13 291.671 461.533L290.438 458.798ZM272.775 464.884L272.756 547.811L275.756 547.812L275.775 464.885L272.775 464.884ZM274.215 546.312C246.928 547.055 230.014 545.579 213.717 542.14L213.098 545.075C229.689 548.576 246.85 550.058 274.297 549.311L274.215 546.312ZM213.717 542.14C201.284 539.517 178.921 533.764 167.138 528.441L165.903 531.174C178.006 536.642 200.645 542.448 213.098 545.075L213.717 542.14ZM167.158 528.45C159.184 524.707 150.846 521.417 143.768 517.494L142.313 520.118C149.495 524.098 158.166 527.543 165.883 531.165L167.158 528.45ZM143.767 517.494C134.938 512.605 126.728 507.567 118.583 502.099L116.911 504.589C125.125 510.104 133.408 515.187 142.314 520.118L143.767 517.494ZM118.582 502.098C114.703 499.497 110.889 496.512 107.124 493.625L105.298 496.005C109.024 498.863 112.933 501.922 116.912 504.59L118.582 502.098ZM107.122 493.624C101.169 489.069 94.653 483.563 88.4824 477.661L86.4087 479.828C92.6635 485.811 99.2635 491.388 105.299 496.006L107.122 493.624ZM88.4816 477.66C86.6431 475.903 84.8903 474.047 83.0974 472.183C81.3171 470.331 79.5038 468.477 77.5975 466.794L75.6119 469.043C77.4177 470.637 79.1567 472.412 80.9347 474.262C82.7003 476.098 84.5118 478.016 86.4094 479.829L88.4816 477.66ZM76.3927 466.433L59.8821 468.791L60.3061 471.761L76.8167 469.403L76.3927 466.433ZM61.5453 470.655L65.799 454.392L62.8966 453.633L58.6429 469.896L61.5453 470.655ZM65.5114 453.066C63.9038 451.09 62.2952 449.094 60.6939 447.034L58.3255 448.876C59.9469 450.961 61.5718 452.977 63.1842 454.959L65.5114 453.066ZM60.6936 447.034C57.2726 442.637 53.8825 438.128 51.042 433.787L48.5316 435.43C51.4412 439.876 54.8923 444.463 58.3259 448.876L60.6936 447.034ZM51.0426 433.788C41.1578 418.658 31.7512 401.884 24.6009 385.261L21.845 386.446C29.0779 403.261 38.5741 420.188 48.531 435.429L51.0426 433.788ZM24.6009 385.261C19.2875 372.909 14.8099 360.328 11.6908 347.283L8.77299 347.98C11.9415 361.232 16.482 373.979 21.845 386.446L24.6009 385.261ZM11.6906 347.282C10.397 341.881 7.71083 330.1 6.80611 325.053L3.85319 325.582C4.77511 330.725 7.48059 342.585 8.77314 347.981L11.6906 347.282Z" fill="#1D724E" mask="url(#path-1-inside-1_1_37)"/>
</svg>
