<svg width="48" height="48" viewBox="0 0 48 48" fill="none" xmlns="http://www.w3.org/2000/svg">
<g clip-path="url(#clip0_1_335)">
<path d="M12.0002 40.5C11.6024 40.5 11.2209 40.342 10.9396 40.0607C10.6583 39.7794 10.5002 39.3978 10.5002 39V30.9956C9.70003 31.3742 8.81709 31.5443 7.93351 31.4902C7.04993 31.436 6.19439 31.1592 5.44646 30.6857C4.69853 30.2121 4.08248 29.5572 3.6556 28.7816C3.22873 28.0061 3.00488 27.1352 3.00488 26.25C3.00488 25.3648 3.22873 24.4939 3.6556 23.7184C4.08248 22.9429 4.69853 22.2879 5.44646 21.8143C6.19439 21.3408 7.04993 21.064 7.93351 21.0098C8.81709 20.9557 9.70003 21.1258 10.5002 21.5044V13.5C10.5002 13.1022 10.6583 12.7206 10.9396 12.4393C11.2209 12.158 11.6024 12 12.0002 12H20.7546C20.3756 11.1998 20.2051 10.3167 20.259 9.43295C20.313 8.54917 20.5895 7.69338 21.063 6.94519C21.5365 6.197 22.1915 5.58072 22.9672 5.15367C23.7428 4.72662 24.6139 4.50269 25.4993 4.50269C26.3847 4.50269 27.2558 4.72662 28.0314 5.15367C28.807 5.58072 29.4621 6.197 29.9356 6.94519C30.409 7.69338 30.6856 8.54917 30.7395 9.43295C30.7935 10.3167 30.623 11.1998 30.244 12H39.0002C39.398 12 39.7796 12.158 40.0609 12.4393C40.3422 12.7206 40.5002 13.1022 40.5002 13.5V21.5044C39.7 21.1258 38.8171 20.9557 37.9335 21.0098C37.0499 21.064 36.1944 21.3408 35.4465 21.8143C34.6985 22.2879 34.0825 22.9429 33.6556 23.7184C33.2287 24.4939 33.0049 25.3648 33.0049 26.25C33.0049 27.1352 33.2287 28.0061 33.6556 28.7816C34.0825 29.5572 34.6985 30.2121 35.4465 30.6857C36.1944 31.1592 37.0499 31.436 37.9335 31.4902C38.8171 31.5443 39.7 31.3742 40.5002 30.9956V39C40.5002 39.3978 40.3422 39.7794 40.0609 40.0607C39.7796 40.342 39.398 40.5 39.0002 40.5H12.0002Z" fill="white" stroke="white" stroke-width="2" stroke-linecap="round" stroke-linejoin="round"/>
</g>
<defs>
<clipPath id="clip0_1_335">
<rect width="48" height="48" fill="white"/>
</clipPath>
</defs>
</svg>
