<svg width="22" height="22" viewBox="0 0 22 22" fill="none" xmlns="http://www.w3.org/2000/svg">
<g clip-path="url(#clip0_3_835)">
<path d="M5.5 8.9375H2.75C2.3703 8.9375 2.0625 9.2453 2.0625 9.625V12.375C2.0625 12.7547 2.3703 13.0625 2.75 13.0625H5.5C5.8797 13.0625 6.1875 12.7547 6.1875 12.375V9.625C6.1875 9.2453 5.8797 8.9375 5.5 8.9375Z" stroke="#000905" stroke-width="1.5" stroke-linecap="round" stroke-linejoin="round"/>
<path d="M18.5625 3.4375H14.4375C14.0578 3.4375 13.75 3.7453 13.75 4.125V8.25C13.75 8.6297 14.0578 8.9375 14.4375 8.9375H18.5625C18.9422 8.9375 19.25 8.6297 19.25 8.25V4.125C19.25 3.7453 18.9422 3.4375 18.5625 3.4375Z" stroke="#000905" stroke-width="1.5" stroke-linecap="round" stroke-linejoin="round"/>
<path d="M18.5625 13.0625H14.4375C14.0578 13.0625 13.75 13.3703 13.75 13.75V17.875C13.75 18.2547 14.0578 18.5625 14.4375 18.5625H18.5625C18.9422 18.5625 19.25 18.2547 19.25 17.875V13.75C19.25 13.3703 18.9422 13.0625 18.5625 13.0625Z" stroke="#000905" stroke-width="1.5" stroke-linecap="round" stroke-linejoin="round"/>
<path d="M6.1875 11H10.3125" stroke="#000905" stroke-width="1.5" stroke-linecap="round" stroke-linejoin="round"/>
<path d="M13.75 15.8125H12.375C11.828 15.8125 11.3034 15.5952 10.9166 15.2084C10.5298 14.8216 10.3125 14.297 10.3125 13.75V8.25C10.3125 7.70299 10.5298 7.17839 10.9166 6.79159C11.3034 6.4048 11.828 6.1875 12.375 6.1875H13.75" stroke="#000905" stroke-width="1.5" stroke-linecap="round" stroke-linejoin="round"/>
</g>
<defs>
<clipPath id="clip0_3_835">
<rect width="22" height="22" fill="white"/>
</clipPath>
</defs>
</svg>
